G04*
G04 #@! TF.GenerationSoftware,Altium Limited,Altium Designer,19.0.12 (326)*
G04*
G04 Layer_Physical_Order=1*
G04 Layer_Color=255*
%FSLAX25Y25*%
%MOIN*%
G70*
G01*
G75*
%ADD12C,0.01000*%
%ADD47R,0.03937X0.05118*%
%ADD48R,0.12402X0.07008*%
%ADD49R,0.09055X0.07874*%
%ADD50R,0.09055X0.05906*%
%ADD51R,0.04724X0.02559*%
%ADD52R,0.05118X0.03937*%
%ADD53R,0.07087X0.07087*%
%ADD54O,0.02559X0.06693*%
%ADD55O,0.06693X0.02559*%
%ADD56O,0.08268X0.02559*%
%ADD57R,0.09843X0.12598*%
%ADD58R,0.14764X0.15748*%
%ADD59R,0.05118X0.11811*%
%ADD60R,0.07087X0.07087*%
%ADD61R,0.09055X0.09055*%
%ADD62R,0.04724X0.05118*%
%ADD63R,0.05512X0.08268*%
%ADD64C,0.02000*%
%ADD65C,0.03000*%
%ADD66C,0.04000*%
%ADD67C,0.01500*%
%ADD68C,0.08000*%
%ADD69C,0.05906*%
%ADD70C,0.05906*%
%ADD71R,0.05906X0.05906*%
%ADD72C,0.10630*%
%ADD73R,0.05906X0.05906*%
%ADD74R,0.05906X0.05906*%
%ADD75C,0.06693*%
%ADD76R,0.06693X0.06693*%
%ADD77C,0.18000*%
%ADD78O,0.06102X0.08661*%
%ADD79C,0.23622*%
%ADD80C,0.05866*%
%ADD81C,0.04100*%
%ADD82C,0.13780*%
%ADD83C,0.09409*%
G36*
X330003Y323034D02*
X328337Y322344D01*
X326483Y321208D01*
X324830Y319796D01*
X323418Y318143D01*
X322282Y316289D01*
X321450Y314281D01*
X320943Y312167D01*
X320772Y310000D01*
X320943Y307833D01*
X321441Y305759D01*
X321475Y305548D01*
X320948Y304759D01*
X319156D01*
Y315321D01*
X318962Y316297D01*
X318409Y317124D01*
X317531Y318002D01*
X316704Y318555D01*
X315728Y318749D01*
X305431D01*
X304455Y318555D01*
X303628Y318002D01*
X302677Y317051D01*
X301753Y317434D01*
Y320046D01*
X288698D01*
Y313746D01*
X285123Y310171D01*
X284570Y309344D01*
X284376Y308368D01*
Y299019D01*
X283376Y298662D01*
X283104Y298993D01*
X281750Y300104D01*
X280206Y300930D01*
X278530Y301438D01*
X276787Y301610D01*
X275045Y301438D01*
X273369Y300930D01*
X271825Y300104D01*
X270471Y298993D01*
X269360Y297640D01*
X268535Y296095D01*
X268026Y294420D01*
X267855Y292677D01*
X268026Y290934D01*
X268535Y289259D01*
X269360Y287714D01*
X270471Y286361D01*
X271825Y285250D01*
X273369Y284424D01*
X275045Y283916D01*
X276787Y283744D01*
X278530Y283916D01*
X280206Y284424D01*
X281750Y285250D01*
X283104Y286361D01*
X283376Y286693D01*
X284376Y286335D01*
Y273785D01*
X279198Y268606D01*
X278645Y267780D01*
X278451Y266804D01*
Y254716D01*
X277451Y254223D01*
X277317Y254326D01*
X276112Y254825D01*
X274819Y254995D01*
X273526Y254825D01*
X272321Y254326D01*
X271287Y253532D01*
X270493Y252498D01*
X269994Y251293D01*
X269823Y250000D01*
X269994Y248707D01*
X270493Y247502D01*
X271287Y246468D01*
X272321Y245674D01*
X273526Y245175D01*
X274819Y245005D01*
X276112Y245175D01*
X277317Y245674D01*
X277451Y245777D01*
X278451Y245284D01*
Y243402D01*
X278110Y243158D01*
X277451Y242963D01*
X276812Y243453D01*
X275851Y243851D01*
X275569Y243888D01*
Y240000D01*
Y236112D01*
X275851Y236149D01*
X276812Y236547D01*
X277131Y236791D01*
X278136Y236376D01*
X278172Y235714D01*
X276940Y234482D01*
X276112Y234825D01*
X274819Y234995D01*
X273526Y234825D01*
X272321Y234326D01*
X271287Y233532D01*
X270493Y232498D01*
X269994Y231293D01*
X269823Y230000D01*
X269994Y228707D01*
X270493Y227502D01*
X270745Y227173D01*
X271148Y226308D01*
X270646Y225729D01*
X268564Y223647D01*
X268011Y222820D01*
X267817Y221844D01*
Y218047D01*
X266817Y217573D01*
X266342Y217938D01*
X265357Y218346D01*
X264300Y218485D01*
X263243Y218346D01*
X262258Y217938D01*
X261696Y217507D01*
X261175Y217855D01*
X260346Y218020D01*
X259773Y218906D01*
X259904Y219322D01*
X260096Y219611D01*
X260124Y219750D01*
X255095D01*
Y220500D01*
X254345D01*
Y222824D01*
X252240D01*
X251351Y222647D01*
X250597Y222143D01*
X250093Y221389D01*
X249916Y220500D01*
X249959Y220284D01*
X249037Y219791D01*
X248676Y220152D01*
X247849Y220705D01*
X246873Y220899D01*
X223015D01*
X222955Y221356D01*
X222624Y222154D01*
X222099Y222839D01*
X221414Y223365D01*
X220616Y223695D01*
X219760Y223808D01*
X214051D01*
X213195Y223695D01*
X212397Y223365D01*
X211712Y222839D01*
X211187Y222154D01*
X210856Y221356D01*
X210743Y220500D01*
X210856Y219644D01*
X211187Y218846D01*
X211712Y218161D01*
Y217839D01*
X211187Y217154D01*
X210856Y216356D01*
X210743Y215500D01*
X210856Y214644D01*
X211187Y213846D01*
X211712Y213161D01*
Y212839D01*
X211187Y212154D01*
X210856Y211356D01*
X210743Y210500D01*
X210856Y209644D01*
X211187Y208846D01*
X211712Y208161D01*
Y207839D01*
X211187Y207154D01*
X210856Y206356D01*
X210788Y205842D01*
X209469Y204523D01*
X208917Y203696D01*
X208723Y202720D01*
Y188828D01*
X207224Y187329D01*
X206800Y187385D01*
X205743Y187246D01*
X204757Y186838D01*
X203911Y186188D01*
X203262Y185343D01*
X202854Y184357D01*
X202715Y183300D01*
X202854Y182243D01*
X203262Y181257D01*
X203911Y180412D01*
X204128Y180245D01*
X204194Y179247D01*
X202898Y177951D01*
X202345Y177124D01*
X202151Y176149D01*
Y157988D01*
X201812Y157728D01*
X201162Y156881D01*
X200754Y155896D01*
X200615Y154839D01*
X200754Y153782D01*
X201162Y152796D01*
X201812Y151951D01*
X202658Y151301D01*
X203643Y150893D01*
X204700Y150754D01*
X205757Y150893D01*
X206743Y151301D01*
X207589Y151951D01*
X208238Y152796D01*
X208646Y153782D01*
X208785Y154839D01*
X208646Y155896D01*
X208238Y156881D01*
X207589Y157728D01*
X207249Y157988D01*
Y175093D01*
X209872Y177716D01*
X211070Y177500D01*
X211213Y177188D01*
X211187Y177154D01*
X210856Y176356D01*
X210743Y175500D01*
X210856Y174644D01*
X211187Y173846D01*
X211712Y173161D01*
X212397Y172635D01*
X213195Y172305D01*
X214051Y172192D01*
X218484D01*
X218977Y171192D01*
X218862Y171043D01*
X218454Y170057D01*
X218315Y169000D01*
X218454Y167943D01*
X218862Y166957D01*
X219512Y166112D01*
X220357Y165462D01*
X221343Y165054D01*
X222400Y164915D01*
X223457Y165054D01*
X224443Y165462D01*
X225289Y166112D01*
X225938Y166957D01*
X226346Y167943D01*
X226485Y169000D01*
X226346Y170057D01*
X225938Y171043D01*
X225716Y171332D01*
X225777Y171657D01*
X226191Y172354D01*
X226957Y172455D01*
X227942Y172863D01*
X228788Y173512D01*
X229438Y174358D01*
X229846Y175344D01*
X229985Y176401D01*
X229846Y177458D01*
X229438Y178444D01*
X228788Y179289D01*
X227942Y179939D01*
X226957Y180347D01*
X225900Y180486D01*
X224843Y180347D01*
X223906Y179959D01*
X223023Y180842D01*
X222955Y181356D01*
X222624Y182154D01*
X222099Y182839D01*
Y183161D01*
X222624Y183846D01*
X222955Y184644D01*
X223068Y185500D01*
X222955Y186356D01*
X223585Y187381D01*
X223697Y187413D01*
X224050Y187325D01*
X227327Y184048D01*
X228154Y183495D01*
X229130Y183301D01*
X232070D01*
X233046Y183495D01*
X233873Y184048D01*
X235952Y186127D01*
X236505Y186954D01*
X236699Y187929D01*
Y191150D01*
X236505Y192125D01*
X235952Y192952D01*
X231629Y197276D01*
X231685Y197700D01*
X231546Y198757D01*
X231138Y199742D01*
X230488Y200588D01*
X229643Y201238D01*
X228657Y201646D01*
X227600Y201785D01*
X226543Y201646D01*
X226034Y201435D01*
X225467Y202283D01*
X229536Y206351D01*
X236651D01*
X236912Y206012D01*
X237757Y205362D01*
X238743Y204954D01*
X239472Y204858D01*
Y203850D01*
X239443Y203846D01*
X238457Y203438D01*
X237612Y202788D01*
X236962Y201942D01*
X236554Y200957D01*
X236415Y199900D01*
X236554Y198843D01*
X236962Y197857D01*
X237612Y197011D01*
X237874Y196810D01*
X238407Y196224D01*
X238115Y195422D01*
X237995Y195242D01*
X237801Y194267D01*
Y181930D01*
X237995Y180954D01*
X238548Y180127D01*
X244901Y173774D01*
Y158601D01*
X243898Y157598D01*
X243345Y156771D01*
X243151Y155796D01*
Y119605D01*
X235420Y111873D01*
X234666Y112534D01*
X234838Y112758D01*
X235246Y113743D01*
X235385Y114800D01*
X235246Y115857D01*
X234838Y116842D01*
X234189Y117689D01*
X233343Y118338D01*
X232357Y118746D01*
X231300Y118885D01*
X230906Y118833D01*
X230620Y119194D01*
X230416Y119777D01*
X230938Y120457D01*
X231346Y121443D01*
X231485Y122500D01*
X231346Y123557D01*
X230938Y124542D01*
X230289Y125389D01*
X229443Y126038D01*
X228457Y126446D01*
X227400Y126585D01*
X226976Y126529D01*
X224328Y129176D01*
X224743Y130176D01*
X227101D01*
X227611Y129511D01*
X228457Y128862D01*
X229443Y128454D01*
X230500Y128315D01*
X231557Y128454D01*
X232542Y128862D01*
X233388Y129511D01*
X234038Y130358D01*
X234446Y131343D01*
X234585Y132400D01*
X234446Y133457D01*
X234038Y134442D01*
X233388Y135289D01*
X232542Y135938D01*
X231557Y136346D01*
X230500Y136485D01*
X229443Y136346D01*
X228457Y135938D01*
X227611Y135289D01*
X227601Y135274D01*
X223320D01*
X222827Y136274D01*
X222828Y136275D01*
X222900Y136370D01*
X223231Y137168D01*
X223295Y137660D01*
X227383Y141747D01*
X227807Y141692D01*
X228865Y141831D01*
X229850Y142239D01*
X230696Y142888D01*
X231345Y143734D01*
X231753Y144719D01*
X231892Y145776D01*
X231753Y146834D01*
X231345Y147819D01*
X230696Y148665D01*
X230496Y148818D01*
X230431Y149816D01*
X233902Y153287D01*
X234455Y154114D01*
X234649Y155090D01*
Y165651D01*
X234988Y165911D01*
X235638Y166758D01*
X236046Y167743D01*
X236185Y168800D01*
X236046Y169857D01*
X235638Y170843D01*
X234988Y171688D01*
X234142Y172338D01*
X233157Y172746D01*
X232100Y172885D01*
X231043Y172746D01*
X230058Y172338D01*
X229211Y171688D01*
X228562Y170843D01*
X228154Y169857D01*
X228015Y168800D01*
X228154Y167743D01*
X228562Y166758D01*
X229093Y166066D01*
X229115Y165429D01*
X228997Y164843D01*
X228557Y164546D01*
X227500Y164685D01*
X226443Y164546D01*
X225458Y164138D01*
X224611Y163488D01*
X223962Y162643D01*
X223554Y161657D01*
X223415Y160600D01*
X223554Y159543D01*
X223962Y158557D01*
X224611Y157712D01*
X224872Y157511D01*
X224912Y156505D01*
X223693Y155286D01*
X222374Y155363D01*
X221689Y155888D01*
X220892Y156219D01*
X220035Y156331D01*
X219730D01*
Y162319D01*
X219536Y163294D01*
X218984Y164121D01*
X217129Y165976D01*
X217185Y166400D01*
X217046Y167457D01*
X216638Y168442D01*
X215988Y169289D01*
X215142Y169938D01*
X214157Y170346D01*
X213100Y170485D01*
X212043Y170346D01*
X211057Y169938D01*
X210211Y169289D01*
X209562Y168442D01*
X209154Y167457D01*
X209015Y166400D01*
X209154Y165343D01*
X209562Y164357D01*
X210211Y163512D01*
X211057Y162862D01*
X212043Y162454D01*
X213100Y162315D01*
X213524Y162371D01*
X214632Y161263D01*
Y156331D01*
X214327D01*
X213471Y156219D01*
X212673Y155888D01*
X211988Y155363D01*
X211462Y154677D01*
X211132Y153880D01*
X211019Y153024D01*
X211132Y152167D01*
X211462Y151370D01*
X211535Y151275D01*
X211908Y150524D01*
X211535Y149772D01*
X211462Y149678D01*
X211132Y148880D01*
X211019Y148024D01*
X211132Y147168D01*
X211462Y146370D01*
X211535Y146275D01*
X211908Y145524D01*
X211535Y144772D01*
X211462Y144677D01*
X211132Y143880D01*
X211019Y143024D01*
X211132Y142167D01*
X211462Y141370D01*
X211535Y141275D01*
X211908Y140524D01*
X211535Y139772D01*
X211462Y139678D01*
X211132Y138880D01*
X211019Y138024D01*
X211132Y137168D01*
X211462Y136370D01*
X211535Y136275D01*
X211908Y135524D01*
X211535Y134772D01*
X211462Y134678D01*
X211132Y133880D01*
X211019Y133024D01*
X211132Y132167D01*
X211462Y131370D01*
X211535Y131275D01*
X211735Y130872D01*
X211361Y130151D01*
X210313Y130047D01*
X209542Y130638D01*
X208557Y131046D01*
X207500Y131185D01*
X206443Y131046D01*
X205457Y130638D01*
X204611Y129989D01*
X203962Y129142D01*
X203554Y128157D01*
X203415Y127100D01*
X203554Y126043D01*
X203611Y125906D01*
X202943Y124906D01*
X202826D01*
Y116969D01*
X203674D01*
X203826Y116032D01*
X203826Y115969D01*
Y113813D01*
X207385D01*
Y113063D01*
X208135D01*
Y110094D01*
X210945D01*
Y110402D01*
X211945Y110741D01*
X211988Y110685D01*
X212183Y110535D01*
X212577Y109852D01*
X212372Y109201D01*
X212179Y108913D01*
X212152Y108774D01*
X217181D01*
Y108024D01*
X217931D01*
Y105699D01*
X220035D01*
X220925Y105876D01*
X221679Y106380D01*
X222513Y106462D01*
X223227Y105748D01*
X224054Y105195D01*
X225030Y105001D01*
X234701D01*
X235677Y105195D01*
X236504Y105748D01*
X238967Y108211D01*
X239815Y107644D01*
X239654Y107257D01*
X239515Y106200D01*
X239654Y105143D01*
X240062Y104157D01*
X240711Y103312D01*
X241558Y102662D01*
X242543Y102254D01*
X243600Y102115D01*
X244657Y102254D01*
X245642Y102662D01*
X246488Y103312D01*
X247138Y104157D01*
X247546Y105143D01*
X247589Y105475D01*
X250450D01*
X250862Y105159D01*
X251660Y104829D01*
X252516Y104716D01*
X258224D01*
X259081Y104829D01*
X259878Y105159D01*
X260563Y105685D01*
X261882Y105761D01*
X267817Y99826D01*
Y94453D01*
X267886Y94105D01*
X267148Y93106D01*
X264254D01*
Y94131D01*
X264206Y94378D01*
Y100159D01*
X248394D01*
Y91359D01*
X244094D01*
Y89349D01*
X229598D01*
X218598Y100350D01*
X217771Y100902D01*
X216795Y101096D01*
X210879D01*
Y103350D01*
X201792D01*
Y101096D01*
X195343D01*
Y109643D01*
X184257D01*
Y105549D01*
X182787D01*
X182032Y106532D01*
X180998Y107326D01*
X179793Y107825D01*
X178500Y107995D01*
X177207Y107825D01*
X176002Y107326D01*
X174968Y106532D01*
X174174Y105498D01*
X174041Y105178D01*
X172959D01*
X172826Y105498D01*
X172032Y106532D01*
X170998Y107326D01*
X169793Y107825D01*
X168500Y107995D01*
X167207Y107825D01*
X166002Y107326D01*
X164968Y106532D01*
X164174Y105498D01*
X164041Y105178D01*
X162959D01*
X162826Y105498D01*
X162032Y106532D01*
X160998Y107326D01*
X159793Y107825D01*
X158500Y107995D01*
X157207Y107825D01*
X156002Y107326D01*
X154968Y106532D01*
X154174Y105498D01*
X154041Y105178D01*
X152959D01*
X152826Y105498D01*
X152032Y106532D01*
X150998Y107326D01*
X149793Y107825D01*
X148500Y107995D01*
X147207Y107825D01*
X146002Y107326D01*
X144968Y106532D01*
X144174Y105498D01*
X144041Y105178D01*
X142959D01*
X142826Y105498D01*
X142032Y106532D01*
X140998Y107326D01*
X139793Y107825D01*
X138500Y107995D01*
X137207Y107825D01*
X136002Y107326D01*
X134968Y106532D01*
X134174Y105498D01*
X133675Y104293D01*
X133504Y103000D01*
X133675Y101707D01*
X134174Y100502D01*
X134485Y100096D01*
X133992Y99096D01*
X88435D01*
X87596Y98930D01*
X87239Y99062D01*
X86597Y99528D01*
Y103881D01*
X87580Y104635D01*
X88374Y105670D01*
X88873Y106875D01*
X89043Y108168D01*
X88873Y109461D01*
X88374Y110665D01*
X87580Y111700D01*
X86545Y112494D01*
X86225Y112627D01*
Y113709D01*
X86545Y113841D01*
X87580Y114635D01*
X88374Y115670D01*
X88873Y116875D01*
X89043Y118168D01*
X88922Y119085D01*
X90803Y120966D01*
X108763D01*
X109432Y119966D01*
X109222Y119461D01*
X109052Y118168D01*
X109222Y116875D01*
X109721Y115670D01*
X110515Y114635D01*
X111550Y113841D01*
X112754Y113342D01*
X114048Y113172D01*
X115340Y113342D01*
X116545Y113841D01*
X117580Y114635D01*
X118374Y115670D01*
X118873Y116875D01*
X119043Y118168D01*
X118922Y119085D01*
X128919Y129082D01*
X129472Y129909D01*
X129666Y130884D01*
Y137248D01*
X133159D01*
Y138581D01*
X134159Y139251D01*
X134609Y139192D01*
X138743D01*
X139599Y139305D01*
X140397Y139635D01*
X141082Y140161D01*
X141608Y140846D01*
X141938Y141644D01*
X142006Y142158D01*
X142532Y142683D01*
X143084Y143510D01*
X143278Y144486D01*
Y145514D01*
X143084Y146490D01*
X142532Y147317D01*
X142006Y147842D01*
X141938Y148356D01*
X141608Y149154D01*
X141535Y149248D01*
X141162Y150000D01*
X141535Y150752D01*
X141608Y150846D01*
X141938Y151644D01*
X142019Y152254D01*
X142702Y152832D01*
X142923Y152944D01*
X143001Y152947D01*
X144000Y152815D01*
X145057Y152954D01*
X146043Y153362D01*
X146888Y154011D01*
X147041Y154211D01*
X148039Y154276D01*
X151618Y150698D01*
X152445Y150145D01*
X153180Y149999D01*
X153555Y149481D01*
X153556Y149479D01*
X153708Y148951D01*
X153462Y148356D01*
X153361Y147592D01*
X152998Y147228D01*
X152445Y146401D01*
X152251Y145426D01*
Y144300D01*
X152445Y143324D01*
X152998Y142498D01*
X153402Y142093D01*
X153462Y141644D01*
X153792Y140846D01*
X154318Y140161D01*
X155003Y139635D01*
X155801Y139305D01*
X155951Y139285D01*
Y137287D01*
X154968Y136532D01*
X154174Y135498D01*
X154041Y135178D01*
X152959D01*
X152826Y135498D01*
X152032Y136532D01*
X150998Y137326D01*
X149793Y137825D01*
X148500Y137996D01*
X147207Y137825D01*
X146002Y137326D01*
X144968Y136532D01*
X144174Y135498D01*
X144041Y135178D01*
X142959D01*
X142826Y135498D01*
X142032Y136532D01*
X140998Y137326D01*
X139793Y137825D01*
X138500Y137996D01*
X137207Y137825D01*
X136002Y137326D01*
X134968Y136532D01*
X134174Y135498D01*
X133675Y134293D01*
X133504Y133000D01*
X133675Y131707D01*
X134174Y130502D01*
X134968Y129468D01*
X136002Y128674D01*
X137207Y128175D01*
X138500Y128005D01*
X139793Y128175D01*
X140998Y128674D01*
X142032Y129468D01*
X142826Y130502D01*
X142959Y130822D01*
X144041D01*
X144174Y130502D01*
X144968Y129468D01*
X146002Y128674D01*
X147207Y128175D01*
X148500Y128005D01*
X149793Y128175D01*
X150998Y128674D01*
X152032Y129468D01*
X152826Y130502D01*
X152959Y130822D01*
X154041D01*
X154174Y130502D01*
X154968Y129468D01*
X156002Y128674D01*
X157207Y128175D01*
X158500Y128005D01*
X159793Y128175D01*
X160998Y128674D01*
X162032Y129468D01*
X162826Y130502D01*
X162959Y130822D01*
X164041D01*
X164174Y130502D01*
X164968Y129468D01*
X166002Y128674D01*
X167207Y128175D01*
X168500Y128005D01*
X169793Y128175D01*
X170998Y128674D01*
X172032Y129468D01*
X172826Y130502D01*
X173325Y131707D01*
X173495Y133000D01*
X173325Y134293D01*
X172826Y135498D01*
X172793Y135541D01*
X173286Y136541D01*
X174547D01*
Y133750D01*
X178500D01*
X182453D01*
Y136541D01*
X185119D01*
Y145659D01*
X185106D01*
Y150541D01*
Y157541D01*
X185143D01*
Y166659D01*
X185143Y166659D01*
X185143D01*
X185111Y167659D01*
X185146Y167743D01*
X185285Y168800D01*
X185146Y169857D01*
X184738Y170843D01*
X184089Y171688D01*
X183242Y172338D01*
X182257Y172746D01*
X181200Y172885D01*
X180143Y172746D01*
X179157Y172338D01*
X178312Y171688D01*
X177662Y170843D01*
X177254Y169857D01*
X177249Y169819D01*
X176783Y169551D01*
X176187Y169412D01*
X175524Y169855D01*
X174549Y170049D01*
X164304D01*
X164012Y170408D01*
X163739Y171049D01*
X163986Y171644D01*
X164098Y172500D01*
X163986Y173356D01*
X163655Y174154D01*
X163129Y174839D01*
X162444Y175365D01*
X161647Y175695D01*
X160791Y175808D01*
X156657D01*
X155801Y175695D01*
X155003Y175365D01*
X154318Y174839D01*
X153792Y174154D01*
X153462Y173356D01*
X153394Y172842D01*
X152798Y172246D01*
X152245Y171419D01*
X152051Y170443D01*
Y169400D01*
X152245Y168424D01*
X152798Y167598D01*
X153418Y166978D01*
X153462Y166644D01*
X153792Y165846D01*
X153865Y165752D01*
X154238Y165000D01*
X153865Y164248D01*
X153792Y164154D01*
X153462Y163356D01*
X153349Y162500D01*
X153462Y161644D01*
X153792Y160846D01*
X154318Y160161D01*
X154513Y160012D01*
X154906Y159329D01*
X154702Y158677D01*
X154509Y158389D01*
X154482Y158250D01*
X158724D01*
X162966D01*
X162938Y158389D01*
X162745Y158677D01*
X162608Y159116D01*
X163088Y159779D01*
X164124Y159792D01*
X164304Y159561D01*
X164558Y158951D01*
X164329Y158396D01*
X164322Y158350D01*
X167300D01*
Y157600D01*
X168050D01*
Y154622D01*
X168096Y154629D01*
X168295Y154711D01*
X169295Y154086D01*
Y150541D01*
Y147372D01*
X165027Y143105D01*
X164281Y143285D01*
X163950Y143442D01*
X163655Y144154D01*
X163583Y144248D01*
X163209Y145000D01*
X163583Y145752D01*
X163655Y145846D01*
X163986Y146644D01*
X164098Y147500D01*
X163986Y148356D01*
X163655Y149154D01*
X163583Y149248D01*
X163209Y150000D01*
X163583Y150752D01*
X163655Y150846D01*
X163986Y151644D01*
X164098Y152500D01*
X163986Y153356D01*
X163655Y154154D01*
X163129Y154839D01*
X162935Y154988D01*
X162541Y155671D01*
X162745Y156323D01*
X162938Y156611D01*
X162966Y156750D01*
X158724D01*
X154482D01*
X154509Y156611D01*
X154702Y156323D01*
X154741Y156199D01*
X153998Y155528D01*
X146247Y163278D01*
Y190757D01*
X152108D01*
Y201843D01*
X146272D01*
Y207668D01*
X149596Y210991D01*
X164365D01*
X165341Y211185D01*
X166168Y211738D01*
X172739Y218309D01*
X172894Y218541D01*
X174890D01*
Y226627D01*
X175771Y227509D01*
X177000Y227347D01*
X178293Y227517D01*
X179498Y228016D01*
X180532Y228810D01*
X181326Y229845D01*
X181459Y230165D01*
X182541D01*
X182674Y229845D01*
X183468Y228810D01*
X184502Y228016D01*
X185707Y227517D01*
X187000Y227347D01*
X188293Y227517D01*
X189498Y228016D01*
X190532Y228810D01*
X191326Y229845D01*
X191459Y230165D01*
X192541D01*
X192674Y229845D01*
X193468Y228810D01*
X194502Y228016D01*
X195707Y227517D01*
X197000Y227347D01*
X198293Y227517D01*
X199498Y228016D01*
X200532Y228810D01*
X201326Y229845D01*
X201825Y231050D01*
X201995Y232343D01*
X201825Y233635D01*
X201326Y234840D01*
X200532Y235875D01*
X199498Y236669D01*
X198293Y237168D01*
X197000Y237338D01*
X195707Y237168D01*
X194502Y236669D01*
X193468Y235875D01*
X193376Y235869D01*
X190647Y238598D01*
X189820Y239150D01*
X188844Y239344D01*
X175156D01*
X174180Y239150D01*
X173353Y238598D01*
X170624Y235869D01*
X170532Y235875D01*
X169498Y236669D01*
X168293Y237168D01*
X167000Y237338D01*
X165707Y237168D01*
X164502Y236669D01*
X163468Y235875D01*
X162674Y234840D01*
X162541Y234520D01*
X161459D01*
X161326Y234840D01*
X160532Y235875D01*
X159498Y236669D01*
X158293Y237168D01*
X157000Y237338D01*
X155707Y237168D01*
X154502Y236669D01*
X153468Y235875D01*
X152674Y234840D01*
X152175Y233635D01*
X152005Y232343D01*
X152175Y231050D01*
X152674Y229845D01*
X153468Y228810D01*
X154502Y228016D01*
X155707Y227517D01*
X157000Y227347D01*
X158229Y227509D01*
X159079Y226659D01*
Y221783D01*
X157384Y220089D01*
X146680D01*
X146272Y220497D01*
Y227979D01*
X143091D01*
X142833Y228363D01*
X142662Y228979D01*
X143326Y229845D01*
X143825Y231050D01*
X143995Y232343D01*
X143825Y233635D01*
X143326Y234840D01*
X142532Y235875D01*
X141498Y236669D01*
X140293Y237168D01*
X139000Y237338D01*
X137707Y237168D01*
X136502Y236669D01*
X135468Y235875D01*
X134674Y234840D01*
X134641Y234761D01*
X134322Y234698D01*
X134158Y234588D01*
X133326Y234840D01*
X132532Y235875D01*
X131498Y236669D01*
X130293Y237168D01*
X129000Y237338D01*
X127707Y237168D01*
X126502Y236669D01*
X125468Y235875D01*
X124674Y234840D01*
X124541Y234520D01*
X123459D01*
X123326Y234840D01*
X122532Y235875D01*
X121498Y236669D01*
X120293Y237168D01*
X119000Y237338D01*
X117707Y237168D01*
X116502Y236669D01*
X115468Y235875D01*
X114674Y234840D01*
X114541Y234520D01*
X113459D01*
X113326Y234840D01*
X112532Y235875D01*
X111498Y236669D01*
X110293Y237168D01*
X109000Y237338D01*
X107707Y237168D01*
X106502Y236669D01*
X105468Y235875D01*
X104674Y234840D01*
X104541Y234520D01*
X103459D01*
X103326Y234840D01*
X102532Y235875D01*
X101498Y236669D01*
X100293Y237168D01*
X99000Y237338D01*
X97707Y237168D01*
X96502Y236669D01*
X95468Y235875D01*
X94674Y234840D01*
X94175Y233635D01*
X94004Y232343D01*
X94175Y231050D01*
X94674Y229845D01*
X95468Y228810D01*
X96502Y228016D01*
X97707Y227517D01*
X99000Y227347D01*
X100293Y227517D01*
X101498Y228016D01*
X102532Y228810D01*
X103326Y229845D01*
X103459Y230165D01*
X104541D01*
X104674Y229845D01*
X105468Y228810D01*
X106502Y228016D01*
X107707Y227517D01*
X109000Y227347D01*
X110293Y227517D01*
X111498Y228016D01*
X112532Y228810D01*
X113326Y229845D01*
X113459Y230165D01*
X114541D01*
X114674Y229845D01*
X115468Y228810D01*
X116502Y228016D01*
X117707Y227517D01*
X119000Y227347D01*
X120229Y227509D01*
X123889Y223849D01*
Y222560D01*
X117738D01*
Y219606D01*
X116771Y218639D01*
X114245D01*
X113269Y218445D01*
X112442Y217893D01*
X99392Y204842D01*
X98839Y204015D01*
X98646Y203040D01*
Y195020D01*
X98839Y194044D01*
X99392Y193217D01*
X100271Y192339D01*
X100278Y192334D01*
X100695Y191917D01*
Y186204D01*
X101551D01*
Y174749D01*
X101212Y174488D01*
X100562Y173643D01*
X100154Y172657D01*
X100015Y171600D01*
X100154Y170543D01*
X100562Y169557D01*
X101212Y168711D01*
X102058Y168062D01*
X103043Y167654D01*
X104100Y167515D01*
X105157Y167654D01*
X106142Y168062D01*
X106989Y168711D01*
X107638Y169557D01*
X108046Y170543D01*
X108125Y171143D01*
X109100Y171015D01*
X110157Y171154D01*
X111143Y171562D01*
X111988Y172212D01*
X112638Y173057D01*
X113046Y174043D01*
X113185Y175100D01*
X113046Y176157D01*
X112638Y177143D01*
X111988Y177989D01*
X111618Y178273D01*
Y186204D01*
X114429D01*
Y185159D01*
X125516D01*
Y196246D01*
X124938D01*
Y197253D01*
X125938Y197668D01*
X130965Y192641D01*
Y185159D01*
X130965D01*
Y184746D01*
X130965D01*
Y173659D01*
X130965Y173659D01*
X131085Y173054D01*
X130354Y172208D01*
X119236D01*
X118261Y172014D01*
X117434Y171461D01*
X114498Y168525D01*
X113945Y167698D01*
X113751Y166723D01*
Y157773D01*
X107792Y151814D01*
X107240Y150988D01*
X107046Y150012D01*
Y136323D01*
X107240Y135348D01*
X107792Y134521D01*
X110521Y131792D01*
X110515Y131700D01*
X109721Y130665D01*
X109222Y129461D01*
X109052Y128168D01*
X109197Y127064D01*
X108679Y126064D01*
X89747D01*
X89608Y126036D01*
X88873Y126875D01*
X89043Y128168D01*
X88873Y129461D01*
X88374Y130665D01*
X87580Y131700D01*
X86545Y132494D01*
X86225Y132626D01*
Y133709D01*
X86545Y133841D01*
X87580Y134635D01*
X88374Y135670D01*
X88873Y136875D01*
X89043Y138168D01*
X88873Y139461D01*
X88374Y140665D01*
X87580Y141700D01*
X86545Y142494D01*
X86225Y142627D01*
Y143709D01*
X86545Y143841D01*
X87580Y144635D01*
X88374Y145670D01*
X88873Y146875D01*
X89043Y148168D01*
X88873Y149461D01*
X88374Y150665D01*
X87580Y151700D01*
X86545Y152494D01*
X85340Y152993D01*
X84048Y153163D01*
X82754Y152993D01*
X81550Y152494D01*
X80515Y151700D01*
X80127Y151194D01*
X77160D01*
X75659Y152694D01*
Y156942D01*
X71411D01*
X70872Y157481D01*
Y164654D01*
X70872Y164654D01*
X70769Y165437D01*
X70467Y166166D01*
X69986Y166793D01*
X69986Y166793D01*
X67763Y169016D01*
X67893Y170000D01*
X67709Y171396D01*
X67170Y172696D01*
X66313Y173813D01*
X65554Y174396D01*
X65483Y174581D01*
Y175419D01*
X65554Y175604D01*
X66313Y176187D01*
X67170Y177304D01*
X67709Y178604D01*
X67893Y180000D01*
X67709Y181396D01*
X67170Y182696D01*
X66313Y183813D01*
X65554Y184396D01*
X65483Y184581D01*
Y185419D01*
X65554Y185604D01*
X66313Y186187D01*
X67170Y187304D01*
X67709Y188604D01*
X67893Y190000D01*
X67709Y191396D01*
X67170Y192696D01*
X66313Y193813D01*
X65554Y194396D01*
X65483Y194581D01*
Y195419D01*
X65554Y195604D01*
X66313Y196187D01*
X67170Y197304D01*
X67709Y198604D01*
X67893Y200000D01*
X67709Y201396D01*
X67170Y202696D01*
X66436Y203654D01*
X66705Y204654D01*
X67847D01*
Y215347D01*
X61066D01*
X60651Y216347D01*
X66676Y222371D01*
X67100Y222315D01*
X68157Y222454D01*
X69143Y222862D01*
X69989Y223512D01*
X70638Y224358D01*
X71046Y225343D01*
X71185Y226400D01*
X71046Y227457D01*
X70638Y228443D01*
X69989Y229289D01*
X69143Y229938D01*
X68157Y230346D01*
X67100Y230485D01*
X66043Y230346D01*
X65057Y229938D01*
X63892Y230304D01*
X63688Y230568D01*
X62843Y231217D01*
X61857Y231625D01*
X60800Y231765D01*
X59743Y231625D01*
X58758Y231217D01*
X57911Y230568D01*
X57515Y230051D01*
X56498Y229783D01*
X56215Y229806D01*
X56042Y229938D01*
X55057Y230346D01*
X54000Y230485D01*
X52943Y230346D01*
X52171Y230026D01*
X51477Y230272D01*
X51095Y230537D01*
X51053Y230857D01*
X50645Y231842D01*
X50133Y232509D01*
Y239872D01*
X52030D01*
Y252928D01*
X38975D01*
Y239872D01*
X44082D01*
Y232509D01*
X43570Y231842D01*
X43162Y230857D01*
X43023Y229800D01*
X43162Y228743D01*
X43570Y227758D01*
X44219Y226911D01*
X44558Y226651D01*
Y221168D01*
X43809Y220487D01*
X42715Y220663D01*
X42388Y221089D01*
X41543Y221738D01*
X40557Y222146D01*
X39500Y222285D01*
X38443Y222146D01*
X37659Y221821D01*
X37020Y222092D01*
X36659Y222386D01*
Y224342D01*
X27541D01*
Y216406D01*
Y210459D01*
X25938D01*
Y201341D01*
Y194241D01*
X27541D01*
Y188406D01*
Y180532D01*
X36659D01*
Y180532D01*
X37659Y180913D01*
X38043Y180754D01*
X39100Y180615D01*
X39275Y180638D01*
X40275Y179761D01*
Y174625D01*
X39459Y174179D01*
X36650D01*
Y171211D01*
X35900D01*
Y170461D01*
X32341D01*
Y169870D01*
X31854Y169545D01*
X30038Y167729D01*
X29486Y166902D01*
X29292Y165927D01*
Y136247D01*
X29486Y135272D01*
X30038Y134445D01*
X31854Y132629D01*
X32681Y132077D01*
X33341Y131945D01*
Y131713D01*
X36900D01*
Y130963D01*
X37650D01*
Y127995D01*
X40459D01*
Y129141D01*
X41383Y129524D01*
X46164Y124743D01*
X45782Y123819D01*
X39241D01*
Y115882D01*
Y108008D01*
X42251D01*
Y87506D01*
X38941D01*
Y79568D01*
Y71694D01*
X46397D01*
X47199Y70695D01*
X47107Y70000D01*
X47291Y68604D01*
X47830Y67304D01*
X48687Y66187D01*
X49446Y65604D01*
X49517Y65419D01*
Y64581D01*
X49446Y64396D01*
X48687Y63813D01*
X47830Y62696D01*
X47291Y61396D01*
X47107Y60000D01*
X47291Y58604D01*
X47830Y57304D01*
X48687Y56187D01*
X49446Y55604D01*
X49517Y55419D01*
Y54581D01*
X49446Y54396D01*
X48687Y53813D01*
X47830Y52696D01*
X47291Y51396D01*
X47107Y50000D01*
X47291Y48604D01*
X47830Y47304D01*
X48687Y46187D01*
X49446Y45604D01*
X49517Y45419D01*
Y44581D01*
X49446Y44396D01*
X48687Y43813D01*
X47830Y42696D01*
X47291Y41396D01*
X47107Y40000D01*
X47291Y38604D01*
X47830Y37304D01*
X48687Y36187D01*
X49446Y35604D01*
X49517Y35419D01*
Y34581D01*
X49446Y34396D01*
X48687Y33813D01*
X47830Y32696D01*
X47291Y31396D01*
X47107Y30000D01*
X47291Y28604D01*
X47830Y27304D01*
X48687Y26187D01*
X49804Y25330D01*
X51104Y24791D01*
X52500Y24607D01*
X53896Y24791D01*
X55196Y25330D01*
X56313Y26187D01*
X56896Y26946D01*
X57081Y27017D01*
X57919D01*
X58104Y26946D01*
X58687Y26187D01*
X59804Y25330D01*
X61104Y24791D01*
X62500Y24607D01*
X63896Y24791D01*
X65196Y25330D01*
X66313Y26187D01*
X67170Y27304D01*
X67709Y28604D01*
X67893Y30000D01*
X67709Y31396D01*
X67170Y32696D01*
X66313Y33813D01*
X65554Y34396D01*
X65483Y34581D01*
Y35419D01*
X65554Y35604D01*
X66313Y36187D01*
X67170Y37304D01*
X67709Y38604D01*
X67893Y40000D01*
X67709Y41396D01*
X67170Y42696D01*
X66313Y43813D01*
X65554Y44396D01*
X65483Y44581D01*
Y45419D01*
X65554Y45604D01*
X66313Y46187D01*
X67170Y47304D01*
X67709Y48604D01*
X67893Y50000D01*
X67709Y51396D01*
X67170Y52696D01*
X66313Y53813D01*
X65554Y54396D01*
X65483Y54581D01*
Y55419D01*
X65554Y55604D01*
X66313Y56187D01*
X67170Y57304D01*
X67709Y58604D01*
X67893Y60000D01*
X67709Y61396D01*
X67170Y62696D01*
X66313Y63813D01*
X65554Y64396D01*
X65483Y64581D01*
Y65419D01*
X65554Y65604D01*
X66313Y66187D01*
X67170Y67304D01*
X67709Y68604D01*
X67893Y70000D01*
X67709Y71396D01*
X67555Y71768D01*
X71149Y75362D01*
X71701Y76189D01*
X71895Y77164D01*
Y83112D01*
X77355Y88572D01*
X85836D01*
X86812Y88766D01*
X87639Y89318D01*
X90319Y91998D01*
X214083D01*
X244889Y61192D01*
X245716Y60640D01*
X246691Y60445D01*
X267076D01*
X268051Y60640D01*
X268878Y61192D01*
X269866Y62180D01*
X270866Y62014D01*
Y60750D01*
X274819D01*
X278772D01*
Y62230D01*
X279772Y62270D01*
X288488Y53554D01*
X287830Y52696D01*
X287291Y51396D01*
X287107Y50000D01*
X287291Y48604D01*
X287830Y47304D01*
X288687Y46187D01*
X289446Y45604D01*
X289517Y45419D01*
Y44581D01*
X289446Y44396D01*
X288687Y43813D01*
X287830Y42696D01*
X287291Y41396D01*
X287107Y40000D01*
X287291Y38604D01*
X287830Y37304D01*
X288687Y36187D01*
X289446Y35604D01*
X289517Y35419D01*
Y34581D01*
X289446Y34396D01*
X288687Y33813D01*
X287830Y32696D01*
X287291Y31396D01*
X287107Y30000D01*
X287291Y28604D01*
X287830Y27304D01*
X288687Y26187D01*
X289804Y25330D01*
X291104Y24791D01*
X292500Y24607D01*
X293896Y24791D01*
X295196Y25330D01*
X296313Y26187D01*
X296896Y26946D01*
X297081Y27017D01*
X297919D01*
X298104Y26946D01*
X298687Y26187D01*
X299804Y25330D01*
X301104Y24791D01*
X302500Y24607D01*
X303896Y24791D01*
X305196Y25330D01*
X306313Y26187D01*
X307170Y27304D01*
X307709Y28604D01*
X307893Y30000D01*
X307709Y31396D01*
X307170Y32696D01*
X306313Y33813D01*
X305554Y34396D01*
X305483Y34581D01*
Y35419D01*
X305554Y35604D01*
X306313Y36187D01*
X307170Y37304D01*
X307709Y38604D01*
X307893Y40000D01*
X307709Y41396D01*
X307170Y42696D01*
X306313Y43813D01*
X305554Y44396D01*
X305483Y44581D01*
Y45419D01*
X305554Y45604D01*
X306313Y46187D01*
X306619Y46585D01*
X307617Y46651D01*
X310841Y43427D01*
Y39094D01*
X318886D01*
Y31453D01*
X325230D01*
X325599Y30453D01*
X324830Y29796D01*
X323418Y28143D01*
X322282Y26289D01*
X321450Y24281D01*
X320943Y22167D01*
X320772Y20000D01*
X320943Y17833D01*
X321450Y15719D01*
X322282Y13711D01*
X323418Y11857D01*
X324830Y10204D01*
X326483Y8792D01*
X328337Y7656D01*
X330003Y6966D01*
X329805Y5966D01*
X217078D01*
Y18198D01*
X142100D01*
Y5966D01*
X24821D01*
X24622Y6966D01*
X26289Y7656D01*
X28143Y8792D01*
X29796Y10204D01*
X31208Y11857D01*
X32344Y13711D01*
X33176Y15719D01*
X33683Y17833D01*
X33854Y20000D01*
X33683Y22167D01*
X33176Y24281D01*
X32344Y26289D01*
X31208Y28143D01*
X29796Y29796D01*
X28143Y31208D01*
X26289Y32344D01*
X24281Y33176D01*
X22167Y33683D01*
X20000Y33854D01*
X17833Y33683D01*
X15719Y33176D01*
X13711Y32344D01*
X11857Y31208D01*
X10204Y29796D01*
X8792Y28143D01*
X7656Y26289D01*
X6966Y24622D01*
X5966Y24821D01*
Y305179D01*
X6966Y305378D01*
X7656Y303711D01*
X8792Y301857D01*
X10204Y300204D01*
X11857Y298792D01*
X13711Y297656D01*
X15719Y296824D01*
X17833Y296317D01*
X20000Y296146D01*
X22101Y296312D01*
X22407Y296036D01*
X22786Y295515D01*
X22669Y295324D01*
X22006Y293725D01*
X21602Y292041D01*
X21466Y290315D01*
X21602Y288589D01*
X22006Y286905D01*
X22669Y285306D01*
X23573Y283829D01*
X24698Y282513D01*
X26014Y281388D01*
X27491Y280484D01*
X29090Y279821D01*
X30774Y279417D01*
X32500Y279281D01*
X34226Y279417D01*
X35910Y279821D01*
X37509Y280484D01*
X38986Y281388D01*
X40302Y282513D01*
X41427Y283829D01*
X42331Y285306D01*
X42994Y286905D01*
X43398Y288589D01*
X43534Y290315D01*
X43398Y292041D01*
X42994Y293725D01*
X42331Y295324D01*
X41427Y296801D01*
X40302Y298117D01*
X38986Y299242D01*
X37509Y300146D01*
X35910Y300809D01*
X34226Y301213D01*
X32500Y301349D01*
X32030Y301312D01*
X31461Y302270D01*
X32344Y303711D01*
X33176Y305719D01*
X33683Y307833D01*
X33854Y310000D01*
X33683Y312167D01*
X33176Y314281D01*
X32344Y316289D01*
X31208Y318143D01*
X29796Y319796D01*
X28143Y321208D01*
X26289Y322344D01*
X24622Y323034D01*
X24821Y324034D01*
X134947D01*
Y318952D01*
X129456Y313461D01*
X128175Y313594D01*
X127698Y314175D01*
X126584Y315090D01*
X125313Y315769D01*
X123934Y316187D01*
X122500Y316328D01*
X121066Y316187D01*
X119687Y315769D01*
X118416Y315090D01*
X117303Y314175D01*
X116388Y313062D01*
X115709Y311791D01*
X115291Y310412D01*
X115150Y308978D01*
X115291Y307544D01*
X115709Y306165D01*
X116388Y304894D01*
X117303Y303781D01*
X118416Y302866D01*
X119687Y302187D01*
X119951Y302107D01*
Y293461D01*
X115589Y289098D01*
X114409Y289333D01*
X114211Y289812D01*
X113420Y290843D01*
X112389Y291633D01*
X111189Y292130D01*
X109902Y292300D01*
X108614Y292130D01*
X107414Y291633D01*
X106383Y290843D01*
X105593Y289812D01*
X105096Y288612D01*
X104926Y287324D01*
X105096Y286037D01*
X105593Y284837D01*
X106383Y283806D01*
X107414Y283015D01*
X108614Y282518D01*
X109902Y282349D01*
X110955Y282487D01*
X111955Y281893D01*
Y267518D01*
X110955Y266894D01*
X110293Y267168D01*
X109000Y267338D01*
X107707Y267168D01*
X106502Y266669D01*
X105468Y265875D01*
X104674Y264840D01*
X104541Y264520D01*
X103459D01*
X103326Y264840D01*
X102532Y265875D01*
X101498Y266669D01*
X100293Y267168D01*
X99000Y267338D01*
X97707Y267168D01*
X96502Y266669D01*
X95468Y265875D01*
X94674Y264840D01*
X94175Y263635D01*
X94004Y262343D01*
X94175Y261050D01*
X94674Y259845D01*
X95468Y258810D01*
X96502Y258016D01*
X97707Y257517D01*
X99000Y257347D01*
X100293Y257517D01*
X101498Y258016D01*
X102532Y258810D01*
X103326Y259845D01*
X103459Y260165D01*
X104541D01*
X104674Y259845D01*
X105468Y258810D01*
X106502Y258016D01*
X107707Y257517D01*
X109000Y257347D01*
X110293Y257517D01*
X111498Y258016D01*
X112532Y258810D01*
X113326Y259845D01*
X113459Y260165D01*
X114541D01*
X114674Y259845D01*
X115468Y258810D01*
X116502Y258016D01*
X117707Y257517D01*
X119000Y257347D01*
X120293Y257517D01*
X121498Y258016D01*
X122532Y258810D01*
X123326Y259845D01*
X123459Y260165D01*
X124541D01*
X124674Y259845D01*
X125468Y258810D01*
X126502Y258016D01*
X127707Y257517D01*
X129000Y257347D01*
X130293Y257517D01*
X131498Y258016D01*
X132532Y258810D01*
X133326Y259845D01*
X133825Y261050D01*
X133995Y262343D01*
X133825Y263635D01*
X133326Y264840D01*
X132532Y265875D01*
X131498Y266669D01*
X130293Y267168D01*
X129000Y267338D01*
X127707Y267168D01*
X126502Y266669D01*
X125468Y265875D01*
X124674Y264840D01*
X124541Y264520D01*
X123459D01*
X123326Y264840D01*
X122532Y265875D01*
X121498Y266669D01*
X120293Y267168D01*
X119000Y267338D01*
X117771Y267176D01*
X117053Y267894D01*
Y270334D01*
X118053Y270933D01*
X118506Y270691D01*
X119885Y270273D01*
X121319Y270131D01*
X122753Y270273D01*
X124132Y270691D01*
X125402Y271370D01*
X126516Y272284D01*
X127430Y273398D01*
X128110Y274669D01*
X128528Y276048D01*
X128669Y277482D01*
X128528Y278916D01*
X128110Y280295D01*
X127430Y281565D01*
X126516Y282679D01*
X125402Y283594D01*
X124132Y284273D01*
X122753Y284691D01*
X121319Y284832D01*
X119885Y284691D01*
X119770Y284656D01*
X119240Y285541D01*
X124302Y290602D01*
X124855Y291429D01*
X125049Y292405D01*
Y302107D01*
X125313Y302187D01*
X126584Y302866D01*
X127698Y303781D01*
X128612Y304894D01*
X129291Y306165D01*
X129612Y307225D01*
X130290Y307360D01*
X131117Y307913D01*
X134188Y310983D01*
X135006Y310527D01*
X135069Y310450D01*
X134905Y309200D01*
X135075Y307907D01*
X135574Y306702D01*
X136368Y305668D01*
X137402Y304874D01*
X138607Y304375D01*
X139900Y304205D01*
X141193Y304375D01*
X142398Y304874D01*
X143432Y305668D01*
X143947Y306339D01*
X144947Y305999D01*
Y304247D01*
X154853D01*
Y314153D01*
X144947D01*
Y312401D01*
X143947Y312061D01*
X143432Y312732D01*
X142398Y313526D01*
X141193Y314025D01*
X139900Y314195D01*
X139390Y314128D01*
X138809Y315060D01*
X139000Y315347D01*
X144853D01*
Y317099D01*
X145853Y317439D01*
X146368Y316768D01*
X147402Y315974D01*
X148607Y315475D01*
X149900Y315304D01*
X151193Y315475D01*
X152398Y315974D01*
X153432Y316768D01*
X154187Y317751D01*
X173158D01*
X173827Y316751D01*
X173595Y316193D01*
X173426Y314906D01*
X173595Y313618D01*
X174092Y312418D01*
X174883Y311387D01*
X175914Y310596D01*
X177114Y310099D01*
X178402Y309930D01*
X179689Y310099D01*
X180889Y310596D01*
X181920Y311387D01*
X182711Y312418D01*
X183208Y313618D01*
X183377Y314906D01*
X183208Y316193D01*
X182977Y316751D01*
X183645Y317751D01*
X188282D01*
X188962Y317071D01*
X188679Y315940D01*
X188187Y315791D01*
X186916Y315112D01*
X185802Y314197D01*
X184888Y313084D01*
X184209Y311813D01*
X183791Y310434D01*
X183650Y309000D01*
X183791Y307566D01*
X184209Y306187D01*
X184888Y304916D01*
X185802Y303802D01*
X186916Y302888D01*
X188187Y302209D01*
X188451Y302129D01*
Y290925D01*
X184312Y286786D01*
X183365Y287253D01*
X183377Y287347D01*
X183208Y288634D01*
X182711Y289834D01*
X181920Y290865D01*
X180889Y291655D01*
X179689Y292153D01*
X178402Y292322D01*
X177114Y292153D01*
X175914Y291655D01*
X174883Y290865D01*
X174092Y289834D01*
X173595Y288634D01*
X173426Y287347D01*
X173595Y286059D01*
X174092Y284859D01*
X174883Y283828D01*
X175914Y283037D01*
X177114Y282540D01*
X178402Y282371D01*
X179565Y282524D01*
X180100Y282165D01*
X180455Y281775D01*
Y274681D01*
X180649Y273706D01*
X181202Y272879D01*
X185194Y268887D01*
X186021Y268334D01*
X186372Y268264D01*
X186339Y267251D01*
X185707Y267168D01*
X184502Y266669D01*
X183468Y265875D01*
X182674Y264840D01*
X182541Y264520D01*
X181459D01*
X181326Y264840D01*
X180532Y265875D01*
X179498Y266669D01*
X178293Y267168D01*
X177000Y267338D01*
X175707Y267168D01*
X174502Y266669D01*
X173468Y265875D01*
X172674Y264840D01*
X172541Y264520D01*
X171459D01*
X171326Y264840D01*
X170532Y265875D01*
X169498Y266669D01*
X168293Y267168D01*
X167000Y267338D01*
X165707Y267168D01*
X164502Y266669D01*
X163468Y265875D01*
X162674Y264840D01*
X162541Y264520D01*
X161459D01*
X161326Y264840D01*
X160532Y265875D01*
X159498Y266669D01*
X158293Y267168D01*
X157000Y267338D01*
X155707Y267168D01*
X154502Y266669D01*
X153468Y265875D01*
X152674Y264840D01*
X152175Y263635D01*
X152005Y262343D01*
X152175Y261050D01*
X152674Y259845D01*
X153468Y258810D01*
X154502Y258016D01*
X155707Y257517D01*
X157000Y257347D01*
X158293Y257517D01*
X159498Y258016D01*
X160532Y258810D01*
X161326Y259845D01*
X161459Y260165D01*
X162541D01*
X162674Y259845D01*
X163468Y258810D01*
X164502Y258016D01*
X165707Y257517D01*
X167000Y257347D01*
X168293Y257517D01*
X169498Y258016D01*
X170532Y258810D01*
X171326Y259845D01*
X171459Y260165D01*
X172541D01*
X172674Y259845D01*
X173468Y258810D01*
X174502Y258016D01*
X175707Y257517D01*
X177000Y257347D01*
X178293Y257517D01*
X179498Y258016D01*
X180532Y258810D01*
X181326Y259845D01*
X181459Y260165D01*
X182541D01*
X182674Y259845D01*
X183468Y258810D01*
X184502Y258016D01*
X185707Y257517D01*
X187000Y257347D01*
X188293Y257517D01*
X189498Y258016D01*
X190532Y258810D01*
X191326Y259845D01*
X191825Y261050D01*
X191996Y262343D01*
X191825Y263635D01*
X191326Y264840D01*
X190532Y265875D01*
X189498Y266669D01*
X188293Y267168D01*
X188457Y268140D01*
X198453D01*
X199298Y267295D01*
X198883Y266295D01*
X197750D01*
Y262343D01*
Y258390D01*
X200569D01*
X200798Y258048D01*
X204618Y254227D01*
X205445Y253675D01*
X206420Y253481D01*
X220895D01*
Y249641D01*
X227042D01*
X228986Y247698D01*
X229813Y247145D01*
X230788Y246951D01*
X248551D01*
X248812Y246611D01*
X249658Y245962D01*
X250643Y245554D01*
X251700Y245415D01*
X252757Y245554D01*
X253743Y245962D01*
X254589Y246611D01*
X255238Y247458D01*
X255646Y248443D01*
X255785Y249500D01*
X255646Y250557D01*
X255238Y251542D01*
X254589Y252389D01*
X253743Y253038D01*
X252757Y253446D01*
X251700Y253585D01*
X250643Y253446D01*
X249658Y253038D01*
X248812Y252389D01*
X248551Y252049D01*
X236705D01*
Y255131D01*
X239179Y257604D01*
X239256Y257614D01*
X240054Y257945D01*
X240739Y258471D01*
X241265Y259156D01*
X241595Y259953D01*
X241708Y260809D01*
Y264943D01*
X242153Y265451D01*
X250351D01*
X250611Y265111D01*
X251458Y264462D01*
X252443Y264054D01*
X253500Y263915D01*
X254557Y264054D01*
X255542Y264462D01*
X256388Y265111D01*
X257038Y265957D01*
X257446Y266943D01*
X257585Y268000D01*
X257446Y269057D01*
X257038Y270042D01*
X256388Y270888D01*
X255542Y271538D01*
X254557Y271946D01*
X253500Y272085D01*
X252443Y271946D01*
X251458Y271538D01*
X250611Y270888D01*
X250351Y270549D01*
X221457D01*
X220481Y270355D01*
X219654Y269802D01*
X218058Y268206D01*
X217544Y268138D01*
X216949Y267892D01*
X216308Y268165D01*
X215949Y268457D01*
Y269500D01*
X215755Y270476D01*
X215202Y271302D01*
X211929Y274576D01*
X211985Y275000D01*
X211846Y276057D01*
X211438Y277043D01*
X211354Y277151D01*
X211485Y277653D01*
X211817Y278191D01*
X212590Y278345D01*
X213417Y278898D01*
X214169Y279650D01*
X214256Y279662D01*
X215054Y279992D01*
X215148Y280065D01*
X215900Y280438D01*
X216652Y280065D01*
X216746Y279992D01*
X217544Y279662D01*
X218058Y279594D01*
X219377Y278275D01*
X220204Y277722D01*
X221180Y277528D01*
X225621D01*
X226596Y277722D01*
X227423Y278275D01*
X228742Y279594D01*
X229256Y279662D01*
X230054Y279992D01*
X230148Y280065D01*
X230900Y280438D01*
X231652Y280065D01*
X231746Y279992D01*
X232544Y279662D01*
X233058Y279594D01*
X233583Y279068D01*
X234410Y278516D01*
X235386Y278322D01*
X236414D01*
X237390Y278516D01*
X238217Y279068D01*
X238742Y279594D01*
X239256Y279662D01*
X240054Y279992D01*
X240739Y280518D01*
X241265Y281203D01*
X241595Y282001D01*
X241708Y282857D01*
Y286990D01*
X241595Y287847D01*
X241265Y288645D01*
X240739Y289330D01*
X240054Y289855D01*
X239256Y290186D01*
X238400Y290298D01*
X237544Y290186D01*
X236746Y289855D01*
X236652Y289783D01*
X235900Y289409D01*
X235148Y289783D01*
X235054Y289855D01*
X234256Y290186D01*
X233400Y290298D01*
X232544Y290186D01*
X231746Y289855D01*
X231652Y289783D01*
X230900Y289409D01*
X230148Y289783D01*
X230054Y289855D01*
X229256Y290186D01*
X228400Y290298D01*
X227544Y290186D01*
X226746Y289855D01*
X226061Y289330D01*
X225911Y289135D01*
X225229Y288741D01*
X224578Y288945D01*
X224289Y289138D01*
X224150Y289165D01*
Y284924D01*
X222650D01*
Y289165D01*
X222511Y289138D01*
X222222Y288945D01*
X221784Y288808D01*
X220949Y289412D01*
Y290750D01*
X221487D01*
Y294309D01*
X222237D01*
Y295059D01*
X225205D01*
Y297250D01*
X225205Y297868D01*
X225205D01*
Y298250D01*
X225205D01*
Y301060D01*
X222237D01*
Y301810D01*
X221487D01*
Y305368D01*
X219268D01*
Y305368D01*
X218332Y305521D01*
Y306368D01*
X210395D01*
Y305774D01*
X202241D01*
Y297605D01*
X200364D01*
Y311823D01*
X200170Y312798D01*
X199617Y313625D01*
X191140Y322102D01*
X190313Y322655D01*
X189338Y322849D01*
X155068D01*
X154953Y323034D01*
X155509Y324034D01*
X329805D01*
X330003Y323034D01*
D02*
G37*
G36*
X335628Y267374D02*
X332717D01*
Y247626D01*
X339072D01*
Y233516D01*
X331732D01*
Y216917D01*
X337602D01*
Y213100D01*
X341358D01*
X345114D01*
Y216917D01*
X345575D01*
Y233516D01*
X345124D01*
Y247626D01*
X349034D01*
Y23431D01*
X348034Y23312D01*
X347802Y24281D01*
X346970Y26289D01*
X345834Y28143D01*
X344422Y29796D01*
X342769Y31208D01*
X342370Y31453D01*
X342652Y32453D01*
X345114D01*
Y36837D01*
X341358D01*
X337602D01*
Y34297D01*
X337227Y34001D01*
X336602Y33698D01*
X334626Y33854D01*
X332459Y33683D01*
X330345Y33176D01*
X329229Y32713D01*
X328398Y33269D01*
Y43720D01*
X323999D01*
Y45324D01*
X323805Y46299D01*
X323253Y47126D01*
X319959Y50420D01*
Y54905D01*
X319959D01*
Y55158D01*
X319959D01*
Y59454D01*
X323253Y62748D01*
X323805Y63575D01*
X323999Y64550D01*
Y67279D01*
X328398D01*
Y77890D01*
Y90158D01*
X323999D01*
Y97424D01*
X323805Y98399D01*
X323253Y99226D01*
X322605Y99874D01*
X323202Y100472D01*
X323755Y101298D01*
X323949Y102274D01*
Y113716D01*
X328398D01*
Y124390D01*
Y136658D01*
X323949D01*
Y138474D01*
X323755Y139450D01*
X323202Y140276D01*
X319959Y143520D01*
Y148406D01*
X317049D01*
Y149594D01*
X319959D01*
Y153854D01*
X323253Y157148D01*
X323805Y157975D01*
X323999Y158950D01*
Y160216D01*
X328398D01*
Y170390D01*
Y182658D01*
X323999D01*
Y185250D01*
X323805Y186225D01*
X323253Y187052D01*
X319959Y190346D01*
Y194595D01*
Y198754D01*
X323202Y201998D01*
X323755Y202824D01*
X323949Y203800D01*
Y206217D01*
X328398D01*
Y218484D01*
X318886D01*
Y210405D01*
X316569D01*
X316446Y211027D01*
X315893Y211854D01*
X307817Y219931D01*
X308200Y220854D01*
X311717D01*
Y230107D01*
X312717Y230680D01*
X313004Y230561D01*
X313050Y230555D01*
Y233532D01*
Y236510D01*
X313004Y236504D01*
X312717Y236385D01*
X311717Y236665D01*
Y236665D01*
X306039D01*
X303332Y239372D01*
Y242751D01*
X303672Y243011D01*
X304321Y243858D01*
X304729Y244843D01*
X304868Y245900D01*
X304729Y246957D01*
X304321Y247942D01*
X303672Y248788D01*
X302826Y249438D01*
X301841Y249846D01*
X301284Y249919D01*
Y267374D01*
X298530D01*
Y269948D01*
X298538Y269957D01*
X298946Y270943D01*
X299085Y272000D01*
X298946Y273057D01*
X298538Y274043D01*
X298530Y274052D01*
Y281484D01*
X302268D01*
X302599Y280621D01*
Y279516D01*
X304608D01*
Y278049D01*
X304269Y277788D01*
X303620Y276942D01*
X303212Y275957D01*
X303073Y274900D01*
X303212Y273843D01*
X303620Y272857D01*
X304269Y272011D01*
X305115Y271362D01*
X306100Y270954D01*
X307157Y270815D01*
X308215Y270954D01*
X309200Y271362D01*
X310046Y272011D01*
X310695Y272857D01*
X310956Y273487D01*
X311982Y273352D01*
X312079Y272618D01*
X312588Y271390D01*
X313398Y270335D01*
X314453Y269525D01*
X315681Y269016D01*
X317000Y268842D01*
X318319Y269016D01*
X319547Y269525D01*
X320603Y270335D01*
X321412Y271390D01*
X321921Y272618D01*
X322095Y273937D01*
Y274405D01*
X323095Y274603D01*
X323362Y273957D01*
X324011Y273112D01*
X324857Y272462D01*
X325843Y272054D01*
X326900Y271915D01*
X327957Y272054D01*
X328942Y272462D01*
X329788Y273112D01*
X330438Y273957D01*
X330846Y274943D01*
X330985Y276000D01*
X330846Y277057D01*
X330438Y278043D01*
X330075Y278516D01*
X330550Y279516D01*
X331402D01*
Y280621D01*
X331732Y281484D01*
X335628D01*
Y267374D01*
D02*
G37*
G36*
X283250Y210922D02*
X283296Y210929D01*
X284038Y211236D01*
X284675Y211725D01*
X284738Y211807D01*
X286010Y211949D01*
X287207Y210753D01*
X287107Y210000D01*
X287291Y208604D01*
X287830Y207304D01*
X288687Y206187D01*
X289446Y205604D01*
X289517Y205419D01*
Y204581D01*
X289446Y204396D01*
X288687Y203813D01*
X287830Y202696D01*
X287291Y201396D01*
X287107Y200000D01*
X287291Y198604D01*
X287830Y197304D01*
X288687Y196187D01*
X289804Y195330D01*
X290600Y195000D01*
Y193918D01*
X290308Y193797D01*
X289400Y193100D01*
X288703Y192192D01*
X288265Y191135D01*
X288215Y190750D01*
X292500D01*
Y189250D01*
X288215D01*
X288265Y188865D01*
X288703Y187808D01*
X288850Y187617D01*
X288690Y186649D01*
X283851Y181810D01*
X283299Y180983D01*
X283105Y180008D01*
Y89992D01*
X283299Y89017D01*
X283611Y88549D01*
X283148Y87549D01*
X280065D01*
X279509Y88380D01*
X279644Y88707D01*
X279814Y90000D01*
X279644Y91293D01*
X279145Y92498D01*
X278351Y93532D01*
X277317Y94326D01*
X276997Y94459D01*
Y95541D01*
X277317Y95674D01*
X278351Y96468D01*
X279145Y97502D01*
X279644Y98707D01*
X279814Y100000D01*
X279644Y101293D01*
X279145Y102498D01*
X278351Y103532D01*
X277317Y104326D01*
X276997Y104459D01*
Y105541D01*
X277317Y105674D01*
X278351Y106468D01*
X279145Y107502D01*
X279644Y108707D01*
X279814Y110000D01*
X279644Y111293D01*
X279145Y112498D01*
X278351Y113532D01*
X277317Y114326D01*
X276997Y114459D01*
Y115541D01*
X277317Y115674D01*
X278351Y116468D01*
X279145Y117502D01*
X279644Y118707D01*
X279814Y120000D01*
X279644Y121293D01*
X279145Y122498D01*
X278351Y123532D01*
X277317Y124326D01*
X276997Y124459D01*
Y125541D01*
X277317Y125674D01*
X278351Y126468D01*
X279145Y127502D01*
X279644Y128707D01*
X279814Y130000D01*
X279644Y131293D01*
X279145Y132498D01*
X278351Y133532D01*
X277317Y134326D01*
X276997Y134459D01*
Y135541D01*
X277317Y135674D01*
X278351Y136468D01*
X279145Y137502D01*
X279644Y138707D01*
X279814Y140000D01*
X279644Y141293D01*
X279145Y142498D01*
X278351Y143532D01*
X277317Y144326D01*
X276997Y144459D01*
Y145541D01*
X277317Y145674D01*
X278351Y146468D01*
X279145Y147502D01*
X279644Y148707D01*
X279814Y150000D01*
X279644Y151293D01*
X279145Y152498D01*
X278351Y153532D01*
X277317Y154326D01*
X276997Y154459D01*
Y155541D01*
X277317Y155674D01*
X278351Y156468D01*
X279145Y157502D01*
X279644Y158707D01*
X279814Y160000D01*
X279644Y161293D01*
X279145Y162498D01*
X278351Y163532D01*
X277317Y164326D01*
X276997Y164459D01*
Y165541D01*
X277317Y165674D01*
X278351Y166468D01*
X279145Y167502D01*
X279644Y168707D01*
X279814Y170000D01*
X279644Y171293D01*
X279145Y172498D01*
X278351Y173532D01*
X277317Y174326D01*
X276997Y174459D01*
Y175541D01*
X277317Y175674D01*
X278351Y176468D01*
X279145Y177502D01*
X279644Y178707D01*
X279814Y180000D01*
X279644Y181293D01*
X279145Y182498D01*
X278351Y183532D01*
X277317Y184326D01*
X276997Y184459D01*
Y185541D01*
X277317Y185674D01*
X278351Y186468D01*
X279145Y187502D01*
X279644Y188707D01*
X279814Y190000D01*
X279644Y191293D01*
X279145Y192498D01*
X278351Y193532D01*
X277317Y194326D01*
X276997Y194459D01*
Y195541D01*
X277317Y195674D01*
X278351Y196468D01*
X279145Y197502D01*
X279644Y198707D01*
X279814Y200000D01*
X279644Y201293D01*
X279145Y202498D01*
X278351Y203532D01*
X277317Y204326D01*
X276997Y204459D01*
Y205541D01*
X277317Y205674D01*
X278351Y206468D01*
X279145Y207502D01*
X279644Y208707D01*
X279814Y210000D01*
X279685Y210986D01*
X280571Y211536D01*
X280962Y211236D01*
X281704Y210929D01*
X281750Y210922D01*
Y213900D01*
X283250D01*
Y210922D01*
D02*
G37*
%LPC*%
G36*
X109902Y319859D02*
X108614Y319690D01*
X107414Y319193D01*
X106383Y318402D01*
X105593Y317371D01*
X105096Y316171D01*
X104926Y314883D01*
X105096Y313596D01*
X105593Y312396D01*
X106383Y311365D01*
X107414Y310574D01*
X108614Y310077D01*
X109902Y309908D01*
X111189Y310077D01*
X112389Y310574D01*
X113420Y311365D01*
X114211Y312396D01*
X114708Y313596D01*
X114877Y314883D01*
X114708Y316171D01*
X114211Y317371D01*
X113420Y318402D01*
X112389Y319193D01*
X111189Y319690D01*
X109902Y319859D01*
D02*
G37*
G36*
X225205Y305368D02*
X222987D01*
Y302559D01*
X225205D01*
Y305368D01*
D02*
G37*
G36*
X165803Y316350D02*
X164369Y316209D01*
X162990Y315791D01*
X161720Y315112D01*
X160606Y314197D01*
X159692Y313084D01*
X159012Y311813D01*
X158594Y310434D01*
X158453Y309000D01*
X158594Y307566D01*
X159012Y306187D01*
X159692Y304916D01*
X160606Y303802D01*
X161720Y302888D01*
X162990Y302209D01*
X164369Y301791D01*
X165803Y301650D01*
X167237Y301791D01*
X168616Y302209D01*
X169887Y302888D01*
X171001Y303802D01*
X171915Y304916D01*
X172594Y306187D01*
X173012Y307566D01*
X173153Y309000D01*
X173012Y310434D01*
X172594Y311813D01*
X171915Y313084D01*
X171001Y314197D01*
X169887Y315112D01*
X168616Y315791D01*
X167237Y316209D01*
X165803Y316350D01*
D02*
G37*
G36*
X97303Y316328D02*
X95869Y316187D01*
X94490Y315769D01*
X93220Y315090D01*
X92106Y314175D01*
X91192Y313062D01*
X90512Y311791D01*
X90094Y310412D01*
X89953Y308978D01*
X90094Y307544D01*
X90512Y306165D01*
X91192Y304894D01*
X92106Y303781D01*
X93220Y302866D01*
X94490Y302187D01*
X95869Y301769D01*
X97303Y301628D01*
X98737Y301769D01*
X100116Y302187D01*
X101387Y302866D01*
X102501Y303781D01*
X103415Y304894D01*
X104094Y306165D01*
X104512Y307544D01*
X104654Y308978D01*
X104512Y310412D01*
X104094Y311791D01*
X103415Y313062D01*
X102501Y314175D01*
X101387Y315090D01*
X100116Y315769D01*
X98737Y316187D01*
X97303Y316328D01*
D02*
G37*
G36*
X52500Y313849D02*
X50774Y313713D01*
X49090Y313309D01*
X47491Y312646D01*
X46014Y311742D01*
X44698Y310617D01*
X43573Y309301D01*
X42669Y307824D01*
X42006Y306225D01*
X41602Y304541D01*
X41466Y302815D01*
X41602Y301089D01*
X42006Y299405D01*
X42669Y297806D01*
X43573Y296329D01*
X44698Y295013D01*
X46014Y293888D01*
X47491Y292984D01*
X49090Y292321D01*
X50774Y291917D01*
X52500Y291781D01*
X54226Y291917D01*
X55910Y292321D01*
X57509Y292984D01*
X58986Y293888D01*
X60302Y295013D01*
X61427Y296329D01*
X62331Y297806D01*
X62994Y299405D01*
X63398Y301089D01*
X63534Y302815D01*
X63398Y304541D01*
X62994Y306225D01*
X62331Y307824D01*
X61427Y309301D01*
X60302Y310617D01*
X58986Y311742D01*
X57509Y312646D01*
X55910Y313309D01*
X54226Y313713D01*
X52500Y313849D01*
D02*
G37*
G36*
X225205Y293560D02*
X222987D01*
Y290750D01*
X225205D01*
Y293560D01*
D02*
G37*
G36*
X77969Y301610D02*
X76226Y301438D01*
X74550Y300930D01*
X73006Y300104D01*
X71652Y298993D01*
X70541Y297640D01*
X69716Y296095D01*
X69207Y294420D01*
X69036Y292677D01*
X69207Y290934D01*
X69716Y289259D01*
X70541Y287714D01*
X71652Y286361D01*
X73006Y285250D01*
X74550Y284424D01*
X76226Y283916D01*
X77969Y283744D01*
X79711Y283916D01*
X81387Y284424D01*
X82931Y285250D01*
X84285Y286361D01*
X85396Y287714D01*
X86221Y289259D01*
X86730Y290934D01*
X86901Y292677D01*
X86730Y294420D01*
X86221Y296095D01*
X85396Y297640D01*
X84285Y298993D01*
X82931Y300104D01*
X81387Y300930D01*
X79711Y301438D01*
X77969Y301610D01*
D02*
G37*
G36*
X166984Y284854D02*
X165550Y284713D01*
X164171Y284295D01*
X162901Y283615D01*
X161787Y282701D01*
X160873Y281588D01*
X160193Y280317D01*
X159775Y278938D01*
X159634Y277504D01*
X159775Y276070D01*
X160193Y274691D01*
X160873Y273420D01*
X161787Y272306D01*
X162901Y271392D01*
X164171Y270713D01*
X165550Y270295D01*
X166984Y270154D01*
X168418Y270295D01*
X169797Y270713D01*
X171068Y271392D01*
X172182Y272306D01*
X173096Y273420D01*
X173775Y274691D01*
X174193Y276070D01*
X174335Y277504D01*
X174193Y278938D01*
X173775Y280317D01*
X173096Y281588D01*
X172182Y282701D01*
X171068Y283615D01*
X169797Y284295D01*
X168418Y284713D01*
X166984Y284854D01*
D02*
G37*
G36*
X98484Y284832D02*
X97050Y284691D01*
X95671Y284273D01*
X94401Y283594D01*
X93287Y282679D01*
X92373Y281565D01*
X91693Y280295D01*
X91275Y278916D01*
X91134Y277482D01*
X91275Y276048D01*
X91693Y274669D01*
X92373Y273398D01*
X93287Y272284D01*
X94401Y271370D01*
X95671Y270691D01*
X97050Y270273D01*
X98484Y270131D01*
X99918Y270273D01*
X101297Y270691D01*
X102568Y271370D01*
X103682Y272284D01*
X104596Y273398D01*
X105275Y274669D01*
X105693Y276048D01*
X105835Y277482D01*
X105693Y278916D01*
X105275Y280295D01*
X104596Y281565D01*
X103682Y282679D01*
X102568Y283594D01*
X101297Y284273D01*
X99918Y284691D01*
X98484Y284832D01*
D02*
G37*
G36*
X142953Y266295D02*
X139750D01*
Y263092D01*
X142953D01*
Y266295D01*
D02*
G37*
G36*
X138250D02*
X135047D01*
Y263092D01*
X138250D01*
Y266295D01*
D02*
G37*
G36*
X196250D02*
X193047D01*
Y263092D01*
X196250D01*
Y266295D01*
D02*
G37*
G36*
X52500Y288849D02*
X50774Y288713D01*
X49090Y288309D01*
X47491Y287646D01*
X46014Y286742D01*
X44698Y285617D01*
X43573Y284301D01*
X42669Y282824D01*
X42006Y281225D01*
X41602Y279541D01*
X41466Y277815D01*
X41602Y276089D01*
X42006Y274405D01*
X42669Y272806D01*
X43573Y271329D01*
X44698Y270013D01*
X46014Y268888D01*
X47491Y267984D01*
X49090Y267321D01*
X50774Y266917D01*
X52500Y266781D01*
X54226Y266917D01*
X55910Y267321D01*
X57509Y267984D01*
X58986Y268888D01*
X60138Y269873D01*
X65046D01*
X69949Y264970D01*
Y261496D01*
X75654D01*
X75949Y261467D01*
X76244Y261496D01*
X86350D01*
Y272504D01*
X79467D01*
X71806Y280165D01*
X70893Y280915D01*
X69850Y281472D01*
X68720Y281815D01*
X67543Y281931D01*
X62701D01*
X62331Y282824D01*
X61427Y284301D01*
X60302Y285617D01*
X58986Y286742D01*
X57509Y287646D01*
X55910Y288309D01*
X54226Y288713D01*
X52500Y288849D01*
D02*
G37*
G36*
X196250Y261593D02*
X193047D01*
Y258390D01*
X196250D01*
Y261593D01*
D02*
G37*
G36*
X142953D02*
X139750D01*
Y258390D01*
X142953D01*
Y261593D01*
D02*
G37*
G36*
X138250D02*
X135047D01*
Y258390D01*
X138250D01*
Y261593D01*
D02*
G37*
G36*
X85350Y250913D02*
X78900D01*
Y247159D01*
X85350D01*
Y250913D01*
D02*
G37*
G36*
X77400D02*
X70949D01*
Y247159D01*
X77400D01*
Y250913D01*
D02*
G37*
G36*
X69928Y251928D02*
X65150D01*
Y247150D01*
X69928D01*
Y251928D01*
D02*
G37*
G36*
X63650D02*
X58872D01*
Y247150D01*
X63650D01*
Y251928D01*
D02*
G37*
G36*
X85350Y245659D02*
X78900D01*
Y241905D01*
X85350D01*
Y245659D01*
D02*
G37*
G36*
X77400D02*
X70949D01*
Y241905D01*
X77400D01*
Y245659D01*
D02*
G37*
G36*
X69928Y245650D02*
X65150D01*
Y240872D01*
X69928D01*
Y245650D01*
D02*
G37*
G36*
X63650D02*
X58872D01*
Y240872D01*
X63650D01*
Y245650D01*
D02*
G37*
G36*
X274069Y243888D02*
X273787Y243851D01*
X272826Y243453D01*
X272000Y242819D01*
X271366Y241993D01*
X270968Y241032D01*
X270931Y240750D01*
X274069D01*
Y243888D01*
D02*
G37*
G36*
Y239250D02*
X270931D01*
X270968Y238968D01*
X271366Y238006D01*
X272000Y237181D01*
X272826Y236547D01*
X273787Y236149D01*
X274069Y236112D01*
Y239250D01*
D02*
G37*
G36*
X255687Y231759D02*
Y228950D01*
X257906D01*
Y231759D01*
X255687D01*
D02*
G37*
G36*
X257906Y227450D02*
X255687D01*
Y224641D01*
X257906D01*
Y227450D01*
D02*
G37*
G36*
X244033Y240285D02*
X242976Y240146D01*
X241991Y239738D01*
X241145Y239089D01*
X240496Y238243D01*
X240088Y237257D01*
X239948Y236200D01*
X240088Y235143D01*
X240496Y234157D01*
X241145Y233312D01*
X241512Y233030D01*
X241678Y232193D01*
X242231Y231366D01*
X243045Y230552D01*
Y230259D01*
X243094Y230013D01*
Y223641D01*
X251031D01*
Y224489D01*
X251969Y224641D01*
X252031Y224641D01*
X254187D01*
Y228200D01*
Y231759D01*
X252031D01*
X251969Y231759D01*
X251031Y231911D01*
Y232759D01*
X247832D01*
X247397Y233410D01*
X247171Y233636D01*
X247571Y234157D01*
X247979Y235143D01*
X248118Y236200D01*
X247979Y237257D01*
X247571Y238243D01*
X246922Y239089D01*
X246076Y239738D01*
X245091Y240146D01*
X244033Y240285D01*
D02*
G37*
G36*
X257949Y222824D02*
X255844D01*
Y221250D01*
X260124D01*
X260096Y221389D01*
X259592Y222143D01*
X258838Y222647D01*
X257949Y222824D01*
D02*
G37*
G36*
X167643Y200843D02*
X163850D01*
Y197050D01*
X167643D01*
Y200843D01*
D02*
G37*
G36*
X162350D02*
X158557D01*
Y197050D01*
X162350D01*
Y200843D01*
D02*
G37*
G36*
X167643Y195550D02*
X163850D01*
Y191757D01*
X167643D01*
Y195550D01*
D02*
G37*
G36*
X162350D02*
X158557D01*
Y191757D01*
X162350D01*
Y195550D01*
D02*
G37*
G36*
X124516Y183746D02*
X120722D01*
Y179952D01*
X124516D01*
Y183746D01*
D02*
G37*
G36*
X119222D02*
X115429D01*
Y179952D01*
X119222D01*
Y183746D01*
D02*
G37*
G36*
X124516Y178452D02*
X120722D01*
Y174659D01*
X124516D01*
Y178452D01*
D02*
G37*
G36*
X119222D02*
X115429D01*
Y174659D01*
X119222D01*
Y178452D01*
D02*
G37*
G36*
X35150Y174179D02*
X32341D01*
Y171961D01*
X35150D01*
Y174179D01*
D02*
G37*
G36*
X166550Y156850D02*
X164322D01*
X164329Y156804D01*
X164636Y156062D01*
X165125Y155425D01*
X165762Y154936D01*
X166504Y154629D01*
X166550Y154622D01*
Y156850D01*
D02*
G37*
G36*
X182453Y132250D02*
X179250D01*
Y129047D01*
X182453D01*
Y132250D01*
D02*
G37*
G36*
X177750D02*
X174547D01*
Y129047D01*
X177750D01*
Y132250D01*
D02*
G37*
G36*
X36150Y130213D02*
X33341D01*
Y127995D01*
X36150D01*
Y130213D01*
D02*
G37*
G36*
X206635Y112313D02*
X203826D01*
Y110094D01*
X206635D01*
Y112313D01*
D02*
G37*
G36*
X118000Y112120D02*
X114797D01*
Y108918D01*
X118000D01*
Y112120D01*
D02*
G37*
G36*
X113297D02*
X110095D01*
Y108918D01*
X113297D01*
Y112120D01*
D02*
G37*
G36*
X216431Y107274D02*
X212152D01*
X212179Y107134D01*
X212683Y106380D01*
X213437Y105876D01*
X214327Y105699D01*
X216431D01*
Y107274D01*
D02*
G37*
G36*
X210879Y108643D02*
X207085D01*
Y104850D01*
X210879D01*
Y108643D01*
D02*
G37*
G36*
X205585D02*
X201792D01*
Y104850D01*
X205585D01*
Y108643D01*
D02*
G37*
G36*
X118000Y107418D02*
X114797D01*
Y104215D01*
X118000D01*
Y107418D01*
D02*
G37*
G36*
X113297D02*
X110095D01*
Y104215D01*
X113297D01*
Y107418D01*
D02*
G37*
G36*
X278772Y59250D02*
X275569D01*
Y56047D01*
X278772D01*
Y59250D01*
D02*
G37*
G36*
X274069D02*
X270866D01*
Y56047D01*
X274069D01*
Y59250D01*
D02*
G37*
G36*
X276787Y26019D02*
X275045Y25848D01*
X273369Y25339D01*
X271825Y24514D01*
X270471Y23403D01*
X269360Y22049D01*
X268535Y20505D01*
X268026Y18829D01*
X267855Y17086D01*
X268026Y15344D01*
X268535Y13668D01*
X269360Y12124D01*
X270471Y10770D01*
X271825Y9659D01*
X273369Y8834D01*
X275045Y8325D01*
X276787Y8154D01*
X278530Y8325D01*
X280206Y8834D01*
X281750Y9659D01*
X283104Y10770D01*
X284215Y12124D01*
X285040Y13668D01*
X285548Y15344D01*
X285720Y17086D01*
X285548Y18829D01*
X285040Y20505D01*
X284215Y22049D01*
X283104Y23403D01*
X281750Y24514D01*
X280206Y25339D01*
X278530Y25848D01*
X276787Y26019D01*
D02*
G37*
G36*
X77969D02*
X76226Y25848D01*
X74550Y25339D01*
X73006Y24514D01*
X71652Y23403D01*
X70541Y22049D01*
X69716Y20505D01*
X69207Y18829D01*
X69036Y17086D01*
X69207Y15344D01*
X69716Y13668D01*
X70541Y12124D01*
X71652Y10770D01*
X73006Y9659D01*
X74550Y8834D01*
X76226Y8325D01*
X77969Y8154D01*
X79711Y8325D01*
X81387Y8834D01*
X82931Y9659D01*
X84285Y10770D01*
X85396Y12124D01*
X86221Y13668D01*
X86730Y15344D01*
X86901Y17086D01*
X86730Y18829D01*
X86221Y20505D01*
X85396Y22049D01*
X84285Y23403D01*
X82931Y24514D01*
X81387Y25339D01*
X79711Y25848D01*
X77969Y26019D01*
D02*
G37*
G36*
X317000Y264237D02*
X315686Y264108D01*
X314422Y263724D01*
X313257Y263102D01*
X312236Y262264D01*
X311398Y261243D01*
X310776Y260078D01*
X310392Y258814D01*
X310263Y257500D01*
X310392Y256186D01*
X310776Y254922D01*
X311398Y253757D01*
X312236Y252736D01*
X313257Y251898D01*
X314422Y251276D01*
X315686Y250892D01*
X317000Y250763D01*
X318314Y250892D01*
X319578Y251276D01*
X320743Y251898D01*
X321764Y252736D01*
X322602Y253757D01*
X323224Y254922D01*
X323608Y256186D01*
X323737Y257500D01*
X323608Y258814D01*
X323224Y260078D01*
X322602Y261243D01*
X321764Y262264D01*
X320743Y263102D01*
X319578Y263724D01*
X318314Y264108D01*
X317000Y264237D01*
D02*
G37*
G36*
X314550Y236510D02*
Y234282D01*
X316778D01*
X316772Y234329D01*
X316464Y235070D01*
X315975Y235708D01*
X315338Y236196D01*
X314596Y236504D01*
X314550Y236510D01*
D02*
G37*
G36*
X316778Y232782D02*
X314550D01*
Y230555D01*
X314596Y230561D01*
X315338Y230868D01*
X315975Y231357D01*
X316464Y231994D01*
X316772Y232736D01*
X316778Y232782D01*
D02*
G37*
G36*
X330402Y235665D02*
X327593D01*
Y229510D01*
X330402D01*
Y235665D01*
D02*
G37*
G36*
X326093D02*
X323284D01*
Y229510D01*
X326093D01*
Y235665D01*
D02*
G37*
G36*
X330402Y228010D02*
X327593D01*
Y221854D01*
X330402D01*
Y228010D01*
D02*
G37*
G36*
X326093D02*
X323284D01*
Y221854D01*
X326093D01*
Y228010D01*
D02*
G37*
G36*
X345114Y211600D02*
X342108D01*
Y207217D01*
X345114D01*
Y211600D01*
D02*
G37*
G36*
X340608D02*
X337602D01*
Y207217D01*
X340608D01*
Y211600D01*
D02*
G37*
G36*
X345114Y181658D02*
X342108D01*
Y177274D01*
X345114D01*
Y181658D01*
D02*
G37*
G36*
X340608D02*
X337602D01*
Y177274D01*
X340608D01*
Y181658D01*
D02*
G37*
G36*
X345114Y175774D02*
X341358D01*
X337602D01*
Y171390D01*
Y167100D01*
X341358D01*
X345114D01*
Y171390D01*
Y175774D01*
D02*
G37*
G36*
Y165600D02*
X342108D01*
Y161216D01*
X345114D01*
Y165600D01*
D02*
G37*
G36*
X340608D02*
X337602D01*
Y161216D01*
X340608D01*
Y165600D01*
D02*
G37*
G36*
X345114Y135658D02*
X342108D01*
Y131274D01*
X345114D01*
Y135658D01*
D02*
G37*
G36*
X340608D02*
X337602D01*
Y131274D01*
X340608D01*
Y135658D01*
D02*
G37*
G36*
X345114Y129774D02*
X341358D01*
X337602D01*
Y125984D01*
X337602Y125390D01*
X337602Y124390D01*
Y120600D01*
X341358D01*
X345114D01*
Y124390D01*
X345114Y124984D01*
X345114Y125984D01*
Y129774D01*
D02*
G37*
G36*
Y119100D02*
X342108D01*
Y114716D01*
X345114D01*
Y119100D01*
D02*
G37*
G36*
X340608D02*
X337602D01*
Y114716D01*
X340608D01*
Y119100D01*
D02*
G37*
G36*
X345114Y89157D02*
X342108D01*
Y84774D01*
X345114D01*
Y89157D01*
D02*
G37*
G36*
X340608D02*
X337602D01*
Y84774D01*
X340608D01*
Y89157D01*
D02*
G37*
G36*
X345114Y83274D02*
X341358D01*
X337602D01*
Y79547D01*
X337602Y78890D01*
X337602Y77890D01*
Y74163D01*
X341358D01*
X345114D01*
Y77890D01*
X345114Y78547D01*
X345114Y79547D01*
Y83274D01*
D02*
G37*
G36*
Y72663D02*
X342108D01*
Y68279D01*
X345114D01*
Y72663D01*
D02*
G37*
G36*
X340608D02*
X337602D01*
Y68279D01*
X340608D01*
Y72663D01*
D02*
G37*
G36*
X345114Y42720D02*
X342108D01*
Y38337D01*
X345114D01*
Y42720D01*
D02*
G37*
G36*
X340608D02*
X337602D01*
Y38337D01*
X340608D01*
Y42720D01*
D02*
G37*
%LPD*%
D12*
X79041Y93120D02*
X85008D01*
X76147Y96014D02*
X79041Y93120D01*
X85008D02*
X88435Y96547D01*
X248950Y212555D02*
Y214726D01*
X245700Y209305D02*
X248950Y212555D01*
Y214726D02*
X249724Y215500D01*
X121676Y211760D02*
X122758D01*
X112737Y190763D02*
Y198200D01*
X47107Y220036D02*
Y229800D01*
X40824Y213752D02*
X47107Y220036D01*
X40824Y207762D02*
Y213752D01*
X244033Y233169D02*
X245595Y231608D01*
Y230259D02*
Y231608D01*
X247063Y228200D02*
Y228790D01*
Y227347D02*
Y228200D01*
X244033Y233169D02*
Y236200D01*
X245595Y230259D02*
X247063Y228790D01*
X230788Y249500D02*
X251700D01*
X228400Y251888D02*
X230788Y249500D01*
X221457Y268000D02*
X253500D01*
X218400Y264943D02*
X221457Y268000D01*
X43718Y111976D02*
X44800Y110895D01*
X52595Y214846D02*
X60800Y223051D01*
Y227680D01*
X234150Y187929D02*
Y191150D01*
X227600Y197700D02*
X234150Y191150D01*
X54000Y226400D02*
X54250Y226150D01*
Y219330D02*
Y226150D01*
X57653Y216953D02*
X67100Y226400D01*
X109069Y175131D02*
X109100Y175100D01*
X109069Y175131D02*
Y193943D01*
X115715Y212540D02*
X116085Y212170D01*
X117827Y216090D02*
X121017Y219280D01*
X114245Y216090D02*
X117827D01*
X101195Y203040D02*
X114245Y216090D01*
X121017Y219280D02*
X122100D01*
X116085Y212170D02*
X121730D01*
X101195Y195020D02*
Y203040D01*
X283000Y221393D02*
X289546Y214846D01*
X283000Y221393D02*
Y265976D01*
X277112Y224453D02*
X291564Y210000D01*
X272974Y224453D02*
X277112D01*
X291564Y210000D02*
X292500D01*
X270366Y221844D02*
X272974Y224453D01*
X289546Y214846D02*
X294508D01*
X290375Y216846D02*
X304468D01*
X287900Y219321D02*
X290375Y216846D01*
X304468D02*
X307347Y213968D01*
X294508Y214846D02*
X297346Y212007D01*
X287900Y219321D02*
Y244600D01*
X283000Y265976D02*
X288925Y271901D01*
X260200Y215500D02*
X261300Y214400D01*
X255095Y215500D02*
X260200D01*
X261300Y214400D02*
X264300D01*
X263200Y215500D02*
X264300Y214400D01*
X261193Y205500D02*
X270366Y214673D01*
X260728Y202207D02*
X274069Y215547D01*
X260728Y193280D02*
Y202207D01*
X255094Y205500D02*
X261193D01*
X270366Y214673D02*
Y221844D01*
X207500Y121052D02*
Y127100D01*
X207385Y120937D02*
X207500Y121052D01*
X257949Y190500D02*
X260728Y193280D01*
X274069Y215547D02*
Y218006D01*
X274819Y218756D01*
X220080Y200500D02*
X228480Y208900D01*
X216905Y200500D02*
X220080D01*
X228480Y208900D02*
X239800D01*
X241050Y213650D02*
X243700Y211000D01*
X222819Y213650D02*
X241050D01*
X243700Y203100D02*
Y211000D01*
X219991Y210822D02*
X222819Y213650D01*
X240500Y199900D02*
X243700Y203100D01*
X245700Y199617D02*
Y209305D01*
X247700Y208476D02*
X249724Y210500D01*
X247700Y198788D02*
Y208476D01*
X242350Y193438D02*
X247700Y198788D01*
X240350Y194267D02*
X245700Y199617D01*
X49664Y216846D02*
X51767D01*
X42824Y212924D02*
X50700Y220800D01*
X51767Y216846D02*
X54250Y219330D01*
X57653Y164847D02*
Y216953D01*
X50493Y214846D02*
X52595D01*
X42824Y171486D02*
Y212924D01*
X45259Y212441D02*
X49664Y216846D01*
X47653Y212007D02*
X50493Y214846D01*
X244550Y215650D02*
X245400Y214800D01*
X219000Y215650D02*
X244550D01*
X207900Y270865D02*
Y275000D01*
Y264443D02*
Y270865D01*
X199200Y285463D02*
X200196D01*
X213400Y262876D02*
Y269500D01*
X207900Y275000D02*
X213400Y269500D01*
X207900Y275000D02*
Y277759D01*
X200800Y277080D02*
X204629Y273250D01*
X200800Y277080D02*
Y277100D01*
X204629Y260649D02*
Y273250D01*
X200196Y285463D02*
X207900Y277759D01*
X195141Y282759D02*
X200800Y277100D01*
X204629Y260649D02*
X207249Y258030D01*
X199509Y270689D02*
X202600Y267598D01*
Y259850D02*
Y267598D01*
Y259850D02*
X206420Y256030D01*
X195141Y282759D02*
Y288353D01*
X204700Y176149D02*
X214051Y185500D01*
X204700Y154839D02*
Y176149D01*
X228400Y251888D02*
Y262876D01*
X47653Y161142D02*
Y212007D01*
X45443Y158932D02*
X47653Y161142D01*
X43200Y163337D02*
X43791D01*
X35900D02*
X43200D01*
X45259Y164805D02*
Y212441D01*
X39080Y167743D02*
X42824Y171486D01*
X43791Y163337D02*
X45259Y164805D01*
X300783Y238316D02*
Y245900D01*
X211272Y187772D02*
Y202720D01*
X206800Y183300D02*
X211272Y187772D01*
X38661Y218200D02*
X39500D01*
X32100Y185400D02*
X32800Y184700D01*
X211272Y202720D02*
X214051Y205500D01*
X219991Y210500D02*
Y210822D01*
X172961Y147433D02*
X173263D01*
X112737Y190763D02*
X112798Y190702D01*
X104863Y198149D02*
Y198791D01*
Y198149D02*
X109069Y193943D01*
X104863Y190763D02*
Y191353D01*
X104100Y190000D02*
X104863Y190763D01*
X104100Y171600D02*
Y190000D01*
X102073Y194141D02*
X102076D01*
X104863Y191353D01*
X101195Y195020D02*
X102073Y194141D01*
X112798Y190702D02*
X119972D01*
X104863Y198791D02*
X112113Y206040D01*
X120576D01*
X240350Y181930D02*
Y194267D01*
X242350Y184950D02*
Y193438D01*
X245900Y191300D02*
Y194160D01*
X249450Y192710D02*
X252240Y195500D01*
X249450Y156717D02*
Y192710D01*
X229130Y185850D02*
X232070D01*
X224480Y190500D02*
X229130Y185850D01*
X232070D02*
X234150Y187929D01*
X230203Y189400D02*
X230600D01*
X216906Y190500D02*
X224480D01*
X224103Y195500D02*
X230203Y189400D01*
X216905Y195500D02*
X224103D01*
X69774Y145100D02*
X71100Y143774D01*
Y145100D01*
Y100116D02*
Y143774D01*
X57400Y145100D02*
X69774D01*
X52500Y150000D02*
X57400Y145100D01*
X114504Y284409D02*
X122500Y292405D01*
X114504Y266839D02*
Y284409D01*
Y266839D02*
X119000Y262343D01*
X122500Y292405D02*
Y308978D01*
X123237Y309715D01*
X129315D01*
X139900Y320300D01*
X189338D02*
X197815Y311823D01*
X149900Y320300D02*
X189338D01*
X225030Y107550D02*
X234701D01*
X219556Y113024D02*
X225030Y107550D01*
X84200Y117968D02*
X89747Y123515D01*
X125814Y145477D02*
X132587D01*
X121441Y141104D02*
X125814Y145477D01*
X116300Y156717D02*
Y166723D01*
X109595Y150012D02*
X116300Y156717D01*
X109595Y136323D02*
Y150012D01*
Y136323D02*
X114048Y131870D01*
Y128168D02*
Y131870D01*
X245900Y194160D02*
X252240Y200500D01*
X190375Y278060D02*
Y286415D01*
X196128Y292168D01*
X189819Y277504D02*
X190375Y278060D01*
X183004Y281873D02*
X191000Y289869D01*
X183004Y274681D02*
Y281873D01*
X191000Y289869D02*
Y309000D01*
X314405Y67405D02*
X314487Y67487D01*
X314000Y67000D02*
X314405Y67405D01*
X186996Y270689D02*
X199509D01*
X197815Y295022D02*
Y311823D01*
Y295022D02*
X199200Y293637D01*
X314500Y152000D02*
X321450Y158950D01*
X314500Y145374D02*
X321400Y138474D01*
X314500Y145374D02*
Y152000D01*
X321400Y132765D02*
Y138474D01*
X313554Y135153D02*
X315400Y137000D01*
X300800Y135153D02*
X313554D01*
X297654Y132008D02*
X300800Y135153D01*
X297346Y187993D02*
Y212007D01*
X307347Y187993D02*
Y213968D01*
X304306Y184952D02*
X307347Y187993D01*
X300598Y184952D02*
X304306D01*
X297557Y181911D02*
X300598Y184952D01*
X297557Y178203D02*
Y181911D01*
X294488Y175134D02*
X297557Y178203D01*
X290780Y175134D02*
X294488D01*
X287653Y172008D02*
X290780Y175134D01*
X285653Y180008D02*
X290493Y184846D01*
X294200D01*
X297346Y187993D01*
X224863Y254200D02*
Y254561D01*
X223394Y256030D02*
X224863Y254561D01*
X206420Y256030D02*
X223394D01*
X183004Y274681D02*
X186996Y270689D01*
X197731Y292168D02*
X199200Y293637D01*
X196128Y292168D02*
X197731D01*
X195141Y288353D02*
X196957Y290168D01*
X202447D01*
X206209Y293932D01*
X206800D01*
X222400Y169000D02*
Y172860D01*
X219760Y175500D02*
X222400Y172860D01*
X219198Y175500D02*
X219760D01*
X225307Y176994D02*
X225900Y176401D01*
X223266Y176994D02*
X225307D01*
X219760Y180500D02*
X223266Y176994D01*
X216906Y180500D02*
X219760D01*
X228542Y86800D02*
X248063D01*
X216795Y98547D02*
X228542Y86800D01*
X162953Y98547D02*
X216795D01*
X62182Y70000D02*
X69346Y77164D01*
X246691Y62994D02*
X267076D01*
X215138Y94547D02*
X246691Y62994D01*
X89263Y94547D02*
X215138D01*
X246051Y66463D02*
X263895D01*
X215967Y96547D02*
X246051Y66463D01*
X88435Y96547D02*
X215967D01*
X287500Y85000D02*
X292500Y80000D01*
X257174Y85000D02*
X287500D01*
X207249Y258030D02*
X220620D01*
X223400Y260809D01*
X214051Y205500D02*
X216905D01*
X220035Y148024D02*
X227500Y155488D01*
Y160600D01*
X267059Y178537D02*
X274069Y185547D01*
X267059Y175224D02*
Y178537D01*
X274069Y185547D02*
Y189250D01*
X265591Y173756D02*
X267059Y175224D01*
X265000Y173756D02*
X265591D01*
X274069Y189250D02*
X274819Y190000D01*
X255370Y153024D02*
X258224D01*
X262941Y157740D01*
Y164413D01*
X264409Y165882D01*
X265000D01*
X240350Y181930D02*
X247450Y174829D01*
X242350Y184950D02*
X245700Y181600D01*
X316607Y301530D02*
X317937Y300200D01*
X316607Y301530D02*
Y315321D01*
X315728Y316200D02*
X316607Y315321D01*
X305431Y316200D02*
X315728D01*
X302342Y313111D02*
X305431Y316200D01*
X302342Y311974D02*
Y313111D01*
X296800Y306432D02*
X302342Y311974D01*
X295225Y306432D02*
X296800D01*
X310000Y295327D02*
X310063Y295390D01*
Y300200D01*
X286925Y272729D02*
Y308368D01*
X293650Y315094D01*
X295225D01*
X288925Y271901D02*
Y296704D01*
X294201Y301979D01*
X301205D01*
X309989Y310763D01*
X310579D01*
X297654Y114847D02*
Y132008D01*
X219576Y118024D02*
X226500Y111100D01*
X217181Y118024D02*
X219576D01*
X255094Y159533D02*
Y175500D01*
X249700Y154139D02*
X255094Y159533D01*
X247700Y154967D02*
X249450Y156717D01*
X247700Y117720D02*
Y154967D01*
X247450Y157546D02*
Y174829D01*
X245700Y155796D02*
X247450Y157546D01*
X245700Y118549D02*
Y155796D01*
X252240Y195500D02*
X255095D01*
X249724Y210500D02*
X255094D01*
X234701Y107550D02*
X245700Y118549D01*
X224257Y147247D02*
X232100Y155090D01*
Y168800D01*
X243350Y113371D02*
X247700Y117720D01*
X243350Y106450D02*
Y113371D01*
Y106450D02*
X243600Y106200D01*
X249700Y114700D02*
Y154139D01*
X246900Y111900D02*
X249700Y114700D01*
X285653Y89992D02*
Y180008D01*
X316026Y50748D02*
Y59126D01*
Y50748D02*
X321450Y45324D01*
Y39778D02*
Y45324D01*
Y39778D02*
X323642Y37587D01*
X315000Y197400D02*
X321400Y203800D01*
X315000Y190874D02*
Y197400D01*
Y190874D02*
X315826D01*
X321400Y210109D02*
X323642Y212350D01*
X321400Y203800D02*
Y210109D01*
X321450Y164159D02*
X323642Y166350D01*
X321450Y158950D02*
Y164159D01*
X315826Y190874D02*
X321450Y185250D01*
Y178715D02*
Y185250D01*
Y178715D02*
X323642Y176524D01*
X321400Y132765D02*
X323642Y130524D01*
X321400Y117609D02*
X323642Y119850D01*
X321400Y102274D02*
Y117609D01*
X319000Y99874D02*
X321400Y102274D01*
X321450Y71222D02*
X323642Y73413D01*
X321450Y64550D02*
Y71222D01*
X316026Y59126D02*
X321450Y64550D01*
X319000Y99874D02*
X321450Y97424D01*
Y86215D02*
Y97424D01*
Y86215D02*
X323642Y84024D01*
X298507Y64846D02*
X304200D01*
X293661Y60000D02*
X298507Y64846D01*
X307347Y67993D02*
Y92007D01*
X304200Y64846D02*
X307347Y67993D01*
X292500Y60000D02*
X293661D01*
X304354Y95000D02*
X307347Y92007D01*
X314405Y67405D02*
X314809Y67000D01*
X311341Y70468D02*
X314405Y67405D01*
X314809Y67000D02*
X315400D01*
X311341Y70468D02*
Y110468D01*
X314809Y113937D01*
X315400D01*
X314809Y161437D02*
X315400D01*
X311050Y165197D02*
X314809Y161437D01*
X311050Y165197D02*
Y202678D01*
X314809Y206437D01*
X287653Y97992D02*
Y172008D01*
X290646Y95000D02*
X304354D01*
X287653Y97992D02*
X290646Y95000D01*
X302500Y120000D02*
X308747D01*
X314809Y113937D01*
X297654Y114847D02*
X302500Y110000D01*
X285653Y89992D02*
X290646Y85000D01*
X294508Y75153D02*
X297346Y77992D01*
Y82007D01*
X294354Y85000D02*
X297346Y82007D01*
X288047Y74453D02*
X292500Y70000D01*
X285329Y80000D02*
X290175Y75153D01*
X294508D01*
X264011Y74453D02*
X288047D01*
X274819Y80000D02*
X285329D01*
X290646Y85000D02*
X294354D01*
X267076Y62994D02*
X268928Y64846D01*
X76147Y96014D02*
Y120267D01*
X83390Y127510D01*
X84048Y96840D02*
Y108168D01*
X83107Y95900D02*
X84048Y96840D01*
X82024Y95900D02*
X83107D01*
X114200Y117968D02*
X127117Y130884D01*
Y141163D01*
X122511Y148983D02*
X128146D01*
X119826Y156546D02*
X120941Y155431D01*
Y150554D02*
Y155431D01*
Y150554D02*
X122511Y148983D01*
X128146D02*
X128200Y149037D01*
X89747Y123515D02*
X116044D01*
X121441Y128911D01*
Y141104D01*
X116300Y166723D02*
X119236Y169659D01*
X127117Y141163D02*
X127707D01*
X81379Y95900D02*
X82024D01*
X80600Y96680D02*
X81379Y95900D01*
X44800Y84837D02*
Y110895D01*
X43500Y83537D02*
X44800Y84837D01*
X62182Y70000D02*
X62500D01*
X67347Y89013D02*
X70493Y92160D01*
X67347Y77992D02*
Y89013D01*
X57346Y71700D02*
X60800Y75153D01*
X64508D01*
X69346Y84168D02*
X76299Y91120D01*
X85836D01*
X69346Y77164D02*
Y84168D01*
X64508Y75153D02*
X67347Y77992D01*
X85836Y91120D02*
X89263Y94547D01*
X57346Y64846D02*
Y71700D01*
X52500Y60000D02*
X57346Y64846D01*
X70493Y92160D02*
X71576D01*
X71100Y100116D02*
X71576Y99640D01*
X134609Y147500D02*
X136676D01*
X132587Y145477D02*
X134609Y147500D01*
X315100Y85500D02*
Y91700D01*
X315400Y92000D01*
Y161437D02*
X315500Y161537D01*
X304725Y219417D02*
X314091Y210052D01*
X299768Y219417D02*
X304725D01*
X295346Y223839D02*
X299768Y219417D01*
X295346Y223839D02*
Y224254D01*
X314091Y207155D02*
Y210052D01*
X252240Y200500D02*
X255095D01*
X258049Y185600D02*
X264900D01*
X314809Y206437D02*
X315400D01*
X314091Y207155D02*
X314809Y206437D01*
X314600Y174818D02*
Y182900D01*
X268928Y64846D02*
X280800D01*
X290800Y54847D01*
X263895Y74337D02*
X264011Y74453D01*
X308771Y49102D02*
X314809Y43063D01*
X290800Y54847D02*
X304507D01*
X308771Y50583D01*
Y49102D02*
Y50583D01*
X314809Y43063D02*
X315400D01*
X31841Y136247D02*
Y165927D01*
Y136247D02*
X33657Y134432D01*
X31841Y165927D02*
X33657Y167743D01*
X26600Y130963D02*
X36900D01*
X26600D02*
Y168300D01*
X29511Y171211D02*
X35900D01*
X26600Y168300D02*
X29511Y171211D01*
X218552Y215202D02*
X219000Y215650D01*
X217204Y215202D02*
X218552D01*
X217181Y113024D02*
X219556D01*
X228629Y114800D02*
X231300D01*
X220406Y123024D02*
X228629Y114800D01*
X164098Y138571D02*
X172961Y147433D01*
X164098Y138300D02*
Y138571D01*
X181137Y141113D02*
X181150Y141100D01*
X181137Y141113D02*
Y148024D01*
X270366Y94453D02*
Y100882D01*
Y94453D02*
X274819Y90000D01*
X258224Y113024D02*
X270366Y100882D01*
X269050Y184730D02*
Y204231D01*
X264820Y180500D02*
X269050Y184730D01*
X255095Y180500D02*
X264820D01*
X257949Y185500D02*
X258049Y185600D01*
X269050Y204231D02*
X274819Y210000D01*
X230175Y132725D02*
X230500Y132400D01*
X221876Y128024D02*
X227400Y122500D01*
X217479Y132725D02*
X230175D01*
X217181Y133024D02*
X217479Y132725D01*
X189000Y103000D02*
X190100Y104100D01*
X178500Y103000D02*
X189000D01*
X224257Y147246D02*
Y147247D01*
X214051Y185500D02*
X216905D01*
X216906Y210500D02*
X219991D01*
X173263Y147433D02*
Y148024D01*
X158500Y103000D02*
X162953Y98547D01*
X252468Y75159D02*
Y93642D01*
Y75159D02*
X256037Y71591D01*
X248263Y71100D02*
Y79103D01*
X217181Y148024D02*
X220035D01*
X249724Y215500D02*
X255095D01*
X246873Y218350D02*
X249464Y215760D01*
X254835D01*
X221750Y218350D02*
X246873D01*
X217181Y123024D02*
X220406D01*
X43718Y111976D02*
X43800D01*
X217181Y128024D02*
X221876D01*
X57346Y117992D02*
Y122008D01*
X54507Y115154D02*
X57346Y117992D01*
X181200Y162126D02*
Y168800D01*
X174549Y167500D02*
X176769Y165280D01*
Y151669D02*
Y165280D01*
X181174Y162100D02*
X181200Y162126D01*
X168500Y136324D02*
X173276Y141100D01*
X168500Y133000D02*
Y136324D01*
X158500Y133000D02*
Y142276D01*
X158724Y142500D01*
X214476Y113024D02*
X217181D01*
X36900Y138837D02*
X38368Y140305D01*
X39878D01*
X44009Y144437D01*
X44600D01*
X33657Y134432D02*
X40080D01*
X49358Y125154D01*
X54200D01*
X33657Y167743D02*
X39080D01*
X39141Y149305D02*
Y158053D01*
Y149305D02*
X44009Y144437D01*
X39141Y158053D02*
X40020Y158932D01*
X38961Y205900D02*
X40824Y207762D01*
X37956Y218905D02*
X38661Y218200D01*
X33569Y218905D02*
X37956D01*
X32100Y220374D02*
X33569Y218905D01*
X38961Y198800D02*
Y205900D01*
X173263Y148024D02*
X174732Y146555D01*
X219600Y220500D02*
X221750Y218350D01*
X216905Y220500D02*
X219600D01*
X173441Y148341D02*
X176769Y151669D01*
X181137Y148024D02*
Y155100D01*
X158724Y162500D02*
X172100D01*
X173300Y155137D02*
Y162100D01*
X172100Y162500D02*
X172500Y162100D01*
X158724Y167500D02*
X174549D01*
X173263Y155100D02*
X173300Y155137D01*
X157000Y232343D02*
X163047Y226295D01*
Y223100D02*
Y226295D01*
X167453Y219456D02*
Y226498D01*
X163537Y215540D02*
X167453Y219456D01*
Y226498D02*
X171453Y230498D01*
X132549Y215540D02*
X163537D01*
X164365Y213540D02*
X170937Y220112D01*
X148540Y213540D02*
X164365D01*
X170937Y220112D02*
Y223100D01*
X143698Y162222D02*
Y208698D01*
X148540Y213540D01*
X143698Y162222D02*
X153420Y152500D01*
X163047Y222147D02*
Y223100D01*
X158440Y217540D02*
X163047Y222147D01*
X145624Y217540D02*
X158440D01*
X140729Y222435D02*
X145624Y217540D01*
X175156Y236795D02*
X188844D01*
X171453Y233092D02*
X175156Y236795D01*
X171453Y230498D02*
Y233092D01*
X170937Y226279D02*
X177000Y232343D01*
X170937Y223780D02*
Y226279D01*
X170921Y223100D02*
X170937D01*
X153420Y152500D02*
X158724D01*
X188844Y236795D02*
X192547Y233092D01*
X196250D01*
X197000Y232343D01*
X122758Y211760D02*
X124438Y210080D01*
Y201339D02*
Y210080D01*
X128687Y203555D02*
Y225732D01*
Y203555D02*
X129982Y202260D01*
X128687Y225732D02*
X135297Y232343D01*
X136676Y179124D02*
Y190031D01*
X119000Y232343D02*
X126438Y224905D01*
Y200772D02*
Y224905D01*
Y200772D02*
X136508Y190702D01*
X121658Y198560D02*
X124438Y201339D01*
X119972Y190702D02*
X120576Y191305D01*
Y198560D01*
X121658D01*
X129982Y202260D02*
X130421D01*
X121730Y212170D02*
X122100Y211800D01*
X118061Y231404D02*
X119000Y232343D01*
X132028Y169659D02*
X132300Y169388D01*
X119236Y169659D02*
X132028D01*
X132300Y169388D02*
X134188Y167500D01*
X132300Y169388D02*
Y170191D01*
X134188Y167500D02*
X136676D01*
X132300Y170191D02*
X134609Y172500D01*
X136676D01*
X135297Y232343D02*
X139000D01*
X136676Y179124D02*
X141523Y174277D01*
Y165279D02*
Y174277D01*
X143698Y157202D02*
X144000Y156900D01*
X136975Y157202D02*
X143698D01*
X136676Y157500D02*
X136975Y157202D01*
X213985Y293932D02*
X214363Y294309D01*
X206800Y293932D02*
X213985D01*
X218400Y284924D02*
Y297182D01*
X214363Y301219D02*
X218400Y297182D01*
X214363Y301219D02*
Y301810D01*
X214359Y301805D02*
X214363Y301810D01*
X206800Y301805D02*
X214359D01*
X233400Y255453D02*
Y262876D01*
Y255430D02*
Y255453D01*
X238400Y260430D02*
Y262876D01*
X233400Y255430D02*
X238400Y260430D01*
X223400Y260809D02*
Y262876D01*
X218400D02*
Y264943D01*
X232737Y254790D02*
X233400Y255453D01*
X232737Y254200D02*
Y254790D01*
X207900Y264443D02*
X208400Y264943D01*
Y262876D02*
Y264943D01*
X235386Y280871D02*
X236414D01*
X238400Y282857D01*
Y284924D01*
X233400Y282857D02*
X235386Y280871D01*
X233400Y282857D02*
Y284924D01*
X228400Y282857D02*
Y284924D01*
X225621Y280077D02*
X228400Y282857D01*
X221180Y280077D02*
X225621D01*
X218400Y282857D02*
X221180Y280077D01*
X218400Y282857D02*
Y284924D01*
X211614Y280700D02*
X213400Y282486D01*
Y284924D01*
X210557Y280700D02*
X211614D01*
X208400Y282857D02*
X210557Y280700D01*
X208400Y282857D02*
Y284924D01*
X136676Y162500D02*
X138743D01*
X141523Y165279D01*
X119826Y163600D02*
Y164191D01*
X123294Y167659D01*
X130290D01*
X131830Y166119D01*
Y160280D02*
Y166119D01*
Y160280D02*
X134609Y157500D01*
X136676D01*
X127700Y155956D02*
Y156546D01*
Y155956D02*
X129168Y154487D01*
X132622D01*
X134609Y152500D01*
X136676D01*
X127700Y156546D02*
Y163600D01*
X154800Y144300D02*
X156600Y142500D01*
X158724D01*
X154800Y144300D02*
Y145426D01*
X156874Y147500D01*
X140729Y144486D02*
Y145514D01*
X138743Y142500D02*
X140729Y144486D01*
X136676Y142500D02*
X138743D01*
Y147500D02*
X140729Y145514D01*
X136676Y147500D02*
X138743D01*
X154600Y169400D02*
X156500Y167500D01*
X158724D01*
X154600Y169400D02*
Y170443D01*
X156657Y172500D01*
X158724D01*
X257803Y118024D02*
X273880Y101946D01*
X257803Y118024D02*
X258224D01*
X273880Y99695D02*
Y101946D01*
Y99695D02*
X274819Y98756D01*
X271515Y138024D02*
X273492Y140000D01*
X255370Y138024D02*
X271515D01*
X267843Y143024D02*
X274819Y150000D01*
X255370Y143024D02*
X267843D01*
X262843Y148024D02*
X274819Y160000D01*
X255370Y148024D02*
X262843D01*
X220055Y138024D02*
X227807Y145776D01*
X217181Y138024D02*
X220055D01*
X220035Y143024D02*
X224257Y147246D01*
X32800Y184700D02*
X39100D01*
X32100Y206300D02*
Y212500D01*
Y192374D02*
Y198800D01*
X54200Y125154D02*
X57346Y122008D01*
X50800Y115154D02*
X54507D01*
X49091Y113445D02*
X50800Y115154D01*
X45268Y113445D02*
X49091D01*
X43800Y111976D02*
X45268Y113445D01*
X254835Y215760D02*
X255095Y215500D01*
X214051Y220500D02*
X216905D01*
X216906Y215500D02*
X217204Y215202D01*
X274819Y228756D02*
X281000Y234937D01*
Y266804D01*
X307157Y274900D02*
Y287421D01*
X307157Y287421D01*
X40020Y158932D02*
X45443D01*
X57653Y154847D02*
X62500Y150000D01*
X44216Y154847D02*
X57653D01*
X43600Y155463D02*
X44216Y154847D01*
X57653Y135153D02*
X62500Y140000D01*
X46009Y135153D02*
X57653D01*
X44600Y136563D02*
X46009Y135153D01*
X57653Y75153D02*
X62500Y80000D01*
X44009Y75153D02*
X57653D01*
X43500Y75663D02*
X44009Y75153D01*
X315400Y99874D02*
Y106063D01*
Y99874D02*
X319000D01*
X307157Y228760D02*
Y231943D01*
X300783Y238316D02*
X307157Y231943D01*
X281000Y266804D02*
X286925Y272729D01*
X316800Y295527D02*
X317000Y295327D01*
X263210Y89137D02*
X263800D01*
X261705Y90641D02*
X263210Y89137D01*
X261705Y90641D02*
Y94131D01*
X260237Y95600D02*
X261705Y94131D01*
X248163Y71000D02*
X248263Y71100D01*
X255937Y79303D02*
X256137Y79103D01*
X255937Y79303D02*
Y86800D01*
X255974Y77663D02*
X256137Y77500D01*
X263800Y74432D02*
X263895Y74337D01*
X263800Y74432D02*
Y81263D01*
X256037Y71000D02*
Y71591D01*
X217181Y153024D02*
Y162319D01*
X213100Y166400D02*
X217181Y162319D01*
X243600Y106200D02*
X244439D01*
X246263Y108024D01*
X255370D01*
X217181Y143024D02*
X220035D01*
X255094Y190500D02*
X257949D01*
X255370Y133024D02*
X271545D01*
X274569Y130000D01*
X255370Y128024D02*
X266795D01*
X261795Y123024D02*
X274819Y110000D01*
X255370Y123024D02*
X261795D01*
X314500Y183000D02*
X314600Y182900D01*
X255370Y113024D02*
X258224D01*
X255370Y118024D02*
X257803D01*
X273880Y101946D02*
X274819Y101007D01*
X257803Y118024D02*
X257803Y118024D01*
X273880Y101946D02*
Y102368D01*
X255370Y118024D02*
X257803D01*
X274819Y100000D02*
Y101007D01*
X266795Y128024D02*
X274819Y120000D01*
X274569Y130000D02*
X274819D01*
X273492Y140000D02*
X274819D01*
X57653Y164847D02*
X62500Y160000D01*
X255094Y185500D02*
X257949D01*
X326900Y276000D02*
Y287364D01*
X326843Y287421D02*
X326900Y287364D01*
X314500Y183000D02*
X315000D01*
X255370Y113024D02*
X258224D01*
X145100Y15198D02*
Y9200D01*
Y11199D01*
X149099Y15198D01*
X146100Y12199D01*
X149099Y9200D01*
X152098Y13199D02*
X154097D01*
X155097Y12199D01*
Y9200D01*
X152098D01*
X151098Y10200D01*
X152098Y11199D01*
X155097D01*
X157096Y13199D02*
Y9200D01*
Y11199D01*
X158096Y12199D01*
X159096Y13199D01*
X160095D01*
X163094D02*
X167093D01*
X163094Y9200D01*
X167093D01*
X179089Y14198D02*
X178089Y15198D01*
X176090D01*
X175090Y14198D01*
Y10200D01*
X176090Y9200D01*
X178089D01*
X179089Y10200D01*
Y12199D01*
X177090D01*
X184087Y9200D02*
X182088D01*
X181088Y10200D01*
Y12199D01*
X182088Y13199D01*
X184087D01*
X185087Y12199D01*
Y11199D01*
X181088D01*
X187086Y13199D02*
Y9200D01*
Y11199D01*
X188086Y12199D01*
X189086Y13199D01*
X190085D01*
X195084Y7201D02*
X196083D01*
X197083Y8200D01*
Y13199D01*
X194084D01*
X193085Y12199D01*
Y10200D01*
X194084Y9200D01*
X197083D01*
X202082D02*
X200082D01*
X199083Y10200D01*
Y12199D01*
X200082Y13199D01*
X202082D01*
X203081Y12199D01*
Y11199D01*
X199083D01*
X205081Y9200D02*
X207080D01*
X206080D01*
Y15198D01*
X205081D01*
X210079Y13199D02*
Y10200D01*
X211079Y9200D01*
X214078D01*
Y8200D01*
X213078Y7201D01*
X212078D01*
X214078Y9200D02*
Y13199D01*
D47*
X112537Y198200D02*
D03*
X104663D02*
D03*
X170921Y223100D02*
D03*
X163047D02*
D03*
X247063Y228200D02*
D03*
X254937D02*
D03*
X214363Y301810D02*
D03*
X222237D02*
D03*
X224863Y254200D02*
D03*
X232737D02*
D03*
X119826Y156546D02*
D03*
X127700D02*
D03*
X252363Y95600D02*
D03*
X260237D02*
D03*
X181137Y155100D02*
D03*
X173263D02*
D03*
X173276Y141100D02*
D03*
X181150D02*
D03*
X256037Y71000D02*
D03*
X248163D02*
D03*
X248263Y79103D02*
D03*
X256137D02*
D03*
X255937Y86800D02*
D03*
X248063D02*
D03*
X112537Y190763D02*
D03*
X104663D02*
D03*
X310063Y300200D02*
D03*
X317937D02*
D03*
X222237Y294309D02*
D03*
X214363D02*
D03*
X127700Y163600D02*
D03*
X119826D02*
D03*
X173263Y148024D02*
D03*
X181137D02*
D03*
X173300Y162100D02*
D03*
X181174D02*
D03*
D48*
X78150Y246410D02*
D03*
Y267000D02*
D03*
D49*
X310579Y310763D02*
D03*
D50*
X295225Y315094D02*
D03*
Y306432D02*
D03*
D51*
X122100Y211800D02*
D03*
Y219280D02*
D03*
X132549Y215540D02*
D03*
X71576Y92160D02*
D03*
Y99640D02*
D03*
X82024Y95900D02*
D03*
X131024Y202300D02*
D03*
X120576Y206040D02*
D03*
Y198560D02*
D03*
D52*
X207385Y120937D02*
D03*
Y113063D02*
D03*
X71100Y152974D02*
D03*
Y145100D02*
D03*
X36900Y130963D02*
D03*
Y138837D02*
D03*
X206800Y293932D02*
D03*
Y301805D02*
D03*
X43800Y119850D02*
D03*
Y111976D02*
D03*
X44600Y136563D02*
D03*
Y144437D02*
D03*
X43500Y83537D02*
D03*
Y75663D02*
D03*
X43200Y155463D02*
D03*
Y163337D02*
D03*
X35900D02*
D03*
Y171211D02*
D03*
X32100Y212500D02*
D03*
Y220374D02*
D03*
Y192374D02*
D03*
Y184500D02*
D03*
X315400Y206437D02*
D03*
Y198563D02*
D03*
Y161437D02*
D03*
Y153563D02*
D03*
Y113937D02*
D03*
Y106063D02*
D03*
Y67000D02*
D03*
Y59126D02*
D03*
Y190874D02*
D03*
Y183000D02*
D03*
Y144437D02*
D03*
Y136563D02*
D03*
Y99874D02*
D03*
Y92000D02*
D03*
Y50937D02*
D03*
Y43063D02*
D03*
X128600Y141217D02*
D03*
Y149091D02*
D03*
X199200Y293637D02*
D03*
Y285763D02*
D03*
X263800Y89137D02*
D03*
Y81263D02*
D03*
X263895Y74337D02*
D03*
Y66463D02*
D03*
X265000Y165882D02*
D03*
Y173756D02*
D03*
X121400Y141263D02*
D03*
Y149137D02*
D03*
D53*
X206335Y104100D02*
D03*
X189800D02*
D03*
X119972Y190702D02*
D03*
X136508D02*
D03*
Y179202D02*
D03*
X119972D02*
D03*
X146565Y196300D02*
D03*
X163100D02*
D03*
D54*
X238400Y284924D02*
D03*
X233400D02*
D03*
X228400D02*
D03*
X223400D02*
D03*
X218400D02*
D03*
X213400D02*
D03*
X208400D02*
D03*
X238400Y262876D02*
D03*
X233400D02*
D03*
X228400D02*
D03*
X223400D02*
D03*
X218400D02*
D03*
X213400D02*
D03*
X208400D02*
D03*
D55*
X158724Y142500D02*
D03*
Y147500D02*
D03*
Y152500D02*
D03*
Y157500D02*
D03*
Y162500D02*
D03*
Y167500D02*
D03*
Y172500D02*
D03*
X136676Y142500D02*
D03*
Y147500D02*
D03*
Y152500D02*
D03*
Y157500D02*
D03*
Y162500D02*
D03*
Y167500D02*
D03*
Y172500D02*
D03*
D56*
X255095Y175500D02*
D03*
Y180500D02*
D03*
Y185500D02*
D03*
Y190500D02*
D03*
Y195500D02*
D03*
Y200500D02*
D03*
Y205500D02*
D03*
Y210500D02*
D03*
Y215500D02*
D03*
Y220500D02*
D03*
X216905Y175500D02*
D03*
Y180500D02*
D03*
Y185500D02*
D03*
Y190500D02*
D03*
Y195500D02*
D03*
Y200500D02*
D03*
Y205500D02*
D03*
Y210500D02*
D03*
Y215500D02*
D03*
Y220500D02*
D03*
X217181Y153024D02*
D03*
Y148024D02*
D03*
Y143024D02*
D03*
Y138024D02*
D03*
Y133024D02*
D03*
Y128024D02*
D03*
Y123024D02*
D03*
Y118024D02*
D03*
Y113024D02*
D03*
Y108024D02*
D03*
X255370Y153024D02*
D03*
Y148024D02*
D03*
Y143024D02*
D03*
Y138024D02*
D03*
Y133024D02*
D03*
Y128024D02*
D03*
Y123024D02*
D03*
Y118024D02*
D03*
Y113024D02*
D03*
Y108024D02*
D03*
D57*
X295346Y225217D02*
D03*
X338654D02*
D03*
Y289784D02*
D03*
X295346D02*
D03*
D58*
X342098Y257500D02*
D03*
X291902D02*
D03*
D59*
X307157Y228760D02*
D03*
X326842D02*
D03*
Y287421D02*
D03*
X307157D02*
D03*
X317000D02*
D03*
D60*
X140729Y222435D02*
D03*
Y205900D02*
D03*
D61*
X45502Y246400D02*
D03*
X64400D02*
D03*
D62*
X30300Y205900D02*
D03*
X38961D02*
D03*
X30300Y198800D02*
D03*
X38961D02*
D03*
D63*
X341358Y212350D02*
D03*
Y176524D02*
D03*
X323642D02*
D03*
Y212350D02*
D03*
X341358Y166350D02*
D03*
Y130524D02*
D03*
X323642D02*
D03*
Y166350D02*
D03*
X341358Y119850D02*
D03*
Y84024D02*
D03*
X323642D02*
D03*
Y119850D02*
D03*
X341358Y73413D02*
D03*
Y37587D02*
D03*
X323642D02*
D03*
Y73413D02*
D03*
D64*
X338654Y260945D02*
Y291162D01*
X47107Y229800D02*
Y248493D01*
X75906Y148168D02*
X84048D01*
X71100Y152974D02*
X75906Y148168D01*
X67847Y156228D02*
Y164654D01*
X62500Y170000D02*
X67847Y164654D01*
X60154Y170000D02*
X62500D01*
X67847Y156228D02*
X71100Y152974D01*
X310000Y295327D02*
X317000D01*
X299512D02*
X310000D01*
X43650Y120000D02*
X43800Y119850D01*
X43875Y119925D01*
X52425D01*
X52500Y120000D01*
X296000Y291815D02*
X299512Y295327D01*
X256037Y71000D02*
X256537Y70500D01*
X274319D02*
X274819Y70000D01*
X256037Y70410D02*
Y71000D01*
X338654Y225217D02*
X342098Y228661D01*
Y257500D01*
X338654Y260945D02*
X342098Y257500D01*
X317000Y287421D02*
Y295327D01*
X334488D01*
X338654Y291162D01*
D65*
X295000Y261291D02*
X295346Y260945D01*
Y224254D02*
Y254055D01*
X295000Y272000D02*
Y289437D01*
Y261291D02*
Y272000D01*
X291902Y257500D02*
X295346Y260945D01*
X291902Y257500D02*
X295346Y254055D01*
D66*
X282500Y192900D02*
Y213900D01*
Y192900D02*
X285400Y190000D01*
X292500D01*
D67*
X256537Y70500D02*
X274319D01*
D68*
X54413Y275902D02*
X67543D01*
X52500Y277815D02*
X54413Y275902D01*
X67543D02*
X75949Y267496D01*
D69*
X197000Y232343D02*
D03*
X139000D02*
D03*
X178500Y103000D02*
D03*
X84048Y108168D02*
D03*
D70*
X187000Y232343D02*
D03*
X157000D02*
D03*
Y262343D02*
D03*
X167000Y232343D02*
D03*
X177000D02*
D03*
X167000Y262343D02*
D03*
X177000D02*
D03*
X187000D02*
D03*
X129000Y232343D02*
D03*
X99000D02*
D03*
Y262343D02*
D03*
X109000Y232343D02*
D03*
X119000D02*
D03*
X109000Y262343D02*
D03*
X119000D02*
D03*
X129000D02*
D03*
X168500Y103000D02*
D03*
X138500D02*
D03*
Y133000D02*
D03*
X148500Y103000D02*
D03*
X158500D02*
D03*
X148500Y133000D02*
D03*
X158500D02*
D03*
X168500D02*
D03*
X149900Y320300D02*
D03*
X139900Y309200D02*
D03*
X274819Y70000D02*
D03*
Y80000D02*
D03*
Y90000D02*
D03*
Y100000D02*
D03*
Y110000D02*
D03*
Y120000D02*
D03*
Y130000D02*
D03*
Y140000D02*
D03*
Y150000D02*
D03*
Y160000D02*
D03*
Y170000D02*
D03*
Y180000D02*
D03*
Y190000D02*
D03*
Y200000D02*
D03*
Y210000D02*
D03*
Y220000D02*
D03*
Y230000D02*
D03*
Y240000D02*
D03*
Y250000D02*
D03*
X114048Y118168D02*
D03*
Y128168D02*
D03*
Y138168D02*
D03*
X84048Y128168D02*
D03*
Y138168D02*
D03*
X114048Y148168D02*
D03*
X84048D02*
D03*
Y118168D02*
D03*
D71*
X197000Y262343D02*
D03*
X139000D02*
D03*
X178500Y133000D02*
D03*
D72*
X191000Y309000D02*
D03*
X189819Y277504D02*
D03*
X165803Y309000D02*
D03*
X166984Y277504D02*
D03*
X98484Y277482D02*
D03*
X97303Y308978D02*
D03*
X121319Y277482D02*
D03*
X122500Y308978D02*
D03*
D73*
X139900Y320300D02*
D03*
X149900Y309200D02*
D03*
X114048Y108168D02*
D03*
D74*
X274819Y60000D02*
D03*
D75*
X292500Y30000D02*
D03*
X302500D02*
D03*
X292500Y40000D02*
D03*
X302500D02*
D03*
X292500Y50000D02*
D03*
X302500D02*
D03*
X292500Y60000D02*
D03*
X302500D02*
D03*
X292500Y70000D02*
D03*
X302500D02*
D03*
X292500Y80000D02*
D03*
X302500D02*
D03*
X292500Y90000D02*
D03*
X302500D02*
D03*
X292500Y100000D02*
D03*
X302500D02*
D03*
X292500Y110000D02*
D03*
X302500D02*
D03*
X292500Y120000D02*
D03*
X302500D02*
D03*
X292500Y130000D02*
D03*
X302500D02*
D03*
X292500Y140000D02*
D03*
X302500D02*
D03*
X292500Y150000D02*
D03*
X302500D02*
D03*
X292500Y160000D02*
D03*
X302500D02*
D03*
X292500Y170000D02*
D03*
X302500D02*
D03*
X292500Y180000D02*
D03*
X302500D02*
D03*
X292500Y190000D02*
D03*
X302500D02*
D03*
X292500Y200000D02*
D03*
X302500D02*
D03*
X292500Y210000D02*
D03*
X52500Y30000D02*
D03*
X62500D02*
D03*
X52500Y40000D02*
D03*
X62500D02*
D03*
X52500Y50000D02*
D03*
X62500D02*
D03*
X52500Y60000D02*
D03*
X62500D02*
D03*
X52500Y70000D02*
D03*
X62500D02*
D03*
X52500Y80000D02*
D03*
X62500D02*
D03*
X52500Y90000D02*
D03*
X62500D02*
D03*
X52500Y100000D02*
D03*
X62500D02*
D03*
X52500Y110000D02*
D03*
X62500D02*
D03*
X52500Y120000D02*
D03*
X62500D02*
D03*
X52500Y130000D02*
D03*
X62500D02*
D03*
X52500Y140000D02*
D03*
X62500D02*
D03*
X52500Y150000D02*
D03*
X62500D02*
D03*
X52500Y160000D02*
D03*
X62500D02*
D03*
X52500Y170000D02*
D03*
X62500D02*
D03*
X52500Y180000D02*
D03*
X62500D02*
D03*
X52500Y190000D02*
D03*
X62500D02*
D03*
X52500Y200000D02*
D03*
X62500D02*
D03*
X52500Y210000D02*
D03*
D76*
X302500D02*
D03*
X62500D02*
D03*
D77*
X32500Y290315D02*
D03*
X52500Y302815D02*
D03*
Y277815D02*
D03*
D78*
X317000Y275217D02*
D03*
D79*
X20000Y310000D02*
D03*
X334626D02*
D03*
Y20000D02*
D03*
X20000D02*
D03*
D80*
X178402Y287347D02*
D03*
Y314906D02*
D03*
X109902Y314883D02*
D03*
Y287324D02*
D03*
D81*
X244033Y236200D02*
D03*
X251700Y249500D02*
D03*
X253500Y268000D02*
D03*
X47107Y229800D02*
D03*
X60800Y227680D02*
D03*
X227600Y197700D02*
D03*
X54000Y226400D02*
D03*
X67100D02*
D03*
X109100Y175100D02*
D03*
X115715Y212540D02*
D03*
X282500Y213900D02*
D03*
X313800Y233532D02*
D03*
X287900Y244600D02*
D03*
X264300Y214400D02*
D03*
X207500Y127100D02*
D03*
X239800Y208900D02*
D03*
X50700Y220800D02*
D03*
X245400Y214800D02*
D03*
X207900Y275000D02*
D03*
X200800Y277100D02*
D03*
X204700Y154839D02*
D03*
X206800Y183300D02*
D03*
X300783Y245900D02*
D03*
X39500Y218200D02*
D03*
X240500Y199900D02*
D03*
X104100Y171600D02*
D03*
X245900Y191300D02*
D03*
X230600Y189400D02*
D03*
X222400Y169000D02*
D03*
X225900Y176401D02*
D03*
X227500Y160600D02*
D03*
X262941Y157740D02*
D03*
X245700Y181600D02*
D03*
X232100Y168800D02*
D03*
X315100Y85500D02*
D03*
X264900Y185600D02*
D03*
X314600Y174818D02*
D03*
X226500Y111100D02*
D03*
X231300Y114800D02*
D03*
X164098Y138300D02*
D03*
X230500Y132400D02*
D03*
X227400Y122500D02*
D03*
X181200Y168800D02*
D03*
X246900Y111900D02*
D03*
X167300Y157600D02*
D03*
X144000Y156900D02*
D03*
X227807Y145776D02*
D03*
X39100Y184700D02*
D03*
X307157Y274900D02*
D03*
X213100Y166400D02*
D03*
X243600Y106200D02*
D03*
X295000Y272000D02*
D03*
X326900Y276000D02*
D03*
D82*
X276787Y292677D02*
D03*
Y17086D02*
D03*
X77969Y292677D02*
D03*
Y17086D02*
D03*
D83*
X317000Y257500D02*
D03*
M02*
