G04*
G04 #@! TF.GenerationSoftware,Altium Limited,Altium Designer,19.0.12 (326)*
G04*
G04 Layer_Color=32896*
%FSLAX25Y25*%
%MOIN*%
G70*
G01*
G75*
%ADD12C,0.01000*%
%ADD13C,0.00787*%
%ADD14C,0.00600*%
D12*
X101913Y236457D02*
X116087D01*
Y243543D01*
X101913D02*
X116087D01*
X101913Y236457D02*
Y243543D01*
X148950Y153957D02*
X163124D01*
Y161043D01*
X148950D02*
X163124D01*
X148950Y153957D02*
Y161043D01*
X105021Y102656D02*
Y113680D01*
X88879Y102656D02*
X109351D01*
Y113680D01*
X88879D02*
X109351D01*
X88879Y102656D02*
Y113680D01*
X39803Y340905D02*
X315492D01*
X39803Y10295D02*
Y340905D01*
Y10295D02*
X315492D01*
Y340905D01*
X142543Y243513D02*
Y257687D01*
X135457D02*
X142543D01*
X135457Y243513D02*
Y257687D01*
Y243513D02*
X142543D01*
X200543Y243576D02*
Y257750D01*
X193457D02*
X200543D01*
X193457Y243576D02*
Y257750D01*
Y243576D02*
X200543D01*
X141213Y115243D02*
X155387D01*
X141213Y108157D02*
Y115243D01*
Y108157D02*
X155387D01*
Y115243D01*
X251513Y286343D02*
X265687D01*
X251513Y279257D02*
Y286343D01*
Y279257D02*
X265687D01*
Y286343D01*
X255576Y255020D02*
X269750D01*
Y262106D01*
X255576D02*
X269750D01*
X255576Y255020D02*
Y262106D01*
Y246520D02*
X269750D01*
Y253606D01*
X255576D02*
X269750D01*
X255576Y246520D02*
Y253606D01*
X297843Y215013D02*
Y229187D01*
X290757D02*
X297843D01*
X290757Y215013D02*
Y229187D01*
Y215013D02*
X297843D01*
X84757Y164013D02*
Y178187D01*
Y164013D02*
X91843D01*
Y178187D01*
X84757D02*
X91843D01*
X76143Y183445D02*
Y197618D01*
X69057D02*
X76143D01*
X69057Y183445D02*
Y197618D01*
Y183445D02*
X76143D01*
X74643Y168313D02*
Y182487D01*
X67557D02*
X74643D01*
X67557Y168313D02*
Y182487D01*
Y168313D02*
X74643D01*
X92248Y164013D02*
Y178187D01*
Y164013D02*
X99335D01*
Y178187D01*
X92248D02*
X99335D01*
X247457Y87913D02*
Y102087D01*
Y87913D02*
X254543D01*
Y102087D01*
X247457D02*
X254543D01*
X238457Y87913D02*
Y102087D01*
Y87913D02*
X245543D01*
Y102087D01*
X238457D02*
X245543D01*
X229457Y87913D02*
Y102087D01*
Y87913D02*
X236543D01*
Y102087D01*
X229457D02*
X236543D01*
X220457Y87913D02*
Y102087D01*
Y87913D02*
X227543D01*
Y102087D01*
X220457D02*
X227543D01*
X142488Y237032D02*
X153512D01*
X142488D02*
Y257504D01*
X153512D01*
Y237032D02*
Y257504D01*
X142488Y253173D02*
X153512D01*
X200488Y237032D02*
X211512D01*
X200488D02*
Y257504D01*
X211512D01*
Y237032D02*
Y257504D01*
X200488Y253173D02*
X211512D01*
X303614Y255256D02*
X310701D01*
X303614D02*
Y269429D01*
X310701D01*
Y255256D02*
Y269429D01*
X323299Y255256D02*
X330386D01*
X323299D02*
Y269429D01*
X330386D01*
Y255256D02*
Y269429D01*
X125457Y254087D02*
X132543D01*
Y239913D02*
Y254087D01*
X125457Y239913D02*
X132543D01*
X125457D02*
Y254087D01*
X183457D02*
X190543D01*
Y239913D02*
Y254087D01*
X183457Y239913D02*
X190543D01*
X183457D02*
Y254087D01*
X315000Y350398D02*
Y345400D01*
X314000Y344400D01*
X312001D01*
X311001Y345400D01*
Y350398D01*
X309002Y344400D02*
X307003D01*
X308002D01*
Y350398D01*
X309002Y349398D01*
D13*
X307500Y25000D02*
Y215000D01*
X287500Y25000D02*
Y215000D01*
X307500D01*
X287500Y25000D02*
X307500D01*
X67500D02*
Y215000D01*
X47500Y25000D02*
Y215000D01*
X67500D01*
X47500Y25000D02*
X67500D01*
X166301Y118812D02*
X171301D01*
X166301Y107788D02*
X171301D01*
Y118812D01*
X166301Y107788D02*
Y118812D01*
X264169Y268323D02*
Y273323D01*
X253146Y268323D02*
Y273323D01*
Y268323D02*
X264169D01*
X253146Y273323D02*
X264169D01*
D14*
X113400Y246700D02*
Y249899D01*
X111801D01*
X111267Y249366D01*
Y248300D01*
X111801Y247766D01*
X113400D01*
X112334D02*
X111267Y246700D01*
X108068D02*
X110201D01*
X108068Y248833D01*
Y249366D01*
X108601Y249899D01*
X109668D01*
X110201Y249366D01*
X104869Y249899D02*
X105936Y249366D01*
X107002Y248300D01*
Y247233D01*
X106469Y246700D01*
X105403D01*
X104869Y247233D01*
Y247766D01*
X105403Y248300D01*
X107002D01*
X156567Y166166D02*
X157100Y166699D01*
X158167D01*
X158700Y166166D01*
Y164033D01*
X158167Y163500D01*
X157100D01*
X156567Y164033D01*
X155501Y166166D02*
X154968Y166699D01*
X153902D01*
X153368Y166166D01*
Y165633D01*
X153902Y165100D01*
X154435D01*
X153902D01*
X153368Y164566D01*
Y164033D01*
X153902Y163500D01*
X154968D01*
X155501Y164033D01*
X101900Y119499D02*
Y116300D01*
X100301D01*
X99767Y116833D01*
Y118966D01*
X100301Y119499D01*
X101900D01*
X98701Y118966D02*
X98168Y119499D01*
X97101D01*
X96568Y118966D01*
Y118433D01*
X97101Y117900D01*
X97635D01*
X97101D01*
X96568Y117366D01*
Y116833D01*
X97101Y116300D01*
X98168D01*
X98701Y116833D01*
X306467Y220066D02*
X307000Y220599D01*
X308067D01*
X308600Y220066D01*
Y217933D01*
X308067Y217400D01*
X307000D01*
X306467Y217933D01*
X305401Y217400D02*
Y220599D01*
X303268Y217400D01*
Y220599D01*
X302202D02*
X300069D01*
Y220066D01*
X302202Y217933D01*
Y217400D01*
X65367Y219666D02*
X65900Y220199D01*
X66967D01*
X67500Y219666D01*
Y217533D01*
X66967Y217000D01*
X65900D01*
X65367Y217533D01*
X64301Y217000D02*
Y220199D01*
X62168Y217000D01*
Y220199D01*
X61102Y217000D02*
X60036D01*
X60569D01*
Y220199D01*
X61102Y219666D01*
X58436D02*
X57903Y220199D01*
X56837D01*
X56304Y219666D01*
Y217533D01*
X56837Y217000D01*
X57903D01*
X58436Y217533D01*
Y219666D01*
X298567Y267366D02*
X299100Y267899D01*
X300167D01*
X300700Y267366D01*
Y265233D01*
X300167Y264700D01*
X299100D01*
X298567Y265233D01*
X297501Y264700D02*
X296435D01*
X296968D01*
Y267899D01*
X297501Y267366D01*
X292703Y264700D02*
X294835D01*
X292703Y266833D01*
Y267366D01*
X293236Y267899D01*
X294302D01*
X294835Y267366D01*
X337667D02*
X338200Y267899D01*
X339267D01*
X339800Y267366D01*
Y265233D01*
X339267Y264700D01*
X338200D01*
X337667Y265233D01*
X336601Y264700D02*
X335535D01*
X336068D01*
Y267899D01*
X336601Y267366D01*
X333935Y264700D02*
X332869D01*
X333402D01*
Y267899D01*
X333935Y267366D01*
X151900Y118100D02*
Y121299D01*
X150301D01*
X149767Y120766D01*
Y119700D01*
X150301Y119166D01*
X151900D01*
X150834D02*
X149767Y118100D01*
X148701D02*
X147635D01*
X148168D01*
Y121299D01*
X148701Y120766D01*
X143903Y121299D02*
X144969Y120766D01*
X146035Y119700D01*
Y118633D01*
X145502Y118100D01*
X144436D01*
X143903Y118633D01*
Y119166D01*
X144436Y119700D01*
X146035D01*
X169167Y122133D02*
Y124266D01*
X169701Y124799D01*
X170767D01*
X171300Y124266D01*
Y122133D01*
X170767Y121600D01*
X169701D01*
X170234Y122666D02*
X169167Y121600D01*
X169701D02*
X169167Y122133D01*
X165968Y121600D02*
X168101D01*
X165968Y123733D01*
Y124266D01*
X166501Y124799D01*
X167568D01*
X168101Y124266D01*
X140700Y277300D02*
X137501D01*
Y275700D01*
X138034Y275167D01*
X139101D01*
X139634Y275700D01*
Y277300D01*
Y276234D02*
X140700Y275167D01*
Y271968D02*
Y274101D01*
X138567Y271968D01*
X138034D01*
X137501Y272501D01*
Y273568D01*
X138034Y274101D01*
X137501Y268769D02*
Y270902D01*
X139101D01*
X138567Y269836D01*
Y269303D01*
X139101Y268769D01*
X140167D01*
X140700Y269303D01*
Y270369D01*
X140167Y270902D01*
X211300Y265900D02*
Y269099D01*
X209700D01*
X209167Y268566D01*
Y267499D01*
X209700Y266966D01*
X211300D01*
X210234D02*
X209167Y265900D01*
X205968D02*
X208101D01*
X205968Y268033D01*
Y268566D01*
X206502Y269099D01*
X207568D01*
X208101Y268566D01*
X203303Y265900D02*
Y269099D01*
X204902Y267499D01*
X202769D01*
X262600Y288700D02*
Y291899D01*
X261000D01*
X260467Y291366D01*
Y290300D01*
X261000Y289766D01*
X262600D01*
X261534D02*
X260467Y288700D01*
X259401D02*
X258335D01*
X258868D01*
Y291899D01*
X259401Y291366D01*
X254603Y291899D02*
X256735D01*
Y290300D01*
X255669Y290833D01*
X255136D01*
X254603Y290300D01*
Y289233D01*
X255136Y288700D01*
X256202D01*
X256735Y289233D01*
X252700Y257200D02*
Y260399D01*
X251100D01*
X250567Y259866D01*
Y258800D01*
X251100Y258266D01*
X252700D01*
X251634D02*
X250567Y257200D01*
X249501D02*
X248435D01*
X248968D01*
Y260399D01*
X249501Y259866D01*
X246835D02*
X246302Y260399D01*
X245236D01*
X244703Y259866D01*
Y259333D01*
X245236Y258800D01*
X245769D01*
X245236D01*
X244703Y258266D01*
Y257733D01*
X245236Y257200D01*
X246302D01*
X246835Y257733D01*
X266400Y240900D02*
Y244099D01*
X264801D01*
X264267Y243566D01*
Y242499D01*
X264801Y241966D01*
X266400D01*
X265334D02*
X264267Y240900D01*
X263201D02*
X262135D01*
X262668D01*
Y244099D01*
X263201Y243566D01*
X258403Y240900D02*
X260535D01*
X258403Y243033D01*
Y243566D01*
X258936Y244099D01*
X260002D01*
X260535Y243566D01*
X305300Y225400D02*
Y228599D01*
X303700D01*
X303167Y228066D01*
Y226999D01*
X303700Y226466D01*
X305300D01*
X304234D02*
X303167Y225400D01*
X302101Y225933D02*
X301568Y225400D01*
X300501D01*
X299968Y225933D01*
Y228066D01*
X300501Y228599D01*
X301568D01*
X302101Y228066D01*
Y227533D01*
X301568Y226999D01*
X299968D01*
X90900Y181300D02*
Y184499D01*
X89301D01*
X88767Y183966D01*
Y182899D01*
X89301Y182366D01*
X90900D01*
X89834D02*
X88767Y181300D01*
X87701Y183966D02*
X87168Y184499D01*
X86102D01*
X85568Y183966D01*
Y183433D01*
X86102Y182899D01*
X85568Y182366D01*
Y181833D01*
X86102Y181300D01*
X87168D01*
X87701Y181833D01*
Y182366D01*
X87168Y182899D01*
X87701Y183433D01*
Y183966D01*
X87168Y182899D02*
X86102D01*
X75300Y200400D02*
Y203599D01*
X73700D01*
X73167Y203066D01*
Y201999D01*
X73700Y201466D01*
X75300D01*
X74234D02*
X73167Y200400D01*
X72101Y203599D02*
X69968D01*
Y203066D01*
X72101Y200933D01*
Y200400D01*
X74600Y162700D02*
Y165899D01*
X73001D01*
X72467Y165366D01*
Y164299D01*
X73001Y163766D01*
X74600D01*
X73534D02*
X72467Y162700D01*
X69268Y165899D02*
X70335Y165366D01*
X71401Y164299D01*
Y163233D01*
X70868Y162700D01*
X69801D01*
X69268Y163233D01*
Y163766D01*
X69801Y164299D01*
X71401D01*
X98800Y181200D02*
Y184399D01*
X97201D01*
X96667Y183866D01*
Y182799D01*
X97201Y182266D01*
X98800D01*
X97734D02*
X96667Y181200D01*
X93468Y184399D02*
X95601D01*
Y182799D01*
X94535Y183333D01*
X94002D01*
X93468Y182799D01*
Y181733D01*
X94002Y181200D01*
X95068D01*
X95601Y181733D01*
X254200Y81900D02*
Y85099D01*
X252601D01*
X252067Y84566D01*
Y83499D01*
X252601Y82966D01*
X254200D01*
X253134D02*
X252067Y81900D01*
X249401D02*
Y85099D01*
X251001Y83499D01*
X248868D01*
X244400Y81900D02*
Y85099D01*
X242800D01*
X242267Y84566D01*
Y83499D01*
X242800Y82966D01*
X244400D01*
X243334D02*
X242267Y81900D01*
X241201Y84566D02*
X240668Y85099D01*
X239601D01*
X239068Y84566D01*
Y84033D01*
X239601Y83499D01*
X240135D01*
X239601D01*
X239068Y82966D01*
Y82433D01*
X239601Y81900D01*
X240668D01*
X241201Y82433D01*
X235700Y81700D02*
Y84899D01*
X234101D01*
X233567Y84366D01*
Y83299D01*
X234101Y82766D01*
X235700D01*
X234634D02*
X233567Y81700D01*
X230368D02*
X232501D01*
X230368Y83833D01*
Y84366D01*
X230902Y84899D01*
X231968D01*
X232501Y84366D01*
X226200Y81600D02*
Y84799D01*
X224601D01*
X224067Y84266D01*
Y83200D01*
X224601Y82666D01*
X226200D01*
X225134D02*
X224067Y81600D01*
X223001D02*
X221935D01*
X222468D01*
Y84799D01*
X223001Y84266D01*
X269567Y269433D02*
Y271566D01*
X270100Y272099D01*
X271167D01*
X271700Y271566D01*
Y269433D01*
X271167Y268900D01*
X270100D01*
X270634Y269966D02*
X269567Y268900D01*
X270100D02*
X269567Y269433D01*
X268501Y268900D02*
X267435D01*
X267968D01*
Y272099D01*
X268501Y271566D01*
X146701Y267500D02*
X149900D01*
Y265900D01*
X149367Y265367D01*
X147234D01*
X146701Y265900D01*
Y267500D01*
X149900Y262702D02*
X146701D01*
X148301Y264301D01*
Y262168D01*
X219500Y257199D02*
Y254000D01*
X217900D01*
X217367Y254533D01*
Y256666D01*
X217900Y257199D01*
X219500D01*
X214168Y254000D02*
X216301D01*
X214168Y256133D01*
Y256666D01*
X214702Y257199D01*
X215768D01*
X216301Y256666D01*
X120467Y253466D02*
X121001Y253999D01*
X122067D01*
X122600Y253466D01*
Y251333D01*
X122067Y250800D01*
X121001D01*
X120467Y251333D01*
X119401Y253466D02*
X118868Y253999D01*
X117801D01*
X117268Y253466D01*
Y252933D01*
X117801Y252399D01*
X117268Y251866D01*
Y251333D01*
X117801Y250800D01*
X118868D01*
X119401Y251333D01*
Y251866D01*
X118868Y252399D01*
X119401Y252933D01*
Y253466D01*
X118868Y252399D02*
X117801D01*
X177967Y253366D02*
X178500Y253899D01*
X179567D01*
X180100Y253366D01*
Y251233D01*
X179567Y250700D01*
X178500D01*
X177967Y251233D01*
X174768Y253899D02*
X176901D01*
Y252299D01*
X175835Y252833D01*
X175302D01*
X174768Y252299D01*
Y251233D01*
X175302Y250700D01*
X176368D01*
X176901Y251233D01*
M02*
