M48
;Layer_Color=9474304
;FILE_FORMAT=2:5
INCH,TZ
;TYPE=PLATED
T1F00S00C0.02800
T2F00S00C0.04331
T3F00S00C0.04528
T4F00S00C0.07874
T5F00S00C0.08071
T6F00S00C0.10236
T7F00S00C0.11800
T8F00S00C0.13780
;TYPE=NON_PLATED
%
T01
X226500Y111100
X231300Y114800
X227400Y122500
X230500Y132400
X227807Y145776
X227500Y160600
X232100Y168800
X222400Y169000
X225900Y176401
X230600Y189400
X227600Y197700
X240500Y199900
X239800Y208900
X245400Y214800
X264300Y214400
X282500Y213900
X264900Y185600
X245700Y181600
X245900Y191300
X262941Y157740
X246900Y111900
X243600Y106200
X315100Y85500
X314600Y174818
X213100Y166400
X204700Y154839
X207500Y127100
X164098Y138300
X167300Y157600
X144000Y156900
X181200Y168800
X206800Y183300
X109100Y175100
X104100Y171600
X115715Y212540
X67100Y226400
X54000
X50700Y220800
X39500Y218200
X39100Y184700
X47107Y229800
X60800Y227680
X200800Y277100
X207900Y275000
X253500Y268000
X251700Y249500
X244033Y236200
X287900Y244600
X300783Y245900
X313800Y233532
X307157Y274900
X295000Y272000
X326900Y276000
T02
X52500Y30000
Y40000
Y50000
Y60000
Y70000
X62500
Y60000
Y50000
Y40000
Y30000
X292500
X302500
Y40000
X292500
Y50000
X302500
Y60000
X292500
Y70000
X302500
X274819Y70000
Y60000
Y80000
Y90000
Y100000
Y110000
Y120000
Y130000
Y140000
Y150000
Y160000
Y170000
Y180000
Y190000
Y200000
Y210000
Y220000
X292500Y210000
Y200000
Y190000
Y180000
Y170000
Y160000
Y150000
Y140000
Y130000
Y120000
Y110000
Y100000
Y90000
Y80000
X302500
Y90000
Y100000
Y110000
Y120000
Y130000
Y140000
Y150000
Y160000
Y170000
Y180000
Y190000
Y200000
Y210000
X178500Y133000
X168500
X158500
X148500
X138500
X114048Y128168
Y118168
Y108168
X138500Y103000
X148500
X158500
X168500
X178500
X114048Y138168
Y148168
X84048
Y138168
Y128168
Y118168
Y108168
X62500Y110000
Y100000
Y90000
Y80000
Y120000
Y130000
Y140000
Y150000
Y160000
Y170000
Y180000
Y190000
Y200000
Y210000
X52500
Y200000
Y190000
Y180000
Y170000
Y160000
Y150000
Y140000
Y130000
Y120000
Y110000
Y100000
Y90000
Y80000
X99000Y232343
X109000
X119000
X129000
X139000
X157000
X167000
X177000
X187000
X197000
Y262343
X187000
X177000
X167000
X157000
X139000
X129000
X119000
X109000
X99000
X139900Y309200
X149900
Y320300
X139900
X274819Y250000
Y240000
Y230000
T03
X109902Y287324
Y314883
X178402Y314906
Y287347
T04
X98484Y277482
X121319
X122500Y308978
X97303
X165803Y309000
X191000
X189819Y277504
X166984
T05
X317000Y257500
T06
X77969Y17086
X276787
X77969Y292677
X276787
T07
X32500Y290315
X52500Y302815
Y277815
T08
X20000Y20000
X334626
X20000Y310000
X334626
M30
