G04*
G04 #@! TF.GenerationSoftware,Altium Limited,Altium Designer,19.0.12 (326)*
G04*
G04 Layer_Physical_Order=1*
G04 Layer_Color=255*
%FSLAX25Y25*%
%MOIN*%
G70*
G01*
G75*
%ADD10C,0.01000*%
%ADD44O,0.02559X0.06693*%
%ADD45O,0.06693X0.02559*%
%ADD46O,0.08268X0.02559*%
%ADD47R,0.05118X0.03937*%
%ADD48R,0.03937X0.05118*%
%ADD49R,0.05906X0.09055*%
%ADD50R,0.07874X0.09055*%
%ADD51R,0.04724X0.02559*%
%ADD52R,0.12402X0.07008*%
%ADD53R,0.09843X0.12598*%
%ADD54R,0.14764X0.15748*%
%ADD55R,0.05118X0.11811*%
%ADD56R,0.07087X0.07087*%
%ADD57R,0.07087X0.07087*%
%ADD58R,0.09055X0.09055*%
%ADD59R,0.04724X0.05118*%
%ADD60R,0.05512X0.08268*%
%ADD61C,0.03000*%
%ADD62C,0.02000*%
%ADD63C,0.04000*%
%ADD64C,0.08000*%
%ADD65C,0.01500*%
%ADD66R,0.05906X0.05906*%
%ADD67C,0.05906*%
%ADD68C,0.06693*%
%ADD69R,0.06693X0.06693*%
%ADD70R,0.05906X0.05906*%
%ADD71C,0.05906*%
%ADD72C,0.04800*%
%ADD73C,0.10630*%
%ADD74C,0.18000*%
%ADD75O,0.06102X0.08661*%
%ADD76C,0.23622*%
%ADD77C,0.04100*%
%ADD78C,0.13780*%
%ADD79C,0.05866*%
%ADD80C,0.09409*%
%ADD81C,0.05000*%
G36*
X286563Y312672D02*
X298437D01*
Y316651D01*
X305591D01*
X312241Y310001D01*
Y305668D01*
Y298353D01*
X301783D01*
Y310373D01*
X283217D01*
Y300195D01*
X282217Y299722D01*
X281750Y300104D01*
X280206Y300930D01*
X278530Y301438D01*
X276787Y301610D01*
X275045Y301438D01*
X273369Y300930D01*
X271825Y300104D01*
X270471Y298993D01*
X269360Y297640D01*
X268535Y296095D01*
X268026Y294420D01*
X267855Y292677D01*
X268026Y290934D01*
X268535Y289259D01*
X269360Y287714D01*
X270471Y286361D01*
X271825Y285250D01*
X273369Y284424D01*
X275045Y283916D01*
X276787Y283744D01*
X278530Y283916D01*
X280206Y284424D01*
X281750Y285250D01*
X283104Y286361D01*
X283376Y286693D01*
X284376Y286335D01*
Y273785D01*
X279198Y268606D01*
X278645Y267780D01*
X278451Y266804D01*
Y254716D01*
X277451Y254223D01*
X277317Y254326D01*
X276112Y254825D01*
X274819Y254995D01*
X273526Y254825D01*
X272321Y254326D01*
X271287Y253532D01*
X270493Y252498D01*
X269994Y251293D01*
X269823Y250000D01*
X269994Y248707D01*
X270493Y247502D01*
X271287Y246468D01*
X272321Y245674D01*
X273526Y245175D01*
X274819Y245005D01*
X276112Y245175D01*
X277317Y245674D01*
X277451Y245777D01*
X278451Y245284D01*
Y243402D01*
X278110Y243158D01*
X277451Y242963D01*
X276812Y243453D01*
X275851Y243851D01*
X275569Y243888D01*
Y240000D01*
Y236112D01*
X275851Y236149D01*
X276812Y236547D01*
X277131Y236791D01*
X278136Y236376D01*
X278172Y235714D01*
X276940Y234482D01*
X276112Y234825D01*
X274819Y234995D01*
X273526Y234825D01*
X272321Y234326D01*
X271287Y233532D01*
X270493Y232498D01*
X269994Y231293D01*
X269823Y230000D01*
X269994Y228707D01*
X270493Y227502D01*
X270745Y227173D01*
X271148Y226308D01*
X270646Y225729D01*
X268564Y223647D01*
X268011Y222820D01*
X267817Y221844D01*
Y220447D01*
X266817Y219717D01*
X266300Y219785D01*
X265243Y219646D01*
X264258Y219238D01*
X263411Y218588D01*
X263151Y218249D01*
X260346D01*
X259870Y219217D01*
X259904Y219322D01*
X260096Y219611D01*
X260124Y219750D01*
X255095D01*
Y220500D01*
X254345D01*
Y222824D01*
X252240D01*
X251351Y222647D01*
X250597Y222143D01*
X250093Y221389D01*
X249916Y220500D01*
X249960Y220280D01*
X249038Y219787D01*
X248673Y220152D01*
X247846Y220705D01*
X246870Y220899D01*
X223015D01*
X222955Y221356D01*
X222624Y222154D01*
X222099Y222839D01*
X221414Y223365D01*
X220616Y223695D01*
X219760Y223808D01*
X214051D01*
X213195Y223695D01*
X212397Y223365D01*
X211712Y222839D01*
X211187Y222154D01*
X210856Y221356D01*
X210788Y220842D01*
X207469Y217523D01*
X206917Y216696D01*
X206723Y215721D01*
Y165208D01*
X206917Y164232D01*
X207469Y163405D01*
X208931Y161943D01*
Y136057D01*
X202451Y129576D01*
X201898Y128749D01*
X201704Y127774D01*
Y113978D01*
X201898Y113003D01*
X202451Y112176D01*
X204679Y109948D01*
X205506Y109395D01*
X206482Y109201D01*
X209450D01*
X210425Y109395D01*
X210936Y109736D01*
X211484Y109673D01*
X211726Y109408D01*
X212118Y108774D01*
X217181D01*
X222210D01*
X222183Y108913D01*
X221990Y109201D01*
X221786Y109852D01*
X222180Y110535D01*
X222374Y110685D01*
X222900Y111370D01*
X223231Y112168D01*
X223343Y113024D01*
X223231Y113880D01*
X222900Y114678D01*
X222828Y114772D01*
X222454Y115524D01*
X222828Y116275D01*
X222900Y116370D01*
X223231Y117167D01*
X223343Y118024D01*
X223231Y118880D01*
X222900Y119677D01*
X222828Y119772D01*
X222454Y120524D01*
X222828Y121275D01*
X222900Y121370D01*
X223231Y122168D01*
X223343Y123024D01*
X223231Y123880D01*
X222900Y124678D01*
X222828Y124772D01*
X222454Y125524D01*
X222828Y126275D01*
X222900Y126370D01*
X223231Y127167D01*
X223343Y128024D01*
X223231Y128880D01*
X223018Y129392D01*
X223464Y130286D01*
X223556Y130385D01*
X223656Y130406D01*
X224270Y130370D01*
X224812Y129664D01*
X225658Y129015D01*
X226643Y128606D01*
X227700Y128467D01*
X228757Y128606D01*
X229743Y129015D01*
X230589Y129664D01*
X231238Y130510D01*
X231646Y131495D01*
X231785Y132552D01*
X231646Y133609D01*
X231238Y134595D01*
X230589Y135441D01*
X229743Y136090D01*
X228757Y136498D01*
X227700Y136637D01*
X226643Y136498D01*
X225658Y136090D01*
X225294Y135811D01*
X223648D01*
X223083Y136811D01*
X223231Y137168D01*
X223295Y137660D01*
X227383Y141747D01*
X227807Y141692D01*
X228865Y141831D01*
X229850Y142239D01*
X230696Y142888D01*
X231345Y143734D01*
X231753Y144719D01*
X231892Y145776D01*
X231753Y146834D01*
X231345Y147819D01*
X230696Y148665D01*
X230496Y148818D01*
X230431Y149816D01*
X234001Y153386D01*
X235001Y152972D01*
Y80605D01*
X231345Y76949D01*
X202249D01*
X201989Y77289D01*
X201143Y77938D01*
X200157Y78346D01*
X199100Y78485D01*
X198043Y78346D01*
X197057Y77938D01*
X196212Y77289D01*
X195562Y76442D01*
X195154Y75457D01*
X195076Y74862D01*
X194173Y73973D01*
X194000Y73996D01*
X192771Y73834D01*
X191002Y75603D01*
Y93868D01*
X192002Y94467D01*
X192707Y94175D01*
X194000Y94004D01*
X195293Y94175D01*
X196498Y94674D01*
X197532Y95468D01*
X198326Y96502D01*
X198825Y97707D01*
X198995Y99000D01*
X198825Y100293D01*
X198326Y101498D01*
X197532Y102532D01*
X196498Y103326D01*
X195293Y103825D01*
X194000Y103996D01*
X192771Y103834D01*
X178049Y118556D01*
Y125995D01*
X182059D01*
Y133869D01*
Y141806D01*
X180306D01*
X180175Y142793D01*
X180811Y143465D01*
X185106D01*
Y150541D01*
Y157541D01*
X185143D01*
Y166659D01*
X185143Y166659D01*
X185143D01*
X185111Y167659D01*
X185146Y167743D01*
X185285Y168800D01*
X185146Y169857D01*
X184738Y170843D01*
X184089Y171688D01*
X183242Y172338D01*
X182257Y172746D01*
X181200Y172885D01*
X180143Y172746D01*
X179157Y172338D01*
X178312Y171688D01*
X177662Y170843D01*
X177254Y169857D01*
X177249Y169819D01*
X176783Y169551D01*
X176187Y169412D01*
X175524Y169855D01*
X174549Y170049D01*
X164304D01*
X164012Y170408D01*
X163739Y171049D01*
X163986Y171644D01*
X164098Y172500D01*
X163986Y173356D01*
X163655Y174154D01*
X163129Y174839D01*
X162444Y175365D01*
X161647Y175695D01*
X160791Y175808D01*
X156657D01*
X155801Y175695D01*
X155003Y175365D01*
X154318Y174839D01*
X153792Y174154D01*
X153462Y173356D01*
X153394Y172842D01*
X152798Y172246D01*
X152245Y171419D01*
X152051Y170443D01*
Y169400D01*
X152245Y168424D01*
X152798Y167598D01*
X153418Y166978D01*
X153462Y166644D01*
X153792Y165846D01*
X153865Y165752D01*
X154238Y165000D01*
X153865Y164248D01*
X153792Y164154D01*
X153462Y163356D01*
X153349Y162500D01*
X153462Y161644D01*
X153792Y160846D01*
X154318Y160161D01*
X154513Y160012D01*
X154906Y159329D01*
X154702Y158677D01*
X154509Y158389D01*
X154482Y158250D01*
X158724D01*
X162966D01*
X162938Y158389D01*
X162745Y158677D01*
X162608Y159116D01*
X163088Y159779D01*
X164124Y159792D01*
X164304Y159561D01*
X164558Y158951D01*
X164329Y158396D01*
X164322Y158350D01*
X167300D01*
Y157600D01*
X168050D01*
Y154622D01*
X168096Y154629D01*
X168295Y154711D01*
X169295Y154086D01*
Y150268D01*
X168295Y149734D01*
X168113Y149855D01*
X167138Y150049D01*
X164304D01*
X164012Y150408D01*
X163739Y151049D01*
X163986Y151644D01*
X164098Y152500D01*
X163986Y153356D01*
X163655Y154154D01*
X163129Y154839D01*
X162935Y154988D01*
X162541Y155671D01*
X162745Y156323D01*
X162938Y156611D01*
X162966Y156750D01*
X158724D01*
X154482D01*
X154509Y156611D01*
X154702Y156323D01*
X154741Y156199D01*
X153998Y155528D01*
X146247Y163278D01*
Y190757D01*
X152108D01*
Y201843D01*
X146272D01*
Y207668D01*
X149596Y210991D01*
X164365D01*
X165341Y211185D01*
X166168Y211738D01*
X172739Y218309D01*
X172894Y218541D01*
X174890D01*
Y226627D01*
X175771Y227509D01*
X177000Y227347D01*
X178293Y227517D01*
X179498Y228016D01*
X180532Y228810D01*
X181326Y229845D01*
X181459Y230165D01*
X182541D01*
X182674Y229845D01*
X183468Y228810D01*
X184502Y228016D01*
X185707Y227517D01*
X187000Y227347D01*
X188293Y227517D01*
X189498Y228016D01*
X190532Y228810D01*
X191326Y229845D01*
X191459Y230165D01*
X192541D01*
X192674Y229845D01*
X193468Y228810D01*
X194502Y228016D01*
X195707Y227517D01*
X197000Y227347D01*
X198293Y227517D01*
X199498Y228016D01*
X200532Y228810D01*
X201326Y229845D01*
X201825Y231050D01*
X201995Y232343D01*
X201825Y233635D01*
X201326Y234840D01*
X200532Y235875D01*
X199498Y236669D01*
X198293Y237168D01*
X197000Y237338D01*
X195707Y237168D01*
X194502Y236669D01*
X193468Y235875D01*
X193376Y235869D01*
X190647Y238598D01*
X189820Y239150D01*
X188844Y239344D01*
X175156D01*
X174180Y239150D01*
X173353Y238598D01*
X170624Y235869D01*
X170532Y235875D01*
X169498Y236669D01*
X168293Y237168D01*
X167000Y237338D01*
X165707Y237168D01*
X164502Y236669D01*
X163468Y235875D01*
X162674Y234840D01*
X162541Y234520D01*
X161459D01*
X161326Y234840D01*
X160532Y235875D01*
X159498Y236669D01*
X158293Y237168D01*
X157000Y237338D01*
X155707Y237168D01*
X154502Y236669D01*
X153468Y235875D01*
X152674Y234840D01*
X152175Y233635D01*
X152005Y232343D01*
X152175Y231050D01*
X152674Y229845D01*
X153468Y228810D01*
X154502Y228016D01*
X155707Y227517D01*
X157000Y227347D01*
X158229Y227509D01*
X159079Y226659D01*
Y221783D01*
X157384Y220089D01*
X146680D01*
X146272Y220497D01*
Y227979D01*
X143091D01*
X142833Y228363D01*
X142662Y228979D01*
X143326Y229845D01*
X143825Y231050D01*
X143995Y232343D01*
X143825Y233635D01*
X143326Y234840D01*
X142532Y235875D01*
X141498Y236669D01*
X140293Y237168D01*
X139000Y237338D01*
X137707Y237168D01*
X136502Y236669D01*
X135468Y235875D01*
X134674Y234840D01*
X134641Y234761D01*
X134322Y234698D01*
X134158Y234588D01*
X133326Y234840D01*
X132532Y235875D01*
X131498Y236669D01*
X130293Y237168D01*
X129000Y237338D01*
X127707Y237168D01*
X126502Y236669D01*
X125468Y235875D01*
X124674Y234840D01*
X124541Y234520D01*
X123459D01*
X123326Y234840D01*
X122532Y235875D01*
X121498Y236669D01*
X120293Y237168D01*
X119000Y237338D01*
X117707Y237168D01*
X116502Y236669D01*
X115468Y235875D01*
X114674Y234840D01*
X114541Y234520D01*
X113459D01*
X113326Y234840D01*
X112532Y235875D01*
X111498Y236669D01*
X110293Y237168D01*
X109000Y237338D01*
X107707Y237168D01*
X106502Y236669D01*
X105468Y235875D01*
X104674Y234840D01*
X104541Y234520D01*
X103459D01*
X103326Y234840D01*
X102532Y235875D01*
X101498Y236669D01*
X100293Y237168D01*
X99000Y237338D01*
X97707Y237168D01*
X96502Y236669D01*
X95468Y235875D01*
X94674Y234840D01*
X94175Y233635D01*
X94004Y232343D01*
X94175Y231050D01*
X94674Y229845D01*
X95468Y228810D01*
X96502Y228016D01*
X97707Y227517D01*
X99000Y227347D01*
X99708Y227440D01*
X101594Y225554D01*
Y220041D01*
X112900D01*
X113283Y219117D01*
X107366Y213200D01*
X106814Y212373D01*
X106620Y211398D01*
Y210559D01*
X100794D01*
Y201441D01*
X102151D01*
Y176637D01*
X101812Y176377D01*
X101162Y175531D01*
X100754Y174546D01*
X100615Y173488D01*
X100754Y172431D01*
X101162Y171446D01*
X101812Y170600D01*
X102657Y169951D01*
X103643Y169543D01*
X104700Y169403D01*
X105757Y169543D01*
X106743Y169951D01*
X107589Y170600D01*
X108238Y171446D01*
X108646Y172431D01*
X108778Y173436D01*
X109000Y174415D01*
X110057Y174554D01*
X111042Y174962D01*
X111889Y175611D01*
X112538Y176458D01*
X112946Y177443D01*
X113085Y178500D01*
X112946Y179557D01*
X112538Y180543D01*
X111889Y181388D01*
X111549Y181649D01*
Y186794D01*
X113359D01*
Y194668D01*
Y201441D01*
X116213D01*
Y196246D01*
X114429D01*
Y185159D01*
X125516D01*
Y196246D01*
X124938D01*
Y197253D01*
X125938Y197668D01*
X130965Y192641D01*
Y185159D01*
X130965D01*
Y184746D01*
X130965D01*
Y173659D01*
X130965Y173659D01*
X131085Y173054D01*
X130354Y172208D01*
X119236D01*
X118261Y172014D01*
X117434Y171461D01*
X114198Y168225D01*
X113645Y167398D01*
X113451Y166423D01*
Y107056D01*
X110229Y103834D01*
X109000Y103996D01*
X107895Y103850D01*
X107831Y103871D01*
X107407Y104195D01*
X100593D01*
X100169Y103871D01*
X100105Y103850D01*
X99000Y103996D01*
X97707Y103825D01*
X96502Y103326D01*
X95468Y102532D01*
X94674Y101498D01*
X94541Y101178D01*
X93459D01*
X93326Y101498D01*
X92532Y102532D01*
X91498Y103326D01*
X90293Y103825D01*
X89000Y103996D01*
X87707Y103825D01*
X86502Y103326D01*
X85468Y102532D01*
X84674Y101498D01*
X84175Y100293D01*
X84004Y99000D01*
X84175Y97707D01*
X84674Y96502D01*
X85468Y95468D01*
X86502Y94674D01*
X87707Y94175D01*
X89000Y94004D01*
X90293Y94175D01*
X91498Y94674D01*
X92532Y95468D01*
X93326Y96502D01*
X93459Y96822D01*
X94541D01*
X94674Y96502D01*
X95468Y95468D01*
X96451Y94713D01*
Y73287D01*
X95468Y72532D01*
X94674Y71498D01*
X94541Y71178D01*
X93459D01*
X93326Y71498D01*
X92532Y72532D01*
X91498Y73326D01*
X90293Y73825D01*
X89000Y73996D01*
X87707Y73825D01*
X86502Y73326D01*
X85468Y72532D01*
X85079Y72026D01*
X77268D01*
X72872Y76422D01*
Y95704D01*
X75690Y98521D01*
X75690Y98521D01*
X76170Y99148D01*
X76473Y99877D01*
X76576Y100661D01*
X76576Y100661D01*
Y158950D01*
X76473Y159733D01*
X76170Y160463D01*
X75690Y161090D01*
X67763Y169016D01*
X67893Y170000D01*
X67709Y171396D01*
X67170Y172696D01*
X66313Y173813D01*
X65554Y174396D01*
X65483Y174581D01*
Y175419D01*
X65554Y175604D01*
X66313Y176187D01*
X67170Y177304D01*
X67709Y178604D01*
X67893Y180000D01*
X67709Y181396D01*
X67170Y182696D01*
X66313Y183813D01*
X65554Y184396D01*
X65483Y184581D01*
Y185419D01*
X65554Y185604D01*
X66313Y186187D01*
X67170Y187304D01*
X67709Y188604D01*
X67893Y190000D01*
X67709Y191396D01*
X67170Y192696D01*
X66313Y193813D01*
X65554Y194396D01*
X65483Y194581D01*
Y195419D01*
X65554Y195604D01*
X66313Y196187D01*
X67170Y197304D01*
X67709Y198604D01*
X67893Y200000D01*
X67709Y201396D01*
X67170Y202696D01*
X66436Y203654D01*
X66705Y204654D01*
X67847D01*
Y215347D01*
X60202D01*
Y244772D01*
X63399D01*
Y250300D01*
Y255858D01*
X63029Y256751D01*
X64578Y258301D01*
X83826D01*
X84801Y258495D01*
X85628Y259048D01*
X90827Y264246D01*
X93461D01*
X94124Y263246D01*
X94004Y262343D01*
X94175Y261050D01*
X94674Y259845D01*
X95468Y258810D01*
X96502Y258016D01*
X97707Y257517D01*
X99000Y257347D01*
X100293Y257517D01*
X101498Y258016D01*
X102532Y258810D01*
X103326Y259845D01*
X103459Y260165D01*
X104541D01*
X104674Y259845D01*
X105468Y258810D01*
X106502Y258016D01*
X107707Y257517D01*
X109000Y257347D01*
X110293Y257517D01*
X111498Y258016D01*
X112532Y258810D01*
X112624Y258816D01*
X115353Y256087D01*
X116180Y255535D01*
X117156Y255341D01*
X120844D01*
X121820Y255535D01*
X122647Y256087D01*
X125376Y258816D01*
X125468Y258810D01*
X126502Y258016D01*
X127707Y257517D01*
X129000Y257347D01*
X130293Y257517D01*
X131498Y258016D01*
X132532Y258810D01*
X133326Y259845D01*
X133825Y261050D01*
X133995Y262343D01*
X133825Y263635D01*
X133326Y264840D01*
X132532Y265875D01*
X131809Y266430D01*
X131571Y267606D01*
X143816Y279851D01*
X148566D01*
X162820Y265598D01*
X162854Y265391D01*
X162383Y264774D01*
X161367Y264838D01*
X161320Y264849D01*
X160532Y265875D01*
X159498Y266669D01*
X158293Y267168D01*
X157000Y267338D01*
X155707Y267168D01*
X154502Y266669D01*
X153468Y265875D01*
X152674Y264840D01*
X152175Y263635D01*
X152005Y262343D01*
X152175Y261050D01*
X152674Y259845D01*
X153468Y258810D01*
X154502Y258016D01*
X155707Y257517D01*
X157000Y257347D01*
X158293Y257517D01*
X159498Y258016D01*
X160532Y258810D01*
X161326Y259845D01*
X161459Y260165D01*
X162541D01*
X162674Y259845D01*
X163468Y258810D01*
X164502Y258016D01*
X165707Y257517D01*
X167000Y257347D01*
X168293Y257517D01*
X169498Y258016D01*
X170532Y258810D01*
X170624Y258816D01*
X173353Y256087D01*
X174180Y255535D01*
X175156Y255341D01*
X178844D01*
X179820Y255535D01*
X180647Y256087D01*
X183376Y258816D01*
X183468Y258810D01*
X184502Y258016D01*
X185707Y257517D01*
X187000Y257347D01*
X188293Y257517D01*
X189498Y258016D01*
X190532Y258810D01*
X191326Y259845D01*
X191825Y261050D01*
X191996Y262343D01*
X191977Y262480D01*
X192884Y263252D01*
X193047Y263203D01*
Y263092D01*
X197000D01*
Y262343D01*
X197750D01*
Y258390D01*
X198904D01*
Y258169D01*
X199098Y257194D01*
X199650Y256367D01*
X207678Y248339D01*
X208505Y247786D01*
X209481Y247592D01*
X227453D01*
X228428Y247786D01*
X229255Y248339D01*
X230202Y249286D01*
X230440Y249641D01*
X236705D01*
Y255131D01*
X239179Y257604D01*
X239256Y257614D01*
X240054Y257945D01*
X240739Y258471D01*
X241265Y259156D01*
X241595Y259953D01*
X241708Y260809D01*
Y264290D01*
X242708Y264489D01*
X242762Y264357D01*
X243411Y263511D01*
X244257Y262862D01*
X245243Y262454D01*
X246300Y262315D01*
X247357Y262454D01*
X248342Y262862D01*
X249188Y263511D01*
X249838Y264357D01*
X250246Y265343D01*
X250385Y266400D01*
X250246Y267457D01*
X249838Y268443D01*
X249188Y269288D01*
X248342Y269938D01*
X247357Y270346D01*
X246300Y270485D01*
X245243Y270346D01*
X244764Y270147D01*
X244138Y270272D01*
X221180D01*
X220204Y270078D01*
X219377Y269525D01*
X218058Y268206D01*
X217544Y268138D01*
X216746Y267808D01*
X216652Y267736D01*
X215900Y267362D01*
X215148Y267736D01*
X215054Y267808D01*
X214256Y268138D01*
X214228Y268142D01*
X213602Y268768D01*
X212775Y269320D01*
X211800Y269514D01*
X211478D01*
X201749Y279243D01*
Y281795D01*
X203759D01*
Y287814D01*
X204283Y288235D01*
X204851Y287996D01*
X205187Y287711D01*
X205092Y286990D01*
Y282857D01*
X205205Y282001D01*
X205535Y281203D01*
X206061Y280518D01*
X206746Y279992D01*
X207544Y279662D01*
X208058Y279594D01*
X208754Y278898D01*
X209581Y278345D01*
X210557Y278151D01*
X211614D01*
X212590Y278345D01*
X213417Y278898D01*
X214169Y279650D01*
X214256Y279662D01*
X215054Y279992D01*
X215148Y280065D01*
X215900Y280438D01*
X216652Y280065D01*
X216746Y279992D01*
X217544Y279662D01*
X218058Y279594D01*
X219377Y278275D01*
X220204Y277722D01*
X221180Y277528D01*
X225621D01*
X226596Y277722D01*
X227423Y278275D01*
X228742Y279594D01*
X229256Y279662D01*
X230054Y279992D01*
X230148Y280065D01*
X230900Y280438D01*
X231652Y280065D01*
X231746Y279992D01*
X232544Y279662D01*
X233058Y279594D01*
X233583Y279068D01*
X234410Y278516D01*
X235386Y278322D01*
X236414D01*
X237390Y278516D01*
X238217Y279068D01*
X238742Y279594D01*
X239256Y279662D01*
X240054Y279992D01*
X240739Y280518D01*
X241265Y281203D01*
X241595Y282001D01*
X241708Y282857D01*
Y286990D01*
X241595Y287847D01*
X241265Y288645D01*
X240739Y289330D01*
X240054Y289855D01*
X239256Y290186D01*
X238400Y290298D01*
X237544Y290186D01*
X236746Y289855D01*
X236652Y289783D01*
X235900Y289409D01*
X235148Y289783D01*
X235054Y289855D01*
X234256Y290186D01*
X233400Y290298D01*
X232544Y290186D01*
X231746Y289855D01*
X231652Y289783D01*
X230900Y289409D01*
X230148Y289783D01*
X230054Y289855D01*
X229256Y290186D01*
X228400Y290298D01*
X227544Y290186D01*
X226746Y289855D01*
X226061Y289330D01*
X225911Y289135D01*
X225229Y288741D01*
X224578Y288945D01*
X224289Y289138D01*
X224150Y289165D01*
Y284924D01*
X222650D01*
Y289165D01*
X222511Y289138D01*
X222222Y288945D01*
X221784Y288808D01*
X220949Y289412D01*
Y290750D01*
X221487D01*
Y294309D01*
X222237D01*
Y295059D01*
X225205D01*
Y297250D01*
X225205Y297868D01*
X225205D01*
Y298250D01*
X225205D01*
Y301060D01*
X222237D01*
Y301810D01*
X221487D01*
Y305368D01*
X219268D01*
Y305368D01*
X218332Y305521D01*
Y306368D01*
X210395D01*
Y305774D01*
X202241D01*
Y302549D01*
X201241Y302245D01*
X201002Y302602D01*
X197661Y305944D01*
X197791Y306187D01*
X198209Y307566D01*
X198350Y309000D01*
X198209Y310434D01*
X197791Y311813D01*
X197112Y313084D01*
X196197Y314197D01*
X195084Y315112D01*
X193813Y315791D01*
X192434Y316209D01*
X191000Y316350D01*
X189566Y316209D01*
X188187Y315791D01*
X186916Y315112D01*
X185802Y314197D01*
X184888Y313084D01*
X184209Y311813D01*
X183791Y310434D01*
X183650Y309000D01*
X183791Y307566D01*
X184209Y306187D01*
X184888Y304916D01*
X185802Y303802D01*
X186916Y302888D01*
X188187Y302209D01*
X189566Y301791D01*
X191000Y301650D01*
X192434Y301791D01*
X193813Y302209D01*
X194056Y302339D01*
X196651Y299744D01*
Y297605D01*
X194641D01*
Y291317D01*
X194217Y291034D01*
X189305Y286121D01*
X188752Y285294D01*
X188642Y284738D01*
X188385Y284713D01*
X187006Y284295D01*
X185735Y283615D01*
X184621Y282701D01*
X183707Y281588D01*
X183028Y280317D01*
X182610Y278938D01*
X182468Y277504D01*
X182610Y276070D01*
X183028Y274691D01*
X183707Y273420D01*
X184590Y272344D01*
X184570Y272183D01*
X184218Y271344D01*
X176749D01*
X173645Y274448D01*
X173775Y274691D01*
X174193Y276070D01*
X174335Y277504D01*
X174193Y278938D01*
X173775Y280317D01*
X173096Y281588D01*
X172182Y282701D01*
X171068Y283615D01*
X169797Y284295D01*
X168418Y284713D01*
X166984Y284854D01*
X165550Y284713D01*
X164171Y284295D01*
X163928Y284165D01*
X151486Y296607D01*
Y303410D01*
X152075Y303862D01*
X152780Y304781D01*
X153224Y305851D01*
X153375Y307000D01*
X153224Y308149D01*
X152780Y309219D01*
X152075Y310138D01*
X151156Y310843D01*
X150086Y311287D01*
X150036Y311293D01*
Y312302D01*
X150123Y312313D01*
X151193Y312757D01*
X152112Y313462D01*
X152817Y314381D01*
X153261Y315451D01*
X153412Y316600D01*
X153261Y317749D01*
X152817Y318819D01*
X152112Y319738D01*
X151193Y320443D01*
X150123Y320887D01*
X148974Y321038D01*
X147825Y320887D01*
X146755Y320443D01*
X145836Y319738D01*
X145667Y319518D01*
X144407D01*
X144238Y319738D01*
X143319Y320443D01*
X142249Y320887D01*
X141100Y321038D01*
X139951Y320887D01*
X138881Y320443D01*
X137962Y319738D01*
X137257Y318819D01*
X136813Y317749D01*
X136662Y316600D01*
X136813Y315451D01*
X137257Y314381D01*
X137962Y313462D01*
X138881Y312757D01*
X139951Y312313D01*
X140001Y312307D01*
Y311298D01*
X139914Y311287D01*
X138844Y310843D01*
X137925Y310138D01*
X137220Y309219D01*
X136776Y308149D01*
X136625Y307000D01*
X136776Y305851D01*
X137220Y304781D01*
X137925Y303862D01*
X138514Y303410D01*
Y285461D01*
X129580Y276528D01*
X128620Y276982D01*
X128669Y277482D01*
X128528Y278916D01*
X128110Y280295D01*
X127430Y281565D01*
X126516Y282679D01*
X125402Y283594D01*
X124132Y284273D01*
X122753Y284691D01*
X121319Y284832D01*
X119885Y284691D01*
X118506Y284273D01*
X117235Y283594D01*
X116121Y282679D01*
X115207Y281565D01*
X114528Y280295D01*
X114110Y278916D01*
X113969Y277482D01*
X114110Y276048D01*
X114528Y274669D01*
X115207Y273398D01*
X116121Y272284D01*
X117235Y271370D01*
X118506Y270691D01*
X119885Y270273D01*
X121319Y270131D01*
X121819Y270181D01*
X122273Y269221D01*
X120229Y267176D01*
X119000Y267338D01*
X117707Y267168D01*
X116502Y266669D01*
X116173Y266416D01*
X115307Y266014D01*
X114729Y266515D01*
X112647Y268598D01*
X111820Y269150D01*
X110845Y269344D01*
X100302D01*
X100154Y270344D01*
X101297Y270691D01*
X102568Y271370D01*
X103682Y272284D01*
X104596Y273398D01*
X105275Y274669D01*
X105693Y276048D01*
X105835Y277482D01*
X105693Y278916D01*
X105275Y280295D01*
X104596Y281565D01*
X103682Y282679D01*
X102568Y283594D01*
X101297Y284273D01*
X99918Y284691D01*
X98484Y284832D01*
X97050Y284691D01*
X95671Y284273D01*
X94401Y283594D01*
X93287Y282679D01*
X92373Y281565D01*
X91693Y280295D01*
X91275Y278916D01*
X91134Y277482D01*
X91275Y276048D01*
X91693Y274669D01*
X92373Y273398D01*
X93287Y272284D01*
X94401Y271370D01*
X95671Y270691D01*
X96815Y270344D01*
X96666Y269344D01*
X89771D01*
X88796Y269150D01*
X87968Y268598D01*
X87274Y267903D01*
X86350Y268286D01*
Y272504D01*
X79467D01*
X71806Y280165D01*
X70893Y280915D01*
X69850Y281472D01*
X68720Y281815D01*
X67543Y281931D01*
X62701D01*
X62331Y282824D01*
X61427Y284301D01*
X60302Y285617D01*
X58986Y286742D01*
X57509Y287646D01*
X55910Y288309D01*
X54226Y288713D01*
X52500Y288849D01*
X50774Y288713D01*
X49090Y288309D01*
X47491Y287646D01*
X46014Y286742D01*
X44698Y285617D01*
X43573Y284301D01*
X42669Y282824D01*
X42006Y281225D01*
X41602Y279541D01*
X41466Y277815D01*
X41602Y276089D01*
X42006Y274405D01*
X42669Y272806D01*
X43573Y271329D01*
X44698Y270013D01*
X46014Y268888D01*
X47491Y267984D01*
X49090Y267321D01*
X49414Y267243D01*
X49496Y266195D01*
X49358Y266138D01*
X48511Y265489D01*
X47862Y264643D01*
X47454Y263657D01*
X47315Y262600D01*
X47454Y261543D01*
X47862Y260558D01*
X48511Y259712D01*
X48851Y259451D01*
Y256828D01*
X38724D01*
Y243772D01*
X42124D01*
Y240054D01*
X37376Y235307D01*
X36543Y235197D01*
X35557Y234789D01*
X34712Y234139D01*
X34062Y233294D01*
X33654Y232308D01*
X33635Y232163D01*
X23498Y222026D01*
X22946Y221199D01*
X22752Y220224D01*
Y210459D01*
X19070D01*
Y201341D01*
X19076D01*
Y194241D01*
X27541D01*
Y188406D01*
Y180532D01*
X35701D01*
X36115Y179532D01*
X28366Y171783D01*
X27814Y170956D01*
X27695Y170359D01*
X26513D01*
Y166800D01*
Y163241D01*
X27619D01*
Y151583D01*
X26513D01*
Y148024D01*
Y144465D01*
X27619D01*
Y144346D01*
X27814Y143370D01*
X28366Y142543D01*
X46167Y124743D01*
X45784Y123819D01*
X39241D01*
Y122876D01*
X36535D01*
X36525Y122889D01*
X35680Y123538D01*
X34694Y123946D01*
X33637Y124085D01*
X32580Y123946D01*
X31594Y123538D01*
X30749Y122889D01*
X30099Y122042D01*
X29691Y121057D01*
X29552Y120000D01*
X29691Y118943D01*
X30099Y117957D01*
X30749Y117112D01*
X31594Y116462D01*
X32580Y116054D01*
X33637Y115915D01*
X34694Y116054D01*
X35680Y116462D01*
X36151Y116824D01*
X39241D01*
Y115882D01*
Y108008D01*
X39783D01*
Y87506D01*
X38941D01*
Y79568D01*
Y71694D01*
X46397D01*
X47199Y70695D01*
X47107Y70000D01*
X47291Y68604D01*
X47830Y67304D01*
X48687Y66187D01*
X49446Y65604D01*
X49517Y65419D01*
Y64581D01*
X49446Y64396D01*
X48687Y63813D01*
X48083Y63026D01*
X37089D01*
X36422Y63538D01*
X35437Y63946D01*
X34380Y64085D01*
X33323Y63946D01*
X32337Y63538D01*
X31491Y62888D01*
X30842Y62042D01*
X30434Y61057D01*
X30295Y60000D01*
X30434Y58943D01*
X30842Y57958D01*
X31491Y57112D01*
X32337Y56462D01*
X33323Y56054D01*
X34380Y55915D01*
X35437Y56054D01*
X36422Y56462D01*
X37089Y56974D01*
X48083D01*
X48687Y56187D01*
X49446Y55604D01*
X49517Y55419D01*
Y54581D01*
X49446Y54396D01*
X48687Y53813D01*
X47830Y52696D01*
X47291Y51396D01*
X47107Y50000D01*
X47291Y48604D01*
X47830Y47304D01*
X48687Y46187D01*
X49446Y45604D01*
X49517Y45419D01*
Y44581D01*
X49446Y44396D01*
X48687Y43813D01*
X47830Y42696D01*
X47291Y41396D01*
X47107Y40000D01*
X47291Y38604D01*
X47830Y37304D01*
X48687Y36187D01*
X49446Y35604D01*
X49517Y35419D01*
Y34581D01*
X49446Y34396D01*
X48687Y33813D01*
X47830Y32696D01*
X47291Y31396D01*
X47107Y30000D01*
X47291Y28604D01*
X47830Y27304D01*
X48687Y26187D01*
X49804Y25330D01*
X51104Y24791D01*
X52500Y24607D01*
X53896Y24791D01*
X55196Y25330D01*
X56313Y26187D01*
X56896Y26946D01*
X57081Y27017D01*
X57919D01*
X58104Y26946D01*
X58687Y26187D01*
X59804Y25330D01*
X61104Y24791D01*
X62500Y24607D01*
X63896Y24791D01*
X65196Y25330D01*
X66313Y26187D01*
X67170Y27304D01*
X67709Y28604D01*
X67893Y30000D01*
X67709Y31396D01*
X67170Y32696D01*
X66313Y33813D01*
X65554Y34396D01*
X65483Y34581D01*
Y35419D01*
X65554Y35604D01*
X66313Y36187D01*
X67170Y37304D01*
X67709Y38604D01*
X67893Y40000D01*
X67709Y41396D01*
X67170Y42696D01*
X66313Y43813D01*
X65554Y44396D01*
X65483Y44581D01*
Y45419D01*
X65554Y45604D01*
X66313Y46187D01*
X67170Y47304D01*
X67709Y48604D01*
X67893Y50000D01*
X67709Y51396D01*
X67648Y51543D01*
X71456Y55351D01*
X182744D01*
X183771Y54324D01*
X183715Y53900D01*
X183854Y52843D01*
X184262Y51858D01*
X184912Y51012D01*
X185758Y50362D01*
X186743Y49954D01*
X187800Y49815D01*
X188857Y49954D01*
X189842Y50362D01*
X190689Y51012D01*
X191338Y51858D01*
X191746Y52843D01*
X191885Y53900D01*
X191746Y54957D01*
X191729Y54998D01*
X192397Y55998D01*
X262628D01*
X263604Y56192D01*
X264431Y56745D01*
X269866Y62180D01*
X270866Y62014D01*
Y60750D01*
X274819D01*
X278772D01*
Y62297D01*
X286765D01*
X287216Y61622D01*
X287278Y61298D01*
X287107Y60000D01*
X287291Y58604D01*
X287830Y57304D01*
X288687Y56187D01*
X289446Y55604D01*
X289517Y55419D01*
Y54581D01*
X289446Y54396D01*
X288687Y53813D01*
X287830Y52696D01*
X287291Y51396D01*
X287107Y50000D01*
X287291Y48604D01*
X287830Y47304D01*
X288687Y46187D01*
X289446Y45604D01*
X289517Y45419D01*
Y44581D01*
X289446Y44396D01*
X288687Y43813D01*
X287830Y42696D01*
X287291Y41396D01*
X287107Y40000D01*
X287291Y38604D01*
X287830Y37304D01*
X288687Y36187D01*
X289446Y35604D01*
X289517Y35419D01*
Y34581D01*
X289446Y34396D01*
X288687Y33813D01*
X287830Y32696D01*
X287291Y31396D01*
X287107Y30000D01*
X287291Y28604D01*
X287830Y27304D01*
X288687Y26187D01*
X289804Y25330D01*
X291104Y24791D01*
X292500Y24607D01*
X293896Y24791D01*
X295196Y25330D01*
X296313Y26187D01*
X296896Y26946D01*
X297081Y27017D01*
X297919D01*
X298104Y26946D01*
X298687Y26187D01*
X299804Y25330D01*
X301104Y24791D01*
X302500Y24607D01*
X303896Y24791D01*
X305196Y25330D01*
X306313Y26187D01*
X307170Y27304D01*
X307709Y28604D01*
X307893Y30000D01*
X307709Y31396D01*
X307170Y32696D01*
X306313Y33813D01*
X305554Y34396D01*
X305483Y34581D01*
Y35419D01*
X305554Y35604D01*
X306313Y36187D01*
X307170Y37304D01*
X307709Y38604D01*
X307893Y40000D01*
X307709Y41396D01*
X307170Y42696D01*
X306313Y43813D01*
X305554Y44396D01*
X305483Y44581D01*
Y45419D01*
X305554Y45604D01*
X306313Y46187D01*
X307170Y47304D01*
X307709Y48604D01*
X307792Y49236D01*
X308792Y49170D01*
Y46532D01*
X308986Y45556D01*
X309539Y44729D01*
X310841Y43427D01*
Y39094D01*
X318886D01*
Y31453D01*
X325230D01*
X325599Y30453D01*
X324830Y29796D01*
X323418Y28143D01*
X322282Y26289D01*
X321450Y24281D01*
X320943Y22167D01*
X320772Y20000D01*
X320943Y17833D01*
X321450Y15719D01*
X322282Y13711D01*
X323418Y11857D01*
X324830Y10204D01*
X326483Y8792D01*
X328337Y7656D01*
X330003Y6966D01*
X329805Y5966D01*
X217078D01*
Y18198D01*
X142100D01*
Y5966D01*
X24821D01*
X24622Y6966D01*
X26289Y7656D01*
X28143Y8792D01*
X29796Y10204D01*
X31208Y11857D01*
X32344Y13711D01*
X33176Y15719D01*
X33683Y17833D01*
X33854Y20000D01*
X33683Y22167D01*
X33176Y24281D01*
X32344Y26289D01*
X31208Y28143D01*
X29796Y29796D01*
X28143Y31208D01*
X26289Y32344D01*
X24281Y33176D01*
X22167Y33683D01*
X20000Y33854D01*
X17833Y33683D01*
X15719Y33176D01*
X13711Y32344D01*
X11857Y31208D01*
X10204Y29796D01*
X8792Y28143D01*
X7656Y26289D01*
X6966Y24622D01*
X5966Y24821D01*
Y305179D01*
X6966Y305378D01*
X7656Y303711D01*
X8792Y301857D01*
X10204Y300204D01*
X11857Y298792D01*
X13711Y297656D01*
X15719Y296824D01*
X17833Y296317D01*
X20000Y296146D01*
X22101Y296312D01*
X22407Y296036D01*
X22786Y295515D01*
X22669Y295324D01*
X22006Y293725D01*
X21602Y292041D01*
X21466Y290315D01*
X21602Y288589D01*
X22006Y286905D01*
X22669Y285306D01*
X23573Y283829D01*
X24698Y282513D01*
X26014Y281388D01*
X27491Y280484D01*
X29090Y279821D01*
X30774Y279417D01*
X32500Y279281D01*
X34226Y279417D01*
X35910Y279821D01*
X37509Y280484D01*
X38986Y281388D01*
X40302Y282513D01*
X41427Y283829D01*
X42331Y285306D01*
X42994Y286905D01*
X43398Y288589D01*
X43534Y290315D01*
X43398Y292041D01*
X42994Y293725D01*
X42331Y295324D01*
X41427Y296801D01*
X40302Y298117D01*
X38986Y299242D01*
X37509Y300146D01*
X35910Y300809D01*
X34226Y301213D01*
X32500Y301349D01*
X32030Y301312D01*
X31461Y302270D01*
X32344Y303711D01*
X33176Y305719D01*
X33683Y307833D01*
X33854Y310000D01*
X33683Y312167D01*
X33176Y314281D01*
X32344Y316289D01*
X31208Y318143D01*
X29796Y319796D01*
X28143Y321208D01*
X26289Y322344D01*
X24622Y323034D01*
X24821Y324034D01*
X286563D01*
Y312672D01*
D02*
G37*
G36*
X281336Y218280D02*
X281225Y216976D01*
X281225Y216975D01*
X280736Y216338D01*
X280429Y215596D01*
X280422Y215550D01*
X283400D01*
Y214800D01*
X284150D01*
Y211822D01*
X284196Y211828D01*
X284938Y212136D01*
X285575Y212625D01*
X285576Y212626D01*
X286880Y212736D01*
X287563Y212052D01*
X287291Y211396D01*
X287107Y210000D01*
X287291Y208604D01*
X287830Y207304D01*
X288687Y206187D01*
X289446Y205604D01*
X289517Y205419D01*
Y204581D01*
X289446Y204396D01*
X288687Y203813D01*
X287830Y202696D01*
X287291Y201396D01*
X287107Y200000D01*
X287291Y198604D01*
X287830Y197304D01*
X288687Y196187D01*
X289804Y195330D01*
X290600Y195000D01*
Y193918D01*
X290308Y193797D01*
X289400Y193100D01*
X288703Y192192D01*
X288265Y191135D01*
X288215Y190750D01*
X292500D01*
Y189250D01*
X288215D01*
X288265Y188865D01*
X288703Y187808D01*
X289400Y186900D01*
X290308Y186203D01*
X290600Y186082D01*
Y185000D01*
X289804Y184670D01*
X289059Y184099D01*
X288059Y184573D01*
Y186205D01*
X282546D01*
X279691Y189060D01*
X279814Y190000D01*
X279644Y191293D01*
X279145Y192498D01*
X278351Y193532D01*
X277317Y194326D01*
X276997Y194459D01*
Y195541D01*
X277317Y195674D01*
X278351Y196468D01*
X279145Y197502D01*
X279644Y198707D01*
X279814Y200000D01*
X279644Y201293D01*
X279145Y202498D01*
X278351Y203532D01*
X277317Y204326D01*
X276997Y204459D01*
Y205541D01*
X277317Y205674D01*
X278351Y206468D01*
X279145Y207502D01*
X279644Y208707D01*
X279814Y210000D01*
X279644Y211293D01*
X279145Y212498D01*
X278351Y213532D01*
X277317Y214326D01*
X276997Y214459D01*
Y215541D01*
X277317Y215674D01*
X278351Y216468D01*
X279145Y217502D01*
X279600Y218601D01*
X280347Y218946D01*
X280588Y219027D01*
X281336Y218280D01*
D02*
G37*
G36*
X151618Y150698D02*
X152445Y150145D01*
X153180Y149999D01*
X153555Y149481D01*
X153556Y149479D01*
X153708Y148951D01*
X153462Y148356D01*
X153361Y147592D01*
X152998Y147228D01*
X152445Y146401D01*
X152251Y145426D01*
Y144300D01*
X152445Y143324D01*
X152998Y142498D01*
X153402Y142093D01*
X153462Y141644D01*
X153792Y140846D01*
X154318Y140161D01*
X155003Y139635D01*
X155801Y139305D01*
X156657Y139192D01*
X160791D01*
X161647Y139305D01*
X162444Y139635D01*
X163129Y140161D01*
X163655Y140846D01*
X163986Y141644D01*
X164098Y142500D01*
X163986Y143356D01*
X163739Y143951D01*
X164012Y144592D01*
X164304Y144951D01*
X166082D01*
X168892Y142141D01*
Y115028D01*
X169086Y114052D01*
X169639Y113225D01*
X180409Y102455D01*
X179674Y101498D01*
X179541Y101178D01*
X178459D01*
X178326Y101498D01*
X177532Y102532D01*
X176498Y103326D01*
X175293Y103825D01*
X174000Y103996D01*
X172707Y103825D01*
X171502Y103326D01*
X170468Y102532D01*
X169674Y101498D01*
X169541Y101178D01*
X168459D01*
X168326Y101498D01*
X167532Y102532D01*
X166498Y103326D01*
X165293Y103825D01*
X164000Y103996D01*
X162707Y103825D01*
X161502Y103326D01*
X160468Y102532D01*
X159674Y101498D01*
X159175Y100293D01*
X159004Y99000D01*
X159175Y97707D01*
X159674Y96502D01*
X159966Y96122D01*
Y71878D01*
X159674Y71498D01*
X159175Y70293D01*
X159004Y69000D01*
X159175Y67707D01*
X159326Y67342D01*
X158770Y66510D01*
X134230D01*
X133674Y67342D01*
X133825Y67707D01*
X133995Y69000D01*
X133825Y70293D01*
X133326Y71498D01*
X132532Y72532D01*
X131498Y73326D01*
X130293Y73825D01*
X129000Y73996D01*
X127707Y73825D01*
X127002Y73533D01*
X126017Y74123D01*
X126002Y74149D01*
Y95047D01*
X128250D01*
Y99000D01*
Y102953D01*
X126002D01*
Y135897D01*
X127299Y137195D01*
X132759D01*
Y138634D01*
X133753Y139305D01*
X134609Y139192D01*
X138743D01*
X139599Y139305D01*
X140397Y139635D01*
X141082Y140161D01*
X141608Y140846D01*
X141938Y141644D01*
X142006Y142158D01*
X142532Y142683D01*
X143084Y143510D01*
X143278Y144486D01*
Y145514D01*
X143084Y146490D01*
X142532Y147317D01*
X142006Y147842D01*
X141938Y148356D01*
X141608Y149154D01*
X141535Y149248D01*
X141162Y150000D01*
X141535Y150752D01*
X141608Y150846D01*
X141938Y151644D01*
X142019Y152254D01*
X142702Y152832D01*
X142923Y152944D01*
X143001Y152947D01*
X144000Y152815D01*
X145057Y152954D01*
X146043Y153362D01*
X146888Y154011D01*
X147041Y154211D01*
X148039Y154276D01*
X151618Y150698D01*
D02*
G37*
G36*
X332692Y266872D02*
X332717Y266844D01*
Y247626D01*
X339072D01*
Y233516D01*
X331732D01*
Y216917D01*
X337602D01*
Y213100D01*
X341358D01*
X345114D01*
Y216917D01*
X345575D01*
Y233516D01*
X345124D01*
Y247626D01*
X349034D01*
Y23431D01*
X348034Y23312D01*
X347802Y24281D01*
X346970Y26289D01*
X345834Y28143D01*
X344422Y29796D01*
X342769Y31208D01*
X342370Y31453D01*
X342652Y32453D01*
X345114D01*
Y36837D01*
X341358D01*
X337602D01*
Y34297D01*
X337227Y34001D01*
X336602Y33698D01*
X334626Y33854D01*
X332459Y33683D01*
X330345Y33176D01*
X329229Y32713D01*
X328398Y33269D01*
Y43720D01*
X326074D01*
X325997Y44107D01*
X325444Y44934D01*
X319959Y50420D01*
Y54905D01*
X319959D01*
Y55158D01*
X319959D01*
Y59454D01*
X325444Y64939D01*
X325997Y65766D01*
X326191Y66742D01*
Y67279D01*
X328398D01*
Y77890D01*
Y90158D01*
X326191D01*
Y95232D01*
X325997Y96208D01*
X325444Y97035D01*
X322605Y99874D01*
X325444Y102713D01*
X325997Y103540D01*
X326191Y104516D01*
Y113716D01*
X328398D01*
Y124390D01*
Y136658D01*
X326191D01*
Y141232D01*
X325997Y142208D01*
X325444Y143035D01*
X321802Y146676D01*
X320975Y147229D01*
X320000Y147423D01*
X319959D01*
Y148843D01*
X319959D01*
Y149594D01*
X319959D01*
Y153854D01*
X325444Y159339D01*
X325997Y160166D01*
X326007Y160216D01*
X328398D01*
Y170390D01*
Y182658D01*
X326191D01*
Y183058D01*
X325997Y184034D01*
X325444Y184861D01*
X319959Y190346D01*
Y194595D01*
Y198754D01*
X325444Y204239D01*
X325997Y205066D01*
X326191Y206042D01*
Y206217D01*
X328398D01*
Y218484D01*
X318886D01*
Y210405D01*
X317315D01*
X309378Y218343D01*
X308647Y218904D01*
X307796Y219256D01*
X306882Y219377D01*
X305415D01*
X305034Y219859D01*
X305480Y220854D01*
X311717D01*
Y236086D01*
X311838Y236136D01*
X312475Y236625D01*
X312964Y237262D01*
X313271Y238004D01*
X313278Y238050D01*
X307322D01*
X307329Y238004D01*
X307469Y237665D01*
X306990Y236784D01*
X306001Y236704D01*
X303332Y239372D01*
Y263828D01*
X306342Y266837D01*
X330286D01*
X331261Y267031D01*
X331717Y267335D01*
X332692Y266872D01*
D02*
G37*
%LPC*%
G36*
X178402Y319881D02*
X177114Y319712D01*
X175914Y319215D01*
X174883Y318424D01*
X174092Y317393D01*
X173595Y316193D01*
X173426Y314906D01*
X173595Y313618D01*
X174092Y312418D01*
X174883Y311387D01*
X175914Y310596D01*
X177114Y310099D01*
X178402Y309930D01*
X179689Y310099D01*
X180889Y310596D01*
X181920Y311387D01*
X182711Y312418D01*
X183208Y313618D01*
X183377Y314906D01*
X183208Y316193D01*
X182711Y317393D01*
X181920Y318424D01*
X180889Y319215D01*
X179689Y319712D01*
X178402Y319881D01*
D02*
G37*
G36*
X109902Y319859D02*
X108614Y319690D01*
X107414Y319193D01*
X106383Y318402D01*
X105593Y317371D01*
X105096Y316171D01*
X104926Y314883D01*
X105096Y313596D01*
X105593Y312396D01*
X106383Y311365D01*
X107414Y310574D01*
X108614Y310077D01*
X109902Y309908D01*
X111189Y310077D01*
X112389Y310574D01*
X113420Y311365D01*
X114211Y312396D01*
X114708Y313596D01*
X114877Y314883D01*
X114708Y316171D01*
X114211Y317371D01*
X113420Y318402D01*
X112389Y319193D01*
X111189Y319690D01*
X109902Y319859D01*
D02*
G37*
G36*
X225205Y305368D02*
X222987D01*
Y302559D01*
X225205D01*
Y305368D01*
D02*
G37*
G36*
X165803Y316350D02*
X164369Y316209D01*
X162990Y315791D01*
X161720Y315112D01*
X160606Y314197D01*
X159692Y313084D01*
X159012Y311813D01*
X158594Y310434D01*
X158453Y309000D01*
X158594Y307566D01*
X159012Y306187D01*
X159692Y304916D01*
X160606Y303802D01*
X161720Y302888D01*
X162990Y302209D01*
X164369Y301791D01*
X165803Y301650D01*
X167237Y301791D01*
X168616Y302209D01*
X169887Y302888D01*
X171001Y303802D01*
X171915Y304916D01*
X172594Y306187D01*
X173012Y307566D01*
X173153Y309000D01*
X173012Y310434D01*
X172594Y311813D01*
X171915Y313084D01*
X171001Y314197D01*
X169887Y315112D01*
X168616Y315791D01*
X167237Y316209D01*
X165803Y316350D01*
D02*
G37*
G36*
X122500Y316328D02*
X121066Y316187D01*
X119687Y315769D01*
X118416Y315090D01*
X117303Y314175D01*
X116388Y313062D01*
X115709Y311791D01*
X115291Y310412D01*
X115150Y308978D01*
X115291Y307544D01*
X115709Y306165D01*
X116388Y304894D01*
X117303Y303781D01*
X118416Y302866D01*
X119687Y302187D01*
X121066Y301769D01*
X122500Y301628D01*
X123934Y301769D01*
X125313Y302187D01*
X126584Y302866D01*
X127698Y303781D01*
X128612Y304894D01*
X129291Y306165D01*
X129709Y307544D01*
X129850Y308978D01*
X129709Y310412D01*
X129291Y311791D01*
X128612Y313062D01*
X127698Y314175D01*
X126584Y315090D01*
X125313Y315769D01*
X123934Y316187D01*
X122500Y316328D01*
D02*
G37*
G36*
X97303D02*
X95869Y316187D01*
X94490Y315769D01*
X93220Y315090D01*
X92106Y314175D01*
X91192Y313062D01*
X90512Y311791D01*
X90094Y310412D01*
X89953Y308978D01*
X90094Y307544D01*
X90512Y306165D01*
X91192Y304894D01*
X92106Y303781D01*
X93220Y302866D01*
X94490Y302187D01*
X95869Y301769D01*
X97303Y301628D01*
X98737Y301769D01*
X100116Y302187D01*
X101387Y302866D01*
X102501Y303781D01*
X103415Y304894D01*
X104094Y306165D01*
X104512Y307544D01*
X104654Y308978D01*
X104512Y310412D01*
X104094Y311791D01*
X103415Y313062D01*
X102501Y314175D01*
X101387Y315090D01*
X100116Y315769D01*
X98737Y316187D01*
X97303Y316328D01*
D02*
G37*
G36*
X52500Y313849D02*
X50774Y313713D01*
X49090Y313309D01*
X47491Y312646D01*
X46014Y311742D01*
X44698Y310617D01*
X43573Y309301D01*
X42669Y307824D01*
X42006Y306225D01*
X41602Y304541D01*
X41466Y302815D01*
X41602Y301089D01*
X42006Y299405D01*
X42669Y297806D01*
X43573Y296329D01*
X44698Y295013D01*
X46014Y293888D01*
X47491Y292984D01*
X49090Y292321D01*
X50774Y291917D01*
X52500Y291781D01*
X54226Y291917D01*
X55910Y292321D01*
X57509Y292984D01*
X58986Y293888D01*
X60302Y295013D01*
X61427Y296329D01*
X62331Y297806D01*
X62994Y299405D01*
X63398Y301089D01*
X63534Y302815D01*
X63398Y304541D01*
X62994Y306225D01*
X62331Y307824D01*
X61427Y309301D01*
X60302Y310617D01*
X58986Y311742D01*
X57509Y312646D01*
X55910Y313309D01*
X54226Y313713D01*
X52500Y313849D01*
D02*
G37*
G36*
X225205Y293560D02*
X222987D01*
Y290750D01*
X225205D01*
Y293560D01*
D02*
G37*
G36*
X77969Y301610D02*
X76226Y301438D01*
X74550Y300930D01*
X73006Y300104D01*
X71652Y298993D01*
X70541Y297640D01*
X69716Y296095D01*
X69207Y294420D01*
X69036Y292677D01*
X69207Y290934D01*
X69716Y289259D01*
X70541Y287714D01*
X71652Y286361D01*
X73006Y285250D01*
X74550Y284424D01*
X76226Y283916D01*
X77969Y283744D01*
X79711Y283916D01*
X81387Y284424D01*
X82931Y285250D01*
X84285Y286361D01*
X85396Y287714D01*
X86221Y289259D01*
X86730Y290934D01*
X86901Y292677D01*
X86730Y294420D01*
X86221Y296095D01*
X85396Y297640D01*
X84285Y298993D01*
X82931Y300104D01*
X81387Y300930D01*
X79711Y301438D01*
X77969Y301610D01*
D02*
G37*
G36*
X178402Y292322D02*
X177114Y292153D01*
X175914Y291655D01*
X174883Y290865D01*
X174092Y289834D01*
X173595Y288634D01*
X173426Y287347D01*
X173595Y286059D01*
X174092Y284859D01*
X174883Y283828D01*
X175914Y283037D01*
X177114Y282540D01*
X178402Y282371D01*
X179689Y282540D01*
X180889Y283037D01*
X181920Y283828D01*
X182711Y284859D01*
X183208Y286059D01*
X183377Y287347D01*
X183208Y288634D01*
X182711Y289834D01*
X181920Y290865D01*
X180889Y291655D01*
X179689Y292153D01*
X178402Y292322D01*
D02*
G37*
G36*
X109902Y292300D02*
X108614Y292130D01*
X107414Y291633D01*
X106383Y290843D01*
X105593Y289812D01*
X105096Y288612D01*
X104926Y287324D01*
X105096Y286037D01*
X105593Y284837D01*
X106383Y283806D01*
X107414Y283015D01*
X108614Y282518D01*
X109902Y282349D01*
X111189Y282518D01*
X112389Y283015D01*
X113420Y283806D01*
X114211Y284837D01*
X114708Y286037D01*
X114877Y287324D01*
X114708Y288612D01*
X114211Y289812D01*
X113420Y290843D01*
X112389Y291633D01*
X111189Y292130D01*
X109902Y292300D01*
D02*
G37*
G36*
X142953Y266295D02*
X139750D01*
Y263092D01*
X142953D01*
Y266295D01*
D02*
G37*
G36*
X138250D02*
X135047D01*
Y263092D01*
X138250D01*
Y266295D01*
D02*
G37*
G36*
X196250Y261593D02*
X193047D01*
Y258390D01*
X196250D01*
Y261593D01*
D02*
G37*
G36*
X142953D02*
X139750D01*
Y258390D01*
X142953D01*
Y261593D01*
D02*
G37*
G36*
X138250D02*
X135047D01*
Y258390D01*
X138250D01*
Y261593D01*
D02*
G37*
G36*
X69676Y255828D02*
X64899D01*
Y251050D01*
X69676D01*
Y255828D01*
D02*
G37*
G36*
X85350Y250913D02*
X78900D01*
Y247159D01*
X85350D01*
Y250913D01*
D02*
G37*
G36*
X77400D02*
X70949D01*
Y247159D01*
X77400D01*
Y250913D01*
D02*
G37*
G36*
X69676Y249550D02*
X64899D01*
Y244772D01*
X69676D01*
Y249550D01*
D02*
G37*
G36*
X85350Y245659D02*
X78900D01*
Y241905D01*
X85350D01*
Y245659D01*
D02*
G37*
G36*
X77400D02*
X70949D01*
Y241905D01*
X77400D01*
Y245659D01*
D02*
G37*
G36*
X274069Y243888D02*
X273787Y243851D01*
X272826Y243453D01*
X272000Y242819D01*
X271366Y241993D01*
X270968Y241032D01*
X270931Y240750D01*
X274069D01*
Y243888D01*
D02*
G37*
G36*
Y239250D02*
X270931D01*
X270968Y238968D01*
X271366Y238006D01*
X272000Y237181D01*
X272826Y236547D01*
X273787Y236149D01*
X274069Y236112D01*
Y239250D01*
D02*
G37*
G36*
X257949Y222824D02*
X255844D01*
Y221250D01*
X260124D01*
X260096Y221389D01*
X259592Y222143D01*
X258838Y222647D01*
X257949Y222824D01*
D02*
G37*
G36*
X167643Y200843D02*
X163850D01*
Y197050D01*
X167643D01*
Y200843D01*
D02*
G37*
G36*
X162350D02*
X158557D01*
Y197050D01*
X162350D01*
Y200843D01*
D02*
G37*
G36*
X167643Y195550D02*
X163850D01*
Y191757D01*
X167643D01*
Y195550D01*
D02*
G37*
G36*
X162350D02*
X158557D01*
Y191757D01*
X162350D01*
Y195550D01*
D02*
G37*
G36*
X124516Y183746D02*
X120722D01*
Y179952D01*
X124516D01*
Y183746D01*
D02*
G37*
G36*
X119222D02*
X115429D01*
Y179952D01*
X119222D01*
Y183746D01*
D02*
G37*
G36*
X124516Y178452D02*
X120722D01*
Y174659D01*
X124516D01*
Y178452D01*
D02*
G37*
G36*
X119222D02*
X115429D01*
Y174659D01*
X119222D01*
Y178452D01*
D02*
G37*
G36*
X25013Y170359D02*
X22794D01*
Y167550D01*
X25013D01*
Y170359D01*
D02*
G37*
G36*
Y166050D02*
X22794D01*
Y163241D01*
X25013D01*
Y166050D01*
D02*
G37*
G36*
X166550Y156850D02*
X164322D01*
X164329Y156804D01*
X164636Y156062D01*
X165125Y155425D01*
X165762Y154936D01*
X166504Y154629D01*
X166550Y154622D01*
Y156850D01*
D02*
G37*
G36*
X25013Y151583D02*
X22794D01*
Y148774D01*
X25013D01*
Y151583D01*
D02*
G37*
G36*
Y147274D02*
X22794D01*
Y144465D01*
X25013D01*
Y147274D01*
D02*
G37*
G36*
X222210Y107274D02*
X217931D01*
Y105699D01*
X220035D01*
X220925Y105876D01*
X221679Y106380D01*
X222183Y107134D01*
X222210Y107274D01*
D02*
G37*
G36*
X216431D02*
X212152D01*
X212179Y107134D01*
X212683Y106380D01*
X213437Y105876D01*
X214327Y105699D01*
X216431D01*
Y107274D01*
D02*
G37*
G36*
X104750Y107922D02*
Y105695D01*
X106978D01*
X106972Y105741D01*
X106664Y106483D01*
X106175Y107120D01*
X105538Y107609D01*
X104796Y107916D01*
X104750Y107922D01*
D02*
G37*
G36*
X103250D02*
X103204Y107916D01*
X102462Y107609D01*
X101825Y107120D01*
X101336Y106483D01*
X101029Y105741D01*
X101022Y105695D01*
X103250D01*
Y107922D01*
D02*
G37*
G36*
X207953Y102953D02*
X204750D01*
Y99750D01*
X207953D01*
Y102953D01*
D02*
G37*
G36*
X203250D02*
X200047D01*
Y99750D01*
X203250D01*
Y102953D01*
D02*
G37*
G36*
X207953Y98250D02*
X204750D01*
Y95047D01*
X207953D01*
Y98250D01*
D02*
G37*
G36*
X203250D02*
X200047D01*
Y95047D01*
X203250D01*
Y98250D01*
D02*
G37*
G36*
X278772Y59250D02*
X275569D01*
Y56047D01*
X278772D01*
Y59250D01*
D02*
G37*
G36*
X274069D02*
X270866D01*
Y56047D01*
X274069D01*
Y59250D01*
D02*
G37*
G36*
X276787Y26019D02*
X275045Y25848D01*
X273369Y25339D01*
X271825Y24514D01*
X270471Y23403D01*
X269360Y22049D01*
X268535Y20505D01*
X268026Y18829D01*
X267855Y17086D01*
X268026Y15344D01*
X268535Y13668D01*
X269360Y12124D01*
X270471Y10770D01*
X271825Y9659D01*
X273369Y8834D01*
X275045Y8325D01*
X276787Y8154D01*
X278530Y8325D01*
X280206Y8834D01*
X281750Y9659D01*
X283104Y10770D01*
X284215Y12124D01*
X285040Y13668D01*
X285548Y15344D01*
X285720Y17086D01*
X285548Y18829D01*
X285040Y20505D01*
X284215Y22049D01*
X283104Y23403D01*
X281750Y24514D01*
X280206Y25339D01*
X278530Y25848D01*
X276787Y26019D01*
D02*
G37*
G36*
X77969D02*
X76226Y25848D01*
X74550Y25339D01*
X73006Y24514D01*
X71652Y23403D01*
X70541Y22049D01*
X69716Y20505D01*
X69207Y18829D01*
X69036Y17086D01*
X69207Y15344D01*
X69716Y13668D01*
X70541Y12124D01*
X71652Y10770D01*
X73006Y9659D01*
X74550Y8834D01*
X76226Y8325D01*
X77969Y8154D01*
X79711Y8325D01*
X81387Y8834D01*
X82931Y9659D01*
X84285Y10770D01*
X85396Y12124D01*
X86221Y13668D01*
X86730Y15344D01*
X86901Y17086D01*
X86730Y18829D01*
X86221Y20505D01*
X85396Y22049D01*
X84285Y23403D01*
X82931Y24514D01*
X81387Y25339D01*
X79711Y25848D01*
X77969Y26019D01*
D02*
G37*
G36*
X282650Y214050D02*
X280422D01*
X280429Y214004D01*
X280736Y213262D01*
X281225Y212625D01*
X281862Y212136D01*
X282604Y211828D01*
X282650Y211822D01*
Y214050D01*
D02*
G37*
G36*
X132953Y102953D02*
X129750D01*
Y99750D01*
X132953D01*
Y102953D01*
D02*
G37*
G36*
Y98250D02*
X129750D01*
Y95047D01*
X132953D01*
Y98250D01*
D02*
G37*
G36*
X317000Y264237D02*
X315686Y264108D01*
X314422Y263724D01*
X313257Y263102D01*
X312236Y262264D01*
X311398Y261243D01*
X310776Y260078D01*
X310392Y258814D01*
X310263Y257500D01*
X310392Y256186D01*
X310776Y254922D01*
X311398Y253757D01*
X312236Y252736D01*
X313257Y251898D01*
X314422Y251276D01*
X315686Y250892D01*
X317000Y250763D01*
X318314Y250892D01*
X319578Y251276D01*
X320743Y251898D01*
X321764Y252736D01*
X322602Y253757D01*
X323224Y254922D01*
X323608Y256186D01*
X323737Y257500D01*
X323608Y258814D01*
X323224Y260078D01*
X322602Y261243D01*
X321764Y262264D01*
X320743Y263102D01*
X319578Y263724D01*
X318314Y264108D01*
X317000Y264237D01*
D02*
G37*
G36*
X311050Y241778D02*
Y239550D01*
X313278D01*
X313271Y239596D01*
X312964Y240338D01*
X312475Y240975D01*
X311838Y241464D01*
X311096Y241772D01*
X311050Y241778D01*
D02*
G37*
G36*
X309550D02*
X309504Y241772D01*
X308762Y241464D01*
X308125Y240975D01*
X307636Y240338D01*
X307329Y239596D01*
X307322Y239550D01*
X309550D01*
Y241778D01*
D02*
G37*
G36*
X330402Y235665D02*
X327593D01*
Y229510D01*
X330402D01*
Y235665D01*
D02*
G37*
G36*
X326093D02*
X323284D01*
Y229510D01*
X326093D01*
Y235665D01*
D02*
G37*
G36*
X330402Y228010D02*
X327593D01*
Y221854D01*
X330402D01*
Y228010D01*
D02*
G37*
G36*
X326093D02*
X323284D01*
Y221854D01*
X326093D01*
Y228010D01*
D02*
G37*
G36*
X345114Y211600D02*
X342108D01*
Y207217D01*
X345114D01*
Y211600D01*
D02*
G37*
G36*
X340608D02*
X337602D01*
Y207217D01*
X340608D01*
Y211600D01*
D02*
G37*
G36*
X345114Y181658D02*
X342108D01*
Y177274D01*
X345114D01*
Y181658D01*
D02*
G37*
G36*
X340608D02*
X337602D01*
Y177274D01*
X340608D01*
Y181658D01*
D02*
G37*
G36*
X345114Y175774D02*
X341358D01*
X337602D01*
Y171390D01*
Y167100D01*
X341358D01*
X345114D01*
Y171390D01*
Y175774D01*
D02*
G37*
G36*
Y165600D02*
X342108D01*
Y161216D01*
X345114D01*
Y165600D01*
D02*
G37*
G36*
X340608D02*
X337602D01*
Y161216D01*
X340608D01*
Y165600D01*
D02*
G37*
G36*
X345114Y135658D02*
X342108D01*
Y131274D01*
X345114D01*
Y135658D01*
D02*
G37*
G36*
X340608D02*
X337602D01*
Y131274D01*
X340608D01*
Y135658D01*
D02*
G37*
G36*
X345114Y129774D02*
X341358D01*
X337602D01*
Y125984D01*
X337602Y125390D01*
X337602Y124390D01*
Y120600D01*
X341358D01*
X345114D01*
Y124390D01*
X345114Y124984D01*
X345114Y125984D01*
Y129774D01*
D02*
G37*
G36*
Y119100D02*
X342108D01*
Y114716D01*
X345114D01*
Y119100D01*
D02*
G37*
G36*
X340608D02*
X337602D01*
Y114716D01*
X340608D01*
Y119100D01*
D02*
G37*
G36*
X345114Y89157D02*
X342108D01*
Y84774D01*
X345114D01*
Y89157D01*
D02*
G37*
G36*
X340608D02*
X337602D01*
Y84774D01*
X340608D01*
Y89157D01*
D02*
G37*
G36*
X345114Y83274D02*
X341358D01*
X337602D01*
Y79547D01*
X337602Y78890D01*
X337602Y77890D01*
Y74163D01*
X341358D01*
X345114D01*
Y77890D01*
X345114Y78547D01*
X345114Y79547D01*
Y83274D01*
D02*
G37*
G36*
Y72663D02*
X342108D01*
Y68279D01*
X345114D01*
Y72663D01*
D02*
G37*
G36*
X340608D02*
X337602D01*
Y68279D01*
X340608D01*
Y72663D01*
D02*
G37*
G36*
X345114Y42720D02*
X342108D01*
Y38337D01*
X345114D01*
Y42720D01*
D02*
G37*
G36*
X340608D02*
X337602D01*
Y38337D01*
X340608D01*
Y42720D01*
D02*
G37*
%LPD*%
D10*
X46200Y95200D02*
X46246Y95153D01*
X42331Y84706D02*
Y110508D01*
X43800Y111976D01*
X42331Y84706D02*
X43500Y83537D01*
X46246Y95153D02*
X64508D01*
X224100Y210500D02*
X237500Y197100D01*
X237698D01*
X241550Y203710D02*
X248340Y210500D01*
X241550Y173550D02*
Y203710D01*
Y173550D02*
X245400Y169700D01*
X216906Y210500D02*
X224100D01*
X245100Y193360D02*
X252240Y200500D01*
X245100Y182000D02*
Y193360D01*
X32100Y185400D02*
X32800Y184700D01*
X246900Y111900D02*
Y151339D01*
X250950Y155389D01*
X156874Y147500D02*
X167138D01*
X221750Y218350D02*
X246870D01*
X219600Y220500D02*
X221750Y218350D01*
X216905Y220500D02*
X219600D01*
X246870Y218350D02*
X249461Y215760D01*
X168240Y267400D02*
X172000Y263640D01*
X164622Y267400D02*
X168240D01*
X149622Y282400D02*
X164622Y267400D01*
X142760Y282400D02*
X149622D01*
X124547Y264187D02*
X142760Y282400D01*
X274819Y79900D02*
X285746D01*
X291937Y217417D02*
X297600Y211754D01*
X295000Y75100D02*
X297600Y77700D01*
Y211754D01*
X314500Y128500D02*
Y137000D01*
X309341Y126841D02*
X315400Y120782D01*
X308000Y98809D02*
Y105200D01*
X175500Y117500D02*
X194000Y99000D01*
X175500Y117500D02*
Y129963D01*
X173441Y115856D02*
Y148341D01*
Y115856D02*
X188453Y100844D01*
Y74547D02*
Y100844D01*
X184000Y99000D02*
Y102469D01*
X171441Y115028D02*
X184000Y102469D01*
X171441Y115028D02*
Y143197D01*
X167138Y147500D02*
X171441Y143197D01*
X173441Y148341D02*
X176769Y151669D01*
X175500Y129963D02*
X177500D01*
Y137837D02*
Y143796D01*
X181137Y147433D01*
Y148024D01*
X181200Y162126D02*
Y168800D01*
X121676Y211760D02*
X122758D01*
X23439Y199700D02*
Y206300D01*
X181174Y162100D02*
X181200Y162126D01*
X315400Y113937D02*
Y120782D01*
X181137Y148024D02*
Y155100D01*
X176769Y151669D02*
Y165280D01*
X174549Y167500D02*
X176769Y165280D01*
X158724Y162500D02*
X172100D01*
X173300Y155137D02*
Y162100D01*
X172100Y162500D02*
X172500Y162100D01*
X158724Y167500D02*
X174549D01*
X173263Y155100D02*
X173300Y155137D01*
X157000Y232343D02*
X163047Y226295D01*
Y223100D02*
Y226295D01*
X167453Y219456D02*
Y226498D01*
X163537Y215540D02*
X167453Y219456D01*
Y226498D02*
X171453Y230498D01*
X132549Y215540D02*
X163537D01*
X164365Y213540D02*
X170937Y220112D01*
X148540Y213540D02*
X164365D01*
X170937Y220112D02*
Y223100D01*
X143698Y162222D02*
Y208698D01*
X148540Y213540D01*
X143698Y162222D02*
X153420Y152500D01*
X163047Y222147D02*
Y223100D01*
X158440Y217540D02*
X163047Y222147D01*
X145624Y217540D02*
X158440D01*
X140729Y222435D02*
X145624Y217540D01*
X175156Y236795D02*
X188844D01*
X171453Y233092D02*
X175156Y236795D01*
X171453Y230498D02*
Y233092D01*
X170937Y226279D02*
X177000Y232343D01*
X170937Y223780D02*
Y226279D01*
X170921Y223100D02*
X170937D01*
X153420Y152500D02*
X158724D01*
X188844Y236795D02*
X192547Y233092D01*
X196250D01*
X197000Y232343D01*
X122758Y211760D02*
X124438Y210080D01*
Y201339D02*
Y210080D01*
X128687Y203555D02*
Y225732D01*
Y203555D02*
X129982Y202260D01*
X128687Y225732D02*
X135297Y232343D01*
X136676Y179124D02*
Y190031D01*
X119000Y232343D02*
X126438Y224905D01*
Y200772D02*
Y224905D01*
Y200772D02*
X136508Y190702D01*
X121658Y198560D02*
X124438Y201339D01*
X119972Y190702D02*
X120576Y191305D01*
Y198560D01*
X121658D01*
X129982Y202260D02*
X130421D01*
X115715Y212540D02*
X116085Y212170D01*
X121730D01*
X122100Y211800D01*
X109000Y178500D02*
Y190563D01*
X108800Y190763D02*
X109000Y190563D01*
X108800Y198637D02*
X109169Y199005D01*
Y211398D01*
X117011Y219240D01*
X121676D01*
X118061Y231404D02*
X119000Y232343D01*
X118061Y229815D02*
Y231404D01*
X113437Y225190D02*
X118061Y229815D01*
X113437Y224600D02*
Y225190D01*
X105563Y224600D02*
Y225190D01*
X99000Y231753D02*
X105563Y225190D01*
X99000Y231753D02*
Y232343D01*
X132028Y169659D02*
X132300Y169388D01*
X119236Y169659D02*
X132028D01*
X132300Y169388D02*
X134188Y167500D01*
X132300Y169388D02*
Y170191D01*
X134188Y167500D02*
X136676D01*
X132300Y170191D02*
X134609Y172500D01*
X136676D01*
X135297Y232343D02*
X139000D01*
X136676Y179124D02*
X141523Y174277D01*
Y165279D02*
Y174277D01*
X143698Y157202D02*
X144000Y156900D01*
X136975Y157202D02*
X143698D01*
X136676Y157500D02*
X136975Y157202D01*
X127391Y142500D02*
X136676D01*
X127300Y140800D02*
Y142409D01*
X123453Y73453D02*
Y136953D01*
X119000Y69000D02*
X123453Y73453D01*
Y136953D02*
X127300Y140800D01*
X189819Y277504D02*
X191107Y278792D01*
Y284319D01*
X196020Y289231D01*
X201509D01*
X206209Y293932D01*
X206800D01*
X213985D02*
X214363Y294309D01*
X206800Y293932D02*
X213985D01*
X218400Y284924D02*
Y297182D01*
X214363Y301219D02*
X218400Y297182D01*
X214363Y301219D02*
Y301810D01*
X214359Y301805D02*
X214363Y301810D01*
X206800Y301805D02*
X214359D01*
X233400Y255453D02*
Y262876D01*
Y255430D02*
Y255453D01*
X238400Y260430D02*
Y262876D01*
X233400Y255430D02*
X238400Y260430D01*
X201453Y258169D02*
X209481Y250141D01*
X227453D01*
X201453Y258169D02*
Y265917D01*
X227453Y250141D02*
X228400Y251088D01*
Y262876D01*
X206420Y256030D02*
X223394D01*
X203453Y258997D02*
X206420Y256030D01*
X223394D02*
X224863Y254561D01*
X203453Y258997D02*
Y266745D01*
X224863Y254200D02*
Y254561D01*
X166984Y277504D02*
X175693Y268795D01*
X220620Y258030D02*
X223400Y260809D01*
X189819Y277504D02*
X190930Y276392D01*
X196634D01*
X205453Y267573D01*
Y259826D02*
Y267573D01*
Y259826D02*
X207249Y258030D01*
X220620D01*
X223400Y260809D02*
Y262876D01*
X148937Y295551D02*
X166984Y277504D01*
X175693Y268795D02*
X201402D01*
X203453Y266745D01*
X200574Y266795D02*
X201453Y265917D01*
X185156Y266795D02*
X200574D01*
X182547Y264187D02*
X185156Y266795D01*
X141063Y316862D02*
X145037Y312888D01*
X169943Y269400D02*
X177000Y262343D01*
X165450Y269400D02*
X169943D01*
X188453Y74547D02*
X194000Y69000D01*
X128146Y148983D02*
X128200Y149037D01*
X120500Y148983D02*
X128146D01*
X119826Y149657D02*
X120500Y148983D01*
X119826Y149657D02*
Y156546D01*
X245461Y266400D02*
X246300D01*
X244138Y267723D02*
X245461Y266400D01*
X221180Y267723D02*
X244138D01*
X218400Y264943D02*
X221180Y267723D01*
X218400Y262876D02*
Y264943D01*
X232737Y254790D02*
X233400Y255453D01*
X232737Y254200D02*
Y254790D01*
X199200Y278187D02*
X210422Y266965D01*
X199200Y278187D02*
Y285463D01*
X210422Y266965D02*
X211800D01*
X208400Y264943D02*
X210422Y266965D01*
X211800D02*
X213400Y265365D01*
Y262876D02*
Y265365D01*
X208400Y262876D02*
Y264943D01*
X235386Y280871D02*
X236414D01*
X238400Y282857D01*
Y284924D01*
X233400Y282857D02*
X235386Y280871D01*
X233400Y282857D02*
Y284924D01*
X228400Y282857D02*
Y284924D01*
X225621Y280077D02*
X228400Y282857D01*
X221180Y280077D02*
X225621D01*
X218400Y282857D02*
X221180Y280077D01*
X218400Y282857D02*
Y284924D01*
X211614Y280700D02*
X213400Y282486D01*
Y284924D01*
X210557Y280700D02*
X211614D01*
X208400Y282857D02*
X210557Y280700D01*
X208400Y282857D02*
Y284924D01*
X104700Y173488D02*
Y204437D01*
X105100Y204837D01*
X103937Y206000D02*
X105100Y204837D01*
X136676Y162500D02*
X138743D01*
X141523Y165279D01*
X119826Y163600D02*
Y164191D01*
X123294Y167659D01*
X130290D01*
X131830Y166119D01*
Y160280D02*
Y166119D01*
Y160280D02*
X134609Y157500D01*
X136676D01*
X116000Y166423D02*
X119236Y169659D01*
X116000Y106000D02*
Y166423D01*
X109000Y99000D02*
X116000Y106000D01*
X119000Y99000D02*
Y140941D01*
X120468Y142409D01*
X120500D01*
X127300D02*
X127391Y142500D01*
X127700Y155956D02*
Y156546D01*
Y155956D02*
X129168Y154487D01*
X132622D01*
X134609Y152500D01*
X136676D01*
X127700Y156546D02*
Y163600D01*
X154800Y144300D02*
X156600Y142500D01*
X158724D01*
X154800Y144300D02*
Y145426D01*
X156874Y147500D01*
X140729Y144486D02*
Y145514D01*
X138743Y142500D02*
X140729Y144486D01*
X136676Y142500D02*
X138743D01*
Y147500D02*
X140729Y145514D01*
X136676Y147500D02*
X138743D01*
X154600Y169400D02*
X156500Y167500D01*
X158724D01*
X154600Y169400D02*
Y170443D01*
X156657Y172500D01*
X158724D01*
X141063Y284406D02*
Y307000D01*
X119000Y262343D02*
X141063Y284406D01*
X109000Y69000D02*
X116100Y61900D01*
X184000Y69000D02*
X190453Y62547D01*
X239550Y70028D02*
Y186029D01*
X234069Y64547D02*
X239550Y70028D01*
X191517Y64547D02*
X234069D01*
X244694Y72344D02*
Y83432D01*
X234897Y62547D02*
X244694Y72344D01*
X190453Y62547D02*
X234897D01*
X244694Y83432D02*
X248063Y86800D01*
X257803Y118024D02*
X273880Y101946D01*
X257803Y118024D02*
X258224D01*
X273880Y99695D02*
Y101946D01*
Y99695D02*
X274819Y98756D01*
X271515Y138024D02*
X273492Y140000D01*
X255370Y138024D02*
X271515D01*
X267843Y143024D02*
X274819Y150000D01*
X255370Y143024D02*
X267843D01*
X262843Y148024D02*
X274819Y160000D01*
X255370Y148024D02*
X262843D01*
X282909Y182237D02*
X283500D01*
X275147Y190000D02*
X282909Y182237D01*
X274819Y190000D02*
X275147D01*
X232950Y155940D02*
Y168081D01*
X230431Y170600D02*
X232950Y168081D01*
X226100Y165383D02*
Y165500D01*
Y165383D02*
X230950Y160533D01*
X220055Y138024D02*
X227807Y145776D01*
X217181Y138024D02*
X220055D01*
X224257Y147247D02*
X232950Y155940D01*
X224257Y147246D02*
Y147247D01*
X220035Y143024D02*
X224257Y147246D01*
X32800Y184700D02*
X39100D01*
X23439Y206300D02*
X25301Y208162D01*
X37007Y230658D02*
X37600Y231251D01*
X35735Y230658D02*
X37007D01*
X25301Y220224D02*
X35735Y230658D01*
X25301Y208162D02*
Y220224D01*
X32100Y206300D02*
Y212500D01*
Y192374D02*
Y198800D01*
X37726Y220374D02*
X40700Y217400D01*
X32100Y220374D02*
X37726D01*
X141063Y316862D02*
Y318000D01*
X145037Y289813D02*
Y312888D01*
X191000Y309000D02*
X199200Y300800D01*
Y293337D02*
Y300800D01*
X289804Y217417D02*
X291937D01*
X283000Y224221D02*
X289804Y217417D01*
X283000Y224221D02*
Y265976D01*
X262628Y58547D02*
X268928Y64846D01*
X304507D01*
X188796Y58547D02*
X262628D01*
X30169Y144346D02*
Y169980D01*
Y144346D02*
X49361Y125154D01*
X54200D01*
X57346Y122008D01*
Y117992D02*
Y122008D01*
X54507Y115154D02*
X57346Y117992D01*
X50800Y115154D02*
X54507D01*
X49091Y113445D02*
X50800Y115154D01*
X45268Y113445D02*
X49091D01*
X43800Y111976D02*
X45268Y113445D01*
X25763Y148024D02*
Y166800D01*
X249461Y215760D02*
X254835D01*
X255095Y215500D01*
X214051Y220500D02*
X216905D01*
X244998Y215202D02*
X245400Y214800D01*
X217204Y215202D02*
X244998D01*
X216906Y215500D02*
X217204Y215202D01*
X248340Y210500D02*
X255094D01*
X274819Y228756D02*
X281000Y234937D01*
Y266804D01*
X314000Y92000D02*
Y92809D01*
X69500Y100146D02*
Y115000D01*
X64508Y95153D02*
X69500Y100146D01*
X145037Y289813D02*
X165450Y269400D01*
X189624Y60547D02*
X257389D01*
X263305Y66463D01*
X263895D01*
X250950Y155389D02*
Y174150D01*
X307157Y274900D02*
Y287421D01*
X307157Y287421D01*
X30169Y169980D02*
X43654Y183465D01*
Y213664D01*
X33637Y166800D02*
X39147D01*
X45654Y173307D02*
Y212836D01*
X39147Y166800D02*
X45654Y173307D01*
X39147Y166800D02*
X42609Y163337D01*
X43200D01*
X45443Y158932D02*
X47653Y161142D01*
X40020Y158932D02*
X45443D01*
X35105Y154017D02*
X40020Y158932D01*
X35105Y149492D02*
Y154017D01*
X33637Y148024D02*
X35105Y149492D01*
X57653Y154847D02*
X62500Y150000D01*
X44216Y154847D02*
X57653D01*
X43600Y155463D02*
X44216Y154847D01*
X33637Y148024D02*
X40423D01*
X44009Y144437D01*
X57653Y135153D02*
X62500Y140000D01*
X46009Y135153D02*
X57653D01*
X44600Y136563D02*
X46009Y135153D01*
X44009Y144437D02*
X44600D01*
X47653Y161142D02*
Y212007D01*
X57653Y75153D02*
X62500Y80000D01*
X44009Y75153D02*
X57653D01*
X43500Y75663D02*
X44009Y75153D01*
X53654Y256638D02*
X57563Y260547D01*
X53654Y220836D02*
Y256638D01*
X57563Y260547D02*
Y263663D01*
X51400Y221411D02*
Y262600D01*
X43654Y213664D02*
X51400Y221411D01*
X57653Y164847D02*
Y254981D01*
X45654Y212836D02*
X53654Y220836D01*
X47653Y212007D02*
X55654Y220007D01*
Y255810D01*
X64244Y264400D01*
X57653Y254981D02*
X63522Y260850D01*
X64244Y264400D02*
X64385D01*
X57563Y263663D02*
X57600Y263700D01*
X63522Y260850D02*
X83826D01*
X315000Y197400D02*
X323642Y206042D01*
X315000Y190874D02*
Y197400D01*
Y190874D02*
X315826D01*
X323642Y206042D02*
Y212350D01*
Y176524D02*
Y183058D01*
X315826Y190874D02*
X323642Y183058D01*
X316026Y50748D02*
Y59126D01*
Y50748D02*
X323642Y43132D01*
X315400Y99874D02*
Y106063D01*
Y99874D02*
X319000D01*
X323642Y66742D02*
Y73413D01*
X316026Y59126D02*
X323642Y66742D01*
X307157Y228760D02*
Y231943D01*
X300783Y238316D02*
X307157Y231943D01*
X300783Y238316D02*
Y264883D01*
X305286Y269386D02*
X330286D01*
X300783Y264883D02*
X305286Y269386D01*
X330286D02*
X333400Y272500D01*
X315000Y152500D02*
X323642Y161142D01*
X315000Y144874D02*
Y152500D01*
Y144874D02*
X320000D01*
X323642Y161142D02*
Y166350D01*
X78751Y59900D02*
X187443D01*
X68651Y70000D02*
X78751Y59900D01*
X219260Y172557D02*
X220700Y171117D01*
X219260Y172557D02*
Y174780D01*
X220700Y170278D02*
Y171117D01*
X286925Y302602D02*
X288169Y303846D01*
X286925Y272729D02*
Y302602D01*
X281000Y266804D02*
X286925Y272729D01*
X292378Y297818D02*
X296831Y302271D01*
X290039Y297818D02*
X292378D01*
X288925Y296704D02*
X290039Y297818D01*
X288925Y271901D02*
Y296704D01*
X283000Y265976D02*
X288925Y271901D01*
X316800Y295527D02*
X317000Y295327D01*
X316800Y295527D02*
Y301763D01*
X292500Y319200D02*
X306646D01*
X316210Y309637D01*
X316800D01*
X296831Y302271D02*
Y303846D01*
X252240Y200500D02*
X255095D01*
X252300Y175500D02*
X255094D01*
X250950Y174150D02*
X252300Y175500D01*
X311341Y46532D02*
Y58013D01*
Y46532D02*
X314809Y43063D01*
X304507Y64846D02*
X311341Y58013D01*
X323642Y37587D02*
Y43132D01*
X263210Y89137D02*
X263800D01*
X261705Y90641D02*
X263210Y89137D01*
X261705Y90641D02*
Y94131D01*
X260237Y95600D02*
X261705Y94131D01*
X252468Y75159D02*
X256037Y71591D01*
X252468Y75159D02*
Y93642D01*
X248163Y71000D02*
X248263Y71100D01*
Y79103D01*
X255937Y79303D02*
X256137Y79103D01*
X255937Y79303D02*
Y86800D01*
X255974Y77663D02*
X256137Y77500D01*
X288047Y74453D02*
X292500Y70000D01*
X264011Y74453D02*
X288047D01*
X263895Y74337D02*
X264011Y74453D01*
X263800Y74432D02*
X263895Y74337D01*
X263800Y74432D02*
Y81263D01*
X237550Y79549D02*
Y175160D01*
X232400Y74400D02*
X237550Y79549D01*
X199100Y74400D02*
X232400D01*
X183800Y57900D02*
X187800Y53900D01*
X70400Y57900D02*
X183800D01*
X187443Y59900D02*
X188796Y58547D01*
X188272Y61900D02*
X189624Y60547D01*
X189547Y66517D02*
X191517Y64547D01*
X189547Y66517D02*
Y69750D01*
X116100Y61900D02*
X188272D01*
X62500Y50000D02*
X70400Y57900D01*
X256037Y71000D02*
Y71591D01*
X185844Y73453D02*
X189547Y69750D01*
X285746Y79900D02*
X290546Y75100D01*
X295000D01*
X76932Y64547D02*
X100844D01*
X67347Y74133D02*
X76932Y64547D01*
X100844D02*
X103453Y67156D01*
X62500Y70000D02*
X68651D01*
X117639Y63961D02*
X175259D01*
X113972Y67628D02*
X117639Y63961D01*
X113972Y67628D02*
Y70325D01*
X67347Y74133D02*
Y82007D01*
X314809Y43063D02*
X315400D01*
X209272Y165208D02*
Y215721D01*
X214051Y220500D01*
X217181Y153024D02*
Y162319D01*
X213100Y166400D02*
X217181Y162319D01*
X209272Y165208D02*
X211480Y162999D01*
X211272Y174349D02*
X225964Y159656D01*
X226807D01*
X227400Y159063D01*
X211480Y135001D02*
Y162999D01*
X211272Y174349D02*
Y197721D01*
X214051Y200500D01*
X216906D01*
X255294Y215700D02*
X266300D01*
X255095Y215500D02*
X255294Y215700D01*
X261193Y205500D02*
X270366Y214673D01*
X260728Y202207D02*
X274069Y215547D01*
X260728Y193280D02*
Y202207D01*
X270366Y214673D02*
Y221844D01*
X231038Y184500D02*
X236000D01*
X225038Y190500D02*
X231038Y184500D01*
X227209Y185500D02*
X237550Y175160D01*
X216906Y185500D02*
X227209D01*
X216906Y190500D02*
X225038D01*
X225058Y195500D02*
X231802Y188756D01*
X216905Y195500D02*
X225058D01*
X227272Y132552D02*
X227700D01*
X226562Y133262D02*
X227272Y132552D01*
X217419Y133262D02*
X226562D01*
X217181Y133024D02*
X217419Y133262D01*
X221381Y148024D02*
X230950Y157592D01*
X217181Y148024D02*
X221381D01*
X230950Y157592D02*
Y160533D01*
X83826Y260850D02*
X89771Y266795D01*
X110845D01*
X220079Y205500D02*
X239550Y186029D01*
X248950Y156217D02*
Y192210D01*
X243350Y150617D02*
X248950Y156217D01*
X243350Y106450D02*
Y150617D01*
X248950Y192210D02*
X252240Y195500D01*
X243350Y106450D02*
X243600Y106200D01*
X244439D01*
X246263Y108024D01*
X255370D01*
X252240Y195500D02*
X255095D01*
X308000Y98809D02*
X314000Y92809D01*
X204253Y127774D02*
X211480Y135001D01*
X204253Y113978D02*
Y127774D01*
Y113978D02*
X206482Y111750D01*
X210425Y112725D02*
X216883D01*
X209450Y111750D02*
X210425Y112725D01*
X206482Y111750D02*
X209450D01*
X216906Y205500D02*
X220079D01*
X224686Y175153D02*
X224898D01*
X257949Y190500D02*
X260728Y193280D01*
X217181Y143024D02*
X220035D01*
X261950Y172833D02*
Y176499D01*
X257949Y180500D02*
X261950Y176499D01*
Y172833D02*
X264030Y170753D01*
X269050Y172833D02*
Y204231D01*
X274819Y210000D01*
X266970Y170753D02*
X269050Y172833D01*
X264030Y170753D02*
X266970D01*
X255095Y180500D02*
X257949D01*
X255094Y190500D02*
X257949D01*
X270366Y221844D02*
X272974Y224453D01*
X255094Y205500D02*
X261193D01*
X182156Y73453D02*
X185844D01*
X179000Y70297D02*
X182156Y73453D01*
X179000Y67703D02*
Y70297D01*
X175259Y63961D02*
X179000Y67703D01*
X255370Y133024D02*
X271545D01*
X274569Y130000D01*
X255370Y128024D02*
X266795D01*
X261795Y123024D02*
X274819Y110000D01*
X255370Y123024D02*
X261795D01*
X314487Y67487D02*
Y73400D01*
X314000Y67000D02*
X314487Y67487D01*
X314600Y174818D02*
Y182900D01*
X314500Y183000D02*
X314600Y182900D01*
X266201Y98617D02*
X274819Y90000D01*
X266201Y98617D02*
Y105046D01*
X258224Y113024D02*
X266201Y105046D01*
X255370Y113024D02*
X258224D01*
X255370Y118024D02*
X257803D01*
X273880Y101946D02*
X274819Y101007D01*
X257803Y118024D02*
X257803Y118024D01*
X273880Y101946D02*
Y102368D01*
X255370Y118024D02*
X257803D01*
X274819Y100000D02*
Y101007D01*
X266795Y128024D02*
X274819Y120000D01*
X274569Y130000D02*
X274819D01*
X273492Y140000D02*
X274819D01*
X274069Y215547D02*
Y218006D01*
X274819Y218756D01*
X278768Y224453D02*
X292500Y210720D01*
X272974Y224453D02*
X278768D01*
X287500Y85000D02*
X292500Y80000D01*
X257174Y85000D02*
X287500D01*
X57653Y164847D02*
X62500Y160000D01*
X110845Y266795D02*
X113453Y264187D01*
X292500Y210000D02*
Y210720D01*
X265500Y174303D02*
Y177949D01*
X257949Y185500D02*
X265500Y177949D01*
X207803Y121254D02*
X208194D01*
X64508Y84847D02*
X67347Y82007D01*
X219338Y180500D02*
X224686Y175153D01*
X207952Y115300D02*
X210676Y118024D01*
X209000Y127500D02*
X209262Y127762D01*
X208194Y121254D02*
X209964Y123024D01*
X209262Y127762D02*
X216919D01*
X217181Y128024D01*
X209964Y123024D02*
X217181D01*
X216906Y180500D02*
X219338D01*
X255094Y185500D02*
X257949D01*
X182547Y261593D02*
Y264187D01*
X148937Y295551D02*
Y307000D01*
X216883Y112725D02*
X217181Y113024D01*
X210676Y118024D02*
X217181D01*
X218540Y175500D02*
X219260Y174780D01*
X216906Y175500D02*
X218540D01*
X326900Y276000D02*
Y287364D01*
X326843Y287421D02*
X326900Y287364D01*
X172000Y261045D02*
X175156Y257890D01*
X178844D01*
X182547Y261593D01*
X124547D02*
Y264187D01*
X120844Y257890D02*
X124547Y261593D01*
X110844Y73453D02*
X113972Y70325D01*
X107156Y73453D02*
X110844D01*
X103453Y69750D02*
X107156Y73453D01*
X103453Y67156D02*
Y69750D01*
X57882Y84847D02*
X64508D01*
X52728Y90000D02*
X57882Y84847D01*
X52500Y90000D02*
X52728D01*
X323642Y84024D02*
Y95232D01*
X319000Y99874D02*
X323642Y95232D01*
X319000Y99874D02*
X323642Y104516D01*
Y119850D01*
X113453Y261593D02*
Y264187D01*
X172000Y261045D02*
Y263640D01*
X111811Y206000D02*
X119972D01*
X117156Y257890D02*
X120844D01*
X113453Y261593D02*
X117156Y257890D01*
X314500Y183000D02*
X315000D01*
X255370Y113024D02*
X258224D01*
X314500Y137000D02*
X315000D01*
X323642Y130524D02*
Y141232D01*
X320000Y144874D02*
X323642Y141232D01*
X174000Y69000D02*
Y99000D01*
X99000Y69000D02*
Y99000D01*
X145100Y15198D02*
Y9200D01*
Y11199D01*
X149099Y15198D01*
X146100Y12199D01*
X149099Y9200D01*
X152098Y13199D02*
X154097D01*
X155097Y12199D01*
Y9200D01*
X152098D01*
X151098Y10200D01*
X152098Y11199D01*
X155097D01*
X157096Y13199D02*
Y9200D01*
Y11199D01*
X158096Y12199D01*
X159096Y13199D01*
X160095D01*
X163094D02*
X167093D01*
X163094Y9200D01*
X167093D01*
X179089Y14198D02*
X178089Y15198D01*
X176090D01*
X175090Y14198D01*
Y10200D01*
X176090Y9200D01*
X178089D01*
X179089Y10200D01*
Y12199D01*
X177090D01*
X184087Y9200D02*
X182088D01*
X181088Y10200D01*
Y12199D01*
X182088Y13199D01*
X184087D01*
X185087Y12199D01*
Y11199D01*
X181088D01*
X187086Y13199D02*
Y9200D01*
Y11199D01*
X188086Y12199D01*
X189086Y13199D01*
X190085D01*
X195084Y7201D02*
X196083D01*
X197083Y8200D01*
Y13199D01*
X194084D01*
X193085Y12199D01*
Y10200D01*
X194084Y9200D01*
X197083D01*
X202082D02*
X200082D01*
X199083Y10200D01*
Y12199D01*
X200082Y13199D01*
X202082D01*
X203081Y12199D01*
Y11199D01*
X199083D01*
X205081Y9200D02*
X207080D01*
X206080D01*
Y15198D01*
X205081D01*
X210079Y13199D02*
Y10200D01*
X211079Y9200D01*
X214078D01*
Y8200D01*
X213078Y7201D01*
X212078D01*
X214078Y9200D02*
Y13199D01*
D44*
X238400Y284924D02*
D03*
X233400D02*
D03*
X228400D02*
D03*
X223400D02*
D03*
X218400D02*
D03*
X213400D02*
D03*
X208400D02*
D03*
X238400Y262876D02*
D03*
X233400D02*
D03*
X228400D02*
D03*
X223400D02*
D03*
X218400D02*
D03*
X213400D02*
D03*
X208400D02*
D03*
D45*
X158724Y142500D02*
D03*
Y147500D02*
D03*
Y152500D02*
D03*
Y157500D02*
D03*
Y162500D02*
D03*
Y167500D02*
D03*
Y172500D02*
D03*
X136676Y142500D02*
D03*
Y147500D02*
D03*
Y152500D02*
D03*
Y157500D02*
D03*
Y162500D02*
D03*
Y167500D02*
D03*
Y172500D02*
D03*
D46*
X255095Y175500D02*
D03*
Y180500D02*
D03*
Y185500D02*
D03*
Y190500D02*
D03*
Y195500D02*
D03*
Y200500D02*
D03*
Y205500D02*
D03*
Y210500D02*
D03*
Y215500D02*
D03*
Y220500D02*
D03*
X216905Y175500D02*
D03*
Y180500D02*
D03*
Y185500D02*
D03*
Y190500D02*
D03*
Y195500D02*
D03*
Y200500D02*
D03*
Y205500D02*
D03*
Y210500D02*
D03*
Y215500D02*
D03*
Y220500D02*
D03*
X217181Y153024D02*
D03*
Y148024D02*
D03*
Y143024D02*
D03*
Y138024D02*
D03*
Y133024D02*
D03*
Y128024D02*
D03*
Y123024D02*
D03*
Y118024D02*
D03*
Y113024D02*
D03*
Y108024D02*
D03*
X255370Y153024D02*
D03*
Y148024D02*
D03*
Y143024D02*
D03*
Y138024D02*
D03*
Y133024D02*
D03*
Y128024D02*
D03*
Y123024D02*
D03*
Y118024D02*
D03*
Y113024D02*
D03*
Y108024D02*
D03*
D47*
X206800Y293932D02*
D03*
Y301805D02*
D03*
X43800Y119850D02*
D03*
Y111976D02*
D03*
X44600Y136563D02*
D03*
Y144437D02*
D03*
X43500Y83537D02*
D03*
Y75663D02*
D03*
X43200Y155463D02*
D03*
Y163337D02*
D03*
X32100Y212500D02*
D03*
Y220374D02*
D03*
Y192374D02*
D03*
Y184500D02*
D03*
X315400Y206437D02*
D03*
Y198563D02*
D03*
Y161437D02*
D03*
Y153563D02*
D03*
Y113937D02*
D03*
Y106063D02*
D03*
Y67000D02*
D03*
Y59126D02*
D03*
Y190874D02*
D03*
Y183000D02*
D03*
Y144874D02*
D03*
Y137000D02*
D03*
Y99874D02*
D03*
Y92000D02*
D03*
Y50937D02*
D03*
Y43063D02*
D03*
X120500Y141109D02*
D03*
Y148983D02*
D03*
X199200Y293637D02*
D03*
Y285763D02*
D03*
X263800Y89137D02*
D03*
Y81263D02*
D03*
X263895Y74337D02*
D03*
Y66463D02*
D03*
X177500Y129963D02*
D03*
Y137837D02*
D03*
X108800Y198637D02*
D03*
Y190763D02*
D03*
X316800Y301763D02*
D03*
Y309637D02*
D03*
X283500Y174363D02*
D03*
Y182237D02*
D03*
X128200Y141163D02*
D03*
Y149037D02*
D03*
D48*
X214363Y301810D02*
D03*
X222237D02*
D03*
X33637Y148024D02*
D03*
X25763D02*
D03*
X33637Y166800D02*
D03*
X25763D02*
D03*
X224863Y254200D02*
D03*
X232737D02*
D03*
X119826Y156546D02*
D03*
X127700D02*
D03*
X252363Y95600D02*
D03*
X260237D02*
D03*
X112637Y206000D02*
D03*
X104763D02*
D03*
X105563Y224600D02*
D03*
X113437D02*
D03*
X181137Y155100D02*
D03*
X173263D02*
D03*
X256037Y71000D02*
D03*
X248163D02*
D03*
X163047Y223100D02*
D03*
X170921D02*
D03*
X248263Y79103D02*
D03*
X256137D02*
D03*
X255937Y86800D02*
D03*
X248063D02*
D03*
X222237Y294309D02*
D03*
X214363D02*
D03*
X127700Y163600D02*
D03*
X119826D02*
D03*
X173263Y148024D02*
D03*
X181137D02*
D03*
X173300Y162100D02*
D03*
X181174D02*
D03*
D49*
X296831Y303846D02*
D03*
X288169D02*
D03*
D50*
X292500Y319200D02*
D03*
D51*
X131024Y202300D02*
D03*
X120576Y206040D02*
D03*
Y198560D02*
D03*
X132549Y215540D02*
D03*
X122100Y219280D02*
D03*
Y211800D02*
D03*
D52*
X78150Y267000D02*
D03*
Y246410D02*
D03*
D53*
X295346Y225217D02*
D03*
X338654D02*
D03*
Y289784D02*
D03*
X295346D02*
D03*
D54*
X342098Y257500D02*
D03*
X291902D02*
D03*
D55*
X307157Y228760D02*
D03*
X326842D02*
D03*
Y287421D02*
D03*
X307157D02*
D03*
X317000D02*
D03*
D56*
X119972Y190702D02*
D03*
X136508D02*
D03*
Y179202D02*
D03*
X119972D02*
D03*
X146565Y196300D02*
D03*
X163100D02*
D03*
D57*
X140729Y222435D02*
D03*
Y205900D02*
D03*
D58*
X45251Y250300D02*
D03*
X64149D02*
D03*
D59*
X32094Y205900D02*
D03*
X23432D02*
D03*
X32100Y198800D02*
D03*
X23439D02*
D03*
D60*
X341358Y212350D02*
D03*
Y176524D02*
D03*
X323642D02*
D03*
Y212350D02*
D03*
X341358Y166350D02*
D03*
Y130524D02*
D03*
X323642D02*
D03*
Y166350D02*
D03*
X341358Y119850D02*
D03*
Y84024D02*
D03*
X323642D02*
D03*
Y119850D02*
D03*
X341358Y73413D02*
D03*
Y37587D02*
D03*
X323642D02*
D03*
Y73413D02*
D03*
D61*
X309341Y126841D02*
Y155905D01*
X302500Y120000D02*
X309341Y126841D01*
X309550Y167287D02*
Y201483D01*
Y167287D02*
X315400Y161437D01*
X295000Y261291D02*
X295346Y260945D01*
Y224254D02*
Y254055D01*
X303753Y215846D02*
X306882D01*
X295346Y224254D02*
X303753Y215846D01*
X315400Y206437D02*
Y207329D01*
X309550Y201483D02*
X315400Y206437D01*
X309341Y155905D02*
X315400Y161437D01*
X295000Y272000D02*
Y289437D01*
X306882Y215846D02*
X315400Y207329D01*
X295000Y261291D02*
Y272000D01*
X291902Y257500D02*
X295346Y260945D01*
X291902Y257500D02*
X295346Y254055D01*
D62*
X338654Y260945D02*
Y291162D01*
X45150Y238801D02*
Y250450D01*
X62500Y170000D02*
X73550Y158950D01*
Y100661D02*
Y158950D01*
X250175Y64547D02*
X256037Y70410D01*
X250100Y64547D02*
X250175D01*
X262250Y157050D02*
X270248Y165047D01*
X258224Y153024D02*
X262250Y157050D01*
X270248Y165047D02*
X276870D01*
X255370Y153024D02*
X258224D01*
X276870Y165047D02*
X281941Y170118D01*
Y173395D01*
X282909Y174363D01*
X283500D01*
X284469Y175331D01*
X287831D01*
X292500Y180000D01*
X69846Y96957D02*
X73550Y100661D01*
X69846Y75169D02*
Y96957D01*
Y75169D02*
X76015Y69000D01*
X89000D01*
X34380Y60000D02*
X52500D01*
X33637Y120000D02*
X33787Y119850D01*
X43800D01*
X43875Y119925D01*
X52425D01*
X52500Y120000D01*
X37600Y231251D02*
X45150Y238801D01*
X296000Y291815D02*
X299512Y295327D01*
X256037Y71000D02*
X256537Y70500D01*
X274319D02*
X274819Y70000D01*
X256037Y70410D02*
Y71000D01*
X338654Y225217D02*
X342098Y228661D01*
Y257500D01*
X338654Y260945D02*
X342098Y257500D01*
X317000Y287421D02*
Y295327D01*
X334488D01*
X299512D02*
X317000D01*
X334488D02*
X338654Y291162D01*
D63*
X283400Y190000D02*
X292500D01*
X283400D02*
Y214800D01*
X164000Y69000D02*
Y99000D01*
X295000Y289437D02*
X295346Y289784D01*
D64*
X54413Y275902D02*
X67543D01*
X52500Y277815D02*
X54413Y275902D01*
X67543D02*
X75949Y267496D01*
D65*
X256537Y70500D02*
X274319D01*
D66*
X274819Y60000D02*
D03*
D67*
Y70000D02*
D03*
Y80000D02*
D03*
Y90000D02*
D03*
Y100000D02*
D03*
Y110000D02*
D03*
Y120000D02*
D03*
Y130000D02*
D03*
Y140000D02*
D03*
Y150000D02*
D03*
Y160000D02*
D03*
Y170000D02*
D03*
Y180000D02*
D03*
Y190000D02*
D03*
Y200000D02*
D03*
Y210000D02*
D03*
Y220000D02*
D03*
Y230000D02*
D03*
Y240000D02*
D03*
Y250000D02*
D03*
X129000Y262343D02*
D03*
X119000D02*
D03*
X109000D02*
D03*
X119000Y232343D02*
D03*
X109000D02*
D03*
X99000Y262343D02*
D03*
Y232343D02*
D03*
X129000D02*
D03*
X119000Y99000D02*
D03*
X109000D02*
D03*
X99000D02*
D03*
X109000Y69000D02*
D03*
X99000D02*
D03*
X89000Y99000D02*
D03*
Y69000D02*
D03*
X119000D02*
D03*
X187000Y262343D02*
D03*
X177000D02*
D03*
X167000D02*
D03*
X177000Y232343D02*
D03*
X167000D02*
D03*
X157000Y262343D02*
D03*
Y232343D02*
D03*
X187000D02*
D03*
X194000Y99000D02*
D03*
X184000D02*
D03*
X174000D02*
D03*
X184000Y69000D02*
D03*
X174000D02*
D03*
X164000Y99000D02*
D03*
Y69000D02*
D03*
X194000D02*
D03*
D68*
X292500Y30000D02*
D03*
X302500D02*
D03*
X292500Y40000D02*
D03*
X302500D02*
D03*
X292500Y50000D02*
D03*
X302500D02*
D03*
X292500Y60000D02*
D03*
X302500D02*
D03*
X292500Y70000D02*
D03*
X302500D02*
D03*
X292500Y80000D02*
D03*
X302500D02*
D03*
X292500Y90000D02*
D03*
X302500D02*
D03*
X292500Y100000D02*
D03*
X302500D02*
D03*
X292500Y110000D02*
D03*
X302500D02*
D03*
X292500Y120000D02*
D03*
X302500D02*
D03*
X292500Y130000D02*
D03*
X302500D02*
D03*
X292500Y140000D02*
D03*
X302500D02*
D03*
X292500Y150000D02*
D03*
X302500D02*
D03*
X292500Y160000D02*
D03*
X302500D02*
D03*
X292500Y170000D02*
D03*
X302500D02*
D03*
X292500Y180000D02*
D03*
X302500D02*
D03*
X292500Y190000D02*
D03*
X302500D02*
D03*
X292500Y200000D02*
D03*
X302500D02*
D03*
X292500Y210000D02*
D03*
X52500Y30000D02*
D03*
X62500D02*
D03*
X52500Y40000D02*
D03*
X62500D02*
D03*
X52500Y50000D02*
D03*
X62500D02*
D03*
X52500Y60000D02*
D03*
X62500D02*
D03*
X52500Y70000D02*
D03*
X62500D02*
D03*
X52500Y80000D02*
D03*
X62500D02*
D03*
X52500Y90000D02*
D03*
X62500D02*
D03*
X52500Y100000D02*
D03*
X62500D02*
D03*
X52500Y110000D02*
D03*
X62500D02*
D03*
X52500Y120000D02*
D03*
X62500D02*
D03*
X52500Y130000D02*
D03*
X62500D02*
D03*
X52500Y140000D02*
D03*
X62500D02*
D03*
X52500Y150000D02*
D03*
X62500D02*
D03*
X52500Y160000D02*
D03*
X62500D02*
D03*
X52500Y170000D02*
D03*
X62500D02*
D03*
X52500Y180000D02*
D03*
X62500D02*
D03*
X52500Y190000D02*
D03*
X62500D02*
D03*
X52500Y200000D02*
D03*
X62500D02*
D03*
X52500Y210000D02*
D03*
D69*
X302500D02*
D03*
X62500D02*
D03*
D70*
X139000Y262343D02*
D03*
X129000Y99000D02*
D03*
X197000Y262343D02*
D03*
X204000Y99000D02*
D03*
D71*
X139000Y232343D02*
D03*
X129000Y69000D02*
D03*
X197000Y232343D02*
D03*
X204000Y69000D02*
D03*
D72*
X148937Y307000D02*
D03*
X141063D02*
D03*
X141100Y316600D02*
D03*
X148974D02*
D03*
D73*
X166984Y277504D02*
D03*
X165803Y309000D02*
D03*
X189819Y277504D02*
D03*
X191000Y309000D02*
D03*
X98484Y277482D02*
D03*
X97303Y308978D02*
D03*
X121319Y277482D02*
D03*
X122500Y308978D02*
D03*
D74*
X32500Y290315D02*
D03*
X52500Y302815D02*
D03*
Y277815D02*
D03*
D75*
X317000Y275217D02*
D03*
D76*
X20000Y310000D02*
D03*
X334626D02*
D03*
Y20000D02*
D03*
X20000D02*
D03*
D77*
X46200Y95200D02*
D03*
X237698Y197100D02*
D03*
X246900Y111900D02*
D03*
X314500Y128500D02*
D03*
X308000Y105200D02*
D03*
X181200Y168800D02*
D03*
X104000Y104945D02*
D03*
X167300Y157600D02*
D03*
X115715Y212540D02*
D03*
X144000Y156900D02*
D03*
X104700Y173488D02*
D03*
X109000Y178500D02*
D03*
X250100Y64547D02*
D03*
X230431Y170600D02*
D03*
X226100Y165500D02*
D03*
X227807Y145776D02*
D03*
X39100Y184700D02*
D03*
X40700Y217400D02*
D03*
X246300Y266400D02*
D03*
X34380Y60000D02*
D03*
X33637Y120000D02*
D03*
X245400Y214800D02*
D03*
X69500Y115000D02*
D03*
X37600Y231251D02*
D03*
X307157Y274900D02*
D03*
X51400Y262600D02*
D03*
X64385Y264400D02*
D03*
X57600Y263700D02*
D03*
X187800Y53900D02*
D03*
X199100Y74400D02*
D03*
X333400Y272500D02*
D03*
X213100Y166400D02*
D03*
X266300Y215700D02*
D03*
X227700Y132552D02*
D03*
X227400Y159063D02*
D03*
X243600Y106200D02*
D03*
X245400Y169700D02*
D03*
X231802Y188756D02*
D03*
X224898Y175153D02*
D03*
X245100Y182000D02*
D03*
X236000Y184500D02*
D03*
X314487Y73400D02*
D03*
X314600Y174818D02*
D03*
X283400Y214800D02*
D03*
X265500Y174303D02*
D03*
X207803Y121254D02*
D03*
X207952Y115300D02*
D03*
X209000Y127500D02*
D03*
X220700Y170278D02*
D03*
X295000Y272000D02*
D03*
X326900Y276000D02*
D03*
X310300Y238800D02*
D03*
D78*
X276787Y292677D02*
D03*
Y17086D02*
D03*
X77969Y292677D02*
D03*
Y17086D02*
D03*
D79*
X178402Y314906D02*
D03*
Y287347D02*
D03*
X109902Y314883D02*
D03*
Y287324D02*
D03*
D80*
X317000Y257500D02*
D03*
D81*
X262250Y157050D02*
D03*
M02*
