G04*
G04 #@! TF.GenerationSoftware,Altium Limited,Altium Designer,19.0.12 (326)*
G04*
G04 Layer_Physical_Order=2*
G04 Layer_Color=16711680*
%FSLAX25Y25*%
%MOIN*%
G70*
G01*
G75*
%ADD10C,0.01000*%
%ADD47R,0.05118X0.03937*%
%ADD48R,0.03937X0.05118*%
%ADD51R,0.04724X0.02559*%
%ADD57R,0.07087X0.07087*%
%ADD62C,0.02000*%
%ADD63C,0.04000*%
%ADD66R,0.05906X0.05906*%
%ADD67C,0.05906*%
%ADD68C,0.06693*%
%ADD69R,0.06693X0.06693*%
%ADD70R,0.05906X0.05906*%
%ADD71C,0.05906*%
%ADD72C,0.04800*%
%ADD73C,0.10630*%
%ADD74C,0.18000*%
%ADD75O,0.06102X0.08661*%
%ADD76C,0.23622*%
%ADD77C,0.04100*%
%ADD78C,0.13780*%
%ADD79C,0.05866*%
%ADD80C,0.09409*%
%ADD81C,0.05000*%
%ADD82R,0.02559X0.04724*%
G36*
X330003Y323034D02*
X328337Y322344D01*
X326483Y321208D01*
X324830Y319796D01*
X323418Y318143D01*
X322282Y316289D01*
X321450Y314281D01*
X320943Y312167D01*
X320772Y310000D01*
X320943Y307833D01*
X321450Y305719D01*
X322282Y303711D01*
X323418Y301857D01*
X324830Y300204D01*
X326483Y298792D01*
X328337Y297656D01*
X330345Y296824D01*
X332459Y296317D01*
X334626Y296146D01*
X336793Y296317D01*
X338907Y296824D01*
X340915Y297656D01*
X342769Y298792D01*
X344422Y300204D01*
X345834Y301857D01*
X346970Y303711D01*
X347802Y305719D01*
X348034Y306688D01*
X349034Y306569D01*
Y23431D01*
X348034Y23312D01*
X347802Y24281D01*
X346970Y26289D01*
X345834Y28143D01*
X344422Y29796D01*
X342769Y31208D01*
X340915Y32344D01*
X338907Y33176D01*
X336793Y33683D01*
X334626Y33854D01*
X332459Y33683D01*
X330345Y33176D01*
X328337Y32344D01*
X326483Y31208D01*
X324830Y29796D01*
X323418Y28143D01*
X322282Y26289D01*
X321450Y24281D01*
X320943Y22167D01*
X320772Y20000D01*
X320943Y17833D01*
X321450Y15719D01*
X322282Y13711D01*
X323418Y11857D01*
X324830Y10204D01*
X326483Y8792D01*
X328337Y7656D01*
X330003Y6966D01*
X329805Y5966D01*
X217078D01*
Y19199D01*
X142100D01*
Y5966D01*
X24821D01*
X24622Y6966D01*
X26289Y7656D01*
X28143Y8792D01*
X29796Y10204D01*
X31208Y11857D01*
X32344Y13711D01*
X33176Y15719D01*
X33683Y17833D01*
X33854Y20000D01*
X33683Y22167D01*
X33176Y24281D01*
X32344Y26289D01*
X31208Y28143D01*
X29796Y29796D01*
X28143Y31208D01*
X26289Y32344D01*
X24281Y33176D01*
X22167Y33683D01*
X20000Y33854D01*
X17833Y33683D01*
X15719Y33176D01*
X13711Y32344D01*
X11857Y31208D01*
X10204Y29796D01*
X8792Y28143D01*
X7656Y26289D01*
X6966Y24622D01*
X5966Y24821D01*
Y305179D01*
X6966Y305378D01*
X7656Y303711D01*
X8792Y301857D01*
X10204Y300204D01*
X11857Y298792D01*
X13711Y297656D01*
X15719Y296824D01*
X17833Y296317D01*
X20000Y296146D01*
X22167Y296317D01*
X23448Y296624D01*
X23840Y296216D01*
X24063Y295743D01*
X23216Y294160D01*
X22645Y292275D01*
X22525Y291065D01*
X31750D01*
Y300290D01*
X31132Y300229D01*
X30633Y301184D01*
X31208Y301857D01*
X32344Y303711D01*
X33176Y305719D01*
X33683Y307833D01*
X33854Y310000D01*
X33683Y312167D01*
X33176Y314281D01*
X32344Y316289D01*
X31208Y318143D01*
X29796Y319796D01*
X28143Y321208D01*
X26289Y322344D01*
X24622Y323034D01*
X24821Y324034D01*
X329805D01*
X330003Y323034D01*
D02*
G37*
%LPC*%
G36*
X148974Y321038D02*
X147825Y320887D01*
X146755Y320443D01*
X145836Y319738D01*
X145667Y319518D01*
X144407D01*
X144238Y319738D01*
X143319Y320443D01*
X142249Y320887D01*
X141100Y321038D01*
X139951Y320887D01*
X138881Y320443D01*
X137962Y319738D01*
X137257Y318819D01*
X136813Y317749D01*
X136662Y316600D01*
X136759Y315864D01*
X132422Y311527D01*
X129371D01*
X129291Y311791D01*
X128612Y313062D01*
X127698Y314175D01*
X126584Y315090D01*
X125313Y315769D01*
X123934Y316187D01*
X122500Y316328D01*
X121066Y316187D01*
X119687Y315769D01*
X118416Y315090D01*
X117303Y314175D01*
X116388Y313062D01*
X115709Y311791D01*
X115629Y311527D01*
X114648D01*
X114265Y312527D01*
X114708Y313596D01*
X114877Y314883D01*
X114708Y316171D01*
X114211Y317371D01*
X113420Y318402D01*
X112389Y319193D01*
X111189Y319690D01*
X109902Y319859D01*
X108614Y319690D01*
X107414Y319193D01*
X106383Y318402D01*
X105593Y317371D01*
X105096Y316171D01*
X104926Y314883D01*
X105096Y313596D01*
X105538Y312527D01*
X105155Y311527D01*
X104174D01*
X104094Y311791D01*
X103415Y313062D01*
X102501Y314175D01*
X101387Y315090D01*
X100116Y315769D01*
X98737Y316187D01*
X97303Y316328D01*
X95869Y316187D01*
X94490Y315769D01*
X93220Y315090D01*
X92106Y314175D01*
X91192Y313062D01*
X90512Y311791D01*
X90094Y310412D01*
X89953Y308978D01*
X90094Y307544D01*
X90512Y306165D01*
X91192Y304894D01*
X92106Y303781D01*
X93220Y302866D01*
X94382Y302245D01*
X94698Y301456D01*
X94760Y301209D01*
X87644Y294093D01*
X87446Y294163D01*
X86690Y294552D01*
X86221Y296095D01*
X85396Y297640D01*
X84285Y298993D01*
X82931Y300104D01*
X81387Y300930D01*
X79711Y301438D01*
X77969Y301610D01*
X76226Y301438D01*
X74550Y300930D01*
X73006Y300104D01*
X71652Y298993D01*
X70541Y297640D01*
X69716Y296095D01*
X69207Y294420D01*
X69036Y292677D01*
X69207Y290934D01*
X69716Y289259D01*
X70541Y287714D01*
X71652Y286361D01*
X73006Y285250D01*
X74550Y284424D01*
X76093Y283956D01*
X76482Y283199D01*
X76553Y283001D01*
X66050Y272499D01*
X63287D01*
X62619Y273499D01*
X62994Y274405D01*
X63398Y276089D01*
X63534Y277815D01*
X63398Y279541D01*
X62994Y281225D01*
X62331Y282824D01*
X61427Y284301D01*
X60302Y285617D01*
X58986Y286742D01*
X57509Y287646D01*
X55910Y288309D01*
X54226Y288713D01*
X52500Y288849D01*
X50774Y288713D01*
X49090Y288309D01*
X47491Y287646D01*
X46014Y286742D01*
X44698Y285617D01*
X43573Y284301D01*
X42669Y282824D01*
X42006Y281225D01*
X41602Y279541D01*
X41466Y277815D01*
X41602Y276089D01*
X42006Y274405D01*
X42669Y272806D01*
X43573Y271329D01*
X44698Y270013D01*
X46014Y268888D01*
X47491Y267984D01*
X49090Y267321D01*
X49414Y267243D01*
X49496Y266195D01*
X49358Y266138D01*
X48511Y265489D01*
X47862Y264643D01*
X47454Y263657D01*
X47315Y262600D01*
X47454Y261543D01*
X47862Y260558D01*
X48511Y259712D01*
X49358Y259062D01*
X50343Y258654D01*
X51400Y258515D01*
X52457Y258654D01*
X53443Y259062D01*
X54289Y259712D01*
X54938Y260558D01*
X55015Y260578D01*
X55558Y260162D01*
X56543Y259754D01*
X57600Y259615D01*
X58657Y259754D01*
X59642Y260162D01*
X60488Y260811D01*
X60631Y260997D01*
X61436Y261476D01*
X61950Y261163D01*
X62342Y260862D01*
X63327Y260454D01*
X64385Y260315D01*
X65442Y260454D01*
X66427Y260862D01*
X67273Y261511D01*
X67592Y261926D01*
X68189Y262045D01*
X69016Y262598D01*
X102032Y295614D01*
X148079D01*
X148190Y295636D01*
X195480D01*
X196455Y295830D01*
X197282Y296383D01*
X201851Y300951D01*
X271324D01*
X271491Y300670D01*
X271638Y299951D01*
X270471Y298993D01*
X269360Y297640D01*
X268535Y296095D01*
X268026Y294420D01*
X267855Y292677D01*
X268026Y290934D01*
X268535Y289259D01*
X269360Y287714D01*
X270471Y286361D01*
X271825Y285250D01*
X273369Y284424D01*
X275045Y283916D01*
X276787Y283744D01*
X278530Y283916D01*
X280206Y284424D01*
X281750Y285250D01*
X283104Y286361D01*
X284215Y287714D01*
X285040Y289259D01*
X285548Y290934D01*
X285720Y292677D01*
X285548Y294420D01*
X285040Y296095D01*
X284215Y297640D01*
X283104Y298993D01*
X281937Y299951D01*
X282084Y300670D01*
X282251Y300951D01*
X302516D01*
X304608Y298858D01*
Y278049D01*
X304269Y277788D01*
X303620Y276942D01*
X303212Y275957D01*
X303073Y274900D01*
X303212Y273843D01*
X303620Y272857D01*
X304269Y272011D01*
X304608Y271751D01*
Y270248D01*
X302598D01*
Y262311D01*
X303446D01*
X303598Y261374D01*
X303598Y261311D01*
Y259156D01*
X307157D01*
Y258405D01*
X307908D01*
Y255437D01*
X310619D01*
X310776Y254922D01*
X311398Y253757D01*
X312236Y252736D01*
X313257Y251898D01*
X314422Y251276D01*
X315686Y250892D01*
X317000Y250763D01*
X318314Y250892D01*
X319578Y251276D01*
X320743Y251898D01*
X321764Y252736D01*
X322602Y253757D01*
X323224Y254922D01*
X323381Y255437D01*
X326093D01*
Y258405D01*
X326842D01*
Y259156D01*
X330402D01*
Y261311D01*
X330402Y261374D01*
X330554Y262311D01*
X331402D01*
Y268044D01*
X332134Y268533D01*
X332402Y268547D01*
X333400Y268415D01*
X334457Y268554D01*
X335442Y268962D01*
X336288Y269612D01*
X336938Y270458D01*
X337346Y271443D01*
X337485Y272500D01*
X337346Y273557D01*
X336938Y274542D01*
X336288Y275389D01*
X335949Y275649D01*
Y279328D01*
X335755Y280304D01*
X335202Y281131D01*
X307031Y309302D01*
X306204Y309855D01*
X305228Y310049D01*
X199138D01*
X198815Y309985D01*
X198209Y310434D01*
X197791Y311813D01*
X197112Y313084D01*
X196197Y314197D01*
X195084Y315112D01*
X193813Y315791D01*
X192434Y316209D01*
X191000Y316350D01*
X189566Y316209D01*
X188187Y315791D01*
X186916Y315112D01*
X185802Y314197D01*
X184888Y313084D01*
X184209Y311813D01*
X184129Y311549D01*
X183149D01*
X182765Y312549D01*
X183208Y313618D01*
X183377Y314906D01*
X183208Y316193D01*
X182711Y317393D01*
X181920Y318424D01*
X180889Y319215D01*
X179689Y319712D01*
X178402Y319881D01*
X177114Y319712D01*
X175914Y319215D01*
X174883Y318424D01*
X174092Y317393D01*
X173595Y316193D01*
X173426Y314906D01*
X173595Y313618D01*
X174038Y312549D01*
X173655Y311549D01*
X172674D01*
X172594Y311813D01*
X171915Y313084D01*
X171001Y314197D01*
X169887Y315112D01*
X168616Y315791D01*
X167237Y316209D01*
X165803Y316350D01*
X164369Y316209D01*
X162990Y315791D01*
X161720Y315112D01*
X160606Y314197D01*
X159692Y313084D01*
X159012Y311813D01*
X158932Y311549D01*
X157630D01*
X153315Y315864D01*
X153412Y316600D01*
X153261Y317749D01*
X152817Y318819D01*
X152112Y319738D01*
X151193Y320443D01*
X150123Y320887D01*
X148974Y321038D01*
D02*
G37*
G36*
X53250Y312790D02*
Y303565D01*
X62475D01*
X62355Y304775D01*
X61783Y306660D01*
X60855Y308398D01*
X59605Y309920D01*
X58083Y311170D01*
X56345Y312099D01*
X54460Y312670D01*
X53250Y312790D01*
D02*
G37*
G36*
X51750D02*
X50540Y312670D01*
X48655Y312099D01*
X46917Y311170D01*
X45395Y309920D01*
X44145Y308398D01*
X43216Y306660D01*
X42645Y304775D01*
X42526Y303565D01*
X51750D01*
Y312790D01*
D02*
G37*
G36*
X62475Y302065D02*
X53250D01*
Y292840D01*
X54460Y292960D01*
X56345Y293531D01*
X58083Y294460D01*
X59605Y295710D01*
X60855Y297232D01*
X61783Y298970D01*
X62355Y300855D01*
X62475Y302065D01*
D02*
G37*
G36*
X51750D02*
X42526D01*
X42645Y300855D01*
X43216Y298970D01*
X44145Y297232D01*
X45395Y295710D01*
X46917Y294460D01*
X48655Y293531D01*
X50540Y292960D01*
X51750Y292840D01*
Y302065D01*
D02*
G37*
G36*
X33250Y300290D02*
Y291065D01*
X42474D01*
X42355Y292275D01*
X41783Y294160D01*
X40855Y295898D01*
X39605Y297420D01*
X38083Y298670D01*
X36345Y299599D01*
X34460Y300170D01*
X33250Y300290D01*
D02*
G37*
G36*
X178402Y292322D02*
X177114Y292153D01*
X175914Y291655D01*
X174883Y290865D01*
X174092Y289834D01*
X173595Y288634D01*
X173426Y287347D01*
X173595Y286059D01*
X174092Y284859D01*
X174883Y283828D01*
X175914Y283037D01*
X177114Y282540D01*
X178402Y282371D01*
X179689Y282540D01*
X180889Y283037D01*
X181920Y283828D01*
X182711Y284859D01*
X183208Y286059D01*
X183377Y287347D01*
X183208Y288634D01*
X182711Y289834D01*
X181920Y290865D01*
X180889Y291655D01*
X179689Y292153D01*
X178402Y292322D01*
D02*
G37*
G36*
X109902Y292300D02*
X108614Y292130D01*
X107414Y291633D01*
X106383Y290843D01*
X105593Y289812D01*
X105096Y288612D01*
X104926Y287324D01*
X105096Y286037D01*
X105593Y284837D01*
X106383Y283806D01*
X107414Y283015D01*
X108614Y282518D01*
X109902Y282349D01*
X111189Y282518D01*
X112389Y283015D01*
X113420Y283806D01*
X114211Y284837D01*
X114708Y286037D01*
X114877Y287324D01*
X114708Y288612D01*
X114211Y289812D01*
X113420Y290843D01*
X112389Y291633D01*
X111189Y292130D01*
X109902Y292300D01*
D02*
G37*
G36*
X42474Y289565D02*
X33250D01*
Y280340D01*
X34460Y280460D01*
X36345Y281031D01*
X38083Y281960D01*
X39605Y283210D01*
X40855Y284732D01*
X41783Y286470D01*
X42355Y288355D01*
X42474Y289565D01*
D02*
G37*
G36*
X31750D02*
X22525D01*
X22645Y288355D01*
X23216Y286470D01*
X24145Y284732D01*
X25395Y283210D01*
X26917Y281960D01*
X28655Y281031D01*
X30540Y280460D01*
X31750Y280340D01*
Y289565D01*
D02*
G37*
G36*
X190569Y283776D02*
Y278254D01*
X196090D01*
X196043Y278742D01*
X195681Y279932D01*
X195095Y281029D01*
X194306Y281991D01*
X193344Y282780D01*
X192247Y283366D01*
X191057Y283728D01*
X190569Y283776D01*
D02*
G37*
G36*
X189069D02*
X188581Y283728D01*
X187391Y283366D01*
X186293Y282780D01*
X185332Y281991D01*
X184543Y281029D01*
X183956Y279932D01*
X183595Y278742D01*
X183547Y278254D01*
X189069D01*
Y283776D01*
D02*
G37*
G36*
X122069Y283753D02*
Y278232D01*
X127591D01*
X127542Y278720D01*
X127181Y279910D01*
X126595Y281007D01*
X125806Y281969D01*
X124844Y282758D01*
X123747Y283344D01*
X122557Y283705D01*
X122069Y283753D01*
D02*
G37*
G36*
X120569D02*
X120081Y283705D01*
X118891Y283344D01*
X117794Y282758D01*
X116832Y281969D01*
X116043Y281007D01*
X115456Y279910D01*
X115095Y278720D01*
X115047Y278232D01*
X120569D01*
Y283753D01*
D02*
G37*
G36*
X295750Y274978D02*
Y272750D01*
X297978D01*
X297972Y272796D01*
X297664Y273538D01*
X297175Y274175D01*
X296538Y274664D01*
X295796Y274972D01*
X295750Y274978D01*
D02*
G37*
G36*
X294250D02*
X294204Y274972D01*
X293462Y274664D01*
X292825Y274175D01*
X292336Y273538D01*
X292028Y272796D01*
X292022Y272750D01*
X294250D01*
Y274978D01*
D02*
G37*
G36*
X196090Y276754D02*
X190569D01*
Y271232D01*
X191057Y271280D01*
X192247Y271641D01*
X193344Y272228D01*
X194306Y273017D01*
X195095Y273979D01*
X195681Y275076D01*
X196043Y276266D01*
X196090Y276754D01*
D02*
G37*
G36*
X189069D02*
X183547D01*
X183595Y276266D01*
X183956Y275076D01*
X184543Y273979D01*
X185332Y273017D01*
X186293Y272228D01*
X187391Y271641D01*
X188581Y271280D01*
X189069Y271232D01*
Y276754D01*
D02*
G37*
G36*
X127591Y276732D02*
X122069D01*
Y271210D01*
X122557Y271258D01*
X123747Y271619D01*
X124844Y272206D01*
X125806Y272995D01*
X126595Y273956D01*
X127181Y275054D01*
X127542Y276244D01*
X127591Y276732D01*
D02*
G37*
G36*
X120569D02*
X115047D01*
X115095Y276244D01*
X115456Y275054D01*
X116043Y273956D01*
X116832Y272995D01*
X117794Y272206D01*
X118891Y271619D01*
X120081Y271258D01*
X120569Y271210D01*
Y276732D01*
D02*
G37*
G36*
X166984Y284854D02*
X165550Y284713D01*
X164171Y284295D01*
X162901Y283615D01*
X161787Y282701D01*
X160873Y281588D01*
X160193Y280317D01*
X159775Y278938D01*
X159634Y277504D01*
X159775Y276070D01*
X160193Y274691D01*
X160873Y273420D01*
X161787Y272306D01*
X162901Y271392D01*
X164171Y270713D01*
X165550Y270295D01*
X166984Y270154D01*
X168418Y270295D01*
X169797Y270713D01*
X171068Y271392D01*
X172182Y272306D01*
X173096Y273420D01*
X173775Y274691D01*
X174193Y276070D01*
X174335Y277504D01*
X174193Y278938D01*
X173775Y280317D01*
X173096Y281588D01*
X172182Y282701D01*
X171068Y283615D01*
X169797Y284295D01*
X168418Y284713D01*
X166984Y284854D01*
D02*
G37*
G36*
X297978Y271250D02*
X295750D01*
Y269022D01*
X295796Y269028D01*
X296538Y269336D01*
X297175Y269825D01*
X297664Y270462D01*
X297972Y271204D01*
X297978Y271250D01*
D02*
G37*
G36*
X294250D02*
X292022D01*
X292028Y271204D01*
X292336Y270462D01*
X292825Y269825D01*
X293462Y269336D01*
X294204Y269028D01*
X294250Y269022D01*
Y271250D01*
D02*
G37*
G36*
X187000Y267338D02*
X185707Y267168D01*
X184502Y266669D01*
X183468Y265875D01*
X182674Y264840D01*
X182541Y264520D01*
X181459D01*
X181326Y264840D01*
X180532Y265875D01*
X179498Y266669D01*
X178293Y267168D01*
X177000Y267338D01*
X175707Y267168D01*
X174502Y266669D01*
X173468Y265875D01*
X172674Y264840D01*
X172541Y264520D01*
X171459D01*
X171326Y264840D01*
X170532Y265875D01*
X169498Y266669D01*
X168293Y267168D01*
X167000Y267338D01*
X165707Y267168D01*
X164502Y266669D01*
X163468Y265875D01*
X162674Y264840D01*
X162175Y263635D01*
X162004Y262343D01*
X162175Y261050D01*
X162674Y259845D01*
X163468Y258810D01*
X164451Y258056D01*
Y236629D01*
X163468Y235875D01*
X162674Y234840D01*
X162175Y233635D01*
X162004Y232343D01*
X162175Y231050D01*
X162674Y229845D01*
X163468Y228810D01*
X164502Y228016D01*
X165707Y227517D01*
X167000Y227347D01*
X168293Y227517D01*
X169498Y228016D01*
X170532Y228810D01*
X171326Y229845D01*
X171459Y230165D01*
X172541D01*
X172674Y229845D01*
X173468Y228810D01*
X174502Y228016D01*
X175707Y227517D01*
X177000Y227347D01*
X178293Y227517D01*
X179498Y228016D01*
X180532Y228810D01*
X181326Y229845D01*
X181459Y230165D01*
X182541D01*
X182674Y229845D01*
X183468Y228810D01*
X184502Y228016D01*
X185707Y227517D01*
X187000Y227347D01*
X188293Y227517D01*
X189498Y228016D01*
X190532Y228810D01*
X191326Y229845D01*
X191459Y230165D01*
X192541D01*
X192674Y229845D01*
X193468Y228810D01*
X194502Y228016D01*
X195707Y227517D01*
X197000Y227347D01*
X198293Y227517D01*
X199498Y228016D01*
X200532Y228810D01*
X201326Y229845D01*
X201825Y231050D01*
X201967Y232124D01*
X202575Y232245D01*
X203402Y232798D01*
X204062Y233457D01*
X211543D01*
Y244543D01*
X201559D01*
Y249992D01*
X211543D01*
Y261079D01*
X204062D01*
X203345Y261795D01*
X202518Y262348D01*
X201953Y262460D01*
Y267295D01*
X192047D01*
Y265543D01*
X191047Y265204D01*
X190532Y265875D01*
X189498Y266669D01*
X188293Y267168D01*
X187000Y267338D01*
D02*
G37*
G36*
X157750Y266231D02*
Y263092D01*
X160888D01*
X160851Y263374D01*
X160453Y264336D01*
X159819Y265162D01*
X158993Y265795D01*
X158032Y266194D01*
X157750Y266231D01*
D02*
G37*
G36*
X99750D02*
Y263092D01*
X102888D01*
X102851Y263374D01*
X102453Y264336D01*
X101819Y265162D01*
X100993Y265795D01*
X100032Y266194D01*
X99750Y266231D01*
D02*
G37*
G36*
X156250D02*
X155968Y266194D01*
X155007Y265795D01*
X154181Y265162D01*
X153547Y264336D01*
X153149Y263374D01*
X153112Y263092D01*
X156250D01*
Y266231D01*
D02*
G37*
G36*
X98250D02*
X97968Y266194D01*
X97007Y265795D01*
X96181Y265162D01*
X95547Y264336D01*
X95149Y263374D01*
X95112Y263092D01*
X98250D01*
Y266231D01*
D02*
G37*
G36*
X160888Y261593D02*
X157750D01*
Y258454D01*
X158032Y258491D01*
X158993Y258890D01*
X159819Y259523D01*
X160453Y260349D01*
X160851Y261311D01*
X160888Y261593D01*
D02*
G37*
G36*
X102888D02*
X99750D01*
Y258454D01*
X100032Y258491D01*
X100993Y258890D01*
X101819Y259523D01*
X102453Y260349D01*
X102851Y261311D01*
X102888Y261593D01*
D02*
G37*
G36*
X98484Y284832D02*
X97050Y284691D01*
X95671Y284273D01*
X94401Y283594D01*
X93287Y282679D01*
X92373Y281565D01*
X91693Y280295D01*
X91275Y278916D01*
X91134Y277482D01*
X91275Y276048D01*
X91693Y274669D01*
X92373Y273398D01*
X93287Y272284D01*
X94401Y271370D01*
X95671Y270691D01*
X97050Y270273D01*
X98484Y270131D01*
X99918Y270273D01*
X101297Y270691D01*
X102568Y271370D01*
X103682Y272284D01*
X104008Y272682D01*
X105007Y272731D01*
X109450Y268287D01*
X109018Y267376D01*
X108987Y267336D01*
X107707Y267168D01*
X106502Y266669D01*
X105468Y265875D01*
X104674Y264840D01*
X104175Y263635D01*
X104005Y262343D01*
X104175Y261050D01*
X104674Y259845D01*
X105468Y258810D01*
X106451Y258056D01*
Y236629D01*
X105468Y235875D01*
X104674Y234840D01*
X104175Y233635D01*
X104005Y232343D01*
X104175Y231050D01*
X104674Y229845D01*
X105468Y228810D01*
X106502Y228016D01*
X107707Y227517D01*
X109000Y227347D01*
X110293Y227517D01*
X111498Y228016D01*
X112532Y228810D01*
X113326Y229845D01*
X113459Y230165D01*
X114541D01*
X114674Y229845D01*
X115468Y228810D01*
X116502Y228016D01*
X117707Y227517D01*
X119000Y227347D01*
X120293Y227517D01*
X121498Y228016D01*
X122532Y228810D01*
X123326Y229845D01*
X123459Y230165D01*
X124541D01*
X124674Y229845D01*
X125468Y228810D01*
X126502Y228016D01*
X127707Y227517D01*
X129000Y227347D01*
X130293Y227517D01*
X131498Y228016D01*
X132532Y228810D01*
X133326Y229845D01*
X133459Y230165D01*
X134541D01*
X134674Y229845D01*
X135468Y228810D01*
X136502Y228016D01*
X137707Y227517D01*
X139000Y227347D01*
X140293Y227517D01*
X141498Y228016D01*
X142532Y228810D01*
X143326Y229845D01*
X143825Y231050D01*
X143862Y231331D01*
X144084Y231479D01*
X146062Y233457D01*
X152151D01*
X152471Y233092D01*
X156250D01*
Y236231D01*
X155968Y236193D01*
X155007Y235795D01*
X154543Y235440D01*
X153543Y235905D01*
Y244543D01*
X143559D01*
Y249992D01*
X153543D01*
Y258780D01*
X154543Y259245D01*
X155007Y258890D01*
X155968Y258491D01*
X156250Y258454D01*
Y261593D01*
X152643D01*
X152216Y261079D01*
X146062D01*
X145345Y261795D01*
X144518Y262348D01*
X143953Y262460D01*
Y267295D01*
X134047D01*
Y265543D01*
X133047Y265204D01*
X132532Y265875D01*
X131498Y266669D01*
X130293Y267168D01*
X129000Y267338D01*
X127707Y267168D01*
X126502Y266669D01*
X125468Y265875D01*
X124674Y264840D01*
X124541Y264520D01*
X123459D01*
X123326Y264840D01*
X122532Y265875D01*
X121498Y266669D01*
X120293Y267168D01*
X119000Y267338D01*
X117771Y267176D01*
X107102Y277846D01*
X106275Y278398D01*
X105734Y278506D01*
X105693Y278916D01*
X105275Y280295D01*
X104596Y281565D01*
X103682Y282679D01*
X102568Y283594D01*
X101297Y284273D01*
X99918Y284691D01*
X98484Y284832D01*
D02*
G37*
G36*
X98250Y261593D02*
X95112D01*
X95149Y261311D01*
X95547Y260349D01*
X96181Y259523D01*
X97007Y258890D01*
X97968Y258491D01*
X98250Y258454D01*
Y261593D01*
D02*
G37*
G36*
X330402Y257656D02*
X327592D01*
Y255437D01*
X330402D01*
Y257656D01*
D02*
G37*
G36*
X306407D02*
X303598D01*
Y255437D01*
X306407D01*
Y257656D01*
D02*
G37*
G36*
X257976Y239350D02*
X255757D01*
Y236541D01*
X257976D01*
Y239350D01*
D02*
G37*
G36*
X99750Y236231D02*
Y233092D01*
X102888D01*
X102851Y233374D01*
X102453Y234336D01*
X101819Y235162D01*
X100993Y235795D01*
X100032Y236193D01*
X99750Y236231D01*
D02*
G37*
G36*
X157750D02*
Y233092D01*
X160888D01*
X160851Y233374D01*
X160453Y234336D01*
X159819Y235162D01*
X158993Y235795D01*
X158032Y236193D01*
X157750Y236231D01*
D02*
G37*
G36*
X98250D02*
X97968Y236193D01*
X97007Y235795D01*
X96181Y235162D01*
X95547Y234336D01*
X95149Y233374D01*
X95112Y233092D01*
X98250D01*
Y236231D01*
D02*
G37*
G36*
X38350Y234229D02*
Y232001D01*
X40578D01*
X40571Y232047D01*
X40264Y232789D01*
X39775Y233426D01*
X39138Y233915D01*
X38396Y234223D01*
X38350Y234229D01*
D02*
G37*
G36*
X36850D02*
X36804Y234223D01*
X36062Y233915D01*
X35425Y233426D01*
X34936Y232789D01*
X34628Y232047D01*
X34622Y232001D01*
X36850D01*
Y234229D01*
D02*
G37*
G36*
X160888Y231592D02*
X157750D01*
Y228454D01*
X158032Y228491D01*
X158993Y228890D01*
X159819Y229523D01*
X160453Y230349D01*
X160851Y231311D01*
X160888Y231592D01*
D02*
G37*
G36*
X102888D02*
X99750D01*
Y228454D01*
X100032Y228491D01*
X100993Y228890D01*
X101819Y229523D01*
X102453Y230349D01*
X102851Y231311D01*
X102888Y231592D01*
D02*
G37*
G36*
X156250D02*
X153112D01*
X153149Y231311D01*
X153547Y230349D01*
X154181Y229523D01*
X155007Y228890D01*
X155968Y228491D01*
X156250Y228454D01*
Y231592D01*
D02*
G37*
G36*
X98250D02*
X95112D01*
X95149Y231311D01*
X95547Y230349D01*
X96181Y229523D01*
X97007Y228890D01*
X97968Y228491D01*
X98250Y228454D01*
Y231592D01*
D02*
G37*
G36*
X40578Y230501D02*
X38350D01*
Y228273D01*
X38396Y228279D01*
X39138Y228587D01*
X39775Y229076D01*
X40264Y229713D01*
X40571Y230455D01*
X40578Y230501D01*
D02*
G37*
G36*
X36850D02*
X34622D01*
X34628Y230455D01*
X34936Y229713D01*
X35425Y229076D01*
X36062Y228587D01*
X36804Y228279D01*
X36850Y228273D01*
Y230501D01*
D02*
G37*
G36*
X116465Y215518D02*
Y213290D01*
X118693D01*
X118687Y213336D01*
X118379Y214078D01*
X117891Y214716D01*
X117253Y215204D01*
X116511Y215512D01*
X116465Y215518D01*
D02*
G37*
G36*
X114965D02*
X114919Y215512D01*
X114177Y215204D01*
X113540Y214716D01*
X113051Y214078D01*
X112744Y213336D01*
X112738Y213290D01*
X114965D01*
Y215518D01*
D02*
G37*
G36*
X237813Y212120D02*
X235201D01*
Y210590D01*
X237813D01*
Y212120D01*
D02*
G37*
G36*
X233701D02*
X231089D01*
Y210590D01*
X233701D01*
Y212120D01*
D02*
G37*
G36*
X118693Y211790D02*
X116465D01*
Y209563D01*
X116511Y209569D01*
X117253Y209876D01*
X117891Y210365D01*
X118379Y211002D01*
X118687Y211744D01*
X118693Y211790D01*
D02*
G37*
G36*
X114965D02*
X112738D01*
X112744Y211744D01*
X113051Y211002D01*
X113540Y210365D01*
X114177Y209876D01*
X114919Y209569D01*
X114965Y209563D01*
Y211790D01*
D02*
G37*
G36*
X237813Y209090D02*
X235201D01*
Y207561D01*
X237813D01*
Y209090D01*
D02*
G37*
G36*
X246300Y270485D02*
X245243Y270346D01*
X244257Y269938D01*
X243411Y269288D01*
X242762Y268443D01*
X242354Y267457D01*
X242215Y266400D01*
X242354Y265343D01*
X242762Y264357D01*
X243411Y263511D01*
X244257Y262862D01*
X245243Y262454D01*
X246300Y262315D01*
X247357Y262454D01*
X248342Y262862D01*
X249188Y263511D01*
X249449Y263851D01*
X254103D01*
X254757Y263122D01*
Y254004D01*
Y245504D01*
X258182D01*
X258392Y245189D01*
X258922Y244659D01*
X258508Y243659D01*
X255757D01*
Y240850D01*
X258726D01*
Y240100D01*
X259476D01*
Y236541D01*
X259646D01*
Y222456D01*
X258089Y220899D01*
X243930D01*
X242954Y220705D01*
X242127Y220152D01*
X239998Y218023D01*
X239445Y217196D01*
X239251Y216220D01*
Y213380D01*
X239445Y212404D01*
X239998Y211577D01*
X240751Y210824D01*
Y209380D01*
X240538D01*
Y202820D01*
X249262D01*
Y206026D01*
X250186Y206409D01*
X253244Y203351D01*
X254071Y202799D01*
X255047Y202605D01*
X269455D01*
X270123Y201605D01*
X269994Y201293D01*
X269823Y200000D01*
X269994Y198707D01*
X270493Y197502D01*
X271287Y196468D01*
X272321Y195674D01*
X272641Y195541D01*
Y194459D01*
X272321Y194326D01*
X271287Y193532D01*
X270493Y192498D01*
X269994Y191293D01*
X269823Y190000D01*
X269994Y188707D01*
X270337Y187879D01*
X266860Y184402D01*
X254403D01*
X241774Y197031D01*
X241783Y197100D01*
X241644Y198157D01*
X241235Y199143D01*
X240586Y199988D01*
X239740Y200638D01*
X238813Y201022D01*
Y205639D01*
X232466D01*
X231759Y206347D01*
X231759Y207561D01*
X232029Y207561D01*
X233701D01*
Y209090D01*
X231089D01*
Y208283D01*
X231089Y207705D01*
X230819Y207705D01*
X222641D01*
Y202818D01*
X84930D01*
X68545Y219202D01*
X67718Y219755D01*
X66743Y219949D01*
X43849D01*
X43589Y220288D01*
X42742Y220938D01*
X41757Y221346D01*
X40700Y221485D01*
X39643Y221346D01*
X38658Y220938D01*
X37811Y220288D01*
X37162Y219443D01*
X36754Y218457D01*
X36615Y217400D01*
X36754Y216343D01*
X37162Y215357D01*
X37811Y214511D01*
X38658Y213862D01*
X39643Y213454D01*
X40700Y213315D01*
X41757Y213454D01*
X42742Y213862D01*
X43589Y214511D01*
X43849Y214851D01*
X48397D01*
X48736Y213851D01*
X48687Y213813D01*
X47830Y212696D01*
X47291Y211396D01*
X47107Y210000D01*
X47291Y208604D01*
X47830Y207304D01*
X48687Y206187D01*
X49446Y205604D01*
X49517Y205419D01*
Y204581D01*
X49446Y204396D01*
X48687Y203813D01*
X47830Y202696D01*
X47291Y201396D01*
X47107Y200000D01*
X47291Y198604D01*
X47830Y197304D01*
X48687Y196187D01*
X49446Y195604D01*
X49517Y195419D01*
Y194581D01*
X49446Y194396D01*
X48687Y193813D01*
X47830Y192696D01*
X47291Y191396D01*
X47107Y190000D01*
X47291Y188604D01*
X47447Y188227D01*
X46892Y187395D01*
X42137D01*
X41989Y187589D01*
X41142Y188238D01*
X40157Y188646D01*
X39100Y188785D01*
X38043Y188646D01*
X37058Y188238D01*
X36211Y187589D01*
X35562Y186742D01*
X35154Y185757D01*
X35015Y184700D01*
X35154Y183643D01*
X35562Y182658D01*
X36211Y181811D01*
X37058Y181162D01*
X38043Y180754D01*
X39100Y180615D01*
X40157Y180754D01*
X41142Y181162D01*
X41989Y181811D01*
X42361Y182298D01*
X46765D01*
X47216Y181622D01*
X47278Y181298D01*
X47107Y180000D01*
X47291Y178604D01*
X47830Y177304D01*
X48687Y176187D01*
X49446Y175604D01*
X49517Y175419D01*
Y174581D01*
X49446Y174396D01*
X48687Y173813D01*
X47830Y172696D01*
X47291Y171396D01*
X47107Y170000D01*
X47291Y168604D01*
X47830Y167304D01*
X48687Y166187D01*
X49446Y165604D01*
X49517Y165419D01*
Y164581D01*
X49446Y164396D01*
X48687Y163813D01*
X47830Y162696D01*
X47291Y161396D01*
X47107Y160000D01*
X47291Y158604D01*
X47830Y157304D01*
X48687Y156187D01*
X49446Y155604D01*
X49517Y155419D01*
Y154581D01*
X49446Y154396D01*
X48687Y153813D01*
X47830Y152696D01*
X47291Y151396D01*
X47107Y150000D01*
X47291Y148604D01*
X47352Y148457D01*
X40848Y141952D01*
X40295Y141126D01*
X40101Y140150D01*
Y52996D01*
X40295Y52021D01*
X40848Y51194D01*
X48488Y43554D01*
X47830Y42696D01*
X47291Y41396D01*
X47107Y40000D01*
X47291Y38604D01*
X47830Y37304D01*
X48687Y36187D01*
X49446Y35604D01*
X49517Y35419D01*
Y34581D01*
X49446Y34396D01*
X48687Y33813D01*
X47830Y32696D01*
X47291Y31396D01*
X47107Y30000D01*
X47291Y28604D01*
X47830Y27304D01*
X48687Y26187D01*
X49804Y25330D01*
X51104Y24791D01*
X52500Y24607D01*
X53896Y24791D01*
X55196Y25330D01*
X56313Y26187D01*
X56896Y26946D01*
X57081Y27017D01*
X57919D01*
X58104Y26946D01*
X58687Y26187D01*
X59804Y25330D01*
X61104Y24791D01*
X62500Y24607D01*
X63896Y24791D01*
X65196Y25330D01*
X66313Y26187D01*
X67170Y27304D01*
X67709Y28604D01*
X67893Y30000D01*
X67709Y31396D01*
X67170Y32696D01*
X66313Y33813D01*
X65554Y34396D01*
X65483Y34581D01*
Y35419D01*
X65554Y35604D01*
X66313Y36187D01*
X67170Y37304D01*
X67709Y38604D01*
X67893Y40000D01*
X67709Y41396D01*
X67170Y42696D01*
X66512Y43554D01*
X69700Y46741D01*
X82006D01*
Y48923D01*
X88638D01*
Y55482D01*
X82006D01*
Y55859D01*
X67322D01*
X66829Y56859D01*
X67170Y57304D01*
X67709Y58604D01*
X67893Y60000D01*
X67709Y61396D01*
X67170Y62696D01*
X66313Y63813D01*
X65554Y64396D01*
X65483Y64581D01*
Y65419D01*
X65554Y65604D01*
X66313Y66187D01*
X67170Y67304D01*
X67709Y68604D01*
X67893Y70000D01*
X67827Y70494D01*
X68704Y71494D01*
X84742D01*
X85340Y70494D01*
X85149Y70032D01*
X85112Y69750D01*
X89000D01*
X92888D01*
X92856Y69997D01*
X92861Y70047D01*
X93447Y70902D01*
X93649Y70733D01*
X94134Y69980D01*
X94004Y69000D01*
X94175Y67707D01*
X94674Y66502D01*
X95205Y65810D01*
X92522Y63127D01*
X91970Y62300D01*
X91775Y61324D01*
Y59222D01*
X90362D01*
Y52663D01*
X99087D01*
Y59222D01*
X96873D01*
Y60269D01*
X98603Y61998D01*
X124547D01*
X125523Y62192D01*
X126350Y62745D01*
X127771Y64166D01*
X129000Y64004D01*
X130293Y64175D01*
X131498Y64674D01*
X132532Y65468D01*
X133287Y66451D01*
X137457D01*
Y63457D01*
X148543D01*
Y71494D01*
X159742D01*
X160340Y70494D01*
X160149Y70032D01*
X160112Y69750D01*
X164000D01*
X167888D01*
X167856Y69997D01*
X167861Y70047D01*
X168447Y70902D01*
X168649Y70733D01*
X169133Y69980D01*
X169004Y69000D01*
X169175Y67707D01*
X169674Y66502D01*
X170468Y65468D01*
X171502Y64674D01*
X172707Y64175D01*
X174000Y64004D01*
X175293Y64175D01*
X176498Y64674D01*
X177532Y65468D01*
X178326Y66502D01*
X178459Y66822D01*
X179541D01*
X179674Y66502D01*
X180468Y65468D01*
X181502Y64674D01*
X182707Y64175D01*
X184000Y64004D01*
X185293Y64175D01*
X186498Y64674D01*
X187532Y65468D01*
X188326Y66502D01*
X188459Y66822D01*
X189541D01*
X189674Y66502D01*
X190468Y65468D01*
X191502Y64674D01*
X192707Y64175D01*
X194000Y64004D01*
X195293Y64175D01*
X196498Y64674D01*
X197532Y65468D01*
X198326Y66502D01*
X198459Y66822D01*
X199541D01*
X199674Y66502D01*
X200468Y65468D01*
X200783Y65225D01*
Y56862D01*
X207343D01*
Y58675D01*
X212457D01*
Y55681D01*
X223543D01*
Y66768D01*
X212457D01*
Y63773D01*
X207343D01*
Y65322D01*
X207532Y65468D01*
X208326Y66502D01*
X208825Y67707D01*
X208996Y69000D01*
X208825Y70293D01*
X208326Y71498D01*
X207532Y72532D01*
X206498Y73326D01*
X205293Y73825D01*
X204000Y73996D01*
X203121Y74888D01*
X203046Y75457D01*
X202638Y76442D01*
X201989Y77289D01*
X201143Y77938D01*
X200157Y78346D01*
X199100Y78485D01*
X198043Y78346D01*
X197057Y77938D01*
X196212Y77289D01*
X195677Y76592D01*
X187583D01*
X187200Y77516D01*
X201667Y91983D01*
X211441D01*
Y91813D01*
X215000D01*
Y91063D01*
X215750D01*
Y88095D01*
X218559D01*
Y88095D01*
X219441Y87809D01*
Y87094D01*
X223490D01*
X223588Y86094D01*
X222859Y85949D01*
X222032Y85397D01*
X219938Y83303D01*
X212457D01*
Y72216D01*
X223543D01*
Y79698D01*
X224890Y81046D01*
X249650D01*
X269866Y60829D01*
Y55047D01*
X276901D01*
Y43050D01*
X277095Y42074D01*
X277648Y41248D01*
X287352Y31543D01*
X287291Y31396D01*
X287107Y30000D01*
X287291Y28604D01*
X287830Y27304D01*
X288687Y26187D01*
X289804Y25330D01*
X291104Y24791D01*
X292500Y24607D01*
X293896Y24791D01*
X295196Y25330D01*
X296313Y26187D01*
X296896Y26946D01*
X297081Y27017D01*
X297919D01*
X298104Y26946D01*
X298687Y26187D01*
X299804Y25330D01*
X301104Y24791D01*
X302500Y24607D01*
X303896Y24791D01*
X305196Y25330D01*
X306313Y26187D01*
X307170Y27304D01*
X307709Y28604D01*
X307893Y30000D01*
X307709Y31396D01*
X307170Y32696D01*
X306313Y33813D01*
X305554Y34396D01*
X305483Y34581D01*
Y35419D01*
X305554Y35604D01*
X306313Y36187D01*
X307170Y37304D01*
X307709Y38604D01*
X307893Y40000D01*
X307709Y41396D01*
X307170Y42696D01*
X306313Y43813D01*
X305554Y44396D01*
X305483Y44581D01*
Y45419D01*
X305554Y45604D01*
X306313Y46187D01*
X307170Y47304D01*
X307709Y48604D01*
X307893Y50000D01*
X307709Y51396D01*
X307170Y52696D01*
X306313Y53813D01*
X305554Y54396D01*
X305483Y54581D01*
Y55419D01*
X305554Y55604D01*
X306313Y56187D01*
X307170Y57304D01*
X307709Y58604D01*
X307893Y60000D01*
X307709Y61396D01*
X307170Y62696D01*
X306313Y63813D01*
X305554Y64396D01*
X305483Y64581D01*
Y65419D01*
X305554Y65604D01*
X306313Y66187D01*
X307170Y67304D01*
X307709Y68604D01*
X307893Y70000D01*
X307709Y71396D01*
X307170Y72696D01*
X306313Y73813D01*
X305554Y74396D01*
X305483Y74581D01*
Y75419D01*
X305554Y75604D01*
X306313Y76187D01*
X307170Y77304D01*
X307709Y78604D01*
X307893Y80000D01*
X307709Y81396D01*
X307170Y82696D01*
X306512Y83554D01*
X321952Y98994D01*
X322505Y99821D01*
X322699Y100796D01*
Y234150D01*
X322505Y235125D01*
X321952Y235952D01*
X311650Y246255D01*
X310823Y246808D01*
X309847Y247002D01*
X279951D01*
X279352Y248002D01*
X279644Y248707D01*
X279814Y250000D01*
X279644Y251293D01*
X279145Y252498D01*
X278351Y253532D01*
X277317Y254326D01*
X276112Y254825D01*
X274819Y254995D01*
X273526Y254825D01*
X272321Y254326D01*
X271568Y253749D01*
X270953Y253906D01*
X270725Y254043D01*
X270568Y254185D01*
Y263122D01*
X264280D01*
X263997Y263546D01*
X259340Y268202D01*
X258513Y268755D01*
X257538Y268949D01*
X249449D01*
X249188Y269288D01*
X248342Y269938D01*
X247357Y270346D01*
X246300Y270485D01*
D02*
G37*
G36*
X34387Y122977D02*
Y120750D01*
X36615D01*
X36608Y120796D01*
X36301Y121538D01*
X35812Y122175D01*
X35175Y122664D01*
X34433Y122971D01*
X34387Y122977D01*
D02*
G37*
G36*
X32887D02*
X32841Y122971D01*
X32099Y122664D01*
X31462Y122175D01*
X30973Y121538D01*
X30665Y120796D01*
X30659Y120750D01*
X32887D01*
Y122977D01*
D02*
G37*
G36*
X36615Y119250D02*
X34387D01*
Y117022D01*
X34433Y117028D01*
X35175Y117336D01*
X35812Y117825D01*
X36301Y118462D01*
X36608Y119204D01*
X36615Y119250D01*
D02*
G37*
G36*
X32887D02*
X30659D01*
X30665Y119204D01*
X30973Y118462D01*
X31462Y117825D01*
X32099Y117336D01*
X32841Y117028D01*
X32887Y117022D01*
Y119250D01*
D02*
G37*
G36*
X214250Y90313D02*
X211441D01*
Y88095D01*
X214250D01*
Y90313D01*
D02*
G37*
G36*
X315237Y76378D02*
Y74150D01*
X317464D01*
X317458Y74196D01*
X317151Y74938D01*
X316662Y75575D01*
X316025Y76064D01*
X315283Y76372D01*
X315237Y76378D01*
D02*
G37*
G36*
X313737D02*
X313690Y76372D01*
X312948Y76064D01*
X312311Y75575D01*
X311822Y74938D01*
X311515Y74196D01*
X311509Y74150D01*
X313737D01*
Y76378D01*
D02*
G37*
G36*
X317464Y72650D02*
X315237D01*
Y70422D01*
X315283Y70429D01*
X316025Y70736D01*
X316662Y71225D01*
X317151Y71862D01*
X317458Y72604D01*
X317464Y72650D01*
D02*
G37*
G36*
X313737D02*
X311509D01*
X311515Y72604D01*
X311822Y71862D01*
X312311Y71225D01*
X312948Y70736D01*
X313690Y70429D01*
X313737Y70422D01*
Y72650D01*
D02*
G37*
G36*
X250850Y67525D02*
Y65297D01*
X253078D01*
X253071Y65343D01*
X252764Y66085D01*
X252275Y66723D01*
X251638Y67211D01*
X250896Y67519D01*
X250850Y67525D01*
D02*
G37*
G36*
X249350D02*
X249304Y67519D01*
X248562Y67211D01*
X247925Y66723D01*
X247436Y66085D01*
X247129Y65343D01*
X247122Y65297D01*
X249350D01*
Y67525D01*
D02*
G37*
G36*
X167888Y68250D02*
X164750D01*
Y65112D01*
X165032Y65149D01*
X165993Y65547D01*
X166819Y66181D01*
X167453Y67007D01*
X167851Y67968D01*
X167888Y68250D01*
D02*
G37*
G36*
X92888D02*
X89750D01*
Y65112D01*
X90032Y65149D01*
X90993Y65547D01*
X91819Y66181D01*
X92453Y67007D01*
X92851Y67968D01*
X92888Y68250D01*
D02*
G37*
G36*
X163250D02*
X160112D01*
X160149Y67968D01*
X160547Y67007D01*
X161181Y66181D01*
X162007Y65547D01*
X162968Y65149D01*
X163250Y65112D01*
Y68250D01*
D02*
G37*
G36*
X88250D02*
X85112D01*
X85149Y67968D01*
X85547Y67007D01*
X86181Y66181D01*
X87007Y65547D01*
X87968Y65149D01*
X88250Y65112D01*
Y68250D01*
D02*
G37*
G36*
X253078Y63797D02*
X250850D01*
Y61570D01*
X250896Y61576D01*
X251638Y61883D01*
X252275Y62372D01*
X252764Y63009D01*
X253071Y63751D01*
X253078Y63797D01*
D02*
G37*
G36*
X249350D02*
X247122D01*
X247129Y63751D01*
X247436Y63009D01*
X247925Y62372D01*
X248562Y61883D01*
X249304Y61576D01*
X249350Y61570D01*
Y63797D01*
D02*
G37*
G36*
X35130Y62978D02*
Y60750D01*
X37357D01*
X37351Y60796D01*
X37044Y61538D01*
X36555Y62175D01*
X35918Y62664D01*
X35176Y62972D01*
X35130Y62978D01*
D02*
G37*
G36*
X33630D02*
X33584Y62972D01*
X32842Y62664D01*
X32204Y62175D01*
X31716Y61538D01*
X31408Y60796D01*
X31402Y60750D01*
X33630D01*
Y62978D01*
D02*
G37*
G36*
X87638Y61962D02*
X85026D01*
Y60433D01*
X87638D01*
Y61962D01*
D02*
G37*
G36*
X83526D02*
X80913D01*
Y60433D01*
X83526D01*
Y61962D01*
D02*
G37*
G36*
X87638Y58933D02*
X85026D01*
Y57403D01*
X87638D01*
Y58933D01*
D02*
G37*
G36*
X83526D02*
X80913D01*
Y57403D01*
X83526D01*
Y58933D01*
D02*
G37*
G36*
X37357Y59250D02*
X35130D01*
Y57022D01*
X35176Y57029D01*
X35918Y57336D01*
X36555Y57825D01*
X37044Y58462D01*
X37351Y59204D01*
X37357Y59250D01*
D02*
G37*
G36*
X33630D02*
X31402D01*
X31408Y59204D01*
X31716Y58462D01*
X32204Y57825D01*
X32842Y57336D01*
X33584Y57029D01*
X33630Y57022D01*
Y59250D01*
D02*
G37*
G36*
X202602Y54138D02*
X201073D01*
Y51526D01*
X202602D01*
Y54138D01*
D02*
G37*
G36*
X199573D02*
X198043D01*
Y51526D01*
X199573D01*
Y54138D01*
D02*
G37*
G36*
X187800Y57985D02*
X186743Y57846D01*
X185758Y57438D01*
X184912Y56788D01*
X184262Y55942D01*
X183854Y54957D01*
X183715Y53900D01*
X183854Y52843D01*
X184262Y51858D01*
X184912Y51012D01*
X185758Y50362D01*
X186743Y49954D01*
X187800Y49815D01*
X188857Y49954D01*
X188936Y49987D01*
X195961Y42962D01*
Y37448D01*
X211772D01*
Y46567D01*
X211083D01*
Y55138D01*
X204524D01*
Y46567D01*
X202972D01*
X202602Y47413D01*
X202602D01*
Y50026D01*
X200323D01*
X198043D01*
Y49395D01*
X197119Y49013D01*
X191832Y54300D01*
X191746Y54957D01*
X191338Y55942D01*
X190689Y56788D01*
X189842Y57438D01*
X188857Y57846D01*
X187800Y57985D01*
D02*
G37*
G36*
X276787Y26019D02*
X275045Y25848D01*
X273369Y25339D01*
X271825Y24514D01*
X270471Y23403D01*
X269360Y22049D01*
X268535Y20505D01*
X268026Y18829D01*
X267855Y17086D01*
X268026Y15344D01*
X268535Y13668D01*
X269360Y12124D01*
X270471Y10770D01*
X271825Y9659D01*
X273369Y8834D01*
X275045Y8325D01*
X276787Y8154D01*
X278530Y8325D01*
X280206Y8834D01*
X281750Y9659D01*
X283104Y10770D01*
X284215Y12124D01*
X285040Y13668D01*
X285548Y15344D01*
X285720Y17086D01*
X285548Y18829D01*
X285040Y20505D01*
X284215Y22049D01*
X283104Y23403D01*
X281750Y24514D01*
X280206Y25339D01*
X278530Y25848D01*
X276787Y26019D01*
D02*
G37*
G36*
X77969D02*
X76226Y25848D01*
X74550Y25339D01*
X73006Y24514D01*
X71652Y23403D01*
X70541Y22049D01*
X69716Y20505D01*
X69207Y18829D01*
X69036Y17086D01*
X69207Y15344D01*
X69716Y13668D01*
X70541Y12124D01*
X71652Y10770D01*
X73006Y9659D01*
X74550Y8834D01*
X76226Y8325D01*
X77969Y8154D01*
X79711Y8325D01*
X81387Y8834D01*
X82931Y9659D01*
X84285Y10770D01*
X85396Y12124D01*
X86221Y13668D01*
X86730Y15344D01*
X86901Y17086D01*
X86730Y18829D01*
X86221Y20505D01*
X85396Y22049D01*
X84285Y23403D01*
X82931Y24514D01*
X81387Y25339D01*
X79711Y25848D01*
X77969Y26019D01*
D02*
G37*
%LPD*%
G36*
X288556Y183198D02*
X288719Y182212D01*
X288703Y182192D01*
X288265Y181135D01*
X288215Y180750D01*
X292500D01*
Y179250D01*
X288215D01*
X288265Y178865D01*
X288460Y178395D01*
X287809Y177395D01*
X280183D01*
X279515Y178395D01*
X279644Y178707D01*
X279814Y180000D01*
X279644Y181293D01*
X279145Y182498D01*
X278351Y183532D01*
X277317Y184326D01*
X276997Y184459D01*
Y185541D01*
X277317Y185674D01*
X278351Y186468D01*
X279145Y187502D01*
X279644Y188707D01*
X279814Y190000D01*
X279735Y190605D01*
X280682Y191072D01*
X288556Y183198D01*
D02*
G37*
G36*
X82141Y171996D02*
Y167143D01*
X78277D01*
X77301Y166949D01*
X76474Y166397D01*
X68723Y158645D01*
X67776Y159113D01*
X67893Y160000D01*
X67709Y161396D01*
X67170Y162696D01*
X66313Y163813D01*
X65196Y164670D01*
X64400Y165000D01*
Y166082D01*
X64692Y166203D01*
X65600Y166900D01*
X66297Y167808D01*
X66735Y168865D01*
X66785Y169250D01*
X62500D01*
Y170750D01*
X66785D01*
X66735Y171135D01*
X66540Y171605D01*
X67191Y172605D01*
X81239D01*
X81368Y172630D01*
X82141Y171996D01*
D02*
G37*
G36*
X220869Y175577D02*
X220813Y175153D01*
X220921Y174334D01*
X220884Y174174D01*
X220591Y173706D01*
X220203Y173289D01*
X219904Y173250D01*
X219162Y172943D01*
X218525Y172454D01*
X218036Y171817D01*
X217728Y171075D01*
X217722Y171028D01*
X220700D01*
Y170278D01*
X221450D01*
Y167232D01*
X221809Y166944D01*
X222146Y166494D01*
X222015Y165500D01*
X222154Y164443D01*
X222562Y163458D01*
X223212Y162611D01*
X224058Y161962D01*
X223811Y160982D01*
X223454Y160120D01*
X223315Y159063D01*
X223454Y158006D01*
X223862Y157020D01*
X224512Y156175D01*
X225358Y155525D01*
X226343Y155117D01*
X227400Y154978D01*
X228457Y155117D01*
X229443Y155525D01*
X230289Y156175D01*
X230938Y157020D01*
X231346Y158006D01*
X231470Y158951D01*
X235124Y162605D01*
X269455D01*
X270123Y161604D01*
X269994Y161293D01*
X269823Y160000D01*
X269994Y158707D01*
X270493Y157502D01*
X271287Y156468D01*
X272321Y155674D01*
X272641Y155541D01*
Y154459D01*
X272321Y154326D01*
X271287Y153532D01*
X270493Y152498D01*
X269994Y151293D01*
X269823Y150000D01*
X269994Y148707D01*
X270493Y147502D01*
X271287Y146468D01*
X272321Y145674D01*
X272641Y145541D01*
Y144459D01*
X272321Y144326D01*
X271287Y143532D01*
X270493Y142498D01*
X269994Y141293D01*
X269823Y140000D01*
X269994Y138707D01*
X270123Y138396D01*
X269455Y137395D01*
X229994D01*
X229019Y137201D01*
X228192Y136649D01*
X228124Y136581D01*
X227700Y136637D01*
X226643Y136498D01*
X225658Y136090D01*
X224812Y135441D01*
X224162Y134595D01*
X223754Y133609D01*
X223615Y132552D01*
X223754Y131495D01*
X224162Y130510D01*
X224812Y129664D01*
X225658Y129015D01*
X226643Y128606D01*
X227700Y128467D01*
X228757Y128606D01*
X229743Y129015D01*
X230589Y129664D01*
X231238Y130510D01*
X231646Y131495D01*
X231751Y132298D01*
X269510D01*
X270065Y131466D01*
X269994Y131293D01*
X269823Y130000D01*
X269994Y128707D01*
X270493Y127502D01*
X271287Y126468D01*
X272321Y125674D01*
X272641Y125541D01*
Y124459D01*
X272321Y124326D01*
X271287Y123532D01*
X270493Y122498D01*
X269994Y121293D01*
X269823Y120000D01*
X269942Y119096D01*
X269280Y118096D01*
X231402D01*
X214646Y134852D01*
X213819Y135405D01*
X212844Y135599D01*
X206701D01*
X205726Y135405D01*
X204899Y134852D01*
X187745Y117699D01*
X187192Y116872D01*
X186998Y115896D01*
Y104132D01*
X185998Y103533D01*
X185293Y103825D01*
X184000Y103996D01*
X182707Y103825D01*
X181502Y103326D01*
X180468Y102532D01*
X179674Y101498D01*
X179541Y101178D01*
X178459D01*
X178326Y101498D01*
X177532Y102532D01*
X176498Y103326D01*
X175293Y103825D01*
X174000Y103996D01*
X172707Y103825D01*
X171502Y103326D01*
X170468Y102532D01*
X169674Y101498D01*
X169175Y100293D01*
X169004Y99000D01*
X169175Y97707D01*
X169674Y96502D01*
X170468Y95468D01*
X171502Y94674D01*
X172707Y94175D01*
X174000Y94004D01*
X175293Y94175D01*
X176498Y94674D01*
X177532Y95468D01*
X178326Y96502D01*
X178459Y96822D01*
X179541D01*
X179674Y96502D01*
X180468Y95468D01*
X181502Y94674D01*
X182707Y94175D01*
X184000Y94004D01*
X185293Y94175D01*
X185998Y94467D01*
X186998Y93868D01*
Y90180D01*
X179410Y82592D01*
X148543D01*
Y91079D01*
X141200D01*
X133953Y98326D01*
Y103953D01*
X128326D01*
X126187Y106092D01*
X125560Y106573D01*
X124830Y106876D01*
X124047Y106979D01*
X107541D01*
X107538Y106987D01*
X106888Y107833D01*
X106043Y108483D01*
X105057Y108891D01*
X104000Y109030D01*
X102943Y108891D01*
X101957Y108483D01*
X101111Y107833D01*
X100462Y106987D01*
X100054Y106002D01*
X99915Y104945D01*
X99923Y104883D01*
X99032Y103991D01*
X99000Y103996D01*
X97707Y103825D01*
X96502Y103326D01*
X95468Y102532D01*
X94674Y101498D01*
X94175Y100293D01*
X94004Y99000D01*
X94175Y97707D01*
X94674Y96502D01*
X95468Y95468D01*
X96502Y94674D01*
X97707Y94175D01*
X99000Y94004D01*
X100293Y94175D01*
X101498Y94674D01*
X102532Y95468D01*
X103326Y96502D01*
X103459Y96822D01*
X104541D01*
X104674Y96502D01*
X105468Y95468D01*
X106502Y94674D01*
X107707Y94175D01*
X109000Y94004D01*
X110293Y94175D01*
X111498Y94674D01*
X112532Y95468D01*
X113326Y96502D01*
X113459Y96822D01*
X114541D01*
X114674Y96502D01*
X115468Y95468D01*
X116502Y94674D01*
X117707Y94175D01*
X119000Y94004D01*
X120293Y94175D01*
X121498Y94674D01*
X122532Y95468D01*
X123047Y96139D01*
X124047Y95799D01*
Y94047D01*
X129674D01*
X137457Y86264D01*
Y82592D01*
X80366D01*
X66512Y96446D01*
X67170Y97304D01*
X67709Y98604D01*
X67893Y100000D01*
X67709Y101396D01*
X67648Y101543D01*
X72402Y106298D01*
X72707Y106753D01*
X76852Y110899D01*
X77405Y111726D01*
X77599Y112701D01*
Y151241D01*
X82403Y156045D01*
X96309D01*
X97284Y156239D01*
X98111Y156792D01*
X102252Y160933D01*
X102805Y161760D01*
X102999Y162736D01*
Y168183D01*
X104276Y169459D01*
X104700Y169403D01*
X105757Y169543D01*
X106743Y169951D01*
X107589Y170600D01*
X108238Y171446D01*
X108646Y172431D01*
X108778Y173436D01*
X109000Y174415D01*
X110057Y174554D01*
X111042Y174962D01*
X111889Y175611D01*
X112538Y176458D01*
X112946Y177443D01*
X113085Y178500D01*
X113056Y178719D01*
X113919Y179719D01*
X190260D01*
X223778Y146201D01*
X223722Y145776D01*
X223862Y144719D01*
X224270Y143734D01*
X224919Y142888D01*
X225765Y142239D01*
X226750Y141831D01*
X227807Y141692D01*
X228865Y141831D01*
X229850Y142239D01*
X230696Y142888D01*
X231345Y143734D01*
X231753Y144719D01*
X231892Y145776D01*
X231753Y146834D01*
X231345Y147819D01*
X230696Y148665D01*
X229850Y149314D01*
X228865Y149722D01*
X227807Y149861D01*
X227383Y149806D01*
X215253Y161935D01*
X215481Y163122D01*
X215988Y163512D01*
X216638Y164357D01*
X217046Y165343D01*
X217185Y166400D01*
X217046Y167457D01*
X216638Y168442D01*
X215988Y169289D01*
X215142Y169938D01*
X214157Y170346D01*
X213100Y170485D01*
X212676Y170429D01*
X200309Y182796D01*
X200692Y183720D01*
X212726D01*
X220869Y175577D01*
D02*
G37*
G36*
X311463Y131683D02*
X311542Y131298D01*
X310962Y130543D01*
X310554Y129557D01*
X310415Y128500D01*
X310554Y127443D01*
X310962Y126458D01*
X311612Y125611D01*
X311951Y125351D01*
Y123056D01*
X307741Y118845D01*
X306920Y119250D01*
X302500D01*
X298215D01*
X298265Y118865D01*
X298703Y117808D01*
X299400Y116900D01*
X300308Y116203D01*
X300600Y116082D01*
Y115000D01*
X299804Y114670D01*
X298687Y113813D01*
X297830Y112696D01*
X297500Y111900D01*
X296418D01*
X296297Y112192D01*
X295600Y113100D01*
X294692Y113797D01*
X293635Y114235D01*
X293250Y114285D01*
Y110000D01*
X292500D01*
Y109250D01*
X288215D01*
X288264Y108876D01*
X288234Y108817D01*
X287712Y108017D01*
X286772Y107949D01*
X278345Y116376D01*
X278351Y116468D01*
X279145Y117502D01*
X279644Y118707D01*
X279814Y120000D01*
X279644Y121293D01*
X279145Y122498D01*
X278351Y123532D01*
X277317Y124326D01*
X276997Y124459D01*
Y125541D01*
X277317Y125674D01*
X278351Y126468D01*
X279145Y127502D01*
X279644Y128707D01*
X279814Y130000D01*
X279644Y131293D01*
X279573Y131466D01*
X280128Y132298D01*
X286765D01*
X287216Y131622D01*
X287278Y131298D01*
X287107Y130000D01*
X287291Y128604D01*
X287830Y127304D01*
X288687Y126187D01*
X289804Y125330D01*
X290600Y125000D01*
Y123918D01*
X290308Y123797D01*
X289400Y123100D01*
X288703Y122192D01*
X288265Y121135D01*
X288215Y120750D01*
X292500D01*
X296785D01*
X296735Y121135D01*
X296297Y122192D01*
X295600Y123100D01*
X294692Y123797D01*
X294400Y123918D01*
Y125000D01*
X295196Y125330D01*
X296313Y126187D01*
X296896Y126946D01*
X297081Y127017D01*
X297919D01*
X298104Y126946D01*
X298687Y126187D01*
X299804Y125330D01*
X300600Y125000D01*
Y123918D01*
X300308Y123797D01*
X299400Y123100D01*
X298703Y122192D01*
X298265Y121135D01*
X298215Y120750D01*
X302500D01*
X306785D01*
X306735Y121135D01*
X306297Y122192D01*
X305600Y123100D01*
X304692Y123797D01*
X304400Y123918D01*
Y125000D01*
X305196Y125330D01*
X306313Y126187D01*
X307170Y127304D01*
X307709Y128604D01*
X307893Y130000D01*
X307722Y131298D01*
X307784Y131622D01*
X308235Y132298D01*
X311153D01*
X311463Y131683D01*
D02*
G37*
G36*
X47155Y139636D02*
X47291Y138604D01*
X47830Y137304D01*
X48687Y136187D01*
X49446Y135604D01*
X49517Y135419D01*
Y134581D01*
X49446Y134396D01*
X48687Y133813D01*
X47830Y132696D01*
X47291Y131396D01*
X47107Y130000D01*
X47291Y128604D01*
X47830Y127304D01*
X48687Y126187D01*
X49804Y125330D01*
X50600Y125000D01*
Y123918D01*
X50308Y123797D01*
X49400Y123100D01*
X48703Y122192D01*
X48265Y121135D01*
X48215Y120750D01*
X52500D01*
Y119250D01*
X48215D01*
X48265Y118865D01*
X48703Y117808D01*
X49400Y116900D01*
X50308Y116203D01*
X50600Y116082D01*
Y115000D01*
X49804Y114670D01*
X48687Y113813D01*
X47830Y112696D01*
X47291Y111396D01*
X47107Y110000D01*
X47291Y108604D01*
X47830Y107304D01*
X48687Y106187D01*
X49446Y105604D01*
X49517Y105419D01*
Y104581D01*
X49446Y104396D01*
X48687Y103813D01*
X47830Y102696D01*
X47291Y101396D01*
X47107Y100000D01*
X47112Y99965D01*
X46473Y99326D01*
X46193Y99284D01*
X45951Y99252D01*
X45199Y99911D01*
Y139094D01*
X46168Y140063D01*
X47155Y139636D01*
D02*
G37*
%LPC*%
G36*
X181950Y171778D02*
Y169550D01*
X184178D01*
X184171Y169596D01*
X183864Y170338D01*
X183375Y170975D01*
X182738Y171464D01*
X181996Y171772D01*
X181950Y171778D01*
D02*
G37*
G36*
X180450D02*
X180404Y171772D01*
X179662Y171464D01*
X179025Y170975D01*
X178536Y170338D01*
X178228Y169596D01*
X178222Y169550D01*
X180450D01*
Y171778D01*
D02*
G37*
G36*
X219950Y169528D02*
X217722D01*
X217728Y169482D01*
X218036Y168740D01*
X218525Y168103D01*
X219162Y167614D01*
X219904Y167307D01*
X219950Y167301D01*
Y169528D01*
D02*
G37*
G36*
X184178Y168050D02*
X181950D01*
Y165822D01*
X181996Y165829D01*
X182738Y166136D01*
X183375Y166625D01*
X183864Y167262D01*
X184171Y168004D01*
X184178Y168050D01*
D02*
G37*
G36*
X180450D02*
X178222D01*
X178228Y168004D01*
X178536Y167262D01*
X179025Y166625D01*
X179662Y166136D01*
X180404Y165829D01*
X180450Y165822D01*
Y168050D01*
D02*
G37*
G36*
X151350Y161059D02*
X149132D01*
Y158250D01*
X151350D01*
Y161059D01*
D02*
G37*
G36*
X263000Y160481D02*
Y157800D01*
X265682D01*
X265660Y157964D01*
X265307Y158815D01*
X264746Y159546D01*
X264015Y160107D01*
X263164Y160460D01*
X263000Y160481D01*
D02*
G37*
G36*
X261500D02*
X261336Y160460D01*
X260485Y160107D01*
X259754Y159546D01*
X259193Y158815D01*
X258840Y157964D01*
X258819Y157800D01*
X261500D01*
Y160481D01*
D02*
G37*
G36*
X144750Y159878D02*
Y157650D01*
X146978D01*
X146971Y157696D01*
X146664Y158438D01*
X146175Y159075D01*
X145538Y159564D01*
X144796Y159871D01*
X144750Y159878D01*
D02*
G37*
G36*
X143250D02*
X143204Y159871D01*
X142462Y159564D01*
X141825Y159075D01*
X141336Y158438D01*
X141028Y157696D01*
X141022Y157650D01*
X143250D01*
Y159878D01*
D02*
G37*
G36*
X151350Y156750D02*
X149132D01*
Y153941D01*
X151350D01*
Y156750D01*
D02*
G37*
G36*
X146978Y156150D02*
X144750D01*
Y153922D01*
X144796Y153928D01*
X145538Y154236D01*
X146175Y154725D01*
X146664Y155362D01*
X146971Y156104D01*
X146978Y156150D01*
D02*
G37*
G36*
X143250D02*
X141022D01*
X141028Y156104D01*
X141336Y155362D01*
X141825Y154725D01*
X142462Y154236D01*
X143204Y153928D01*
X143250Y153922D01*
Y156150D01*
D02*
G37*
G36*
X265682Y156300D02*
X263000D01*
Y153618D01*
X263164Y153640D01*
X264015Y153993D01*
X264746Y154554D01*
X265307Y155285D01*
X265660Y156136D01*
X265682Y156300D01*
D02*
G37*
G36*
X261500D02*
X258819D01*
X258840Y156136D01*
X259193Y155285D01*
X259754Y154554D01*
X260485Y153993D01*
X261336Y153640D01*
X261500Y153618D01*
Y156300D01*
D02*
G37*
G36*
X163943Y162059D02*
X156006D01*
Y161211D01*
X155069Y161059D01*
X155006Y161059D01*
X152850D01*
Y157500D01*
Y153941D01*
X155006D01*
X155069Y153941D01*
X156006Y153789D01*
Y152941D01*
X163943D01*
Y153811D01*
X164943Y154304D01*
X165258Y154062D01*
X166243Y153654D01*
X167300Y153515D01*
X168357Y153654D01*
X169343Y154062D01*
X170188Y154711D01*
X170838Y155558D01*
X171246Y156543D01*
X171385Y157600D01*
X171246Y158657D01*
X170838Y159643D01*
X170188Y160488D01*
X169343Y161138D01*
X168357Y161546D01*
X167300Y161685D01*
X166243Y161546D01*
X165258Y161138D01*
X164943Y160896D01*
X163943Y161389D01*
Y162059D01*
D02*
G37*
G36*
X164750Y102888D02*
Y99750D01*
X167888D01*
X167851Y100032D01*
X167453Y100993D01*
X166819Y101819D01*
X165993Y102453D01*
X165032Y102851D01*
X164750Y102888D01*
D02*
G37*
G36*
X89750D02*
Y99750D01*
X92888D01*
X92851Y100032D01*
X92453Y100993D01*
X91819Y101819D01*
X90993Y102453D01*
X90032Y102851D01*
X89750Y102888D01*
D02*
G37*
G36*
X163250D02*
X162968Y102851D01*
X162007Y102453D01*
X161181Y101819D01*
X160547Y100993D01*
X160149Y100032D01*
X160112Y99750D01*
X163250D01*
Y102888D01*
D02*
G37*
G36*
X88250D02*
X87968Y102851D01*
X87007Y102453D01*
X86181Y101819D01*
X85547Y100993D01*
X85149Y100032D01*
X85112Y99750D01*
X88250D01*
Y102888D01*
D02*
G37*
G36*
X167888Y98250D02*
X164750D01*
Y95112D01*
X165032Y95149D01*
X165993Y95547D01*
X166819Y96181D01*
X167453Y97007D01*
X167851Y97968D01*
X167888Y98250D01*
D02*
G37*
G36*
X92888D02*
X89750D01*
Y95112D01*
X90032Y95149D01*
X90993Y95547D01*
X91819Y96181D01*
X92453Y97007D01*
X92851Y97968D01*
X92888Y98250D01*
D02*
G37*
G36*
X163250D02*
X160112D01*
X160149Y97968D01*
X160547Y97007D01*
X161181Y96181D01*
X162007Y95547D01*
X162968Y95149D01*
X163250Y95112D01*
Y98250D01*
D02*
G37*
G36*
X88250D02*
X85112D01*
X85149Y97968D01*
X85547Y97007D01*
X86181Y96181D01*
X87007Y95547D01*
X87968Y95149D01*
X88250Y95112D01*
Y98250D01*
D02*
G37*
G36*
X296785Y119250D02*
X293250D01*
Y115715D01*
X293635Y115765D01*
X294692Y116203D01*
X295600Y116900D01*
X296297Y117808D01*
X296735Y118865D01*
X296785Y119250D01*
D02*
G37*
G36*
X291750D02*
X288215D01*
X288265Y118865D01*
X288703Y117808D01*
X289400Y116900D01*
X290308Y116203D01*
X291365Y115765D01*
X291750Y115715D01*
Y119250D01*
D02*
G37*
G36*
Y114285D02*
X291365Y114235D01*
X290308Y113797D01*
X289400Y113100D01*
X288703Y112192D01*
X288265Y111135D01*
X288215Y110750D01*
X291750D01*
Y114285D01*
D02*
G37*
%LPD*%
D10*
X64508Y45153D02*
X70459Y51104D01*
X42650Y52996D02*
Y140150D01*
Y52996D02*
X50493Y45153D01*
X42650Y140150D02*
X52500Y150000D01*
X50493Y45153D02*
X64508D01*
X70226Y51612D02*
Y52202D01*
X46200Y56300D02*
Y95200D01*
Y56300D02*
X52500Y50000D01*
X46200Y95200D02*
X47100D01*
X57346Y74847D02*
X64508D01*
X65311Y74043D01*
X198743D01*
X52500Y70000D02*
X57346Y74847D01*
X81209Y196268D02*
X220116D01*
X227628Y188756D01*
X231802D01*
X73311Y76043D02*
X182123D01*
X57346Y84847D02*
X64508D01*
X52500Y80000D02*
X57346Y84847D01*
X64508D02*
X73311Y76043D01*
X225600Y195863D02*
Y196872D01*
X224204Y198268D02*
X225600Y196872D01*
X83046Y198268D02*
X224204D01*
X238100Y197100D02*
X253347Y181853D01*
X237698Y197100D02*
X238100D01*
X94300Y179172D02*
X97397Y182269D01*
X94300Y173937D02*
Y179172D01*
X97397Y182269D02*
X191315D01*
X236000Y184500D02*
Y193712D01*
X229443Y200269D02*
X236000Y193712D01*
X83874Y200269D02*
X229443D01*
X253347Y181853D02*
X267916D01*
X86377Y190269D02*
X217631D01*
X82235Y186126D02*
X86377Y190269D01*
X74000Y186126D02*
X82235D01*
X74649Y200000D02*
X80380Y194269D01*
X62500Y200000D02*
X74649D01*
X67477Y210000D02*
X81209Y196268D01*
X62500Y210000D02*
X67477D01*
X66468Y214846D02*
X83046Y198268D01*
X57346Y214846D02*
X66468D01*
X87205Y188268D02*
X216802D01*
X78917Y192269D02*
X218459D01*
X243300Y206100D02*
Y211880D01*
X241800Y213380D02*
X243300Y211880D01*
X241800Y213380D02*
Y216220D01*
X243930Y218350D01*
X226977Y202360D02*
X232851D01*
X225600Y203737D02*
X226977Y202360D01*
X219288Y194269D02*
X235703Y177853D01*
X80380Y194269D02*
X219288D01*
X213782Y186268D02*
X224898Y175153D01*
X92354Y186268D02*
X213782D01*
X216802Y188268D02*
X230431Y174640D01*
X218459Y192269D02*
X236424Y174303D01*
X66743Y217400D02*
X83874Y200269D01*
X40700Y217400D02*
X66743D01*
X52500Y210000D02*
X57346Y214846D01*
X93183Y184268D02*
X195231D01*
X77180Y190532D02*
X78917Y192269D01*
X78937Y180000D02*
X87205Y188268D01*
X81239Y175154D02*
X92354Y186268D01*
X86700Y177786D02*
X93183Y184268D01*
X191315Y182269D02*
X227807Y145776D01*
X195231Y184268D02*
X213100Y166400D01*
X231166Y111900D02*
X246900D01*
X212016Y131050D02*
X231166Y111900D01*
X294236Y219236D02*
X294798Y218608D01*
X293709Y218163D02*
X294890D01*
X286250Y211250D02*
X294236Y219236D01*
X294798Y218608D02*
X302500Y210000D01*
X279866Y211250D02*
X286250D01*
X275569Y215547D02*
X279866Y211250D01*
X314500Y122000D02*
Y128500D01*
X313174Y134846D02*
X318050Y129971D01*
Y108696D02*
Y129971D01*
X320150Y100796D02*
Y234150D01*
X307954Y105154D02*
X308000Y105200D01*
X304507Y95153D02*
X318050Y108696D01*
X304507Y85154D02*
X320150Y100796D01*
X197000Y254600D02*
Y262343D01*
X177000Y232343D02*
Y239712D01*
X183820Y246532D01*
X196806D01*
X197000Y246726D01*
X160274Y157600D02*
X167300D01*
X160074Y157400D02*
X160274Y157600D01*
X97303Y308978D02*
X133478D01*
X125951Y246663D02*
X139000D01*
X119000Y239712D02*
X125951Y246663D01*
X139000Y254537D02*
Y262343D01*
X142281Y233281D02*
X148000Y239000D01*
X139939Y233281D02*
X142281D01*
X201600Y234600D02*
X206000Y239000D01*
X200585Y234600D02*
X201600D01*
X198327Y232343D02*
X200585Y234600D01*
X197000Y232343D02*
X198327D01*
X159974Y157500D02*
X160074Y157400D01*
X100450Y169238D02*
X104700Y173488D01*
X100450Y162736D02*
Y169238D01*
X96309Y158595D02*
X100450Y162736D01*
X81348Y158595D02*
X96309D01*
X103630Y178550D02*
X108950D01*
X98450Y173371D02*
X103630Y178550D01*
X98450Y163564D02*
Y173371D01*
X108950Y178550D02*
X109000Y178500D01*
X95480Y160594D02*
X98450Y163564D01*
X119000Y232343D02*
Y239712D01*
X129000Y232343D02*
Y243063D01*
X99923Y276043D02*
X105299D01*
X98484Y277482D02*
X99923Y276043D01*
X105299D02*
X119000Y262343D01*
X129000Y250937D02*
Y262343D01*
X141350Y259993D02*
X143543D01*
X139000Y262343D02*
X141350Y259993D01*
X143543D02*
X148000Y255535D01*
X139000Y232343D02*
X139939Y233281D01*
X145657Y239000D02*
X148000D01*
X186937Y250937D02*
X187000Y251000D01*
X187000Y250937D02*
X188642D01*
X186937D02*
X187000D01*
X187000Y251000D02*
Y262343D01*
Y232343D02*
Y243063D01*
X187000Y243063D01*
X199350Y259993D02*
X201542D01*
X197000Y262343D02*
X199350Y259993D01*
X201542D02*
X206000Y255535D01*
X204063Y61224D02*
X218000D01*
X204000Y65063D02*
Y69000D01*
Y65063D02*
X204063Y65000D01*
Y61224D02*
Y65000D01*
X129000Y69000D02*
X143000D01*
X124547Y64547D02*
X129000Y69000D01*
X167000Y232343D02*
Y262343D01*
X109000Y232343D02*
Y262343D01*
X229994Y134846D02*
X313174D01*
X227700Y132552D02*
X229994Y134846D01*
X251000Y99937D02*
X268459D01*
X250706Y83595D02*
X274819Y59481D01*
X230351Y165500D02*
X233981Y169130D01*
X226100Y165500D02*
X230351D01*
X233981Y169130D02*
Y173918D01*
X217631Y190269D02*
X233981Y173918D01*
X230431Y170600D02*
Y174640D01*
X227977Y159063D02*
X234068Y165154D01*
X227400Y159063D02*
X227977D01*
X234068Y165154D02*
X309956D01*
X39246Y184846D02*
X54507D01*
X39100Y184700D02*
X39246Y184846D01*
X156574Y309000D02*
X165803D01*
X148974Y316600D02*
X156574Y309000D01*
X148937Y316637D02*
Y318000D01*
Y316637D02*
X148974Y316600D01*
X133478Y308978D02*
X141100Y316600D01*
X262194Y247820D02*
Y261743D01*
X257538Y266400D02*
X262194Y261743D01*
X246300Y266400D02*
X257538D01*
X78200Y52202D02*
X83876D01*
X97547Y64547D02*
X124547D01*
X94324Y61324D02*
X97547Y64547D01*
X94324Y55942D02*
Y61324D01*
X245400Y214800D02*
X255047Y205153D01*
X297346D01*
X262194Y221400D02*
Y244991D01*
X243930Y218350D02*
X259144D01*
X262194Y221400D01*
X260194Y246991D02*
X262194Y244991D01*
X258726Y250063D02*
X260194Y248594D01*
Y246991D02*
Y248594D01*
X258726Y250063D02*
Y258563D01*
X265561Y244453D02*
X309847D01*
X262194Y247820D02*
X265561Y244453D01*
X266600Y250063D02*
Y258563D01*
X266663Y250000D02*
X274819D01*
X309847Y244453D02*
X320150Y234150D01*
X266600Y250063D02*
X266663Y250000D01*
X57653Y97992D02*
X60800Y94846D01*
X57653Y97992D02*
Y125154D01*
X75050Y152297D02*
X81348Y158595D01*
X75050Y112701D02*
Y152297D01*
X70600Y108251D02*
X75050Y112701D01*
X70600Y108100D02*
Y108251D01*
X62500Y100000D02*
X70600Y108100D01*
X67347Y124846D02*
Y153664D01*
X69500Y115000D02*
Y152404D01*
X73050Y113530D02*
Y153125D01*
X67347Y153664D02*
X78277Y164594D01*
X69500Y152404D02*
X79691Y162594D01*
X73050Y153125D02*
X80519Y160594D01*
X62500Y120000D02*
X67347Y124846D01*
X80519Y160594D02*
X95480D01*
X69520Y110000D02*
X73050Y113530D01*
X62500Y110000D02*
X69520D01*
X79691Y162594D02*
X90241D01*
X57653Y125154D02*
X62500Y130000D01*
X86032Y164594D02*
X87500Y166063D01*
X78277Y164594D02*
X86032D01*
X303572Y303500D02*
X307157Y299914D01*
Y274900D02*
Y299914D01*
Y266280D02*
Y274900D01*
X51400Y262600D02*
X56115Y267315D01*
X64385Y264400D02*
X67213D01*
X61413Y267950D02*
X67935D01*
X67106Y269950D02*
X99319Y302163D01*
X60585Y269950D02*
X67106D01*
X57600Y263700D02*
Y264137D01*
X57950Y267315D02*
X60585Y269950D01*
X56115Y267315D02*
X57950D01*
X74457Y78043D02*
X181294D01*
X189547Y115896D02*
X206701Y133050D01*
X198453Y121973D02*
X207530Y131050D01*
X198453Y95202D02*
Y121973D01*
X181294Y78043D02*
X198453Y95202D01*
X189547Y89125D02*
Y115896D01*
X200611Y94532D02*
X244243D01*
X182123Y76043D02*
X200611Y94532D01*
X180466Y80043D02*
X189547Y89125D01*
X90241Y162594D02*
X93709Y166063D01*
X86700Y173937D02*
Y177786D01*
X93709Y166063D02*
X94300D01*
X230347Y115547D02*
X275569D01*
X212844Y133050D02*
X230347Y115547D01*
X206701Y133050D02*
X212844D01*
X207530Y131050D02*
X212016D01*
X224000Y99937D02*
Y110580D01*
X219280Y115300D02*
X224000Y110580D01*
X207952Y115300D02*
X219280D01*
X233000Y99937D02*
Y104409D01*
X216155Y121254D02*
X233000Y104409D01*
X207803Y121254D02*
X216155D01*
X240300Y99937D02*
X242000D01*
X212737Y127500D02*
X240300Y99937D01*
X209000Y127500D02*
X212737D01*
X187800Y53900D02*
X188627D01*
X199929Y42598D01*
Y42007D02*
Y42598D01*
X198743Y74043D02*
X199100Y74400D01*
X333400Y272500D02*
Y279328D01*
X305228Y307500D02*
X333400Y279328D01*
X200795Y303500D02*
X303572D01*
X195480Y298185D02*
X200795Y303500D01*
X148101Y298185D02*
X195480D01*
X199966Y305500D02*
X304400D01*
X194651Y300185D02*
X199966Y305500D01*
X132619Y300185D02*
X194651D01*
X67935Y267950D02*
X100148Y300163D01*
X67213Y264400D02*
X100976Y298163D01*
X99319Y302163D02*
X125323D01*
X57600Y264137D02*
X61413Y267950D01*
X100148Y300163D02*
X132597D01*
X100976Y298163D02*
X148079D01*
X125323Y302163D02*
X125345Y302185D01*
X193823D01*
X199138Y307500D01*
X305228D01*
X132597Y300163D02*
X132619Y300185D01*
X148079Y298163D02*
X148101Y298185D01*
X62500Y90000D02*
X74457Y78043D01*
X64508Y94846D02*
X79311Y80043D01*
X180466D01*
X60800Y94846D02*
X64508D01*
X244243Y94532D02*
X246059Y96347D01*
X63032Y190532D02*
X77180D01*
X62500Y190000D02*
X63032Y190532D01*
X57346Y178300D02*
X60492Y175154D01*
X57346Y178300D02*
Y182008D01*
X54507Y184846D02*
X57346Y182008D01*
Y185153D02*
X65909D01*
X52500Y190000D02*
X57346Y185153D01*
X60492Y175154D02*
X81239D01*
X65909Y185153D02*
X71063Y180000D01*
X297346Y205153D02*
X302500Y200000D01*
X266453Y215547D02*
X275569D01*
X266300Y215700D02*
X266453Y215547D01*
X300800Y85154D02*
X304507D01*
X297346Y81700D02*
X300800Y85154D01*
X297346Y64846D02*
Y81700D01*
X292500Y60000D02*
X297346Y64846D01*
X304400Y305500D02*
X326900Y283000D01*
X243600Y106200D02*
X246059Y103741D01*
Y96347D02*
Y103741D01*
X165803Y309000D02*
X191000D01*
X245400Y169700D02*
X245550Y169850D01*
X273425D01*
X273575Y170000D01*
X268459Y99937D02*
X272974Y104453D01*
X276663D01*
X285963Y95153D01*
X304507D01*
X235703Y177853D02*
X270669D01*
X236424Y174303D02*
X265500D01*
X245100Y182000D02*
X247247Y179853D01*
X270669Y177853D02*
X273675Y174846D01*
X273722Y179853D02*
X274819Y178756D01*
X267916Y181853D02*
X274819Y188756D01*
X247247Y179853D02*
X273722D01*
X285963Y105154D02*
X307954D01*
X275569Y115547D02*
X285963Y105154D01*
X223835Y83595D02*
X250706D01*
X229906Y85594D02*
X251677D01*
X218000Y77760D02*
X223835Y83595D01*
X271724Y65547D02*
X277298D01*
X251677Y85594D02*
X271724Y65547D01*
X236298Y88302D02*
X237005Y87594D01*
X236298Y88302D02*
Y88355D01*
X233591Y91063D02*
X236298Y88355D01*
X224590Y90909D02*
X229906Y85594D01*
X277298Y65547D02*
X279450Y63396D01*
X265647Y74453D02*
X276663D01*
X252505Y87594D02*
X265647Y74453D01*
X237005Y87594D02*
X252505D01*
X273675Y174846D02*
X314571D01*
X247820Y94532D02*
X276585D01*
X245351Y92063D02*
X247820Y94532D01*
X251295Y91768D02*
X257516Y85547D01*
X242000Y92063D02*
X245351D01*
X276585Y94532D02*
X285450Y85666D01*
X297654Y35393D02*
X302500Y30547D01*
X297654Y35393D02*
Y41700D01*
X309956Y165154D02*
X318150Y173347D01*
Y176288D01*
X309438Y185000D02*
X318150Y176288D01*
X290359Y185000D02*
X309438D01*
X314571Y174846D02*
X314600Y174818D01*
X276603Y198756D02*
X290359Y185000D01*
X274819Y198756D02*
X276603D01*
X257516Y85547D02*
X275569D01*
X283450Y52196D02*
Y77666D01*
X275569Y85547D02*
X283450Y77666D01*
X285450Y60196D02*
Y85666D01*
X279450Y43050D02*
Y63396D01*
X281450Y51050D02*
Y69666D01*
X276663Y74453D02*
X281450Y69666D01*
X326900Y266280D02*
Y276000D01*
X57563Y194937D02*
X73600D01*
X52500Y200000D02*
X57563Y194937D01*
X326900Y276000D02*
Y283000D01*
X297654Y44846D02*
X302500Y40000D01*
X297654Y44846D02*
Y51700D01*
X294200Y55154D02*
X297654Y51700D01*
X290493Y55154D02*
X294200D01*
X285450Y60196D02*
X290493Y55154D01*
X283450Y52196D02*
X290493Y45153D01*
X279450Y43050D02*
X292500Y30000D01*
X281450Y51050D02*
X292500Y40000D01*
X290493Y45153D02*
X294200D01*
X297654Y41700D01*
X302500Y30000D02*
Y30547D01*
X292241Y216694D02*
X293709Y218163D01*
X302500Y110000D02*
X314500Y122000D01*
X52500Y77900D02*
Y80000D01*
X207803Y42007D02*
Y50776D01*
X145100Y8202D02*
Y14200D01*
Y12201D01*
X149099Y8202D01*
X146100Y11201D01*
X149099Y14200D01*
X152098Y10201D02*
X154097D01*
X155097Y11201D01*
Y14200D01*
X152098D01*
X151098Y13200D01*
X152098Y12201D01*
X155097D01*
X157096Y10201D02*
Y14200D01*
Y12201D01*
X158096Y11201D01*
X159096Y10201D01*
X160095D01*
X163094D02*
X167093D01*
X163094Y14200D01*
X167093D01*
X179089Y9202D02*
X178089Y8202D01*
X176090D01*
X175090Y9202D01*
Y13200D01*
X176090Y14200D01*
X178089D01*
X179089Y13200D01*
Y11201D01*
X177090D01*
X184087Y14200D02*
X182088D01*
X181088Y13200D01*
Y11201D01*
X182088Y10201D01*
X184087D01*
X185087Y11201D01*
Y12201D01*
X181088D01*
X187086Y10201D02*
Y14200D01*
Y12201D01*
X188086Y11201D01*
X189086Y10201D01*
X190085D01*
X195084Y16199D02*
X196083D01*
X197083Y15200D01*
Y10201D01*
X194084D01*
X193085Y11201D01*
Y13200D01*
X194084Y14200D01*
X197083D01*
X202082D02*
X200082D01*
X199083Y13200D01*
Y11201D01*
X200082Y10201D01*
X202082D01*
X203081Y11201D01*
Y12201D01*
X199083D01*
X205081Y14200D02*
X207080D01*
X206080D01*
Y8202D01*
X205081D01*
X210079Y10201D02*
Y13200D01*
X211079Y14200D01*
X214078D01*
Y15200D01*
X213078Y16199D01*
X212078D01*
X214078Y14200D02*
Y10201D01*
D47*
X139000Y246663D02*
D03*
Y254537D02*
D03*
X197000Y246726D02*
D03*
Y254600D02*
D03*
X227200Y195863D02*
D03*
Y203737D02*
D03*
X294300Y218163D02*
D03*
Y226037D02*
D03*
X86700Y173937D02*
D03*
Y166063D02*
D03*
X74000Y186126D02*
D03*
Y194000D02*
D03*
X94300Y173937D02*
D03*
Y166063D02*
D03*
X251000Y98937D02*
D03*
Y91063D02*
D03*
X242000Y98937D02*
D03*
Y91063D02*
D03*
X233000Y98937D02*
D03*
Y91063D02*
D03*
X224000Y98937D02*
D03*
Y91063D02*
D03*
X307157Y266280D02*
D03*
Y258405D02*
D03*
X326842Y266280D02*
D03*
Y258405D02*
D03*
X129000Y243063D02*
D03*
Y250937D02*
D03*
X187000Y243063D02*
D03*
Y250937D02*
D03*
X215000Y98937D02*
D03*
Y91063D02*
D03*
D48*
X78037Y51300D02*
D03*
X70163D02*
D03*
X207803Y42007D02*
D03*
X199929D02*
D03*
X258726Y258563D02*
D03*
X266600D02*
D03*
X258726Y250063D02*
D03*
X266600D02*
D03*
X78937Y179500D02*
D03*
X71063D02*
D03*
X159974Y157500D02*
D03*
X152100D02*
D03*
X266600Y240100D02*
D03*
X258726D02*
D03*
D51*
X94724Y55942D02*
D03*
X84276Y52202D02*
D03*
Y59683D02*
D03*
X244900Y206100D02*
D03*
X234451Y202360D02*
D03*
Y209840D02*
D03*
D57*
X148000Y239000D02*
D03*
Y255535D02*
D03*
X143000Y69000D02*
D03*
Y85535D02*
D03*
X206000Y239000D02*
D03*
Y255535D02*
D03*
X218000Y61224D02*
D03*
Y77760D02*
D03*
D62*
X289117Y230630D02*
Y233451D01*
Y230630D02*
X293709Y226037D01*
X294300D01*
X104992Y103953D02*
X124047D01*
X104000Y104945D02*
X104992Y103953D01*
X124047D02*
X129000Y99000D01*
X214968Y98968D02*
X215000Y98937D01*
X204031Y98968D02*
X214968D01*
X204000Y99000D02*
X204031Y98968D01*
X129000Y99000D02*
X139921Y88079D01*
X140457D02*
X143000Y85535D01*
X139921Y88079D02*
X140457D01*
X32500Y290315D02*
X36250D01*
X48750Y302815D01*
X52500D01*
X266600Y240100D02*
X266650Y240050D01*
X274769D01*
X274819Y240000D01*
D63*
X274700Y240100D02*
X282468D01*
X289117Y233451D01*
X283400Y214800D02*
Y227734D01*
X289117Y233451D01*
X294465Y238800D02*
X310300D01*
X289117Y233451D02*
X294465Y238800D01*
D66*
X274819Y60000D02*
D03*
D67*
Y70000D02*
D03*
Y80000D02*
D03*
Y90000D02*
D03*
Y100000D02*
D03*
Y110000D02*
D03*
Y120000D02*
D03*
Y130000D02*
D03*
Y140000D02*
D03*
Y150000D02*
D03*
Y160000D02*
D03*
Y170000D02*
D03*
Y180000D02*
D03*
Y190000D02*
D03*
Y200000D02*
D03*
Y210000D02*
D03*
Y220000D02*
D03*
Y230000D02*
D03*
Y240000D02*
D03*
Y250000D02*
D03*
X129000Y262343D02*
D03*
X119000D02*
D03*
X109000D02*
D03*
X119000Y232343D02*
D03*
X109000D02*
D03*
X99000Y262343D02*
D03*
Y232343D02*
D03*
X129000D02*
D03*
X119000Y99000D02*
D03*
X109000D02*
D03*
X99000D02*
D03*
X109000Y69000D02*
D03*
X99000D02*
D03*
X89000Y99000D02*
D03*
Y69000D02*
D03*
X119000D02*
D03*
X187000Y262343D02*
D03*
X177000D02*
D03*
X167000D02*
D03*
X177000Y232343D02*
D03*
X167000D02*
D03*
X157000Y262343D02*
D03*
Y232343D02*
D03*
X187000D02*
D03*
X194000Y99000D02*
D03*
X184000D02*
D03*
X174000D02*
D03*
X184000Y69000D02*
D03*
X174000D02*
D03*
X164000Y99000D02*
D03*
Y69000D02*
D03*
X194000D02*
D03*
D68*
X292500Y30000D02*
D03*
X302500D02*
D03*
X292500Y40000D02*
D03*
X302500D02*
D03*
X292500Y50000D02*
D03*
X302500D02*
D03*
X292500Y60000D02*
D03*
X302500D02*
D03*
X292500Y70000D02*
D03*
X302500D02*
D03*
X292500Y80000D02*
D03*
X302500D02*
D03*
X292500Y90000D02*
D03*
X302500D02*
D03*
X292500Y100000D02*
D03*
X302500D02*
D03*
X292500Y110000D02*
D03*
X302500D02*
D03*
X292500Y120000D02*
D03*
X302500D02*
D03*
X292500Y130000D02*
D03*
X302500D02*
D03*
X292500Y140000D02*
D03*
X302500D02*
D03*
X292500Y150000D02*
D03*
X302500D02*
D03*
X292500Y160000D02*
D03*
X302500D02*
D03*
X292500Y170000D02*
D03*
X302500D02*
D03*
X292500Y180000D02*
D03*
X302500D02*
D03*
X292500Y190000D02*
D03*
X302500D02*
D03*
X292500Y200000D02*
D03*
X302500D02*
D03*
X292500Y210000D02*
D03*
X52500Y30000D02*
D03*
X62500D02*
D03*
X52500Y40000D02*
D03*
X62500D02*
D03*
X52500Y50000D02*
D03*
X62500D02*
D03*
X52500Y60000D02*
D03*
X62500D02*
D03*
X52500Y70000D02*
D03*
X62500D02*
D03*
X52500Y80000D02*
D03*
X62500D02*
D03*
X52500Y90000D02*
D03*
X62500D02*
D03*
X52500Y100000D02*
D03*
X62500D02*
D03*
X52500Y110000D02*
D03*
X62500D02*
D03*
X52500Y120000D02*
D03*
X62500D02*
D03*
X52500Y130000D02*
D03*
X62500D02*
D03*
X52500Y140000D02*
D03*
X62500D02*
D03*
X52500Y150000D02*
D03*
X62500D02*
D03*
X52500Y160000D02*
D03*
X62500D02*
D03*
X52500Y170000D02*
D03*
X62500D02*
D03*
X52500Y180000D02*
D03*
X62500D02*
D03*
X52500Y190000D02*
D03*
X62500D02*
D03*
X52500Y200000D02*
D03*
X62500D02*
D03*
X52500Y210000D02*
D03*
D69*
X302500D02*
D03*
X62500D02*
D03*
D70*
X139000Y262343D02*
D03*
X129000Y99000D02*
D03*
X197000Y262343D02*
D03*
X204000Y99000D02*
D03*
D71*
X139000Y232343D02*
D03*
X129000Y69000D02*
D03*
X197000Y232343D02*
D03*
X204000Y69000D02*
D03*
D72*
X148937Y307000D02*
D03*
X141063D02*
D03*
X141100Y316600D02*
D03*
X148974D02*
D03*
D73*
X166984Y277504D02*
D03*
X165803Y309000D02*
D03*
X189819Y277504D02*
D03*
X191000Y309000D02*
D03*
X98484Y277482D02*
D03*
X97303Y308978D02*
D03*
X121319Y277482D02*
D03*
X122500Y308978D02*
D03*
D74*
X32500Y290315D02*
D03*
X52500Y302815D02*
D03*
Y277815D02*
D03*
D75*
X317000Y275217D02*
D03*
D76*
X20000Y310000D02*
D03*
X334626D02*
D03*
Y20000D02*
D03*
X20000D02*
D03*
D77*
X46200Y95200D02*
D03*
X237698Y197100D02*
D03*
X246900Y111900D02*
D03*
X314500Y128500D02*
D03*
X308000Y105200D02*
D03*
X181200Y168800D02*
D03*
X104000Y104945D02*
D03*
X167300Y157600D02*
D03*
X115715Y212540D02*
D03*
X144000Y156900D02*
D03*
X104700Y173488D02*
D03*
X109000Y178500D02*
D03*
X250100Y64547D02*
D03*
X230431Y170600D02*
D03*
X226100Y165500D02*
D03*
X227807Y145776D02*
D03*
X39100Y184700D02*
D03*
X40700Y217400D02*
D03*
X246300Y266400D02*
D03*
X34380Y60000D02*
D03*
X33637Y120000D02*
D03*
X245400Y214800D02*
D03*
X69500Y115000D02*
D03*
X37600Y231251D02*
D03*
X307157Y274900D02*
D03*
X51400Y262600D02*
D03*
X64385Y264400D02*
D03*
X57600Y263700D02*
D03*
X187800Y53900D02*
D03*
X199100Y74400D02*
D03*
X333400Y272500D02*
D03*
X213100Y166400D02*
D03*
X266300Y215700D02*
D03*
X227700Y132552D02*
D03*
X227400Y159063D02*
D03*
X243600Y106200D02*
D03*
X245400Y169700D02*
D03*
X231802Y188756D02*
D03*
X224898Y175153D02*
D03*
X245100Y182000D02*
D03*
X236000Y184500D02*
D03*
X314487Y73400D02*
D03*
X314600Y174818D02*
D03*
X283400Y214800D02*
D03*
X265500Y174303D02*
D03*
X207803Y121254D02*
D03*
X207952Y115300D02*
D03*
X209000Y127500D02*
D03*
X220700Y170278D02*
D03*
X295000Y272000D02*
D03*
X326900Y276000D02*
D03*
X310300Y238800D02*
D03*
D78*
X276787Y292677D02*
D03*
Y17086D02*
D03*
X77969Y292677D02*
D03*
Y17086D02*
D03*
D79*
X178402Y314906D02*
D03*
Y287347D02*
D03*
X109902Y314883D02*
D03*
Y287324D02*
D03*
D80*
X317000Y257500D02*
D03*
D81*
X262250Y157050D02*
D03*
D82*
X204063Y61224D02*
D03*
X207803Y50776D02*
D03*
X200323D02*
D03*
M02*
