M48
;Layer_Color=9474304
;FILE_FORMAT=2:5
INCH,LZ
;TYPE=PLATED
T1F00S00C0.02800
T2F00S00C0.03543
T3F00S00C0.04331
T4F00S00C0.04528
T5F00S00C0.07874
T6F00S00C0.08071
T7F00S00C0.10236
T8F00S00C0.11800
T9F00S00C0.13780
;TYPE=NON_PLATED
%
T01
X003438Y006
X01878Y00539
X02501Y0064547
X02436Y01062
X02469Y01119
X02277Y0132552
X0227807Y0145776
X02274Y0159063
X02261Y01655
X0230431Y01706
X02207Y0170278
X0224898Y0175153
X0236Y01845
X0231802Y0188756
X0237698Y01971
X02451Y0182
X02454Y01697
X02655Y0174303
X026225Y015705
X02663Y02157
X02834Y02148
X02454
X03146Y0174818
X03145Y01285
X0308Y01052
X0314487Y00734
X01991Y00744
X0207952Y01153
X0207803Y0121254
X0209Y01275
X02131Y01664
X01812Y01688
X01673Y01576
X0144Y01569
X01047Y0173488
X0109Y01785
X0115715Y021254
X0104Y0104945
X00695Y0115
X0033637Y012
X00462Y00952
X00391Y01847
X00407Y02174
X00376Y0231251
X00514Y02626
X00576Y02637
X0064385Y02644
X02463Y02664
X0295Y0272
X0307157Y02749
X03269Y0276
X03334Y02725
X03103Y02388
T02
X0141063Y0307
X0148937
X0148974Y03166
X01411
T03
X00525Y003
Y004
Y005
Y006
Y007
X00625
Y006
Y005
Y004
Y003
X0089Y0069
X0099
X0109
X0119
X0129
X0164
X0174
X0184
X0194
X0204
X0274819Y007
Y006
X02925Y006
Y005
Y004
Y003
X03025
Y004
Y005
Y006
Y007
X02925
Y008
X03025
Y009
X02925
Y01
X03025
Y011
X02925
Y012
X03025
Y013
X02925
Y014
X03025
Y015
X02925
Y016
X03025
Y017
X02925
Y018
X03025
Y019
X02925
Y02
X03025
Y021
X02925
X0274819Y021
Y02
Y019
Y018
Y017
Y016
Y015
Y014
Y013
Y012
Y011
Y01
Y009
Y008
Y022
X0204Y0099
X0194
X0184
X0174
X0164
X0129
X0119
X0109
X0099
X0089
X00625Y01
Y009
Y008
Y011
Y012
Y013
Y014
Y015
Y016
Y017
Y018
Y019
Y02
Y021
X00525
Y02
Y019
Y018
Y017
Y016
Y015
Y014
Y013
Y012
Y011
Y01
Y009
Y008
X0099Y0232343
X0109
X0119
X0129
X0139
X0157
X0167
X0177
X0187
X0197
Y0262343
X0187
X0177
X0167
X0157
X0139
X0129
X0119
X0109
X0099
X0274819Y025
Y024
Y023
T04
X0109902Y0287324
Y0314883
X0178402Y0314906
Y0287347
T05
X0098484Y0277482
X0121319
X01225Y0308978
X0097303
X0165803Y0309
X0191
X0189819Y0277504
X0166984
T06
X0317Y02575
T07
X0077969Y0017086
X0276787
X0077969Y0292677
X0276787
T08
X00325Y0290315
X00525Y0302815
Y0277815
T09
X002Y002
X0334626
X002Y031
X0334626
M30
