G04*
G04 #@! TF.GenerationSoftware,Altium Limited,Altium Designer,19.0.12 (326)*
G04*
G04 Layer_Color=16711935*
%FSLAX25Y25*%
%MOIN*%
G70*
G01*
G75*
%ADD15R,0.04737X0.05918*%
%ADD19R,0.05524X0.03359*%
%ADD20R,0.05918X0.04737*%
%ADD21R,0.07887X0.07887*%
%ADD28R,0.07887X0.07887*%
%ADD32C,0.06706*%
%ADD33C,0.06706*%
%ADD34R,0.06706X0.06706*%
%ADD35C,0.11430*%
%ADD36R,0.06706X0.06706*%
%ADD37R,0.06706X0.06706*%
%ADD38C,0.07493*%
%ADD39R,0.07493X0.07493*%
%ADD40C,0.18800*%
%ADD41O,0.06902X0.09461*%
%ADD42C,0.24422*%
%ADD43C,0.06666*%
%ADD44C,0.04900*%
%ADD45C,0.14580*%
%ADD46C,0.10209*%
%ADD85R,0.03359X0.05524*%
D15*
X105063Y240000D02*
D03*
X112937D02*
D03*
X152100Y157500D02*
D03*
X159974D02*
D03*
X152237Y111700D02*
D03*
X144363D02*
D03*
X262537Y282800D02*
D03*
X254663D02*
D03*
X258726Y258563D02*
D03*
X266600D02*
D03*
X258726Y250063D02*
D03*
X266600D02*
D03*
D19*
X174026Y113300D02*
D03*
X163577Y109560D02*
D03*
Y117040D02*
D03*
D20*
X139000Y246663D02*
D03*
Y254537D02*
D03*
X197000Y246726D02*
D03*
Y254600D02*
D03*
X294300Y218163D02*
D03*
Y226037D02*
D03*
X88300Y175037D02*
D03*
Y167163D02*
D03*
X72600Y186594D02*
D03*
Y194468D02*
D03*
X71100Y171463D02*
D03*
Y179337D02*
D03*
X95791Y175037D02*
D03*
Y167163D02*
D03*
X251000Y98937D02*
D03*
Y91063D02*
D03*
X242000Y98937D02*
D03*
Y91063D02*
D03*
X233000Y98937D02*
D03*
Y91063D02*
D03*
X224000Y98937D02*
D03*
Y91063D02*
D03*
X307157Y266280D02*
D03*
Y258405D02*
D03*
X326842Y266280D02*
D03*
Y258405D02*
D03*
X129000Y243063D02*
D03*
Y250937D02*
D03*
X187000Y243063D02*
D03*
Y250937D02*
D03*
D21*
X107383Y108168D02*
D03*
X90847D02*
D03*
D28*
X148000Y239000D02*
D03*
Y255535D02*
D03*
X206000Y239000D02*
D03*
Y255535D02*
D03*
D32*
X197000Y232343D02*
D03*
X139000D02*
D03*
X178500Y103000D02*
D03*
X84048Y108168D02*
D03*
D33*
X187000Y232343D02*
D03*
X157000D02*
D03*
Y262343D02*
D03*
X167000Y232343D02*
D03*
X177000D02*
D03*
X167000Y262343D02*
D03*
X177000D02*
D03*
X187000D02*
D03*
X129000Y232343D02*
D03*
X99000D02*
D03*
Y262343D02*
D03*
X109000Y232343D02*
D03*
X119000D02*
D03*
X109000Y262343D02*
D03*
X119000D02*
D03*
X129000D02*
D03*
X168500Y103000D02*
D03*
X138500D02*
D03*
Y133000D02*
D03*
X148500Y103000D02*
D03*
X158500D02*
D03*
X148500Y133000D02*
D03*
X158500D02*
D03*
X168500D02*
D03*
X149900Y320300D02*
D03*
X139900Y309200D02*
D03*
X274819Y70000D02*
D03*
Y80000D02*
D03*
Y90000D02*
D03*
Y100000D02*
D03*
Y110000D02*
D03*
Y120000D02*
D03*
Y130000D02*
D03*
Y140000D02*
D03*
Y150000D02*
D03*
Y160000D02*
D03*
Y170000D02*
D03*
Y180000D02*
D03*
Y190000D02*
D03*
Y200000D02*
D03*
Y210000D02*
D03*
Y220000D02*
D03*
Y230000D02*
D03*
Y240000D02*
D03*
Y250000D02*
D03*
X114048Y118168D02*
D03*
Y128168D02*
D03*
Y138168D02*
D03*
X84048Y128168D02*
D03*
Y138168D02*
D03*
X114048Y148168D02*
D03*
X84048D02*
D03*
Y118168D02*
D03*
D34*
X197000Y262343D02*
D03*
X139000D02*
D03*
X178500Y133000D02*
D03*
D35*
X191000Y309000D02*
D03*
X189819Y277504D02*
D03*
X165803Y309000D02*
D03*
X166984Y277504D02*
D03*
X98484Y277482D02*
D03*
X97303Y308978D02*
D03*
X121319Y277482D02*
D03*
X122500Y308978D02*
D03*
D36*
X139900Y320300D02*
D03*
X149900Y309200D02*
D03*
X114048Y108168D02*
D03*
D37*
X274819Y60000D02*
D03*
D38*
X292500Y30000D02*
D03*
X302500D02*
D03*
X292500Y40000D02*
D03*
X302500D02*
D03*
X292500Y50000D02*
D03*
X302500D02*
D03*
X292500Y60000D02*
D03*
X302500D02*
D03*
X292500Y70000D02*
D03*
X302500D02*
D03*
X292500Y80000D02*
D03*
X302500D02*
D03*
X292500Y90000D02*
D03*
X302500D02*
D03*
X292500Y100000D02*
D03*
X302500D02*
D03*
X292500Y110000D02*
D03*
X302500D02*
D03*
X292500Y120000D02*
D03*
X302500D02*
D03*
X292500Y130000D02*
D03*
X302500D02*
D03*
X292500Y140000D02*
D03*
X302500D02*
D03*
X292500Y150000D02*
D03*
X302500D02*
D03*
X292500Y160000D02*
D03*
X302500D02*
D03*
X292500Y170000D02*
D03*
X302500D02*
D03*
X292500Y180000D02*
D03*
X302500D02*
D03*
X292500Y190000D02*
D03*
X302500D02*
D03*
X292500Y200000D02*
D03*
X302500D02*
D03*
X292500Y210000D02*
D03*
X52500Y30000D02*
D03*
X62500D02*
D03*
X52500Y40000D02*
D03*
X62500D02*
D03*
X52500Y50000D02*
D03*
X62500D02*
D03*
X52500Y60000D02*
D03*
X62500D02*
D03*
X52500Y70000D02*
D03*
X62500D02*
D03*
X52500Y80000D02*
D03*
X62500D02*
D03*
X52500Y90000D02*
D03*
X62500D02*
D03*
X52500Y100000D02*
D03*
X62500D02*
D03*
X52500Y110000D02*
D03*
X62500D02*
D03*
X52500Y120000D02*
D03*
X62500D02*
D03*
X52500Y130000D02*
D03*
X62500D02*
D03*
X52500Y140000D02*
D03*
X62500D02*
D03*
X52500Y150000D02*
D03*
X62500D02*
D03*
X52500Y160000D02*
D03*
X62500D02*
D03*
X52500Y170000D02*
D03*
X62500D02*
D03*
X52500Y180000D02*
D03*
X62500D02*
D03*
X52500Y190000D02*
D03*
X62500D02*
D03*
X52500Y200000D02*
D03*
X62500D02*
D03*
X52500Y210000D02*
D03*
D39*
X302500D02*
D03*
X62500D02*
D03*
D40*
X32500Y290315D02*
D03*
X52500Y302815D02*
D03*
Y277815D02*
D03*
D41*
X317000Y275217D02*
D03*
D42*
X20000Y310000D02*
D03*
X334626D02*
D03*
Y20000D02*
D03*
X20000D02*
D03*
D43*
X178402Y287347D02*
D03*
Y314906D02*
D03*
X109902Y314883D02*
D03*
Y287324D02*
D03*
D44*
X244033Y236200D02*
D03*
X251700Y249500D02*
D03*
X253500Y268000D02*
D03*
X47107Y229800D02*
D03*
X60800Y227680D02*
D03*
X227600Y197700D02*
D03*
X54000Y226400D02*
D03*
X67100D02*
D03*
X109100Y175100D02*
D03*
X115715Y212540D02*
D03*
X282500Y213900D02*
D03*
X313800Y233532D02*
D03*
X287900Y244600D02*
D03*
X264300Y214400D02*
D03*
X207500Y127100D02*
D03*
X239800Y208900D02*
D03*
X50700Y220800D02*
D03*
X245400Y214800D02*
D03*
X207900Y275000D02*
D03*
X200800Y277100D02*
D03*
X204700Y154839D02*
D03*
X206800Y183300D02*
D03*
X300783Y245900D02*
D03*
X39500Y218200D02*
D03*
X240500Y199900D02*
D03*
X104100Y171600D02*
D03*
X245900Y191300D02*
D03*
X230600Y189400D02*
D03*
X222400Y169000D02*
D03*
X225900Y176401D02*
D03*
X227500Y160600D02*
D03*
X262941Y157740D02*
D03*
X245700Y181600D02*
D03*
X232100Y168800D02*
D03*
X315100Y85500D02*
D03*
X264900Y185600D02*
D03*
X314600Y174818D02*
D03*
X226500Y111100D02*
D03*
X231300Y114800D02*
D03*
X164098Y138300D02*
D03*
X230500Y132400D02*
D03*
X227400Y122500D02*
D03*
X181200Y168800D02*
D03*
X246900Y111900D02*
D03*
X167300Y157600D02*
D03*
X144000Y156900D02*
D03*
X227807Y145776D02*
D03*
X39100Y184700D02*
D03*
X307157Y274900D02*
D03*
X213100Y166400D02*
D03*
X243600Y106200D02*
D03*
X295000Y272000D02*
D03*
X326900Y276000D02*
D03*
D45*
X276787Y292677D02*
D03*
Y17086D02*
D03*
X77969Y292677D02*
D03*
Y17086D02*
D03*
D46*
X317000Y257500D02*
D03*
D85*
X258658Y265598D02*
D03*
X254917Y276047D02*
D03*
X262398D02*
D03*
M02*
