G04*
G04 #@! TF.GenerationSoftware,Altium Limited,Altium Designer,19.0.12 (326)*
G04*
G04 Layer_Color=16711935*
%FSLAX25Y25*%
%MOIN*%
G70*
G01*
G75*
%ADD14R,0.05918X0.04737*%
%ADD15R,0.04737X0.05918*%
%ADD18R,0.05524X0.03359*%
%ADD24R,0.07887X0.07887*%
%ADD28R,0.06706X0.06706*%
%ADD29C,0.06706*%
%ADD30C,0.07493*%
%ADD31R,0.07493X0.07493*%
%ADD32R,0.06706X0.06706*%
%ADD33C,0.06706*%
%ADD34C,0.05600*%
%ADD35C,0.11430*%
%ADD36C,0.18800*%
%ADD37O,0.06902X0.09461*%
%ADD38C,0.24422*%
%ADD39C,0.04900*%
%ADD40C,0.14580*%
%ADD41C,0.06666*%
%ADD42C,0.10209*%
%ADD43C,0.05800*%
%ADD83R,0.03359X0.05524*%
D14*
X139000Y246663D02*
D03*
Y254537D02*
D03*
X197000Y246726D02*
D03*
Y254600D02*
D03*
X227200Y195863D02*
D03*
Y203737D02*
D03*
X294300Y218163D02*
D03*
Y226037D02*
D03*
X86700Y173937D02*
D03*
Y166063D02*
D03*
X74000Y186126D02*
D03*
Y194000D02*
D03*
X94300Y173937D02*
D03*
Y166063D02*
D03*
X251000Y98937D02*
D03*
Y91063D02*
D03*
X242000Y98937D02*
D03*
Y91063D02*
D03*
X233000Y98937D02*
D03*
Y91063D02*
D03*
X224000Y98937D02*
D03*
Y91063D02*
D03*
X307157Y266280D02*
D03*
Y258405D02*
D03*
X326842Y266280D02*
D03*
Y258405D02*
D03*
X129000Y243063D02*
D03*
Y250937D02*
D03*
X187000Y243063D02*
D03*
Y250937D02*
D03*
X215000Y98937D02*
D03*
Y91063D02*
D03*
D15*
X78037Y51300D02*
D03*
X70163D02*
D03*
X207803Y42007D02*
D03*
X199929D02*
D03*
X258726Y258563D02*
D03*
X266600D02*
D03*
X258726Y250063D02*
D03*
X266600D02*
D03*
X78937Y179500D02*
D03*
X71063D02*
D03*
X159974Y157500D02*
D03*
X152100D02*
D03*
X266600Y240100D02*
D03*
X258726D02*
D03*
D18*
X94724Y55942D02*
D03*
X84276Y52202D02*
D03*
Y59683D02*
D03*
X244900Y206100D02*
D03*
X234451Y202360D02*
D03*
Y209840D02*
D03*
D24*
X148000Y239000D02*
D03*
Y255535D02*
D03*
X143000Y69000D02*
D03*
Y85535D02*
D03*
X206000Y239000D02*
D03*
Y255535D02*
D03*
X218000Y61224D02*
D03*
Y77760D02*
D03*
D28*
X274819Y60000D02*
D03*
D29*
Y70000D02*
D03*
Y80000D02*
D03*
Y90000D02*
D03*
Y100000D02*
D03*
Y110000D02*
D03*
Y120000D02*
D03*
Y130000D02*
D03*
Y140000D02*
D03*
Y150000D02*
D03*
Y160000D02*
D03*
Y170000D02*
D03*
Y180000D02*
D03*
Y190000D02*
D03*
Y200000D02*
D03*
Y210000D02*
D03*
Y220000D02*
D03*
Y230000D02*
D03*
Y240000D02*
D03*
Y250000D02*
D03*
X129000Y262343D02*
D03*
X119000D02*
D03*
X109000D02*
D03*
X119000Y232343D02*
D03*
X109000D02*
D03*
X99000Y262343D02*
D03*
Y232343D02*
D03*
X129000D02*
D03*
X119000Y99000D02*
D03*
X109000D02*
D03*
X99000D02*
D03*
X109000Y69000D02*
D03*
X99000D02*
D03*
X89000Y99000D02*
D03*
Y69000D02*
D03*
X119000D02*
D03*
X187000Y262343D02*
D03*
X177000D02*
D03*
X167000D02*
D03*
X177000Y232343D02*
D03*
X167000D02*
D03*
X157000Y262343D02*
D03*
Y232343D02*
D03*
X187000D02*
D03*
X194000Y99000D02*
D03*
X184000D02*
D03*
X174000D02*
D03*
X184000Y69000D02*
D03*
X174000D02*
D03*
X164000Y99000D02*
D03*
Y69000D02*
D03*
X194000D02*
D03*
D30*
X292500Y30000D02*
D03*
X302500D02*
D03*
X292500Y40000D02*
D03*
X302500D02*
D03*
X292500Y50000D02*
D03*
X302500D02*
D03*
X292500Y60000D02*
D03*
X302500D02*
D03*
X292500Y70000D02*
D03*
X302500D02*
D03*
X292500Y80000D02*
D03*
X302500D02*
D03*
X292500Y90000D02*
D03*
X302500D02*
D03*
X292500Y100000D02*
D03*
X302500D02*
D03*
X292500Y110000D02*
D03*
X302500D02*
D03*
X292500Y120000D02*
D03*
X302500D02*
D03*
X292500Y130000D02*
D03*
X302500D02*
D03*
X292500Y140000D02*
D03*
X302500D02*
D03*
X292500Y150000D02*
D03*
X302500D02*
D03*
X292500Y160000D02*
D03*
X302500D02*
D03*
X292500Y170000D02*
D03*
X302500D02*
D03*
X292500Y180000D02*
D03*
X302500D02*
D03*
X292500Y190000D02*
D03*
X302500D02*
D03*
X292500Y200000D02*
D03*
X302500D02*
D03*
X292500Y210000D02*
D03*
X52500Y30000D02*
D03*
X62500D02*
D03*
X52500Y40000D02*
D03*
X62500D02*
D03*
X52500Y50000D02*
D03*
X62500D02*
D03*
X52500Y60000D02*
D03*
X62500D02*
D03*
X52500Y70000D02*
D03*
X62500D02*
D03*
X52500Y80000D02*
D03*
X62500D02*
D03*
X52500Y90000D02*
D03*
X62500D02*
D03*
X52500Y100000D02*
D03*
X62500D02*
D03*
X52500Y110000D02*
D03*
X62500D02*
D03*
X52500Y120000D02*
D03*
X62500D02*
D03*
X52500Y130000D02*
D03*
X62500D02*
D03*
X52500Y140000D02*
D03*
X62500D02*
D03*
X52500Y150000D02*
D03*
X62500D02*
D03*
X52500Y160000D02*
D03*
X62500D02*
D03*
X52500Y170000D02*
D03*
X62500D02*
D03*
X52500Y180000D02*
D03*
X62500D02*
D03*
X52500Y190000D02*
D03*
X62500D02*
D03*
X52500Y200000D02*
D03*
X62500D02*
D03*
X52500Y210000D02*
D03*
D31*
X302500D02*
D03*
X62500D02*
D03*
D32*
X139000Y262343D02*
D03*
X129000Y99000D02*
D03*
X197000Y262343D02*
D03*
X204000Y99000D02*
D03*
D33*
X139000Y232343D02*
D03*
X129000Y69000D02*
D03*
X197000Y232343D02*
D03*
X204000Y69000D02*
D03*
D34*
X148937Y307000D02*
D03*
X141063D02*
D03*
X141100Y316600D02*
D03*
X148974D02*
D03*
D35*
X166984Y277504D02*
D03*
X165803Y309000D02*
D03*
X189819Y277504D02*
D03*
X191000Y309000D02*
D03*
X98484Y277482D02*
D03*
X97303Y308978D02*
D03*
X121319Y277482D02*
D03*
X122500Y308978D02*
D03*
D36*
X32500Y290315D02*
D03*
X52500Y302815D02*
D03*
Y277815D02*
D03*
D37*
X317000Y275217D02*
D03*
D38*
X20000Y310000D02*
D03*
X334626D02*
D03*
Y20000D02*
D03*
X20000D02*
D03*
D39*
X46200Y95200D02*
D03*
X237698Y197100D02*
D03*
X246900Y111900D02*
D03*
X314500Y128500D02*
D03*
X308000Y105200D02*
D03*
X181200Y168800D02*
D03*
X104000Y104945D02*
D03*
X167300Y157600D02*
D03*
X115715Y212540D02*
D03*
X144000Y156900D02*
D03*
X104700Y173488D02*
D03*
X109000Y178500D02*
D03*
X250100Y64547D02*
D03*
X230431Y170600D02*
D03*
X226100Y165500D02*
D03*
X227807Y145776D02*
D03*
X39100Y184700D02*
D03*
X40700Y217400D02*
D03*
X246300Y266400D02*
D03*
X34380Y60000D02*
D03*
X33637Y120000D02*
D03*
X245400Y214800D02*
D03*
X69500Y115000D02*
D03*
X37600Y231251D02*
D03*
X307157Y274900D02*
D03*
X51400Y262600D02*
D03*
X64385Y264400D02*
D03*
X57600Y263700D02*
D03*
X187800Y53900D02*
D03*
X199100Y74400D02*
D03*
X333400Y272500D02*
D03*
X213100Y166400D02*
D03*
X266300Y215700D02*
D03*
X227700Y132552D02*
D03*
X227400Y159063D02*
D03*
X243600Y106200D02*
D03*
X245400Y169700D02*
D03*
X231802Y188756D02*
D03*
X224898Y175153D02*
D03*
X245100Y182000D02*
D03*
X236000Y184500D02*
D03*
X314487Y73400D02*
D03*
X314600Y174818D02*
D03*
X283400Y214800D02*
D03*
X265500Y174303D02*
D03*
X207803Y121254D02*
D03*
X207952Y115300D02*
D03*
X209000Y127500D02*
D03*
X220700Y170278D02*
D03*
X295000Y272000D02*
D03*
X326900Y276000D02*
D03*
X310300Y238800D02*
D03*
D40*
X276787Y292677D02*
D03*
Y17086D02*
D03*
X77969Y292677D02*
D03*
Y17086D02*
D03*
D41*
X178402Y314906D02*
D03*
Y287347D02*
D03*
X109902Y314883D02*
D03*
Y287324D02*
D03*
D42*
X317000Y257500D02*
D03*
D43*
X262250Y157050D02*
D03*
D83*
X204063Y61224D02*
D03*
X207803Y50776D02*
D03*
X200323D02*
D03*
M02*
